<?xml version="1.0" encoding="UTF-8" standalone="no"?>
<svg
   xmlns:dc="http://purl.org/dc/elements/1.1/"
   xmlns:cc="http://creativecommons.org/ns#"
   xmlns:rdf="http://www.w3.org/1999/02/22-rdf-syntax-ns#"
   xmlns:svg="http://www.w3.org/2000/svg"
   xmlns="http://www.w3.org/2000/svg"
   xmlns:xlink="http://www.w3.org/1999/xlink"
   version="1.2"
   viewBox="0 0 373.89905 167.13801"
   preserveAspectRatio="xMidYMid"
   xml:space="preserve"
   id="svg720"
   width="373.89905"
   height="167.13802"
   style="fill-rule:evenodd;stroke-width:28.22200012;stroke-linejoin:round"><defs
     id="defs4927" /><metadata
     id="metadata724"><rdf:RDF><cc:Work
         rdf:about=""><dc:format>image/svg+xml</dc:format><dc:type
           rdf:resource="http://purl.org/dc/dcmitype/StillImage" /><dc:title></dc:title></cc:Work></rdf:RDF></metadata><path
     style="fill:none;stroke:#000000;stroke-width:3.59060097;stroke-linejoin:round"
     id="path253"
     d="M 19.6779,74.717873 H 1.7953005 v -35.7652 H 37.5605 v 35.7652 z" /><rect
     style="fill:none;stroke:none;stroke-width:1.98694003"
     id="rect304"
     height="37.173279"
     width="92.440376"
     y="10.650263"
     x="34.885159"
     class="BoundingBox" /><g
     transform="matrix(0.07040394,0,0,0.07040394,-91.84194,-757.3863)"
     id="g4735"><path
       d="m 1893,10918 c -42,0 -84,42 -84,84 v 340 c 0,42 42,85 84,85 h 1124 c 42,0 85,-43 85,-85 v -340 c 0,-42 -43,-84 -85,-84 z"
       id="path308"
       style="fill:#ffffff;fill-opacity:1;stroke:#000000;stroke-width:21.30562592;stroke-linejoin:round;stroke-miterlimit:4;stroke-dasharray:none" /><text
       y="6067.4644"
       x="-1877.741"
       class="TextShape"
       id="text316"><tspan
         class="TextParagraph"
         font-size="353px"
         font-weight="400"
         id="tspan314"
         style="font-weight:400;font-size:303.01333618px;font-family:'Liberation Sans', sans-serif"><tspan
           class="TextPosition"
           x="1957.259"
           y="11285.464"
           id="tspan312"
           style="font-size:303.01333618px;fill:#000000;stroke:none">Switch</tspan></tspan></text>
</g><script
     type="text/ecmascript"
     id="script718" /><path
     id="path5956"
     d="M 19.6779,74.717873 V 103.82729"
     style="fill:none;stroke:#000000;stroke-width:2;stroke-linecap:butt;stroke-linejoin:miter;stroke-miterlimit:4;stroke-dasharray:none;stroke-opacity:1" /><path
     style="fill:none;stroke:#000000;stroke-width:2;stroke-linecap:butt;stroke-linejoin:miter;stroke-miterlimit:4;stroke-dasharray:none;stroke-opacity:1"
     d="m 19.6779,9.385623 v 29.10942"
     id="path5958" /><circle
     r="4.2607985"
     cy="107.23592"
     cx="19.677896"
     id="path5960"
     style="opacity:1;fill:#ffffff;fill-opacity:1;stroke:#000000;stroke-width:2;stroke-miterlimit:4;stroke-dasharray:none;stroke-dashoffset:0;stroke-opacity:1" /><circle
     style="opacity:1;fill:#ffffff;fill-opacity:1;stroke:#000000;stroke-width:2;stroke-miterlimit:4;stroke-dasharray:none;stroke-dashoffset:0;stroke-opacity:1"
     id="circle5971"
     cx="19.677896"
     cy="5.2607985"
     r="4.2607985" /><g
     transform="translate(-26.187876,27.662613)"
     id="g6221"><g
       id="g6153"
       transform="translate(-0.62042995,-22.636627)"><rect
         style="opacity:1;fill:#ffffff;fill-opacity:1;stroke:#000000;stroke-width:2;stroke-miterlimit:4;stroke-dasharray:none;stroke-dashoffset:0;stroke-opacity:1"
         id="rect6127"
         width="67.48761"
         height="48.205433"
         x="245.446"
         y="86.704124"
         ry="0.216699" /><path
         style="fill:none;stroke:#000000;stroke-width:1px;stroke-linecap:butt;stroke-linejoin:miter;stroke-opacity:1"
         d="m 245.27998,99.128082 h 67.60467"
         id="path6129" /><use
         height="100%"
         width="100%"
         x="0"
         y="0"
         xlink:href="#path5978"
         id="use6131" /><use
         height="100%"
         width="100%"
         x="0"
         y="0"
         xlink:href="#path5978"
         transform="translate(0,9)"
         id="use6133" /><use
         height="100%"
         width="100%"
         x="0"
         y="0"
         xlink:href="#path5978"
         transform="translate(0,18)"
         id="use6135" /><use
         height="100%"
         width="100%"
         x="0"
         y="0"
         xlink:href="#path5978"
         transform="translate(0,27)"
         id="use6137" /><path
         style="fill:none;stroke:#000000;stroke-width:1px;stroke-linecap:butt;stroke-linejoin:miter;stroke-opacity:1"
         d="M 255.65955,134.48108 V 99.116455"
         id="path6139" /><use
         height="100%"
         width="100%"
         x="0"
         y="0"
         xlink:href="#path6036"
         id="use6141" /><use
         height="100%"
         width="100%"
         x="0"
         y="0"
         xlink:href="#path6036"
         transform="translate(9.5)"
         id="use6143" /><use
         height="100%"
         width="100%"
         x="0"
         y="0"
         xlink:href="#path6036"
         transform="translate(19)"
         id="use6145" /><use
         height="100%"
         width="100%"
         x="0"
         y="0"
         xlink:href="#path6036"
         transform="translate(28.5)"
         id="use6147" /><use
         height="100%"
         width="100%"
         x="0"
         y="0"
         xlink:href="#path6036"
         transform="translate(38)"
         id="use6149" /><use
         height="100%"
         width="100%"
         x="0"
         y="0"
         xlink:href="#path6036"
         transform="translate(47.5)"
         id="use6151" /></g><g
       id="g6103"
       transform="translate(-20.5,-4.625)"><rect
         ry="0.216699"
         y="86.704124"
         x="245.446"
         height="48.205433"
         width="67.48761"
         id="rect5976"
         style="opacity:1;fill:#ffffff;fill-opacity:1;stroke:#000000;stroke-width:2;stroke-miterlimit:4;stroke-dasharray:none;stroke-dashoffset:0;stroke-opacity:1" /><path
         id="path5978"
         d="m 245.27998,99.128082 h 67.60467"
         style="fill:none;stroke:#000000;stroke-width:1px;stroke-linecap:butt;stroke-linejoin:miter;stroke-opacity:1" /><use
         id="use6028"
         xlink:href="#path5978"
         y="0"
         x="0"
         width="100%"
         height="100%" /><use
         id="use6030"
         transform="translate(0,9)"
         xlink:href="#path5978"
         y="0"
         x="0"
         width="100%"
         height="100%" /><use
         id="use6032"
         transform="translate(0,18)"
         xlink:href="#path5978"
         y="0"
         x="0"
         width="100%"
         height="100%" /><use
         id="use6034"
         transform="translate(0,27)"
         xlink:href="#path5978"
         y="0"
         x="0"
         width="100%"
         height="100%" /><path
         id="path6036"
         d="M 255.65955,134.48108 V 99.116455"
         style="fill:none;stroke:#000000;stroke-width:1px;stroke-linecap:butt;stroke-linejoin:miter;stroke-opacity:1" /><use
         id="use6050"
         xlink:href="#path6036"
         y="0"
         x="0"
         width="100%"
         height="100%" /><use
         id="use6052"
         transform="translate(9.5)"
         xlink:href="#path6036"
         y="0"
         x="0"
         width="100%"
         height="100%" /><use
         id="use6054"
         transform="translate(19)"
         xlink:href="#path6036"
         y="0"
         x="0"
         width="100%"
         height="100%" /><use
         id="use6056"
         transform="translate(28.5)"
         xlink:href="#path6036"
         y="0"
         x="0"
         width="100%"
         height="100%" /><use
         id="use6058"
         transform="translate(38)"
         xlink:href="#path6036"
         y="0"
         x="0"
         width="100%"
         height="100%" /><use
         id="use6060"
         transform="translate(47.5)"
         xlink:href="#path6036"
         y="0"
         x="0"
         width="100%"
         height="100%" /></g></g><g
     transform="translate(-61.96694,25.533923)"
     id="g6191"><path
       style="opacity:1;fill:#ffffff;fill-opacity:1;stroke:#000000;stroke-width:2;stroke-miterlimit:4;stroke-dasharray:none;stroke-dashoffset:0;stroke-opacity:1"
       d="m 138.8194,66.196184 h 65.46696 c 0.12005,0 0.21669,0.09665 0.21669,0.216699 v 55.159647 c 0,0.12006 -9.58026,5.72265 -14.9234,7.00891 -8.51518,2.04988 -17.7299,-1.1068 -26.26066,0.87723 -8.80273,2.04729 -8.47848,10.94765 -24.71629,11.14543 V 66.412883 c 0,-0.120051 0.0967,-0.216699 0.2167,-0.216699 z"
       id="rect5973" /><path
       style="fill:none;stroke:#000000;stroke-width:1px;stroke-linecap:butt;stroke-linejoin:miter;stroke-opacity:1"
       d="m 146.22315,78.669888 h 49.43912"
       id="path6155" /><use
       height="100%"
       width="100%"
       x="0"
       y="0"
       xlink:href="#path6155"
       id="use6157" /><use
       height="100%"
       width="100%"
       x="0"
       y="0"
       xlink:href="#path6155"
       transform="translate(0,6)"
       id="use6159" /><use
       height="100%"
       width="100%"
       x="0"
       y="0"
       xlink:href="#path6155"
       transform="translate(0,12)"
       id="use6161" /><use
       height="100%"
       width="100%"
       x="0"
       y="0"
       xlink:href="#path6155"
       transform="translate(0,18)"
       id="use6163" /><use
       height="100%"
       width="100%"
       x="0"
       y="0"
       xlink:href="#path6155"
       transform="translate(0,24)"
       id="use6165" /><use
       height="100%"
       width="100%"
       x="0"
       y="0"
       xlink:href="#path6155"
       transform="translate(0,30)"
       id="use6167" /><use
       height="100%"
       width="100%"
       x="0"
       y="0"
       xlink:href="#path6155"
       transform="translate(0,36)"
       id="use6169" /><use
       height="100%"
       width="100%"
       x="0"
       y="0"
       xlink:href="#path6155"
       transform="translate(0,42)"
       id="use6171" /><use
       height="100%"
       width="100%"
       x="0"
       y="0"
       xlink:href="#path6155"
       transform="translate(0,48)"
       id="use6173" /><path
       style="fill:none;stroke:#000000;stroke-width:1px;stroke-linecap:butt;stroke-linejoin:miter;stroke-opacity:1"
       d="m 146.22315,132.66989 11.1965,-0.0134"
       id="path6177" /></g><g
     transform="translate(24,18)"
     id="g6361"><path
       style="fill:#ffffff;fill-opacity:1;stroke:#000000;stroke-width:1.38285697;stroke-linejoin:round;stroke-miterlimit:4;stroke-dasharray:none"
       id="path6343"
       d="m 99.513417,53.672747 c -2.513152,0 -5.026302,2.956965 -5.026302,5.913931 v 23.937339 c 0,2.956966 2.51315,5.984335 5.026302,5.984335 h 67.256653 c 2.51315,0 5.08614,-3.027369 5.08614,-5.984335 V 59.586678 c 0,-2.956966 -2.57299,-5.913931 -5.08614,-5.913931 z" /><text
       style="font-size:0.84484726px;stroke-width:1.98694003"
       id="text6349"
       class="TextShape"
       x="-165.81703"
       y="-287.82407"><tspan
         style="font-weight:400;font-size:21.33333206px;font-family:'Liberation Sans', sans-serif;stroke-width:1.98694003"
         id="tspan6347"
         font-weight="400"
         font-size="353px"
         class="TextParagraph"><tspan
           style="font-size:21.33333206px;fill:#000000;stroke:none;stroke-width:1.98694003"
           id="tspan6345"
           y="79.543648"
           x="104.18208"
           class="TextPosition">Asset</tspan></tspan></text>
</g><g
     transform="translate(24,18)"
     id="g6394"><path
       d="m 245.27388,53.672747 c -3.60585,0 -7.2117,2.956965 -7.2117,5.913931 v 23.937339 c 0,2.956966 3.60585,5.984335 7.2117,5.984335 h 96.49939 c 3.60585,0 7.29756,-3.027369 7.29756,-5.984335 V 59.586678 c 0,-2.956966 -3.69171,-5.913931 -7.29756,-5.913931 z"
       id="path6376"
       style="fill:#ffffff;fill-opacity:1;stroke:#000000;stroke-width:1.6564256;stroke-linejoin:round;stroke-miterlimit:4;stroke-dasharray:none" /><text
       y="-287.82407"
       x="-23.703438"
       class="TextShape"
       id="text6382"
       style="font-size:0.84484726px;stroke-width:1.98694003"><tspan
         class="TextParagraph"
         font-size="353px"
         font-weight="400"
         id="tspan6380"
         style="font-weight:400;font-size:21.33333206px;font-family:'Liberation Sans', sans-serif;stroke-width:1.98694003"><tspan
           class="TextPosition"
           x="246.29567"
           y="79.543648"
           id="tspan6378"
           style="font-size:21.33333206px;fill:#000000;stroke:none;stroke-width:1.98694003">Lifecycle</tspan></tspan></text>
</g><g
     transform="translate(-0.24172121,1.6920477)"
     id="g7045"><path
       d="M 38.204201,56.860677 60.921582,78.006108 69.109646,60.151241 Z"
       id="path458"
       style="fill:#000000;fill-rule:evenodd;stroke:none;stroke-width:1.98694003;stroke-linejoin:round" /><path
       style="fill:none;stroke:#000000;stroke-width:1.9993701;stroke-linecap:butt;stroke-linejoin:miter;stroke-miterlimit:4;stroke-dasharray:5.99811029, 1.9993701;stroke-dashoffset:0;stroke-opacity:1"
       d="M 63.987295,68.50042 C 92.702307,81.490545 98.171833,90.378525 98.171833,90.378525"
       id="path7041" /></g><g
     transform="rotate(180,170.95442,128.10232)"
     id="g7068"><path
       style="fill:#000000;fill-rule:evenodd;stroke:none;stroke-width:1.98694003;stroke-linejoin:round"
       id="path7058"
       d="m 142.73946,127.81047 29.34187,10.11252 0.24151,-19.64134 z" /><path
       id="path7060"
       d="m 171.42607,128.17817 c 27.14951,0 27.00584,0.0387 27.00584,0.0387"
       style="fill:none;stroke:#000000;stroke-width:1.9993701;stroke-linecap:butt;stroke-linejoin:miter;stroke-miterlimit:4;stroke-dasharray:5.99811029, 1.9993701;stroke-dashoffset:0;stroke-opacity:1" /></g></svg>
