<?xml version="1.0" encoding="UTF-8" standalone="no"?>
<svg
   xmlns:dc="http://purl.org/dc/elements/1.1/"
   xmlns:cc="http://creativecommons.org/ns#"
   xmlns:rdf="http://www.w3.org/1999/02/22-rdf-syntax-ns#"
   xmlns:svg="http://www.w3.org/2000/svg"
   xmlns="http://www.w3.org/2000/svg"
   style="fill-rule:evenodd;stroke-width:28.22200012;stroke-linejoin:round"
   height="123.95197mm"
   width="211.66667mm"
   version="1.2"
   viewBox="0 0 799.99997 468.4799"
   preserveAspectRatio="xMidYMid"
   xml:space="preserve"
   id="svg701"><defs
     id="defs108" /><metadata
     id="metadata705"><rdf:RDF><cc:Work
         rdf:about=""><dc:format>image/svg+xml</dc:format><dc:type
           rdf:resource="http://purl.org/dc/dcmitype/StillImage" /><dc:title></dc:title></cc:Work></rdf:RDF></metadata><rect
     style="opacity:1;fill:none;stroke:#000000;stroke-width:1.04960287;stroke-opacity:1"
     id="rect288"
     height="143.70583"
     width="172.04532"
     y="78.379921"
     x="19.417803"
     class="BoundingBox" /><path
     style="opacity:1;fill:none;stroke:#000000;stroke-width:1.89673829;stroke-linejoin:round;stroke-opacity:1"
     id="path290"
     d="M 20.384768,79.346883 H 190.45897 V 221.08159 H 20.384768 Z" /><text
     y="-55.590523"
     x="-94.919319"
     id="text302"
     class="TextShape"
     style="font-size:0.38817471px;opacity:1;stroke:#000000;stroke-width:0.91292226;stroke-opacity:1"><tspan
       style="font-weight:400;font-size:20.54091454px;font-family:'Liberation Sans', sans-serif;stroke:#000000;stroke-width:0.91292226;stroke-opacity:1"
       id="tspan300"
       font-weight="400"
       font-size="635px"
       class="TextParagraph"><tspan
         style="stroke:#000000;stroke-width:0.91292226;stroke-opacity:1"
         id="tspan294"
         y="111.48637"
         x="37.739407"
         class="TextPosition"><tspan
           style="fill:#000000;stroke:#000000;stroke-width:0.91292226;stroke-opacity:1"
           id="tspan292">Transmission</tspan></tspan><tspan
         style="stroke:#000000;stroke-width:0.91292226;stroke-opacity:1"
         id="tspan298"
         y="134.4857"
         x="29.361305"
         class="TextPosition"><tspan
           style="fill:#000000;stroke:#000000;stroke-width:0.91292226;stroke-opacity:1"
           id="tspan296">IEC 61970-301</tspan></tspan></tspan></text>
<rect
     style="opacity:1;fill:none;stroke:#000000;stroke-width:1.04960287;stroke-opacity:1"
     id="rect307"
     height="1.9711201"
     width="172.00813"
     y="153.95192"
     x="19.417803"
     class="BoundingBox" /><path
     style="opacity:1;fill:none;stroke:#000000;stroke-width:1.89673829;stroke-linejoin:round;stroke-opacity:1"
     id="path309"
     d="M 20.384768,154.91889 H 190.42178" /><rect
     class="BoundingBox"
     x="19.417803"
     y="231.53226"
     width="172.04532"
     height="143.70583"
     id="rect316"
     style="opacity:1;fill:none;stroke:#000000;stroke-width:1.04960287;stroke-opacity:1" /><path
     d="M 20.384768,232.49921 H 190.45897 v 141.7347 H 20.384768 Z"
     id="path318"
     style="opacity:1;fill:none;stroke:#000000;stroke-width:1.89673829;stroke-linejoin:round;stroke-opacity:1" /><text
     y="-53.188019"
     x="-105.20078"
     class="TextShape"
     id="text330"
     style="font-size:0.40976033px;opacity:1;stroke:#000000;stroke-width:0.96368796;stroke-opacity:1"><tspan
       class="TextParagraph"
       font-size="635px"
       font-weight="400"
       id="tspan328"
       style="font-weight:400;font-size:21.68314743px;font-family:'Liberation Sans', sans-serif;stroke:#000000;stroke-width:0.96368796;stroke-opacity:1"><tspan
         style="stroke:#000000;stroke-width:0.96368796;stroke-opacity:1"
         class="TextPosition"
         x="44.669056"
         y="263.79575"
         id="tspan322"><tspan
           id="tspan320"
           style="fill:#000000;stroke:#000000;stroke-width:0.96368796;stroke-opacity:1">Distribution</tspan></tspan><tspan
         style="stroke:#000000;stroke-width:0.96368796;stroke-opacity:1"
         class="TextPosition"
         x="32.034786"
         y="288.07407"
         id="tspan326"><tspan
           id="tspan324"
           style="fill:#000000;stroke:#000000;stroke-width:0.96368796;stroke-opacity:1">IEC 61968-11</tspan></tspan></tspan></text>
<rect
     class="BoundingBox"
     x="19.417803"
     y="303.38519"
     width="172.00813"
     height="1.9711201"
     id="rect335"
     style="opacity:1;fill:none;stroke:#000000;stroke-width:1.04960287;stroke-opacity:1" /><path
     d="M 20.384768,304.35212 H 190.42178"
     id="path337"
     style="opacity:1;fill:none;stroke:#000000;stroke-width:1.89673829;stroke-linejoin:round;stroke-opacity:1" /><rect
     class="BoundingBox"
     x="0.52480143"
     y="36.577297"
     width="209.79414"
     height="356.10333"
     id="rect346"
     style="opacity:1;fill:none;stroke:#000000;stroke-width:1.04960287;stroke-opacity:1" /><path
     d="M 105.40327,391.67646 H 1.491766 V 37.54426 H 209.31478 v 354.1322 z"
     id="path348"
     style="opacity:1;fill:none;stroke:#000000;stroke-width:1.89673829;stroke-linejoin:round;stroke-opacity:1" /><text
     y="-86.6735"
     x="-116.70107"
     class="TextShape"
     id="text356"
     style="font-size:0.44629139px;opacity:1;stroke:#000000;stroke-width:1.04960287;stroke-opacity:1"><tspan
       class="TextParagraph"
       font-size="635px"
       font-weight="400"
       id="tspan354"
       style="font-weight:400;font-size:23.6162529px;font-family:'Liberation Sans', sans-serif;stroke:#000000;stroke-width:1.04960287;stroke-opacity:1"><tspan
         style="stroke:#000000;stroke-width:1.04960287;stroke-opacity:1"
         class="TextPosition"
         x="80.52253"
         y="63.615116"
         id="tspan352"><tspan
           id="tspan350"
           style="fill:#000000;stroke:#000000;stroke-width:1.04960287;stroke-opacity:1">UML</tspan></tspan></tspan></text>
<rect
     style="opacity:1;fill:none;stroke:#000000;stroke-width:1.04960287;stroke-opacity:1"
     id="rect363"
     height="86.989624"
     width="238.13364"
     y="380.96548"
     x="283.91983"
     class="BoundingBox" /><path
     style="opacity:1;fill:none;stroke:#000000;stroke-width:1.89673829;stroke-linejoin:round;stroke-opacity:1"
     id="path365"
     d="M 402.96804,466.95094 H 284.88679 V 381.93243 H 521.0493 v 85.01851 z" /><text
     x="-123.48852"
     y="-88.585037"
     id="text373"
     class="TextShape"
     style="font-size:0.44629139px;opacity:1;stroke:#000000;stroke-width:1.04960287;stroke-opacity:1"><tspan
       style="font-weight:400;font-size:23.6162529px;font-family:'Liberation Sans', sans-serif;stroke:#000000;stroke-width:1.04960287;stroke-opacity:1"
       id="tspan371"
       font-weight="400"
       font-size="635px"
       class="TextParagraph"><tspan
         style="stroke:#000000;stroke-width:1.04960287;stroke-opacity:1"
         id="tspan369"
         y="430.74936"
         x="303.05444"
         class="TextPosition"><tspan
           style="fill:#000000;stroke:#000000;stroke-width:1.04960287;stroke-opacity:1"
           id="tspan367">W3C RDF Syntax</tspan></tspan></tspan></text>
<rect
     class="BoundingBox"
     x="302.81284"
     y="78.082413"
     width="200.34764"
     height="77.543129"
     id="rect378"
     style="opacity:1;fill:none;stroke:#000000;stroke-width:1.04960287;stroke-opacity:1" /><path
     d="M 402.96804,154.62136 H 303.77979 V 79.049355 H 502.1563 v 75.572005 z"
     id="path380"
     style="opacity:1;fill:none;stroke:#000000;stroke-width:1.89673829;stroke-linejoin:round;stroke-opacity:1" /><text
     transform="scale(0.94047313,1.0632946)"
     y="-70.281479"
     x="-57.678711"
     class="TextShape"
     id="text392"
     style="font-size:0.40978739px;opacity:1;stroke:#000000;stroke-width:0.96375173;stroke-opacity:1"><tspan
       class="TextParagraph"
       font-size="635px"
       font-weight="400"
       id="tspan390"
       style="font-weight:400;font-size:21.68458176px;font-family:'Liberation Sans', sans-serif;stroke:#000000;stroke-width:0.96375173;stroke-opacity:1"><tspan
         style="stroke:#000000;stroke-width:0.96375173;stroke-opacity:1"
         class="TextPosition"
         x="338.96136"
         y="105.82464"
         id="tspan384"><tspan
           id="tspan382"
           style="fill:#000000;stroke:#000000;stroke-width:0.96375173;stroke-opacity:1">Model Exchange</tspan></tspan><tspan
         style="stroke:#000000;stroke-width:0.96375173;stroke-opacity:1"
         class="TextPosition"
         x="346.78146"
         y="130.10454"
         id="tspan388"><tspan
           id="tspan386"
           style="fill:#000000;stroke:#000000;stroke-width:0.96375173;stroke-opacity:1">IEC 61970-452</tspan></tspan></tspan></text>
<rect
     class="BoundingBox"
     x="302.81284"
     y="261.58255"
     width="200.34764"
     height="77.543129"
     id="rect397"
     style="opacity:1;fill:none;stroke:#000000;stroke-width:1.04960287;stroke-opacity:1" /><path
     d="M 402.96804,338.1215 H 303.77979 V 262.54949 H 502.1563 v 75.57201 z"
     id="path399"
     style="opacity:1;fill:none;stroke:#000000;stroke-width:1.89673829;stroke-linejoin:round;stroke-opacity:1" /><text
     y="-79.375526"
     x="-124.96971"
     class="TextShape"
     id="text411"
     style="font-size:0.44629139px;opacity:1;stroke:#000000;stroke-width:1.04960287;stroke-opacity:1"><tspan
       class="TextParagraph"
       font-size="635px"
       font-weight="400"
       id="tspan409"
       style="font-weight:400;font-size:23.6162529px;font-family:'Liberation Sans', sans-serif;stroke:#000000;stroke-width:1.04960287;stroke-opacity:1"><tspan
         style="stroke:#000000;stroke-width:1.04960287;stroke-opacity:1"
         class="TextPosition"
         x="323.92505"
         y="295.91827"
         id="tspan403"><tspan
           id="tspan401"
           style="fill:#000000;stroke:#000000;stroke-width:1.04960287;stroke-opacity:1">RDF Schema</tspan></tspan><tspan
         style="stroke:#000000;stroke-width:1.04960287;stroke-opacity:1"
         class="TextPosition"
         x="315.5199"
         y="322.36105"
         id="tspan407"><tspan
           id="tspan405"
           style="fill:#000000;stroke:#000000;stroke-width:1.04960287;stroke-opacity:1">IEC 61970-501</tspan></tspan></tspan></text>
<rect
     class="BoundingBox"
     x="302.81284"
     y="168.82831"
     width="200.34764"
     height="77.543129"
     id="rect416"
     style="opacity:1;fill:none;stroke:#000000;stroke-width:1.04960287;stroke-opacity:1" /><path
     d="M 402.96804,245.36728 H 303.77979 V 169.79527 H 502.1563 v 75.57201 z"
     id="path418"
     style="opacity:1;fill:none;stroke:#000000;stroke-width:1.89673829;stroke-linejoin:round;stroke-opacity:1" /><text
     y="-50.830116"
     x="-73.401802"
     class="TextShape"
     id="text430"
     style="font-size:0.40138784px;opacity:1;stroke:#000000;stroke-width:0.94399726;stroke-opacity:1"><tspan
       class="TextParagraph"
       font-size="635px"
       font-weight="400"
       id="tspan428"
       style="font-weight:400;font-size:21.24010658px;font-family:'Liberation Sans', sans-serif;stroke:#000000;stroke-width:0.94399726;stroke-opacity:1"><tspan
         style="stroke:#000000;stroke-width:0.94399726;stroke-opacity:1"
         class="TextPosition"
         x="336.01382"
         y="203.28183"
         id="tspan422"><tspan
           id="tspan420"
           style="fill:#000000;stroke:#000000;stroke-width:0.94399726;stroke-opacity:1">XML Format</tspan></tspan><tspan
         style="stroke:#000000;stroke-width:0.94399726;stroke-opacity:1"
         class="TextPosition"
         x="313.33545"
         y="227.06409"
         id="tspan426"><tspan
           id="tspan424"
           style="fill:#000000;stroke:#000000;stroke-width:0.94399726;stroke-opacity:1">IEC 61970-552-4</tspan></tspan></tspan></text>
<g
     transform="matrix(0.03719095,0,0,0.03719095,-116.70107,-86.673502)"
     id="id16"
     style="stroke:#000000;stroke-opacity:1"><rect
       style="fill:none;stroke:#000000;stroke-opacity:1"
       id="rect435"
       height="8651"
       width="6403"
       y="3314"
       x="10772"
       class="BoundingBox" /><path
       style="fill:none;stroke:#000000;stroke-width:51;stroke-linejoin:round;stroke-opacity:1"
       id="path437"
       d="M 13973,11938 H 10798 V 3340 h 6350 v 8598 z" /><text
       id="text445"
       class="TextShape"
       style="stroke:#000000;stroke-opacity:1"><tspan
         style="font-weight:400;font-size:635px;font-family:'Liberation Sans', sans-serif;stroke:#000000;stroke-opacity:1"
         id="tspan443"
         font-weight="400"
         font-size="635px"
         class="TextParagraph"><tspan
           id="tspan441"
           y="4041"
           x="12369"
           class="TextPosition"
           style="stroke:#000000;stroke-opacity:1"><tspan
             style="fill:#000000;stroke:#000000;stroke-opacity:1"
             id="tspan439">File Format</tspan></tspan></tspan></text>
</g><path
     style="opacity:1;fill:none;stroke:#000000;stroke-width:1.89673829;stroke-linejoin:round;stroke-opacity:1"
     id="path454"
     d="m 644.15134,51.044574 c -3.16123,-18.707041 11.56638,-36.335551 26.294,-36.335551 4.64887,-0.148764 9.4465,1.673589 13.38874,4.425724 3.79348,-8.479541 10.78538,-13.6490787 18.66986,-13.6490787 5.20673,0.2603316 10.78538,2.7893172 14.72761,7.3266167 2.82651,-7.475381 8.81426,-11.86391585 15.28549,-11.86391585 5.42987,0 10.37627,3.19842055 13.5375,8.10762685 3.60752,-5.0579706 9.0374,-8.10762685 14.72761,-8.10762685 9.18617,0 16.99626,7.88448435 18.63267,18.96738885 8.92583,3.049656 15.35986,13.054022 15.35986,24.546022 0,3.495949 -0.48354,6.880323 -1.82236,10.078744 3.79347,5.615838 6.09931,12.53335 6.09931,19.599634 0,16.02929 -10.19035,29.529602 -23.24433,31.835452 0,15.32266 -10.07875,27.37253 -22.68648,27.37253 -4.31415,0 -8.40516,-1.45044 -12.04987,-4.27696 -3.30999,13.53751 -13.76065,23.05839 -25.51299,23.05839 -8.73987,0 -16.99626,-5.69022 -21.94266,-14.65323 -4.64886,3.42157 -2.23145,5.46706 -15.50863,5.46706 -10.97132,0 -21.05007,-7.06627 -26.33118,-18.55827 -12.57055,-0.26034 -19.04177,-9.37212 -19.04177,-20.86413 0,-5.318303 1.67359,-10.115934 4.64887,-14.132554 -5.42988,-3.347193 -8.40516,-10.004366 -8.40516,-17.628509 0,-10.710997 6.58281,-19.525248 15.17391,-20.715363 z" /><text
     y="-86.6735"
     x="-116.70107"
     id="text528"
     class="TextShape"
     style="font-size:0.44629139px;opacity:1;stroke:#000000;stroke-width:1.04960287;stroke-opacity:1"><tspan
       style="font-weight:400;font-size:23.6162529px;font-family:'Liberation Sans', sans-serif;stroke:#000000;stroke-width:1.04960287;stroke-opacity:1"
       id="tspan526"
       font-weight="400"
       font-size="635px"
       class="TextParagraph"><tspan
         style="stroke:#000000;stroke-width:1.04960287;stroke-opacity:1"
         id="tspan524"
         y="81.39238"
         x="658.28387"
         class="TextPosition"><tspan
           style="fill:#000000;stroke:#000000;stroke-width:1.04960287;stroke-opacity:1"
           id="tspan522">System A</tspan></tspan></tspan></text>
<path
     style="opacity:1;fill:none;stroke:#000000;stroke-width:1.89673829;stroke-linejoin:round;stroke-opacity:1"
     id="path535"
     d="m 644.15134,303.1992 c -3.16123,-18.70705 11.56638,-36.33556 26.294,-36.33556 4.64887,-0.14876 9.4465,1.6736 13.38874,4.42573 3.79348,-8.47954 10.78538,-13.64908 18.66986,-13.64908 5.20673,0.26034 10.78538,2.78932 14.72761,7.32661 2.82651,-7.47538 8.81426,-11.8639 15.28549,-11.8639 5.42987,0 10.37627,3.19842 13.5375,8.10762 3.60752,-5.05797 9.0374,-8.10762 14.72761,-8.10762 9.18617,0 16.99626,7.88447 18.63267,18.96738 8.92583,3.04965 15.35986,13.05402 15.35986,24.54602 0,3.49595 -0.48354,6.88033 -1.82236,10.07875 3.79347,5.61583 6.09931,12.53335 6.09931,19.59963 0,16.0293 -10.19035,29.52961 -23.24433,31.83545 0,15.32267 -10.07875,27.37254 -22.68648,27.37254 -4.31415,0 -8.40516,-1.45045 -12.04987,-4.27696 -3.30999,13.5375 -13.76065,23.05839 -25.51299,23.05839 -8.73987,0 -16.99626,-5.69022 -21.94266,-14.65323 -4.64886,3.42156 -2.23145,5.46706 -15.50863,5.46706 -10.97132,0 -21.05007,-7.06627 -26.33118,-18.55828 -12.57055,-0.26033 -19.04177,-9.37212 -19.04177,-20.86412 0,-5.3183 1.67359,-10.11594 4.64887,-14.13256 -5.42988,-3.34719 -8.40516,-10.00437 -8.40516,-17.62851 0,-10.71099 6.58281,-19.52525 15.17391,-20.71536 z" /><text
     y="-86.6735"
     x="-116.70107"
     id="text609"
     class="TextShape"
     style="font-size:0.44629139px;opacity:1;stroke:#000000;stroke-width:1.04960287;stroke-opacity:1"><tspan
       style="font-weight:400;font-size:23.6162529px;font-family:'Liberation Sans', sans-serif;stroke:#000000;stroke-width:1.04960287;stroke-opacity:1"
       id="tspan607"
       font-weight="400"
       font-size="635px"
       class="TextParagraph"><tspan
         style="stroke:#000000;stroke-width:1.04960287;stroke-opacity:1"
         id="tspan605"
         y="333.54703"
         x="657.57727"
         class="TextPosition"><tspan
           style="fill:#000000;stroke:#000000;stroke-width:1.04960287;stroke-opacity:1"
           id="tspan603">System B</tspan></tspan></tspan></text>
<path
     style="fill:none;stroke:#000000;stroke-width:2.34237576;stroke-linejoin:round;stroke-miterlimit:4;stroke-dasharray:none;stroke-opacity:1"
     id="path616"
     d="m 679.33398,159.64215 c -3.16123,0 -6.28528,3.12403 -6.28528,6.28526 v 25.21547 c 0,3.12404 -3.16123,6.28527 -6.28527,6.28527 3.12404,0 6.28527,3.12403 6.28527,6.28527 v 25.21546 c 0,3.16123 3.12405,6.32246 6.28528,6.32246" /><path
     style="fill:none;stroke:#000000;stroke-width:2.34237576;stroke-linejoin:round;stroke-miterlimit:4;stroke-dasharray:none;stroke-opacity:1"
     id="path622"
     d="m 758.1044,235.25134 c 3.12404,0 6.28527,-3.16123 6.28527,-6.32246 v -25.21546 c 0,-3.16124 3.16124,-6.28527 6.32246,-6.28527 -3.16122,0 -6.32246,-3.16123 -6.32246,-6.28527 v -25.21547 c 0,-3.16123 -3.16123,-6.28526 -6.28527,-6.28526" /><rect
     style="fill:none;stroke:#000000;stroke-width:1.02546799;stroke-opacity:1"
     id="rect631"
     height="110.08626"
     width="1.9711201"
     y="152.62909"
     x="715.63025"
     class="BoundingBox" /><path
     style="fill:none;stroke:#000000;stroke-width:1.8531239;stroke-linejoin:round;stroke-opacity:1"
     id="path633"
     d="m 716.59723,153.55209 v 3.55002" /><path
     style="fill:none;stroke:#000000;stroke-width:1.8531239;stroke-linejoin:round;stroke-opacity:1"
     id="path635"
     d="m 716.59723,160.68763 v 3.55003" /><path
     style="fill:none;stroke:#000000;stroke-width:1.8531239;stroke-linejoin:round;stroke-opacity:1"
     id="path637"
     d="m 716.59723,167.82319 v 3.55002" /><path
     style="fill:none;stroke:#000000;stroke-width:1.8531239;stroke-linejoin:round;stroke-opacity:1"
     id="path639"
     d="m 716.59723,174.95874 v 3.55002" /><path
     style="fill:none;stroke:#000000;stroke-width:1.8531239;stroke-linejoin:round;stroke-opacity:1"
     id="path641"
     d="m 716.59723,182.09429 v 3.55002" /><path
     style="fill:none;stroke:#000000;stroke-width:1.8531239;stroke-linejoin:round;stroke-opacity:1"
     id="path643"
     d="m 716.59723,189.22983 v 3.55003" /><path
     style="fill:none;stroke:#000000;stroke-width:1.8531239;stroke-linejoin:round;stroke-opacity:1"
     id="path645"
     d="m 716.59723,196.36538 v 3.55003" /><path
     style="fill:none;stroke:#000000;stroke-width:1.8531239;stroke-linejoin:round;stroke-opacity:1"
     id="path647"
     d="m 716.59723,203.50093 v 3.55003" /><path
     style="fill:none;stroke:#000000;stroke-width:1.8531239;stroke-linejoin:round;stroke-opacity:1"
     id="path649"
     d="m 716.59723,210.63648 v 3.55003" /><path
     style="fill:none;stroke:#000000;stroke-width:1.8531239;stroke-linejoin:round;stroke-opacity:1"
     id="path651"
     d="m 716.59723,217.73653 v 3.58552" /><path
     style="fill:none;stroke:#000000;stroke-width:1.8531239;stroke-linejoin:round;stroke-opacity:1"
     id="path653"
     d="m 716.59723,224.87208 v 3.58552" /><path
     style="fill:none;stroke:#000000;stroke-width:1.8531239;stroke-linejoin:round;stroke-opacity:1"
     id="path655"
     d="m 716.59723,232.00763 v 3.58552" /><path
     style="fill:none;stroke:#000000;stroke-width:1.8531239;stroke-linejoin:round;stroke-opacity:1"
     id="path657"
     d="m 716.59723,239.14318 v 3.58552" /><path
     style="fill:none;stroke:#000000;stroke-width:1.8531239;stroke-linejoin:round;stroke-opacity:1"
     id="path659"
     d="m 716.59723,246.27873 v 3.58552" /><path
     style="fill:none;stroke:#000000;stroke-width:1.8531239;stroke-linejoin:round;stroke-opacity:1"
     id="path661"
     d="m 716.59723,253.41427 v 3.58553" /><path
     style="fill:none;stroke:#000000;stroke-width:1.8531239;stroke-linejoin:round;stroke-opacity:1"
     id="path663"
     d="m 716.59723,260.54982 v 1.20701" /><g
     transform="matrix(0.03662996,0,0,0.03662996,-104.86801,-82.387782)"
     id="id21"
     style="stroke:#000000;stroke-width:28.2219429;stroke-miterlimit:4;stroke-dasharray:none;stroke-opacity:1"><rect
       class="BoundingBox"
       x="17122"
       y="7613"
       width="3971"
       height="53"
       id="rect668"
       style="fill:none;stroke:#000000;stroke-width:28.2219429;stroke-miterlimit:4;stroke-dasharray:none;stroke-opacity:1" /><path
       d="M 21066,7639 H 17148"
       id="path670"
       style="fill:none;stroke:#000000;stroke-width:28.2219429;stroke-linejoin:round;stroke-miterlimit:4;stroke-dasharray:none;stroke-opacity:1" /></g><rect
     style="fill:none;stroke:none;stroke-width:1.04960287;stroke-opacity:1"
     id="rect675"
     height="39.794312"
     width="39.794312"
     y="205.20105"
     x="227.24081"
     class="BoundingBox" /><path
     style="fill:#000000;stroke:none;stroke-width:1.04960287;stroke-opacity:1"
     id="path677"
     d="m 246.2082,206.16802 h 1.78517 v 18.00042 h 18.0376 v 1.78516 h -18.0376 v 18.03761 H 246.2082 V 225.9536 h -18.00042 v -1.78516 h 18.00042 z m -18.00042,0 z m 37.82319,37.82319 z" /><path
     style="fill:none;stroke:none;stroke-width:1.89673829;stroke-linejoin:round;stroke-opacity:1"
     id="path679"
     d="m 246.2082,206.16802 h 1.78517 v 18.00042 h 18.0376 v 1.78516 h -18.0376 v 18.03761 H 246.2082 V 225.9536 h -18.00042 v -1.78516 h 18.00042 z" /><g
     transform="matrix(0.03719095,0,0,0.03719095,-116.70107,-86.673502)"
     id="id23"
     style="stroke:#000000;stroke-opacity:1"><path
       d="m 13973,11938 v 662"
       id="path686"
       style="fill:none;stroke:#000000;stroke-width:51;stroke-linejoin:round;stroke-opacity:1" /></g><script
     type="text/ecmascript"
     id="script699" /></svg>