<?xml version="1.0" encoding="UTF-8" standalone="no"?>
<svg
   xmlns:ooo="http://xml.openoffice.org/svg/export"
   xmlns:dc="http://purl.org/dc/elements/1.1/"
   xmlns:cc="http://creativecommons.org/ns#"
   xmlns:rdf="http://www.w3.org/1999/02/22-rdf-syntax-ns#"
   xmlns:svg="http://www.w3.org/2000/svg"
   xmlns="http://www.w3.org/2000/svg"
   width="218.75201mm"
   height="167.67686mm"
   viewBox="0 0 218.75201 167.67686"
   version="1.1"
   id="svg4973">
  <defs
     id="defs4967">
    <clipPath
       clipPathUnits="userSpaceOnUse"
       id="presentation_clip_path">
      <rect
         id="rect6063"
         height="21000"
         width="28000"
         y="0"
         x="0" />
    </clipPath>
  </defs>
  <metadata
     id="metadata4970">
    <rdf:RDF>
      <cc:Work
         rdf:about="">
        <dc:format>image/svg+xml</dc:format>
        <dc:type
           rdf:resource="http://purl.org/dc/dcmitype/StillImage" />
        <dc:title></dc:title>
      </cc:Work>
    </rdf:RDF>
  </metadata>
  <g
     id="layer1"
     transform="translate(-1.3665625e-8,-129.32314)">
    <g
       transform="matrix(0.01058333,0,0,0.01058333,-61.327814,81.436151)"
       id="g6355"
       class="SlideGroup"
       style="fill-rule:evenodd;stroke-width:94.4881897;stroke-linejoin:round;stroke-miterlimit:4;stroke-dasharray:none">
      <g
         style="stroke-width:94.4881897;stroke-miterlimit:4;stroke-dasharray:none"
         id="g6353">
        <g
           id="container-id1"
           style="stroke-width:94.4881897;stroke-miterlimit:4;stroke-dasharray:none">
          <g
             clip-path="url(#presentation_clip_path)"
             class="Slide"
             id="id1"
             style="stroke-width:94.4881897;stroke-miterlimit:4;stroke-dasharray:none">
            <g
               id="g6349"
               class="Page"
               ooo:name="page1"
               style="stroke-width:94.4881897;stroke-miterlimit:4;stroke-dasharray:none">
              <g
                 id="g6347"
                 class="com.sun.star.drawing.CustomShape"
                 style="stroke-width:94.4881897;stroke-miterlimit:4;stroke-dasharray:none">
                <g
                   id="id6"
                   style="stroke-width:94.4881897;stroke-miterlimit:4;stroke-dasharray:none">
                  <path
                     style="fill:none;stroke:#000000;stroke-width:94.4881897;stroke-miterlimit:4;stroke-dasharray:none"
                     id="path6274"
                     d="m 7680,9792 c -381,-1947 1400,-3784 3181,-3784 562,-15 1143,175 1620,459 457,-882 1305,-1422 2257,-1422 633,30 1305,292 1782,766 342,-780 1066,-1239 1847,-1239 658,0 1258,335 1639,845 438,-525 1095,-845 1781,-845 1115,0 2058,823 2258,1975 1076,321 1857,1364 1857,2560 0,364 -57,714 -219,1050 457,583 734,1305 734,2041 0,1670 -1229,3077 -2811,3318 0,1596 -1219,2850 -2743,2850 -524,0 -1019,-153 -1457,-444 -400,1407 -1667,2399 -3086,2399 -1058,0 -2058,-591 -2658,-1524 -562,357 -267,568 -1877,568 -1324,0 -2543,-736 -3181,-1932 -1524,-29 -2305,-977 -2305,-2173 0,-554 200,-1057 562,-1472 -658,-350 -1019,-1043 -1019,-1838 0,-1115 800,-2034 1838,-2158 z" />
                  <path
                     style="fill:none;stroke:#000000;stroke-width:94.4881897;stroke-miterlimit:4;stroke-dasharray:none"
                     id="path6280"
                     d="m 7680,9792 c 19,182 105,386 152,554" />
                  <path
                     style="fill:none;stroke:#000000;stroke-width:94.4881897;stroke-miterlimit:4;stroke-dasharray:none"
                     id="path6286"
                     d="m 12481,6467 c 219,139 486,328 667,518" />
                  <path
                     style="fill:none;stroke:#000000;stroke-width:94.4881897;stroke-miterlimit:4;stroke-dasharray:none"
                     id="path6292"
                     d="m 16520,5811 c -77,153 -124,335 -172,510" />
                  <path
                     style="fill:none;stroke:#000000;stroke-width:94.4881897;stroke-miterlimit:4;stroke-dasharray:none"
                     id="path6298"
                     d="m 20006,5417 c -143,175 -219,409 -314,620" />
                  <path
                     style="fill:none;stroke:#000000;stroke-width:94.4881897;stroke-miterlimit:4;stroke-dasharray:none"
                     id="path6304"
                     d="m 24045,6547 c 19,132 114,423 76,489" />
                  <path
                     style="fill:none;stroke:#000000;stroke-width:94.4881897;stroke-miterlimit:4;stroke-dasharray:none"
                     id="path6310"
                     d="m 25683,10157 c -162,371 -381,700 -686,969" />
                  <path
                     style="fill:none;stroke:#000000;stroke-width:94.4881897;stroke-miterlimit:4;stroke-dasharray:none"
                     id="path6316"
                     d="m 23616,15516 c 76,-591 -362,-2049 -1581,-2596" />
                  <path
                     style="fill:none;stroke:#000000;stroke-width:94.4881897;stroke-miterlimit:4;stroke-dasharray:none"
                     id="path6322"
                     d="m 19406,17922 c 76,-241 105,-460 124,-693" />
                  <path
                     style="fill:none;stroke:#000000;stroke-width:94.4881897;stroke-miterlimit:4;stroke-dasharray:none"
                     id="path6328"
                     d="m 13671,18797 c -152,-190 -247,-409 -342,-635" />
                  <path
                     style="fill:none;stroke:#000000;stroke-width:94.4881897;stroke-miterlimit:4;stroke-dasharray:none"
                     id="path6334"
                     d="m 8604,17433 c 181,-29 362,-73 533,-138" />
                  <path
                     style="fill:none;stroke:#000000;stroke-width:94.4881897;stroke-miterlimit:4;stroke-dasharray:none"
                     id="path6340"
                     d="m 6861,13788 c 314,189 676,357 1200,291" />
                </g>
              </g>
            </g>
          </g>
        </g>
      </g>
    </g>
  </g>
</svg>
