<?xml version="1.0" encoding="UTF-8" standalone="no"?>
<svg
   xmlns:dc="http://purl.org/dc/elements/1.1/"
   xmlns:cc="http://creativecommons.org/ns#"
   xmlns:rdf="http://www.w3.org/1999/02/22-rdf-syntax-ns#"
   xmlns:svg="http://www.w3.org/2000/svg"
   xmlns="http://www.w3.org/2000/svg"
   id="svg4812"
   version="1.1"
   viewBox="0 0 172.56982 110.1943"
   height="110.1943mm"
   width="172.56982mm">
  <defs
     id="defs4806" />
  <metadata
     id="metadata4809">
    <rdf:RDF>
      <cc:Work
         rdf:about="">
        <dc:format>image/svg+xml</dc:format>
        <dc:type
           rdf:resource="http://purl.org/dc/dcmitype/StillImage" />
        <dc:title></dc:title>
      </cc:Work>
    </rdf:RDF>
  </metadata>
  <g
     transform="translate(-11.988899,-177.6469)"
     id="layer1">
    <g
       id="g4528"
       transform="matrix(0.99251781,0.21622653,-0.51521125,0.34551485,71.397969,144.4951)"
       style="stroke-width:1.4835881;stroke-miterlimit:4;stroke-dasharray:none">
      <path
         id="rect4526"
         d="m 152.45978,83.439333 3.71921,-0.0336 V 155.47017 H 21.973747 V 83.405733 L 111.60253,83.6611"
         style="opacity:1;fill:none;fill-opacity:1;stroke:#000000;stroke-width:1.4835881;stroke-linecap:butt;stroke-miterlimit:4;stroke-dasharray:none;stroke-dashoffset:0;stroke-opacity:1" />
    </g>
    <path
       id="path4535"
       d="m 12.592838,203.01043 -0.0468,4.81317 133.349882,29.66705"
       style="fill:none;stroke:#000000;stroke-width:1;stroke-linecap:butt;stroke-linejoin:miter;stroke-miterlimit:4;stroke-dasharray:none;stroke-opacity:1" />
    <path
       id="path4546"
       d="m 50.657276,215.95869 v 39.84989 l -32.431121,-8.11064 v -38.66153"
       style="fill:none;stroke:#000000;stroke-width:1;stroke-linecap:butt;stroke-linejoin:miter;stroke-miterlimit:4;stroke-dasharray:none;stroke-opacity:1" />
    <path
       id="path4554"
       d="m 108.28059,229.42908 v 40.31761 l 33.67596,7.85772 -0.0947,-40.80365"
       style="fill:none;stroke:#000000;stroke-width:1;stroke-linecap:butt;stroke-linejoin:miter;stroke-miterlimit:4;stroke-dasharray:none;stroke-opacity:1" />
    <path
       id="path4556"
       d="m 146.30842,231.9824 -0.05,5.09899 37.75532,-25.33551 -0.0165,-4.73486"
       style="fill:none;stroke:#000000;stroke-width:1;stroke-linecap:butt;stroke-linejoin:miter;stroke-miterlimit:4;stroke-dasharray:none;stroke-opacity:1" />
    <path
       id="path4560"
       d="m 141.95655,277.60441 40.03698,-29.93419 v -34.23723"
       style="fill:none;stroke:#000000;stroke-width:1;stroke-linecap:butt;stroke-linejoin:miter;stroke-miterlimit:4;stroke-dasharray:none;stroke-opacity:1" />
    <path
       id="path4562"
       d="M 50.657276,255.80858 87.981465,224.84541"
       style="fill:none;stroke:#000000;stroke-width:1;stroke-linecap:butt;stroke-linejoin:miter;stroke-miterlimit:4;stroke-dasharray:none;stroke-opacity:1" />
    <g
       id="g4635"
       transform="translate(115.01578,119.51775)">
      <path
         style="fill:none;stroke:#000000;stroke-width:0.5;stroke-linecap:butt;stroke-linejoin:miter;stroke-miterlimit:4;stroke-dasharray:none;stroke-opacity:1"
         d="m -93.133332,125.94687 25.929166,6.35 v -17.0987 l -25.929166,-6.04501 z"
         id="path4564" />
      <path
         id="path4568"
         d="m -93.133332,106.79765 25.929166,6.35 V 96.048951 l -25.929166,-5.78776 z"
         style="fill:none;stroke:#000000;stroke-width:0.5;stroke-linecap:butt;stroke-linejoin:miter;stroke-miterlimit:4;stroke-dasharray:none;stroke-opacity:1" />
      <g
         id="g4611"
         transform="translate(2.9104167,-0.26458333)">
        <ellipse
           ry="0.82682288"
           rx="0.52916664"
           cy="115.26432"
           cx="-87.709373"
           id="path4576"
           style="opacity:1;fill:none;fill-opacity:1;stroke:#000000;stroke-width:0.5;stroke-linecap:round;stroke-miterlimit:4;stroke-dasharray:none;stroke-dashoffset:0;stroke-opacity:1" />
        <ellipse
           style="opacity:1;fill:none;fill-opacity:1;stroke:#000000;stroke-width:0.5;stroke-linecap:round;stroke-miterlimit:4;stroke-dasharray:none;stroke-dashoffset:0;stroke-opacity:1"
           id="ellipse4578"
           cx="-80.830208"
           cy="116.8849"
           rx="0.52916664"
           ry="0.82682288" />
        <path
           id="path4584"
           d="m -80.895522,117.57953 c 0,2.19935 -2.480469,1.35599 -2.480469,1.35599 l -3.175,-0.7276 c 0,0 -1.308,-0.075 -1.223698,-2.2655"
           style="fill:none;stroke:#000000;stroke-width:0.5;stroke-linecap:butt;stroke-linejoin:miter;stroke-miterlimit:4;stroke-dasharray:none;stroke-opacity:1" />
        <path
           id="path4586"
           d="m -82.624415,119.11733 c -0.06714,0.30495 -1.080304,0.34116 -2.26299,0.0809 -1.182687,-0.26029 -2.087044,-0.7185 -2.019952,-1.02346 0.0671,-0.30497 1.080279,-0.34119 2.262995,-0.0809 1.182715,0.26029 2.087082,0.71852 2.019947,1.02348 z"
           style="fill:#000000;fill-opacity:1;stroke:#000000;stroke-width:0.26458332px;stroke-linecap:butt;stroke-linejoin:miter;stroke-opacity:1" />
      </g>
      <g
         transform="translate(2.9104167,-21.431251)"
         id="g4621">
        <ellipse
           style="opacity:1;fill:none;fill-opacity:1;stroke:#000000;stroke-width:0.5;stroke-linecap:round;stroke-miterlimit:4;stroke-dasharray:none;stroke-dashoffset:0;stroke-opacity:1"
           id="ellipse4613"
           cx="-87.709373"
           cy="115.26432"
           rx="0.52916664"
           ry="0.82682288" />
        <ellipse
           ry="0.82682288"
           rx="0.52916664"
           cy="116.8849"
           cx="-80.830208"
           id="ellipse4615"
           style="opacity:1;fill:none;fill-opacity:1;stroke:#000000;stroke-width:0.5;stroke-linecap:round;stroke-miterlimit:4;stroke-dasharray:none;stroke-dashoffset:0;stroke-opacity:1" />
        <path
           style="fill:none;stroke:#000000;stroke-width:0.5;stroke-linecap:butt;stroke-linejoin:miter;stroke-miterlimit:4;stroke-dasharray:none;stroke-opacity:1"
           d="m -80.895522,117.57953 c 0,2.19935 -2.480469,1.35599 -2.480469,1.35599 l -3.175,-0.7276 c 0,0 -1.308,-0.075 -1.223698,-2.2655"
           id="path4617" />
        <path
           style="fill:#000000;fill-opacity:1;stroke:#000000;stroke-width:0.26458332px;stroke-linecap:butt;stroke-linejoin:miter;stroke-opacity:1"
           d="m -82.624415,119.11733 c -0.06714,0.30495 -1.080304,0.34116 -2.26299,0.0809 -1.182687,-0.26029 -2.087044,-0.7185 -2.019952,-1.02346 0.0671,-0.30497 1.080279,-0.34119 2.262995,-0.0809 1.182715,0.26029 2.087082,0.71852 2.019947,1.02348 z"
           id="path4619" />
      </g>
    </g>
    <g
       transform="translate(205.2387,140.15525)"
       id="g4661">
      <path
         id="path4637"
         d="m -93.133332,125.94687 25.929166,6.35 v -17.0987 l -25.929166,-6.04501 z"
         style="fill:none;stroke:#000000;stroke-width:0.5;stroke-linecap:butt;stroke-linejoin:miter;stroke-miterlimit:4;stroke-dasharray:none;stroke-opacity:1" />
      <path
         style="fill:none;stroke:#000000;stroke-width:0.5;stroke-linecap:butt;stroke-linejoin:miter;stroke-miterlimit:4;stroke-dasharray:none;stroke-opacity:1"
         d="m -93.133332,106.79765 25.929166,6.35 V 96.048951 l -25.929166,-5.78776 z"
         id="path4639" />
      <g
         transform="translate(2.9104167,-0.26458333)"
         id="g4649">
        <ellipse
           style="opacity:1;fill:none;fill-opacity:1;stroke:#000000;stroke-width:0.5;stroke-linecap:round;stroke-miterlimit:4;stroke-dasharray:none;stroke-dashoffset:0;stroke-opacity:1"
           id="ellipse4641"
           cx="-87.709373"
           cy="115.26432"
           rx="0.52916664"
           ry="0.82682288" />
        <ellipse
           ry="0.82682288"
           rx="0.52916664"
           cy="116.8849"
           cx="-80.830208"
           id="ellipse4643"
           style="opacity:1;fill:none;fill-opacity:1;stroke:#000000;stroke-width:0.5;stroke-linecap:round;stroke-miterlimit:4;stroke-dasharray:none;stroke-dashoffset:0;stroke-opacity:1" />
        <path
           style="fill:none;stroke:#000000;stroke-width:0.5;stroke-linecap:butt;stroke-linejoin:miter;stroke-miterlimit:4;stroke-dasharray:none;stroke-opacity:1"
           d="m -80.895522,117.57953 c 0,2.19935 -2.480469,1.35599 -2.480469,1.35599 l -3.175,-0.7276 c 0,0 -1.308,-0.075 -1.223698,-2.2655"
           id="path4645" />
        <path
           style="fill:#000000;fill-opacity:1;stroke:#000000;stroke-width:0.26458332px;stroke-linecap:butt;stroke-linejoin:miter;stroke-opacity:1"
           d="m -82.624415,119.11733 c -0.06714,0.30495 -1.080304,0.34116 -2.26299,0.0809 -1.182687,-0.26029 -2.087044,-0.7185 -2.019952,-1.02346 0.0671,-0.30497 1.080279,-0.34119 2.262995,-0.0809 1.182715,0.26029 2.087082,0.71852 2.019947,1.02348 z"
           id="path4647" />
      </g>
      <g
         id="g4659"
         transform="translate(2.9104167,-21.431251)">
        <ellipse
           ry="0.82682288"
           rx="0.52916664"
           cy="115.26432"
           cx="-87.709373"
           id="ellipse4651"
           style="opacity:1;fill:none;fill-opacity:1;stroke:#000000;stroke-width:0.5;stroke-linecap:round;stroke-miterlimit:4;stroke-dasharray:none;stroke-dashoffset:0;stroke-opacity:1" />
        <ellipse
           style="opacity:1;fill:none;fill-opacity:1;stroke:#000000;stroke-width:0.5;stroke-linecap:round;stroke-miterlimit:4;stroke-dasharray:none;stroke-dashoffset:0;stroke-opacity:1"
           id="ellipse4653"
           cx="-80.830208"
           cy="116.8849"
           rx="0.52916664"
           ry="0.82682288" />
        <path
           id="path4655"
           d="m -80.895522,117.57953 c 0,2.19935 -2.480469,1.35599 -2.480469,1.35599 l -3.175,-0.7276 c 0,0 -1.308,-0.075 -1.223698,-2.2655"
           style="fill:none;stroke:#000000;stroke-width:0.5;stroke-linecap:butt;stroke-linejoin:miter;stroke-miterlimit:4;stroke-dasharray:none;stroke-opacity:1" />
        <path
           id="path4657"
           d="m -82.624415,119.11733 c -0.06714,0.30495 -1.080304,0.34116 -2.26299,0.0809 -1.182687,-0.26029 -2.087044,-0.7185 -2.019952,-1.02346 0.0671,-0.30497 1.080279,-0.34119 2.262995,-0.0809 1.182715,0.26029 2.087082,0.71852 2.019947,1.02348 z"
           style="fill:#000000;fill-opacity:1;stroke:#000000;stroke-width:0.26458332px;stroke-linecap:butt;stroke-linejoin:miter;stroke-opacity:1" />
      </g>
    </g>
    <path
       id="path4663"
       d="m 135.96971,276.1077 1.12253,9.63507 c 1.82412,2.22168 4.67722,1.80072 6.01022,0.70158 l 1.75396,-11.085"
       style="fill:none;stroke:#000000;stroke-width:1;stroke-linecap:butt;stroke-linejoin:miter;stroke-miterlimit:4;stroke-dasharray:none;stroke-opacity:1" />
    <path
       style="fill:none;stroke:#000000;stroke-width:1;stroke-linecap:butt;stroke-linejoin:miter;stroke-miterlimit:4;stroke-dasharray:none;stroke-opacity:1"
       d="m 21.264809,248.597 1.262849,10.68744 c 1.824115,2.22168 4.677217,1.80072 6.010224,0.70158 l 1.473322,-9.37782"
       id="path4665" />
    <path
       style="fill:none;stroke:#000000;stroke-width:1;stroke-linecap:butt;stroke-linejoin:miter;stroke-miterlimit:4;stroke-dasharray:none;stroke-opacity:1"
       d="m 170.03481,256.85926 0.39493,3.54965 c 1.82413,2.22168 4.67723,1.80072 6.01023,0.70158 l 1.55552,-10.55583"
       id="path4667" />
    <g
       transform="translate(106.70931,153.06441)"
       id="g4738">
      <path
         style="fill:none;stroke:#000000;stroke-width:0.5;stroke-linecap:butt;stroke-linejoin:miter;stroke-miterlimit:4;stroke-dasharray:none;stroke-opacity:1"
         d="m 50.132365,67.116693 3.175,-9.128126 c 6.570486,-4.101042 12.414651,-7.735162 19.711458,-12.303125 v 7.540625 z"
         id="path4669" />
      <path
         style="fill:none;stroke:#000000;stroke-width:0.5;stroke-linecap:butt;stroke-linejoin:miter;stroke-miterlimit:4;stroke-dasharray:none;stroke-opacity:1"
         d="M 49.801636,67.414353 29.627158,63.445598"
         id="path4671" />
      <path
         style="fill:none;stroke:#000000;stroke-width:1.88976383;stroke-linecap:butt;stroke-linejoin:miter;stroke-miterlimit:4;stroke-dasharray:none;stroke-opacity:1"
         d="m 167.39253,205.79415 -54.16587,32.87524 v 0 l 12,-34.50001 8.12683,-5.07245"
         id="path4704"
         transform="scale(0.26458333)" />
      <path
         style="fill:none;stroke:#000000;stroke-width:1.88976383;stroke-linecap:butt;stroke-linejoin:miter;stroke-miterlimit:4;stroke-dasharray:none;stroke-opacity:1"
         d="m 257.08811,167.73127 19.70105,3.87562"
         id="path4711"
         transform="scale(0.26458333)" />
      <path
         id="path4683"
         d="m 50.132365,55.236562 3.175,-9.128126 19.711458,-12.303125 v 7.540625 z"
         style="fill:none;stroke:#000000;stroke-width:0.5;stroke-linecap:butt;stroke-linejoin:miter;stroke-miterlimit:4;stroke-dasharray:none;stroke-opacity:1" />
      <path
         id="path4685"
         d="M 49.801636,55.534222 29.627158,51.565467"
         style="fill:none;stroke:#000000;stroke-width:0.5;stroke-linecap:butt;stroke-linejoin:miter;stroke-miterlimit:4;stroke-dasharray:none;stroke-opacity:1" />
      <path
         style="fill:none;stroke:#000000;stroke-width:0.5;stroke-linecap:butt;stroke-linejoin:miter;stroke-miterlimit:4;stroke-dasharray:none;stroke-opacity:1"
         d="m 29.957886,51.267811 3.175,-9.128126 19.711459,-12.303125 v 7.540625 z"
         id="path4687" />
      <path
         id="path4689"
         d="m 53.059319,29.555441 20.174479,3.96875"
         style="fill:none;stroke:#000000;stroke-width:0.5;stroke-linecap:butt;stroke-linejoin:miter;stroke-miterlimit:4;stroke-dasharray:none;stroke-opacity:1" />
      <path
         style="fill:none;stroke:#000000;stroke-width:0.5;stroke-linecap:butt;stroke-linejoin:miter;stroke-miterlimit:4;stroke-dasharray:none;stroke-opacity:1"
         d="m 52.844345,37.377184 10.71903,2.282352"
         id="path4713" />
      <path
         style="fill:none;stroke:#000000;stroke-width:1.88976383;stroke-linecap:butt;stroke-linejoin:miter;stroke-miterlimit:4;stroke-dasharray:none;stroke-opacity:1"
         d="m 222.88441,188.64425 20.50447,4.36592"
         id="path4715"
         transform="scale(0.26458333)" />
      <path
         style="fill:none;stroke:#000000;stroke-width:0.75;stroke-linecap:butt;stroke-linejoin:miter;stroke-miterlimit:4;stroke-dasharray:none;stroke-opacity:1"
         d="m 57.679166,50.570027 v 4.66695"
         id="path4722" />
      <path
         id="path4724"
         d="m 68.021228,44.378898 v 4.39801"
         style="fill:none;stroke:#000000;stroke-width:0.75;stroke-linecap:butt;stroke-linejoin:miter;stroke-miterlimit:4;stroke-dasharray:none;stroke-opacity:1" />
    </g>
  </g>
</svg>
