<?xml version="1.0" encoding="UTF-8" standalone="no"?>
<svg
   xmlns:dc="http://purl.org/dc/elements/1.1/"
   xmlns:cc="http://creativecommons.org/ns#"
   xmlns:rdf="http://www.w3.org/1999/02/22-rdf-syntax-ns#"
   xmlns:svg="http://www.w3.org/2000/svg"
   xmlns="http://www.w3.org/2000/svg"
   id="svg4515"
   version="1.1"
   viewBox="0 0 188.46934 129.75931"
   height="129.75931mm"
   width="188.46935mm">
  <defs
     id="defs4509">
    <marker
       style="overflow:visible"
       id="marker10689"
       refX="0.0"
       refY="0.0"
       orient="auto">
      <path
         transform="scale(-0.2)"
         style="fill-rule:evenodd;stroke:#000000;stroke-width:1pt;stroke-opacity:1;fill:#000000;fill-opacity:1"
         d="M 5.77,0.0 L -2.88,5.0 L -2.88,-5.0 L 5.77,0.0 z "
         id="path10687" />
    </marker>
    <marker
       style="overflow:visible"
       id="TriangleOutS"
       refX="0.0"
       refY="0.0"
       orient="auto">
      <path
         transform="scale(0.2)"
         style="fill-rule:evenodd;stroke:#000000;stroke-width:1pt;stroke-opacity:1;fill:#000000;fill-opacity:1"
         d="M 5.77,0.0 L -2.88,5.0 L -2.88,-5.0 L 5.77,0.0 z "
         id="path6143" />
    </marker>
    <marker
       style="overflow:visible"
       id="TriangleInS"
       refX="0.0"
       refY="0.0"
       orient="auto">
      <path
         transform="scale(-0.2)"
         style="fill-rule:evenodd;stroke:#000000;stroke-width:1pt;stroke-opacity:1;fill:#000000;fill-opacity:1"
         d="M 5.77,0.0 L -2.88,5.0 L -2.88,-5.0 L 5.77,0.0 z "
         id="path6134" />
    </marker>
    <marker
       style="overflow:visible"
       id="marker9571"
       refX="0"
       refY="0"
       orient="auto">
      <path
         transform="matrix(-0.4,0,0,-0.4,-4,0)"
         style="fill:#000000;fill-opacity:1;fill-rule:evenodd;stroke:#000000;stroke-width:1.00000003pt;stroke-opacity:1"
         d="M 0,0 5,-5 -12.5,0 5,5 Z"
         id="path9569" />
    </marker>
    <marker
       style="overflow:visible"
       id="Arrow1Mstart"
       refX="0"
       refY="0"
       orient="auto">
      <path
         transform="matrix(0.4,0,0,0.4,4,0)"
         style="fill:#000000;fill-opacity:1;fill-rule:evenodd;stroke:#000000;stroke-width:1.00000003pt;stroke-opacity:1"
         d="M 0,0 5,-5 -12.5,0 5,5 Z"
         id="path6001" />
    </marker>
    <marker
       style="overflow:visible"
       id="marker9283"
       refX="0"
       refY="0"
       orient="auto">
      <path
         transform="matrix(-0.8,0,0,-0.8,-10,0)"
         style="fill:#000000;fill-opacity:1;fill-rule:evenodd;stroke:#000000;stroke-width:1.00000003pt;stroke-opacity:1"
         d="M 0,0 5,-5 -12.5,0 5,5 Z"
         id="path9281" />
    </marker>
    <marker
       style="overflow:visible"
       id="marker9183"
       refX="0"
       refY="0"
       orient="auto">
      <path
         transform="matrix(0.8,0,0,0.8,10,0)"
         style="fill:#000000;fill-opacity:1;fill-rule:evenodd;stroke:#000000;stroke-width:1.00000003pt;stroke-opacity:1"
         d="M 0,0 5,-5 -12.5,0 5,5 Z"
         id="path9181" />
    </marker>
    <marker
       style="overflow:visible"
       id="marker8123"
       refX="0"
       refY="0"
       orient="auto">
      <path
         transform="matrix(0.2,0,0,0.2,1.48,0.2)"
         style="fill:#000000;fill-opacity:1;fill-rule:evenodd;stroke:#000000;stroke-width:1.00000003pt;stroke-opacity:1"
         d="m -2.5,-1 c 0,2.76 -2.24,5 -5,5 -2.76,0 -5,-2.24 -5,-5 0,-2.76 2.24,-5 5,-5 2.76,0 5,2.24 5,5 z"
         id="path8121" />
    </marker>
    <marker
       orient="auto"
       refY="0"
       refX="0"
       id="marker7999"
       style="overflow:visible">
      <path
         id="path7997"
         d="m -2.5,-1 c 0,2.76 -2.24,5 -5,5 -2.76,0 -5,-2.24 -5,-5 0,-2.76 2.24,-5 5,-5 2.76,0 5,2.24 5,5 z"
         style="fill:#000000;fill-opacity:1;fill-rule:evenodd;stroke:#000000;stroke-width:1.00000003pt;stroke-opacity:1"
         transform="matrix(0.2,0,0,0.2,1.48,0.2)" />
    </marker>
    <marker
       style="overflow:visible"
       id="marker7863"
       refX="0"
       refY="0"
       orient="auto">
      <path
         transform="matrix(0.2,0,0,0.2,1.48,0.2)"
         style="fill:#000000;fill-opacity:1;fill-rule:evenodd;stroke:#000000;stroke-width:1.00000003pt;stroke-opacity:1"
         d="m -2.5,-1 c 0,2.76 -2.24,5 -5,5 -2.76,0 -5,-2.24 -5,-5 0,-2.76 2.24,-5 5,-5 2.76,0 5,2.24 5,5 z"
         id="path7861" />
    </marker>
    <marker
       orient="auto"
       refY="0"
       refX="0"
       id="marker7781"
       style="overflow:visible">
      <path
         id="path7779"
         d="m -2.5,-1 c 0,2.76 -2.24,5 -5,5 -2.76,0 -5,-2.24 -5,-5 0,-2.76 2.24,-5 5,-5 2.76,0 5,2.24 5,5 z"
         style="fill:#000000;fill-opacity:1;fill-rule:evenodd;stroke:#000000;stroke-width:1.00000003pt;stroke-opacity:1"
         transform="matrix(0.2,0,0,0.2,1.48,0.2)" />
    </marker>
    <marker
       orient="auto"
       refY="0"
       refX="0"
       id="marker7705"
       style="overflow:visible">
      <path
         id="path7703"
         d="m -2.5,-1 c 0,2.76 -2.24,5 -5,5 -2.76,0 -5,-2.24 -5,-5 0,-2.76 2.24,-5 5,-5 2.76,0 5,2.24 5,5 z"
         style="fill:#000000;fill-opacity:1;fill-rule:evenodd;stroke:#000000;stroke-width:1.00000003pt;stroke-opacity:1"
         transform="matrix(0.2,0,0,0.2,1.48,0.2)" />
    </marker>
    <marker
       orient="auto"
       refY="0"
       refX="0"
       id="marker7627"
       style="overflow:visible">
      <path
         id="path7625"
         d="m -2.5,-1 c 0,2.76 -2.24,5 -5,5 -2.76,0 -5,-2.24 -5,-5 0,-2.76 2.24,-5 5,-5 2.76,0 5,2.24 5,5 z"
         style="fill:#000000;fill-opacity:1;fill-rule:evenodd;stroke:#000000;stroke-width:1.00000003pt;stroke-opacity:1"
         transform="matrix(0.2,0,0,0.2,1.48,0.2)" />
    </marker>
    <marker
       style="overflow:visible"
       id="Arrow1Mend"
       refX="0"
       refY="0"
       orient="auto">
      <path
         transform="matrix(-0.4,0,0,-0.4,-4,0)"
         style="fill:#000000;fill-opacity:1;fill-rule:evenodd;stroke:#000000;stroke-width:1.00000003pt;stroke-opacity:1"
         d="M 0,0 5,-5 -12.5,0 5,5 Z"
         id="path6004" />
    </marker>
    <marker
       orient="auto"
       refY="0"
       refX="0"
       id="marker6429"
       style="overflow:visible">
      <path
         id="path6427"
         d="m -2.5,-1 c 0,2.76 -2.24,5 -5,5 -2.76,0 -5,-2.24 -5,-5 0,-2.76 2.24,-5 5,-5 2.76,0 5,2.24 5,5 z"
         style="fill:#000000;fill-opacity:1;fill-rule:evenodd;stroke:#000000;stroke-width:1.00000003pt;stroke-opacity:1"
         transform="matrix(0.2,0,0,0.2,1.48,0.2)" />
    </marker>
    <marker
       style="overflow:visible"
       id="DotS"
       refX="0"
       refY="0"
       orient="auto">
      <path
         transform="matrix(0.2,0,0,0.2,1.48,0.2)"
         style="fill:#000000;fill-opacity:1;fill-rule:evenodd;stroke:#000000;stroke-width:1.00000003pt;stroke-opacity:1"
         d="m -2.5,-1 c 0,2.76 -2.24,5 -5,5 -2.76,0 -5,-2.24 -5,-5 0,-2.76 2.24,-5 5,-5 2.76,0 5,2.24 5,5 z"
         id="path6062" />
    </marker>
    <marker
       style="overflow:visible"
       id="DotL"
       refX="0"
       refY="0"
       orient="auto">
      <path
         transform="matrix(0.8,0,0,0.8,5.92,0.8)"
         style="fill:#000000;fill-opacity:1;fill-rule:evenodd;stroke:#000000;stroke-width:1.00000003pt;stroke-opacity:1"
         d="m -2.5,-1 c 0,2.76 -2.24,5 -5,5 -2.76,0 -5,-2.24 -5,-5 0,-2.76 2.24,-5 5,-5 2.76,0 5,2.24 5,5 z"
         id="path6056" />
    </marker>
    <marker
       style="overflow:visible"
       id="Arrow1Lend"
       refX="0"
       refY="0"
       orient="auto">
      <path
         transform="matrix(-0.8,0,0,-0.8,-10,0)"
         style="fill:#000000;fill-opacity:1;fill-rule:evenodd;stroke:#000000;stroke-width:1.00000003pt;stroke-opacity:1"
         d="M 0,0 5,-5 -12.5,0 5,5 Z"
         id="path5998" />
    </marker>
    <marker
       style="overflow:visible"
       id="marker6279"
       refX="0"
       refY="0"
       orient="auto">
      <path
         transform="matrix(0.8,0,0,0.8,10,0)"
         style="fill:#000000;fill-opacity:1;fill-rule:evenodd;stroke:#000000;stroke-width:1.00000003pt;stroke-opacity:1"
         d="M 0,0 5,-5 -12.5,0 5,5 Z"
         id="path6277" />
    </marker>
    <marker
       style="overflow:visible"
       id="Arrow1Lstart"
       refX="0"
       refY="0"
       orient="auto">
      <path
         transform="matrix(0.8,0,0,0.8,10,0)"
         style="fill:#000000;fill-opacity:1;fill-rule:evenodd;stroke:#000000;stroke-width:1.00000003pt;stroke-opacity:1"
         d="M 0,0 5,-5 -12.5,0 5,5 Z"
         id="path5995" />
    </marker>
  </defs>
  <metadata
     id="metadata4512">
    <rdf:RDF>
      <cc:Work
         rdf:about="">
        <dc:format>image/svg+xml</dc:format>
        <dc:type
           rdf:resource="http://purl.org/dc/dcmitype/StillImage" />
        <dc:title></dc:title>
      </cc:Work>
    </rdf:RDF>
  </metadata>
  <g
     transform="translate(7.8268802,-98.079099)"
     id="layer1">
    <path
       id="path5748"
       d="m 62.140811,164.44868 9.553224,-59.02013"
       style="fill:none;stroke:#000000;stroke-width:0.25;stroke-linecap:butt;stroke-linejoin:miter;stroke-miterlimit:4;stroke-dasharray:none;stroke-opacity:1" />
    <path
       id="path5750"
       d="m 62.140811,173.4272 9.553224,-15.48246"
       style="fill:none;stroke:#000000;stroke-width:0.25;stroke-linecap:butt;stroke-linejoin:miter;stroke-miterlimit:4;stroke-dasharray:none;stroke-opacity:1" />
    <path
       id="path5752"
       d="M 86.004775,173.4272 180.39246,157.94474"
       style="fill:none;stroke:#000000;stroke-width:0.25;stroke-linecap:butt;stroke-linejoin:miter;stroke-miterlimit:4;stroke-dasharray:none;stroke-opacity:1" />
    <path
       transform="matrix(0.26458333,0,0,0.26458333,16.219398,105.17855)"
       id="path5754"
       d="m 263.75575,224.01307 39.3126,-24.58196"
       style="fill:none;stroke:#000000;stroke-width:0.94488192;stroke-linecap:butt;stroke-linejoin:miter;stroke-miterlimit:4;stroke-dasharray:none;stroke-opacity:1" />
    <g
       id="g5806">
      <path
         style="opacity:1;fill:none;fill-opacity:1;stroke:#000000;stroke-width:1;stroke-linecap:butt;stroke-miterlimit:4;stroke-dasharray:none;stroke-dashoffset:0;stroke-opacity:1"
         d="m 62.140812,164.44868 h 23.863962 v 8.97853 H 62.140812 Z"
         id="rect5727" />
      <text
         xml:space="preserve"
         style="font-style:normal;font-weight:normal;font-size:4.93888855px;line-height:6.61458302px;font-family:sans-serif;letter-spacing:0px;word-spacing:0px;fill:#000000;fill-opacity:1;stroke:none;stroke-width:0.26458332"
         x="68.064545"
         y="171.04221"
         id="text5731"><tspan
           id="tspan5729"
           x="68.064545"
           y="171.04221"
           style="font-size:5.64444447px;stroke-width:0.26458332">Line</tspan></text>
      <path
         id="path5793"
         d="m 62.140812,164.44868 h 23.863962 v 8.97853 H 62.140812 Z"
         style="opacity:1;fill:none;fill-opacity:1;stroke:#000000;stroke-width:1;stroke-linecap:butt;stroke-miterlimit:4;stroke-dasharray:none;stroke-dashoffset:0;stroke-opacity:1" />
    </g>
    <rect
       y="188.01411"
       x="92.837967"
       height="19.374701"
       width="19.374701"
       id="rect5810"
       style="opacity:1;fill:none;fill-opacity:1;stroke:#000000;stroke-width:1;stroke-linecap:butt;stroke-miterlimit:4;stroke-dasharray:none;stroke-dashoffset:0;stroke-opacity:1" />
    <text
       id="text5814"
       y="199.80573"
       x="95.735725"
       style="font-style:normal;font-weight:normal;font-size:4.93888855px;line-height:6.61458302px;font-family:sans-serif;letter-spacing:0px;word-spacing:0px;fill:#000000;fill-opacity:1;stroke:none;stroke-width:0.26458332"
       xml:space="preserve"><tspan
         style="font-size:5.64444447px;stroke-width:0.26458332"
         y="199.80573"
         x="95.735725"
         id="tspan5812">Load</tspan></text>
    <path
       transform="scale(0.26458333)"
       id="path5926"
       d="m 325.05668,639.13942 h 64.23647 v 69.91438"
       style="opacity:1;fill:none;fill-opacity:1;stroke:#000000;stroke-width:3.77952766;stroke-linecap:butt;stroke-miterlimit:4;stroke-dasharray:none;stroke-dashoffset:0;stroke-opacity:1" />
    <path
       transform="scale(0.26458333)"
       id="path5087"
       d="m 389.29315,783.11616 v 69.91438 l -210.0014,2e-4 3e-5,-43.73606 h -10.94861 c -8.53848,0 -15.46034,-4.62285 -15.46034,-10.32548 0,-5.70259 6.92186,-10.32548 15.46034,-10.32548 -8.53848,0 -15.46034,-4.62285 -15.46034,-10.32548 0,-5.70259 6.92186,-10.32548 15.46034,-10.32548 -8.53848,0 -15.46034,-4.62285 -15.46034,-10.32548 0,-5.70259 6.92186,-10.32544 15.46034,-10.32544 -8.53848,0 -15.46034,-4.62289 -15.46034,-10.32548 0,-5.70263 6.92186,-10.32551 15.46034,-10.32552 l 10.78118,-10e-6 1e-4,-24.83138 m 1.6e-4,-43.7524 9e-5,-18.96767 55.73841,3e-5"
       style="opacity:1;fill:none;fill-opacity:1;stroke:#000000;stroke-width:3.77952766;stroke-linecap:butt;stroke-miterlimit:4;stroke-dasharray:none;stroke-dashoffset:0;stroke-opacity:1" />
    <g
       id="g9167">
      <path
         style="fill:none;stroke:#000000;stroke-width:0.94488192;stroke-linecap:butt;stroke-linejoin:miter;stroke-miterlimit:4;stroke-dasharray:none;stroke-opacity:1"
         d="m 620.49663,0.94488663 v 0"
         id="path9135"
         transform="matrix(0.26458333,0,0,0.26458333,16.219398,105.17855)" />
      <g
         id="g5725"
         transform="translate(3.0611457,-66.15752)">
        <path
           id="path5089"
           d="m 68.612627,184.16985 h 6.272832 v 2.85252 c 0,2.25914 1.223137,4.09054 2.731951,4.09054 1.508814,0 2.73195,-1.8314 2.731951,-4.09054 10e-7,2.25914 1.223137,4.09054 2.731948,4.09054 1.50882,0 2.73195,-1.8314 2.73195,-4.09054 0,2.25914 1.22314,4.09054 2.73195,4.09054 1.50882,0 2.73195,-1.8314 2.73195,-4.09054 0,2.25914 1.22314,4.09054 2.73195,4.09054 1.50882,0 2.73195,-1.8314 2.73195,-4.09054 v -2.89682 l 6.681321,0.0443 v 2.85252 c 0,2.25914 1.22314,4.09054 2.73195,4.09054 1.50882,0 2.73195,-1.8314 2.73195,-4.09054 0,2.25914 1.22314,4.09054 2.73195,4.09054 1.50882,0 2.73195,-1.8314 2.73195,-4.09054 0,2.25914 1.22314,4.09054 2.73195,4.09054 1.50882,0 2.73195,-1.8314 2.73195,-4.09054 0,2.25914 1.22314,4.09054 2.73195,4.09054 1.50882,0 2.73195,-1.8314 2.73195,-4.09054 v -2.89682 h 34.88098 4.49916 l 0.94917,-3.54236 1.67781,6.26168 1.67798,-6.26232 1.65039,6.15939 1.66434,-6.2114 0.97571,3.59438 c 0.21405,6.3e-4 4.22702,0 4.22702,0"
           style="opacity:1;fill:none;fill-opacity:1;stroke:#000000;stroke-width:1;stroke-linecap:butt;stroke-miterlimit:4;stroke-dasharray:none;stroke-dashoffset:0;stroke-opacity:1" />
        <path
           style="opacity:1;fill:none;fill-opacity:1;stroke:#000000;stroke-width:1;stroke-linecap:butt;stroke-miterlimit:4;stroke-dasharray:none;stroke-dashoffset:0;stroke-opacity:1"
           d="m 68.612627,201.12279 h 6.272832 v -2.85252 c 0,-2.25914 1.223137,-4.09054 2.731951,-4.09054 1.508814,0 2.73195,1.8314 2.731951,4.09054 10e-7,-2.25914 1.223137,-4.09054 2.731948,-4.09054 1.50882,0 2.73195,1.8314 2.73195,4.09054 0,-2.25914 1.22314,-4.09054 2.73195,-4.09054 1.50882,0 2.73195,1.8314 2.73195,4.09054 0,-2.25914 1.22314,-4.09054 2.73195,-4.09054 1.50882,0 2.73195,1.8314 2.73195,4.09054 v 2.89682 h 35.338931 v 2.85252 c 0,2.25914 1.22314,4.09054 2.73195,4.09054 1.50882,0 2.73195,-1.8314 2.73195,-4.09054 0,2.25914 1.22314,4.09054 2.73195,4.09054 1.50882,0 2.73195,-1.8314 2.73195,-4.09054 0,2.25914 1.22314,4.09054 2.73195,4.09054 1.50882,0 2.73195,-1.8314 2.73195,-4.09054 0,2.25914 1.22314,4.09054 2.73195,4.09054 1.50882,0 2.73195,-1.8314 2.73195,-4.09054 v -2.89682 h 6.21521 4.49916 l 0.94917,-3.54236 1.67781,6.26168 1.67798,-6.26232 1.65039,6.15939 1.66434,-6.2114 0.97571,3.59438 c 0.21405,6.3e-4 4.22702,0 4.22702,0"
           id="path5091" />
        <path
           transform="scale(0.26458333)"
           id="path5105"
           d="m 259.32331,824.22323 131.56343,6e-5 8.5e-4,-64.07417 v -10.78118 c 0,-8.53848 4.62289,-15.46031 10.32548,-15.46031 5.70262,0 10.32548,6.92183 10.32548,15.46031 0,-8.53848 4.62289,-15.46031 10.32548,-15.46031 5.70262,0 10.32548,6.92183 10.32548,15.46031 0,-8.53848 4.62289,-15.46031 10.32548,-15.46031 5.70263,0 10.32548,6.92183 10.32548,15.46031 0,-8.53848 4.62289,-15.46031 10.32548,-15.46031 5.70263,0 8.79113,7.06082 10.32548,15.46031 v 10.94861 l 1e-5,63.90655 25.70831,-1e-5 v -10.78118 c 0,-8.53848 4.6229,-15.46031 10.32552,-15.46031 5.70259,0 10.32548,6.92183 10.32548,15.46031 0,-8.53848 4.62286,-15.46031 10.32545,-15.46031 5.70262,0 10.32548,6.92183 10.32548,15.46031 0,-8.53848 4.62289,-15.46031 10.32548,-15.46031 5.70262,0 10.32548,6.92183 10.32548,15.46031 0,-8.53848 4.62289,-15.46031 10.32548,-15.46031 5.70262,0 10.32548,6.92183 10.32548,15.46031 v 10.94861 h 23.7084 17.00469 l 3.58742,-13.38844 6.34133,23.66619 6.34197,-23.66861 6.23769,23.27958 6.29042,-23.47616 3.68773,13.58506 c 0.809,0.002 15.97613,0 15.97613,0"
           style="fill:none;stroke:#000000;stroke-width:3.77952766;stroke-linecap:butt;stroke-linejoin:miter;stroke-miterlimit:4;stroke-dasharray:none;stroke-opacity:1" />
      </g>
      <path
         style="opacity:1;fill:none;fill-opacity:1;stroke:#000000;stroke-width:0.5;stroke-linecap:butt;stroke-miterlimit:4;stroke-dasharray:none;stroke-dashoffset:0;stroke-opacity:1"
         d="M 71.694035,105.42855 H 180.39246 v 52.51619 H 71.694035 Z"
         id="rect5746" />
      <text
         xml:space="preserve"
         style="font-style:normal;font-weight:normal;font-size:4.93888855px;line-height:6.61458302px;font-family:sans-serif;letter-spacing:0px;word-spacing:0px;fill:#000000;fill-opacity:1;stroke:none;stroke-width:0.26458332"
         x="84.222237"
         y="115.18495"
         id="text5765"><tspan
           id="tspan5763"
           x="84.222237"
           y="115.18495"
           style="font-size:4.93888903px;stroke-width:0.26458332"><tspan
             style="font-size:5.64444447px"
             id="tspan5839">Z</tspan><tspan
             style="font-size:4.23333311px"
             id="tspan5800">L12</tspan></tspan></text>
      <text
         id="text5847"
         y="115.18495"
         x="111.63034"
         style="font-style:normal;font-weight:normal;font-size:4.93888855px;line-height:6.61458302px;font-family:sans-serif;letter-spacing:0px;word-spacing:0px;fill:#000000;fill-opacity:1;stroke:none;stroke-width:0.26458332"
         xml:space="preserve"><tspan
           style="font-size:4.93888903px;stroke-width:0.26458332"
           y="115.18495"
           x="111.63034"
           id="tspan5845"><tspan
             id="tspan5841"
             style="font-size:5.64444447px">Z</tspan><tspan
             id="tspan5843"
             style="font-size:4.23333311px">L13</tspan></tspan></text>
      <text
         xml:space="preserve"
         style="font-style:normal;font-weight:normal;font-size:4.93888855px;line-height:6.61458302px;font-family:sans-serif;letter-spacing:0px;word-spacing:0px;fill:#000000;fill-opacity:1;stroke:none;stroke-width:0.26458332"
         x="140.21983"
         y="132.43317"
         id="text5855"><tspan
           id="tspan5853"
           x="140.21983"
           y="132.43317"
           style="font-size:4.93888903px;stroke-width:0.26458332"><tspan
             style="font-size:5.64444447px"
             id="tspan5849">Z</tspan><tspan
             style="font-size:4.23333311px"
             id="tspan5851">L23</tspan></tspan></text>
      <text
         id="text5863"
         y="110.69571"
         x="166.68285"
         style="font-style:normal;font-weight:normal;font-size:4.93888855px;line-height:6.61458302px;font-family:sans-serif;letter-spacing:0px;word-spacing:0px;fill:#000000;fill-opacity:1;stroke:none;stroke-width:0.26458332"
         xml:space="preserve"><tspan
           style="font-size:4.93888903px;stroke-width:0.26458332"
           y="110.69571"
           x="166.68285"
           id="tspan5861"><tspan
             id="tspan5857"
             style="font-size:5.64444447px">Z</tspan><tspan
             id="tspan5859"
             style="font-size:4.23333311px">L11</tspan></tspan></text>
      <text
         xml:space="preserve"
         style="font-style:normal;font-weight:normal;font-size:4.93888855px;line-height:6.61458302px;font-family:sans-serif;letter-spacing:0px;word-spacing:0px;fill:#000000;fill-opacity:1;stroke:none;stroke-width:0.26458332"
         x="166.68285"
         y="128.15808"
         id="text5871"><tspan
           id="tspan5869"
           x="166.68285"
           y="128.15808"
           style="font-size:4.93888903px;stroke-width:0.26458332"><tspan
             style="font-size:5.64444447px"
             id="tspan5865">Z</tspan><tspan
             style="font-size:4.23333311px"
             id="tspan5867">L22</tspan></tspan></text>
      <text
         id="text5879"
         y="145.09129"
         x="166.68285"
         style="font-style:normal;font-weight:normal;font-size:4.93888855px;line-height:6.61458302px;font-family:sans-serif;letter-spacing:0px;word-spacing:0px;fill:#000000;fill-opacity:1;stroke:none;stroke-width:0.26458332"
         xml:space="preserve"><tspan
           style="font-size:4.93888903px;stroke-width:0.26458332"
           y="145.09129"
           x="166.68285"
           id="tspan5877"><tspan
             id="tspan5873"
             style="font-size:5.64444447px">Z</tspan><tspan
             id="tspan5875"
             style="font-size:4.23333311px">L33</tspan></tspan></text>
    </g>
    <path
       transform="scale(0.26458333)"
       id="path7448"
       d="m 107.07734,650.14436 3e-5,-11.0058 -30.355363,7.7e-4"
       style="opacity:1;fill:none;fill-opacity:1;stroke:#000000;stroke-width:3.77952766;stroke-linecap:butt;stroke-miterlimit:4;stroke-dasharray:none;stroke-dashoffset:0;stroke-opacity:1" />
    <path
       transform="scale(0.26458333)"
       id="path5881"
       d="m 75.515608,853.03069 31.394692,3e-5 -5.9e-4,-43.73604 h 10.94861 c 8.53849,0 15.46035,-4.62285 15.46035,-10.32548 0,-5.70259 -6.92186,-10.32548 -15.46035,-10.32548 8.53849,0 15.46035,-4.62285 15.46035,-10.32548 0,-5.70259 -6.92186,-10.32548 -15.46035,-10.32548 8.53849,0 15.46035,-4.62285 15.46035,-10.32548 0,-5.70259 -6.92186,-10.32544 -15.46035,-10.32544 8.53849,0 15.46035,-4.62289 15.46035,-10.32548 0,-5.70263 -6.92186,-10.32551 -15.46035,-10.32552 l -10.78117,-10e-6 1e-5,-5.41403"
       style="opacity:1;fill:none;fill-opacity:1;stroke:#000000;stroke-width:3.77952766;stroke-linecap:butt;stroke-miterlimit:4;stroke-dasharray:none;stroke-dashoffset:0;stroke-opacity:1" />
    <path
       style="opacity:1;fill:none;fill-opacity:1;stroke:#000000;stroke-width:1;stroke-linecap:butt;stroke-miterlimit:4;stroke-dasharray:none;stroke-dashoffset:0;stroke-opacity:1"
       d="m 62.140812,164.44868 h 23.863962 v 8.97853 H 62.140812 Z"
       id="path5907" />
    <g
       id="g5931">
      <text
         id="text5911"
         y="171.04221"
         x="68.064545"
         style="font-style:normal;font-weight:normal;font-size:4.93888855px;line-height:6.61458302px;font-family:sans-serif;letter-spacing:0px;word-spacing:0px;fill:#000000;fill-opacity:1;stroke:none;stroke-width:0.26458332"
         xml:space="preserve"><tspan
           style="font-size:5.64444447px;stroke-width:0.26458332"
           y="171.04221"
           x="68.064545"
           id="tspan5909">Line</tspan></text>
      <path
         style="opacity:1;fill:none;fill-opacity:1;stroke:#000000;stroke-width:1;stroke-linecap:butt;stroke-miterlimit:4;stroke-dasharray:none;stroke-dashoffset:0;stroke-opacity:1"
         d="m 62.140812,164.44868 h 23.863962 v 8.97853 H 62.140812 Z"
         id="path5913" />
    </g>
    <path
       id="path7180"
       d="M 92.837965,188.01411 125.76577,171.3672"
       style="fill:none;stroke:#000000;stroke-width:0.25;stroke-linecap:butt;stroke-linejoin:miter;stroke-miterlimit:4;stroke-dasharray:none;stroke-opacity:1" />
    <path
       id="path7182"
       d="M 92.837965,207.38881 125.76577,224.3867"
       style="fill:none;stroke:#000000;stroke-width:0.25;stroke-linecap:butt;stroke-linejoin:miter;stroke-miterlimit:4;stroke-dasharray:none;stroke-opacity:1" />
    <path
       transform="scale(0.26458333)"
       id="path7184"
       d="M 424.11088,710.60451 475.3353,697.7955"
       style="fill:none;stroke:#000000;stroke-width:0.94488192;stroke-linecap:butt;stroke-linejoin:miter;stroke-miterlimit:4;stroke-dasharray:none;stroke-opacity:1" />
    <rect
       y="171.37033"
       x="125.76889"
       height="53.013256"
       width="54.667194"
       id="rect5971"
       style="opacity:1;fill:none;fill-opacity:1;stroke:#000000;stroke-width:0.41275787;stroke-linecap:butt;stroke-miterlimit:4;stroke-dasharray:none;stroke-dashoffset:0;stroke-opacity:1" />
    <path
       id="path5973"
       d="m 128.8682,171.33349 v 7.51828"
       style="fill:none;stroke:#000000;stroke-width:1;stroke-linecap:butt;stroke-linejoin:miter;stroke-miterlimit:4;stroke-dasharray:none;stroke-opacity:1" />
    <path
       style="fill:none;stroke:#000000;stroke-width:1;stroke-linecap:butt;stroke-linejoin:miter;stroke-miterlimit:4;stroke-dasharray:none;stroke-opacity:1"
       d="m 128.8682,216.82627 v 7.51828"
       id="path5975" />
    <circle
       r="1.6707295"
       cy="180.68958"
       cx="128.86829"
       id="path5977"
       style="opacity:1;fill:none;fill-opacity:1;stroke:#000000;stroke-width:1;stroke-linecap:butt;stroke-miterlimit:4;stroke-dasharray:none;stroke-dashoffset:0;stroke-opacity:1" />
    <circle
       style="opacity:1;fill:none;fill-opacity:1;stroke:#000000;stroke-width:1;stroke-linecap:butt;stroke-miterlimit:4;stroke-dasharray:none;stroke-dashoffset:0;stroke-opacity:1"
       id="circle5979"
       cx="128.86829"
       cy="214.77246"
       r="1.6707295" />
    <g
       transform="translate(-11.112501,1.5874999)"
       id="g5991">
      <circle
         style="opacity:1;fill:none;fill-opacity:1;stroke:#000000;stroke-width:1;stroke-linecap:butt;stroke-miterlimit:4;stroke-dasharray:none;stroke-dashoffset:0;stroke-opacity:1"
         id="path5981"
         cx="153.0806"
         cy="195.71202"
         r="7.9777336" />
      <path
         style="fill:none;stroke:#000000;stroke-width:1;stroke-linecap:butt;stroke-linejoin:miter;stroke-miterlimit:4;stroke-dasharray:none;stroke-opacity:1"
         d="m 147.89607,195.69172 c 1.80074,-8.02166 4.59597,-3.18086 5.17927,0 1.48289,8.08645 4.91791,3.22332 5.17927,0"
         id="path5985" />
    </g>
    <path
       id="path5993"
       d="m 142.37193,205.16576 c -0.1253,11.02682 -10.99763,9.52316 -10.99763,9.52316"
       style="fill:none;stroke:#000000;stroke-width:1;stroke-linecap:butt;stroke-linejoin:miter;stroke-miterlimit:4;stroke-dasharray:none;stroke-opacity:1;marker-end:url(#DotS)" />
    <path
       style="fill:none;stroke:#000000;stroke-width:1;stroke-linecap:butt;stroke-linejoin:miter;stroke-miterlimit:4;stroke-dasharray:none;stroke-opacity:1;marker-end:url(#marker6429)"
       d="m 142.45547,189.33177 c -1.25304,-10.73445 -11.08117,-8.77134 -11.08117,-8.77134"
       id="path6425" />
    <text
       id="text7158"
       y="186.75206"
       x="150.36317"
       style="font-style:normal;font-weight:normal;font-size:5.64444447px;line-height:6.61458302px;font-family:sans-serif;letter-spacing:0px;word-spacing:0px;fill:#000000;fill-opacity:1;stroke:none;stroke-width:0.26458332"
       xml:space="preserve"><tspan
         id="tspan7160"
         style="stroke-width:0.26458332"
         y="186.75206"
         x="150.36317">•Player</tspan><tspan
         id="tspan9097"
         style="stroke-width:0.26458332"
         y="193.36664"
         x="150.36317">    or</tspan><tspan
         id="tspan7162"
         style="stroke-width:0.26458332"
         y="199.98123"
         x="150.36317">•Constant</tspan><tspan
         id="tspan9099"
         style="stroke-width:0.26458332"
         y="206.59581"
         x="150.36317">    or</tspan><tspan
         id="tspan9095"
         style="stroke-width:0.26458332"
         y="213.21039"
         x="150.36317">•Function</tspan></text>
    <path
       id="path7214"
       d="m 178.78528,171.3672 v 0"
       style="fill:none;stroke:#000000;stroke-width:0.25;stroke-linecap:butt;stroke-linejoin:miter;stroke-miterlimit:4;stroke-dasharray:none;stroke-opacity:1" />
    <path
       id="path7207"
       d="m 178.78528,224.3867 v 0"
       style="fill:none;stroke:#000000;stroke-width:0.25;stroke-linecap:butt;stroke-linejoin:miter;stroke-miterlimit:4;stroke-dasharray:none;stroke-opacity:1" />
    <path
       transform="scale(0.26458333)"
       id="path7186"
       d="m 424.11088,783.83172 51.22477,13.07913"
       style="fill:none;stroke:#000000;stroke-width:0.94488192;stroke-linecap:butt;stroke-linejoin:miter;stroke-miterlimit:4;stroke-dasharray:none;stroke-opacity:1" />
    <path
       id="path7234"
       d="m 36.756051,190.74159 v 24.7268"
       style="fill:none;stroke:#000000;stroke-width:0.5;stroke-linecap:butt;stroke-linejoin:miter;stroke-miterlimit:4;stroke-dasharray:none;stroke-opacity:1" />
    <path
       style="fill:none;stroke:#000000;stroke-width:0.5;stroke-linecap:butt;stroke-linejoin:miter;stroke-miterlimit:4;stroke-dasharray:none;stroke-opacity:1"
       d="m 38.510317,190.74159 v 24.7268"
       id="path7236" />
    <path
       id="path7336"
       d="m 28.419849,190.83771 v -1.147 h 1.42626 c 1.12957,0 2.04527,-0.61157 2.04527,-1.36597 0,-0.75441 -0.9157,-1.36598 -2.04527,-1.36598 1.12957,0 2.04527,-0.61157 2.04527,-1.36597 0,-0.75441 -0.9157,-1.36598 -2.04527,-1.36598 1.12957,0 2.04527,-0.61157 2.04527,-1.36597 0,-0.75441 -0.9157,-1.36598 -2.04527,-1.36598 1.12957,0 2.04527,-0.61157 2.04527,-1.36597 0,-0.75441 -0.9157,-1.36598 -2.04527,-1.36598 h -1.44841 v -1.12385 l -1.77118,-0.47458 3.13084,-0.83891 -3.13116,-0.83899 3.079695,-0.82519 -3.1057,-0.83217 1.79719,-0.48786 c 3.15e-4,-0.10702 0,-1.32404 0,-1.32404"
       style="opacity:1;fill:none;fill-opacity:1;stroke:#000000;stroke-width:0.5;stroke-linecap:butt;stroke-miterlimit:4;stroke-dasharray:none;stroke-dashoffset:0;stroke-opacity:1" />
    <rect
       y="171.87302"
       x="16.758474"
       height="18.798452"
       width="17.690626"
       id="rect7450"
       style="opacity:1;fill:none;fill-opacity:1;stroke:#000000;stroke-width:0.5;stroke-linecap:butt;stroke-miterlimit:4;stroke-dasharray:none;stroke-dashoffset:0;stroke-opacity:1" />
    <text
       id="text7454"
       y="182.56456"
       x="18.345758"
       style="font-style:normal;font-weight:normal;font-size:5.64444447px;line-height:6.61458302px;font-family:sans-serif;letter-spacing:0px;word-spacing:0px;fill:#000000;fill-opacity:1;stroke:none;stroke-width:0.26458332"
       xml:space="preserve"><tspan
         style="stroke-width:0.26458332"
         y="182.56456"
         x="18.345758"
         id="tspan7452">Z<tspan
   id="tspan7456"
   style="font-size:4.23333311px">eq</tspan></tspan></text>
    <circle
       style="opacity:1;fill:none;fill-opacity:1;stroke:#000000;stroke-width:1;stroke-linecap:butt;stroke-miterlimit:4;stroke-dasharray:none;stroke-dashoffset:0;stroke-opacity:1"
       id="circle7487"
       cx="18.390127"
       cy="169.09946"
       r="1.6707295" />
    <circle
       r="1.6707295"
       cy="225.66768"
       cx="18.390127"
       id="circle7507"
       style="opacity:1;fill:none;fill-opacity:1;stroke:#000000;stroke-width:1;stroke-linecap:butt;stroke-miterlimit:4;stroke-dasharray:none;stroke-dashoffset:0;stroke-opacity:1" />
    <g
       id="g4597"
       transform="translate(-22.501772,2.0185854)">
      <circle
         r="3.0694234"
         cy="178.05997"
         cx="76.095444"
         id="circle4564"
         style="fill:none;fill-opacity:1;stroke:#000000;stroke-width:1;stroke-miterlimit:4;stroke-dasharray:none;stroke-opacity:1" />
      <g
         id="g5142"
         transform="rotate(-151.137,88.525984,186.88388)">
        <path
           d="m 104.45608,188.92422 -0.69861,1.21002 -0.69861,-1.21002 z"
           id="path5138"
           style="fill:#000000;fill-opacity:1;stroke:none;stroke-width:1.24882317;stroke-miterlimit:4;stroke-dasharray:none;stroke-dashoffset:0;stroke-opacity:1" />
        <path
           id="path5140"
           d="m 103.70266,187.30465 v 1.71741"
           style="fill:none;stroke:#000000;stroke-width:0.26458332px;stroke-linecap:butt;stroke-linejoin:miter;stroke-opacity:1" />
      </g>
    </g>
    <g
       id="g5258"
       transform="translate(-66.862612,52.628736)">
      <rect
         y="145.07127"
         x="119.2692"
         height="7.8548174"
         width="7.8548174"
         id="rect5252"
         style="fill:none;fill-opacity:1;stroke:#000000;stroke-width:1;stroke-miterlimit:4;stroke-dasharray:none;stroke-dashoffset:0;stroke-opacity:1" />
      <path
         id="path5254"
         d="m 124.42709,150.94654 1.60722,-2.90454 c -0.57766,-0.96544 -1.64521,-1.56018 -2.80053,-1.56018 -1.15532,0 -2.22287,0.59474 -2.80053,1.56019 l 2.05144,2.88626 z"
         style="fill:none;fill-opacity:1;stroke:#000000;stroke-width:0.40000001;stroke-miterlimit:4;stroke-dasharray:none;stroke-dashoffset:0;stroke-opacity:1" />
      <path
         id="path5256"
         d="m 124.04928,147.08667 -0.49094,3.74654"
         style="fill:none;stroke:#000000;stroke-width:0.40000001;stroke-linecap:butt;stroke-linejoin:miter;stroke-miterlimit:4;stroke-dasharray:none;stroke-opacity:1" />
    </g>
    <path
       id="path7561"
       d="m 56.052804,197.69724 c 0.07519,-8.4962 -7.632027,-8.9673 -7.632027,-8.9673"
       style="fill:none;stroke:#000000;stroke-width:0.5;stroke-linecap:butt;stroke-linejoin:miter;stroke-miterlimit:4;stroke-dasharray:none;stroke-opacity:1;marker-end:url(#marker7627)" />
    <path
       id="path7695"
       d="m 55.90243,205.69516 c -0.225562,12.10518 -7.556841,11.68123 -7.556841,11.68123"
       style="fill:none;stroke:#000000;stroke-width:0.5;stroke-linecap:butt;stroke-linejoin:miter;stroke-miterlimit:4;stroke-dasharray:none;stroke-opacity:1;marker-end:url(#marker8123)" />
    <circle
       r="0.83536476"
       cy="184.81366"
       cx="47.431316"
       id="circle9055"
       style="opacity:1;fill:none;fill-opacity:1;stroke:#000000;stroke-width:0.5;stroke-linecap:butt;stroke-miterlimit:4;stroke-dasharray:none;stroke-dashoffset:0;stroke-opacity:1" />
    <path
       id="path9057"
       d="m 48.307995,184.79854 h 5.169143 v -1.52255"
       style="fill:none;stroke:#000000;stroke-width:1;stroke-linecap:butt;stroke-linejoin:miter;stroke-miterlimit:4;stroke-dasharray:none;stroke-opacity:1" />
    <path
       style="fill:none;stroke:#000000;stroke-width:1;stroke-linecap:butt;stroke-linejoin:miter;stroke-miterlimit:4;stroke-dasharray:none;stroke-opacity:1"
       d="m 48.307995,175.05927 h 5.169143 v 1.52255"
       id="path9059" />
    <circle
       style="opacity:1;fill:none;fill-opacity:1;stroke:#000000;stroke-width:0.5;stroke-linecap:butt;stroke-miterlimit:4;stroke-dasharray:none;stroke-dashoffset:0;stroke-opacity:1"
       id="circle9061"
       cx="47.431316"
       cy="175.07687"
       r="0.83536476" />
    <text
       id="text9065"
       y="102.36755"
       x="109.65379"
       style="font-style:normal;font-weight:normal;font-size:5.64444447px;line-height:6.61458302px;font-family:sans-serif;letter-spacing:0px;word-spacing:0px;fill:#000000;fill-opacity:1;stroke:none;stroke-width:0.26458332"
       xml:space="preserve"><tspan
         style="stroke-width:0.26458332"
         y="102.36755"
         x="109.65379"
         id="tspan9063">Line Configuration</tspan></text>
    <text
       xml:space="preserve"
       style="font-style:normal;font-weight:normal;font-size:5.64444447px;line-height:6.61458302px;font-family:sans-serif;letter-spacing:0px;word-spacing:0px;fill:#000000;fill-opacity:1;stroke:none;stroke-width:0.26458332"
       x="-7.8103437"
       y="197.40907"
       id="text9069"><tspan
         id="tspan9067"
         x="-7.8103437"
         y="197.40907"
         style="stroke-width:0.26458332">Transformer</tspan><tspan
         id="tspan9071"
         x="-7.8103437"
         y="204.02365"
         style="stroke-width:0.26458332">Configuration</tspan></text>
    <text
       id="text9171"
       y="137.77336"
       x="11.55078"
       style="font-style:normal;font-weight:normal;font-size:5.64444447px;line-height:6.61458302px;font-family:sans-serif;letter-spacing:0px;word-spacing:0px;fill:#000000;fill-opacity:1;stroke:none;stroke-width:0.26458332"
       xml:space="preserve"><tspan
         style="stroke-width:0.26458332"
         y="137.77336"
         x="11.55078"
         id="tspan9169">Slack</tspan><tspan
         id="tspan9173"
         style="stroke-width:0.26458332"
         y="144.38794"
         x="11.55078">or</tspan><tspan
         id="tspan9175"
         style="stroke-width:0.26458332"
         y="151.00253"
         x="11.55078">Swing</tspan><tspan
         id="tspan9177"
         style="stroke-width:0.26458332"
         y="157.61711"
         x="11.55078">Bus</tspan></text>
    <path
       id="path9179"
       d="M 8.7762113,162.12569 H 24.513235"
       style="fill:none;stroke:#000000;stroke-width:2;stroke-linecap:butt;stroke-linejoin:miter;stroke-miterlimit:4;stroke-dasharray:none;stroke-opacity:1;marker-start:url(#marker10689);marker-end:url(#TriangleOutS)" />
    <text
       id="text10391"
       y="182.29002"
       x="57.867882"
       style="font-style:normal;font-weight:normal;font-size:5.64444447px;line-height:6.61458302px;font-family:sans-serif;letter-spacing:0px;word-spacing:0px;fill:#000000;fill-opacity:1;stroke:none;stroke-width:0.26458332"
       xml:space="preserve"><tspan
         style="stroke-width:0.26458332"
         y="182.29002"
         x="57.867882"
         id="tspan10389">Current</tspan><tspan
         id="tspan10399"
         style="stroke-width:0.26458332"
         y="188.9046"
         x="57.867882">Recorder</tspan></text>
    <text
       id="text10395"
       y="204.3206"
       x="61.692921"
       style="font-style:normal;font-weight:normal;font-size:5.64444447px;line-height:6.61458302px;font-family:sans-serif;letter-spacing:0px;word-spacing:0px;fill:#000000;fill-opacity:1;stroke:none;stroke-width:0.26458332"
       xml:space="preserve"><tspan
         style="stroke-width:0.26458332"
         y="204.3206"
         x="61.692921"
         id="tspan10393">Voltage</tspan><tspan
         id="tspan10397"
         style="stroke-width:0.26458332"
         y="210.93518"
         x="61.692921">Recorder</tspan></text>
  </g>
</svg>
