<?xml version="1.0" encoding="UTF-8" standalone="no"?>
<svg
   xmlns:dc="http://purl.org/dc/elements/1.1/"
   xmlns:cc="http://creativecommons.org/ns#"
   xmlns:rdf="http://www.w3.org/1999/02/22-rdf-syntax-ns#"
   xmlns:svg="http://www.w3.org/2000/svg"
   xmlns="http://www.w3.org/2000/svg"
   width="826.08002"
   height="799.99561"
   viewBox="0 0 218.56701 211.66551"
   version="1.1"
   id="svg8">
  <defs
     id="defs2" />
  <metadata
     id="metadata5">
    <rdf:RDF>
      <cc:Work
         rdf:about="">
        <dc:format>image/svg+xml</dc:format>
        <dc:type
           rdf:resource="http://purl.org/dc/dcmitype/StillImage" />
        <dc:title></dc:title>
      </cc:Work>
    </rdf:RDF>
  </metadata>
  <path
     id="path10"
     d="m 165.19953,66.896146 c -9.09148,2.63898 -20.57502,1.8789 -27.99817,-1.85319 -7.42316,-3.73209 -8.935,-9.50558 -3.68604,-14.07644 5.24898,-4.57085 15.94991,-6.79934 26.09014,-5.43329 10.14023,1.36604 17.19129,5.98598 17.19129,11.26394 H 153.6023 l 11.59723,10.09898 v 28.04424 c -9.09148,2.62383 -20.57502,1.86374 -27.99817,-1.86835 -4.28477,-2.15423 -6.84511,-5.2154 -6.85756,-8.03808 v -28.62123"
     style="fill:none;fill-opacity:1;stroke:#000000;stroke-width:2.16942286;stroke-miterlimit:4;stroke-dasharray:none;stroke-dashoffset:0;stroke-opacity:1" />
  <path
     id="ellipse817"
     d="m 182.81961,70.370026 h 23.19444 c 0,4.16617 -4.42083,8.01588 -11.59722,10.09897 l -11.59722,-10.09897"
     style="fill:none;fill-opacity:1;stroke:#000000;stroke-width:2.16942286;stroke-miterlimit:4;stroke-dasharray:none;stroke-dashoffset:0;stroke-opacity:1" />
  <path
     id="path830"
     d="m 206.01405,98.495306 c 0,4.166184 -4.42083,8.015894 -11.59722,10.098984 L 182.81961,98.495306 v -29.20738"
     style="fill:none;fill-opacity:1;stroke:#000000;stroke-width:2.16942286;stroke-miterlimit:4;stroke-dasharray:none;stroke-dashoffset:0;stroke-opacity:1" />
  <path
     id="path834"
     d="M 206.01405,98.495306 V 70.370026"
     style="fill:none;stroke:#000000;stroke-width:2.16942286;stroke-linecap:butt;stroke-linejoin:miter;stroke-miterlimit:4;stroke-dasharray:none;stroke-opacity:1" />
  <path
     id="path836"
     d="M 194.41683,108.59429 V 80.468996"
     style="fill:none;stroke:#000000;stroke-width:2.16942286;stroke-linecap:butt;stroke-linejoin:miter;stroke-miterlimit:4;stroke-dasharray:none;stroke-opacity:1" />
  <path
     id="path852"
     d="m 176.79675,56.797166 v 28.05939 H 165.3562"
     style="fill:none;stroke:#000000;stroke-width:2.16942286;stroke-linecap:butt;stroke-linejoin:miter;stroke-miterlimit:4;stroke-dasharray:none;stroke-opacity:1" />
  <g
     transform="matrix(1.0847113,0,0,1.0847113,-20.853439,-94.055214)"
     id="g994">
    <ellipse
       style="fill:none;fill-opacity:1;stroke:#000000;stroke-width:2;stroke-miterlimit:4;stroke-dasharray:2.00000006, 2.00000006;stroke-dashoffset:0;stroke-opacity:1"
       id="path905"
       cx="71.801476"
       cy="139.53999"
       rx="21.505432"
       ry="11.256925" />
    <path
       style="fill:none;stroke:#000000;stroke-width:2;stroke-linecap:butt;stroke-linejoin:miter;stroke-miterlimit:4;stroke-dasharray:2.00000006, 2.00000006;stroke-dashoffset:0;stroke-opacity:1"
       d="M 51.499336,139.40973 H 69.79473 m 4.218592,0 H 92.2188"
       id="path929" />
    <path
       style="fill:none;stroke:#000000;stroke-width:2;stroke-linecap:butt;stroke-linejoin:miter;stroke-miterlimit:4;stroke-dasharray:2.00000006, 2.00000006;stroke-dashoffset:0;stroke-opacity:1"
       d="m 50.329825,139.40973 0.01142,27.76613 c 0.01141,3.6758 4.110324,7.39202 10.764132,9.40288 6.653804,2.01086 14.851628,2.01086 21.505432,0 6.653808,-2.01086 10.752721,-5.72708 10.752716,-9.74879 v -27.49954"
       id="path942" />
    <path
       id="path965"
       d="M 60.578333,177.16064 V 149.16183 L 83.767952,129.35945"
       style="fill:none;stroke:#000000;stroke-width:2;stroke-linecap:butt;stroke-linejoin:miter;stroke-miterlimit:4;stroke-dasharray:2.00000006, 2.00000006;stroke-dashoffset:0;stroke-opacity:1" />
    <path
       style="fill:none;stroke:#000000;stroke-width:2;stroke-linecap:butt;stroke-linejoin:miter;stroke-miterlimit:4;stroke-dasharray:2.00000006, 2.00000006;stroke-dashoffset:0;stroke-opacity:1"
       d="M 82.473137,177.45598 V 149.16183 L 59.659432,129.61006"
       id="path976" />
  </g>
  <path
     id="path998"
     d="m 184.96296,104.85328 c -18.70932,10.25169 -33.55546,11.27049 -51.00213,11.91758 -12.96202,0.48077 -26.46296,-1.0526 -38.443831,-6.02286 -6.35274,-2.63542 -10.12353,-5.51027 -16.65899,-12.173874"
     style="fill:none;stroke:#000000;stroke-width:1.08471143;stroke-linecap:butt;stroke-linejoin:miter;stroke-miterlimit:4;stroke-dasharray:none;stroke-opacity:1" />
  <path
     id="path1004"
     d="m 82.855739,99.855276 c 0,0 -1.33878,0.338764 -1.83542,0.780804 -0.52419,0.46635 -1.04301,1.82821 -1.04301,1.82821 l -3.24122,-6.468264 z"
     style="fill:#000000;fill-opacity:1;stroke:#000000;stroke-width:0.24608026;stroke-miterlimit:4;stroke-dasharray:none;stroke-dashoffset:0;stroke-opacity:1" />
  <path
     id="path1009"
     d="M 0.17630877,61.411766 C 12.478339,65.640586 27.331509,77.511526 27.331509,77.511526"
     style="fill:none;stroke:#000000;stroke-width:1.08471143;stroke-linecap:butt;stroke-linejoin:miter;stroke-miterlimit:4;stroke-dasharray:none;stroke-opacity:1" />
  <path
     id="path1011"
     d="M 2.7392388,110.748 C 16.707159,110.10728 30.061669,99.037166 30.061669,99.037166"
     style="fill:none;stroke:#000000;stroke-width:1.08471143;stroke-linecap:butt;stroke-linejoin:miter;stroke-miterlimit:4;stroke-dasharray:none;stroke-opacity:1" />
  <path
     style="fill:#000000;fill-opacity:1;stroke:#000000;stroke-width:0.24608026;stroke-miterlimit:4;stroke-dasharray:none;stroke-dashoffset:0;stroke-opacity:1"
     d="m 28.325009,98.212326 c 0,0 1.27928,0.52014 1.71023,1.02645 0.45487,0.53417 0.78094,1.954574 0.78094,1.954574 l 4.1022,-5.959514 z"
     id="path1022" />
  <path
     id="path1033"
     d="m 27.553689,75.173576 c 0,0 -0.2085,1.36516 -0.60076,1.90199 -0.41379,0.56659 -1.71947,1.21391 -1.71947,1.21391 l 6.74987,2.60445 z"
     style="fill:#000000;fill-opacity:1;stroke:#000000;stroke-width:0.24608026;stroke-miterlimit:4;stroke-dasharray:none;stroke-dashoffset:0;stroke-opacity:1" />
  <path
     id="path1035"
     d="m 28.143519,126.60309 c 22.45003,-7.81297 25.73675,-19.17979 25.73675,-19.17979"
     style="fill:none;stroke:#000000;stroke-width:1.08471143;stroke-linecap:butt;stroke-linejoin:miter;stroke-miterlimit:4;stroke-dasharray:none;stroke-opacity:1" />
  <path
     id="path1046"
     d="m 51.700739,107.65151 c 0,0 1.37546,-0.12331 1.9904,0.12948 0.64897,0.26663 1.58921,1.38009 1.58921,1.38009 l 0.91827,-7.1764 z"
     style="fill:#000000;fill-opacity:1;stroke:#000000;stroke-width:0.24608026;stroke-miterlimit:4;stroke-dasharray:none;stroke-dashoffset:0;stroke-opacity:1" />
  <text
     id="text1050"
     y="30.529776"
     x="56.54142"
     style="font-style:normal;font-weight:normal;font-size:6.88791656px;line-height:7.17491293px;font-family:sans-serif;text-align:center;letter-spacing:0px;word-spacing:0px;text-anchor:middle;fill:#000000;fill-opacity:1;stroke:none;stroke-width:0.28699654"
     xml:space="preserve"><tspan
       style="text-align:center;text-anchor:middle;stroke-width:0.28699654"
       y="30.529776"
       x="56.54142"
       id="tspan1048">HDFS</tspan><tspan
       id="tspan1072"
       style="text-align:center;text-anchor:middle;stroke-width:0.28699654"
       y="37.7047"
       x="56.54142">Virtual Disk</tspan></text>
  <text
     xml:space="preserve"
     style="font-style:normal;font-weight:normal;font-size:6.88791656px;line-height:7.17491293px;font-family:sans-serif;letter-spacing:0px;word-spacing:0px;fill:#000000;fill-opacity:1;stroke:none;stroke-width:0.28699654"
     x="135.55298"
     y="37.704685"
     id="text1064"><tspan
       id="tspan1062"
       x="135.55298"
       y="37.704685"
       style="stroke-width:0.28699654">Local Disk</tspan></text>
  <rect
     y="0.54235572"
     x="114.73891"
     height="118.91956"
     width="103.28574"
     id="rect1066"
     style="fill:none;fill-opacity:1;stroke:#000000;stroke-width:1.08471143;stroke-miterlimit:4;stroke-dasharray:none;stroke-dashoffset:0;stroke-opacity:1" />
  <text
     id="text1070"
     y="9.2562761"
     x="147.91757"
     style="font-style:normal;font-weight:normal;font-size:6.88791656px;line-height:7.17491293px;font-family:sans-serif;letter-spacing:0px;word-spacing:0px;fill:#000000;fill-opacity:1;stroke:none;stroke-width:0.28699654"
     xml:space="preserve"><tspan
       style="stroke-width:0.28699654"
       y="9.2562761"
       x="147.91757"
       id="tspan1068">Data Node</tspan></text>
  <g
     id="g1098"
     transform="matrix(1.0847113,0,0,1.0847113,9.9061488,5.2447659)">
    <ellipse
       ry="11.256925"
       rx="21.505432"
       cy="139.53999"
       cx="71.801476"
       id="ellipse1088"
       style="fill:none;fill-opacity:1;stroke:#000000;stroke-width:2;stroke-miterlimit:4;stroke-dasharray:2.00000006, 2.00000006;stroke-dashoffset:0;stroke-opacity:1" />
    <path
       id="path1090"
       d="M 51.499336,139.40973 H 69.79473 m 4.218592,0 H 92.2188"
       style="fill:none;stroke:#000000;stroke-width:2;stroke-linecap:butt;stroke-linejoin:miter;stroke-miterlimit:4;stroke-dasharray:2.00000006, 2.00000006;stroke-dashoffset:0;stroke-opacity:1" />
    <path
       id="path1092"
       d="m 50.329825,139.40973 0.01142,27.76613 c 0.01141,3.6758 4.110324,7.39202 10.764132,9.40288 6.653804,2.01086 14.851628,2.01086 21.505432,0 6.653808,-2.01086 10.752721,-5.72708 10.752716,-9.74879 v -27.49954"
       style="fill:none;stroke:#000000;stroke-width:2;stroke-linecap:butt;stroke-linejoin:miter;stroke-miterlimit:4;stroke-dasharray:2.00000006, 2.00000006;stroke-dashoffset:0;stroke-opacity:1" />
    <path
       style="fill:none;stroke:#000000;stroke-width:2;stroke-linecap:butt;stroke-linejoin:miter;stroke-miterlimit:4;stroke-dasharray:2.00000006, 2.00000006;stroke-dashoffset:0;stroke-opacity:1"
       d="M 60.578333,177.16064 V 149.16183 L 83.767952,129.35945"
       id="path1094" />
    <path
       id="path1096"
       d="M 82.473137,177.45598 V 149.16183 L 59.659432,129.61006"
       style="fill:none;stroke:#000000;stroke-width:2;stroke-linecap:butt;stroke-linejoin:miter;stroke-miterlimit:4;stroke-dasharray:2.00000006, 2.00000006;stroke-dashoffset:0;stroke-opacity:1" />
  </g>
  <text
     id="text1102"
     y="210.23276"
     x="71.73098"
     style="font-style:normal;font-weight:normal;font-size:6.88791656px;line-height:7.17491293px;font-family:sans-serif;letter-spacing:0px;word-spacing:0px;fill:#000000;fill-opacity:1;stroke:none;stroke-width:0.28699654"
     xml:space="preserve"><tspan
       style="stroke-width:0.28699654"
       y="210.23276"
       x="71.73098"
       id="tspan1100">Replicate</tspan></text>
  <path
     id="path1104"
     d="m 68.606109,98.433306 c 9.96746,10.134214 14.85804,28.002734 14.85804,28.002734"
     style="fill:none;stroke:#000000;stroke-width:2.16942286;stroke-linecap:butt;stroke-linejoin:miter;stroke-miterlimit:4;stroke-dasharray:1.08471137, 1.08471137;stroke-dashoffset:0;stroke-opacity:1" />
  <path
     id="path1106"
     d="m 87.536469,126.84291 -1.22471,13.57781 -7.00603,-11.55536 c 0,0 3.12643,0.30008 4.61533,-0.0883 1.3225,-0.34496 3.61541,-1.93413 3.61541,-1.93413 z"
     style="fill:none;fill-opacity:1;stroke:#000000;stroke-width:2.16942286;stroke-miterlimit:4;stroke-dasharray:1.08471134, 1.08471134;stroke-dashoffset:0;stroke-opacity:1" />
</svg>
