<?xml version="1.0" encoding="UTF-8" standalone="no"?>
<svg
   xmlns:dc="http://purl.org/dc/elements/1.1/"
   xmlns:cc="http://creativecommons.org/ns#"
   xmlns:rdf="http://www.w3.org/1999/02/22-rdf-syntax-ns#"
   xmlns:svg="http://www.w3.org/2000/svg"
   xmlns="http://www.w3.org/2000/svg"
   id="svg8"
   version="1.1"
   viewBox="0 0 151.12338 146.35147"
   height="146.35147mm"
   width="151.12338mm">
  <defs
     id="defs2" />
  <metadata
     id="metadata5">
    <rdf:RDF>
      <cc:Work
         rdf:about="">
        <dc:format>image/svg+xml</dc:format>
        <dc:type
           rdf:resource="http://purl.org/dc/dcmitype/StillImage" />
        <dc:title></dc:title>
      </cc:Work>
    </rdf:RDF>
  </metadata>
  <path
     style="fill:none;fill-opacity:1;stroke:#000000;stroke-width:1.5;stroke-miterlimit:4;stroke-dasharray:none;stroke-dashoffset:0;stroke-opacity:1"
     d="m 114.22361,46.253881 c -6.28611,1.82466 -14.226151,1.29912 -19.358731,-1.28136 -5.13258,-2.58047 -6.1779,-6.57242 -2.54862,-9.73284 3.62928,-3.16041 11.028211,-4.70125 18.039451,-3.75673 7.01124,0.94452 11.88654,4.13887 11.88654,7.78821 h -16.03729 l 8.01865,6.98272 v 19.39057 c -6.28611,1.81419 -14.226151,1.28864 -19.358731,-1.29183 -2.9626,-1.48949 -4.73289,-3.60607 -4.7415,-5.55775 v -19.78953"
     id="path10" />
  <path
     style="fill:none;fill-opacity:1;stroke:#000000;stroke-width:1.5;stroke-miterlimit:4;stroke-dasharray:none;stroke-dashoffset:0;stroke-opacity:1"
     d="m 126.40663,48.655811 h 16.03729 c 0,2.88062 -3.05669,5.54241 -8.01864,6.98272 l -8.01865,-6.98272"
     id="ellipse817" />
  <path
     style="fill:none;fill-opacity:1;stroke:#000000;stroke-width:1.5;stroke-miterlimit:4;stroke-dasharray:none;stroke-dashoffset:0;stroke-opacity:1"
     d="m 142.44392,68.102431 c 0,2.88061 -3.05669,5.54241 -8.01864,6.98271 l -8.01865,-6.98271 v -20.19481"
     id="path830" />
  <path
     style="fill:none;stroke:#000000;stroke-width:1.5;stroke-linecap:butt;stroke-linejoin:miter;stroke-miterlimit:4;stroke-dasharray:none;stroke-opacity:1"
     d="M 142.44392,68.102431 V 48.655811"
     id="path834" />
  <path
     style="fill:none;stroke:#000000;stroke-width:1.5;stroke-linecap:butt;stroke-linejoin:miter;stroke-miterlimit:4;stroke-dasharray:none;stroke-opacity:1"
     d="M 134.42528,75.085141 V 55.638531"
     id="path836" />
  <path
     style="fill:none;stroke:#000000;stroke-width:1.5;stroke-linecap:butt;stroke-linejoin:miter;stroke-miterlimit:4;stroke-dasharray:none;stroke-opacity:1"
     d="m 122.24225,39.271161 v 19.40105 h -7.91031"
     id="path852" />
  <path
     style="fill:none;stroke:#000000;stroke-width:0.75;stroke-linecap:butt;stroke-linejoin:miter;stroke-miterlimit:4;stroke-dasharray:none;stroke-opacity:1"
     d="m 127.88861,72.498511 c -12.93616,7.08831 -23.2012,7.79273 -35.264321,8.24015 -8.9623,0.33241 -18.297231,-0.7278 -26.581144,-4.16438 -4.392464,-1.8222 -6.9997,-3.80996 -11.518495,-8.41736"
     id="path998" />
  <path
     style="fill:#000000;fill-opacity:1;stroke:#000000;stroke-width:0.17014684;stroke-miterlimit:4;stroke-dasharray:none;stroke-dashoffset:0;stroke-opacity:1"
     d="m 57.288794,69.042751 c 0,0 -0.925672,0.23423 -1.269067,0.53987 -0.362438,0.32244 -0.721165,1.26407 -0.721165,1.26407 l -2.241067,-4.47234 z"
     id="path1004" />
  <path
     style="fill:none;stroke:#000000;stroke-width:0.75;stroke-linecap:butt;stroke-linejoin:miter;stroke-miterlimit:4;stroke-dasharray:none;stroke-opacity:1"
     d="M 0.12190468,42.461821 C 8.6278717,45.385741 15.404898,51.032209 15.404898,51.032209"
     id="path1009" />
  <path
     style="fill:none;stroke:#000000;stroke-width:0.75;stroke-linecap:butt;stroke-linejoin:miter;stroke-miterlimit:4;stroke-dasharray:none;stroke-opacity:1"
     d="M 0.57673597,76.821265 C 10.234552,76.378255 19.562978,68.826369 19.562978,68.826369"
     id="path1011" />
  <path
     id="path1022"
     d="m 18.31224,68.220655 c 0,0 0.912209,0.282144 1.239212,0.605258 0.345146,0.340888 0.654321,1.299929 0.654321,1.299929 l 2.471054,-4.349487 z"
     style="fill:#000000;fill-opacity:1;stroke:#000000;stroke-width:0.17014684;stroke-miterlimit:4;stroke-dasharray:none;stroke-dashoffset:0;stroke-opacity:1" />
  <path
     style="fill:#000000;fill-opacity:1;stroke:#000000;stroke-width:0.17014684;stroke-miterlimit:4;stroke-dasharray:none;stroke-dashoffset:0;stroke-opacity:1"
     d="m 15.835001,49.638451 c 0,0 -0.144165,0.9439 -0.415385,1.31508 -0.286106,0.39176 -1.188894,0.83934 -1.188894,0.83934 l 4.667051,1.80078 z"
     id="path1033" />
  <path
     style="fill:none;stroke:#000000;stroke-width:0.75;stroke-linecap:butt;stroke-linejoin:miter;stroke-miterlimit:4;stroke-dasharray:none;stroke-opacity:1"
     d="m 25.057516,82.638433 c 6.384192,-1.285717 10.469147,-8.808682 10.469147,-8.808682"
     id="path1035" />
  <path
     style="fill:#000000;fill-opacity:1;stroke:#000000;stroke-width:0.17014684;stroke-miterlimit:4;stroke-dasharray:none;stroke-dashoffset:0;stroke-opacity:1"
     d="m 34.120971,74.023424 c 0,0 0.929067,-0.220394 1.374878,-0.108174 0.470463,0.118304 1.223955,0.787331 1.223955,0.787331 l -0.081,-5.001761 z"
     id="path1046" />
  <g
     transform="translate(-3.25851)"
     id="g4571">
    <g
       transform="matrix(0.75,0,0,0.75,-14.418659,-65.032432)"
       id="g994">
      <ellipse
         style="fill:none;fill-opacity:1;stroke:#000000;stroke-width:2;stroke-miterlimit:4;stroke-dasharray:2.00000006, 2.00000006;stroke-dashoffset:0;stroke-opacity:1"
         id="path905"
         cx="71.801476"
         cy="139.53999"
         rx="21.505432"
         ry="11.256925" />
      <path
         style="fill:none;stroke:#000000;stroke-width:2;stroke-linecap:butt;stroke-linejoin:miter;stroke-miterlimit:4;stroke-dasharray:2.00000006, 2.00000006;stroke-dashoffset:0;stroke-opacity:1"
         d="M 51.499336,139.40973 H 69.79473 m 4.218592,0 H 92.2188"
         id="path929" />
      <path
         style="fill:none;stroke:#000000;stroke-width:2;stroke-linecap:butt;stroke-linejoin:miter;stroke-miterlimit:4;stroke-dasharray:2.00000006, 2.00000006;stroke-dashoffset:0;stroke-opacity:1"
         d="m 50.329825,139.40973 0.01142,27.76613 c 0.01141,3.6758 4.110324,7.39202 10.764132,9.40288 6.653804,2.01086 14.851628,2.01086 21.505432,0 6.653808,-2.01086 10.752721,-5.72708 10.752716,-9.74879 v -27.49954"
         id="path942" />
      <path
         id="path965"
         d="M 60.578333,177.16064 V 149.16183 L 83.767952,129.35945"
         style="fill:none;stroke:#000000;stroke-width:2;stroke-linecap:butt;stroke-linejoin:miter;stroke-miterlimit:4;stroke-dasharray:2.00000006, 2.00000006;stroke-dashoffset:0;stroke-opacity:1" />
      <path
         style="fill:none;stroke:#000000;stroke-width:2;stroke-linecap:butt;stroke-linejoin:miter;stroke-miterlimit:4;stroke-dasharray:2.00000006, 2.00000006;stroke-dashoffset:0;stroke-opacity:1"
         d="M 82.473137,177.45598 V 149.16183 L 59.659432,129.61006"
         id="path976" />
    </g>
    <text
       id="text1050"
       y="21.109146"
       x="39.094322"
       style="font-style:normal;font-weight:normal;font-size:4.76249981px;line-height:4.9609375px;font-family:sans-serif;text-align:center;letter-spacing:0px;word-spacing:0px;text-anchor:middle;fill:#000000;fill-opacity:1;stroke:none;stroke-width:0.19843748"
       xml:space="preserve"><tspan
         style="text-align:center;text-anchor:middle;stroke-width:0.19843748"
         y="21.109146"
         x="39.094322"
         id="tspan1048">HDFS</tspan><tspan
         id="tspan1072"
         style="text-align:center;text-anchor:middle;stroke-width:0.19843748"
         y="26.070084"
         x="39.094322">Virtual Disk</tspan></text>
  </g>
  <text
     id="text1064"
     y="26.070084"
     x="93.725143"
     style="font-style:normal;font-weight:normal;font-size:4.76249981px;line-height:4.9609375px;font-family:sans-serif;letter-spacing:0px;word-spacing:0px;fill:#000000;fill-opacity:1;stroke:none;stroke-width:0.19843748"
     xml:space="preserve"><tspan
       style="stroke-width:0.19843748"
       y="26.070084"
       x="93.725143"
       id="tspan1062">Local Disk</tspan></text>
  <g
     id="g4531">
    <rect
       y="0.37499905"
       x="79.33371"
       height="82.224335"
       width="71.414673"
       id="rect1066"
       style="fill:none;fill-opacity:1;stroke:#000000;stroke-width:0.75;stroke-miterlimit:4;stroke-dasharray:none;stroke-dashoffset:0;stroke-opacity:1"
       ry="6.1390071" />
    <text
       id="text1070"
       y="6.4000387"
       x="102.27438"
       style="font-style:normal;font-weight:normal;font-size:4.76249981px;line-height:4.9609375px;font-family:sans-serif;letter-spacing:0px;word-spacing:0px;fill:#000000;fill-opacity:1;stroke:none;stroke-width:0.19843748"
       xml:space="preserve"><tspan
         style="stroke-width:0.19843748"
         y="6.4000387"
         x="102.27438"
         id="tspan1068">Data Node</tspan></text>
  </g>
  <g
     transform="matrix(0.75,0,0,0.75,6.8493867,3.626371)"
     id="g1098">
    <ellipse
       style="fill:none;fill-opacity:1;stroke:#000000;stroke-width:2;stroke-miterlimit:4;stroke-dasharray:2.00000006, 2.00000006;stroke-dashoffset:0;stroke-opacity:1"
       id="ellipse1088"
       cx="71.801476"
       cy="139.53999"
       rx="21.505432"
       ry="11.256925" />
    <path
       style="fill:none;stroke:#000000;stroke-width:2;stroke-linecap:butt;stroke-linejoin:miter;stroke-miterlimit:4;stroke-dasharray:2.00000006, 2.00000006;stroke-dashoffset:0;stroke-opacity:1"
       d="M 51.499336,139.40973 H 69.79473 m 4.218592,0 H 92.2188"
       id="path1090" />
    <path
       style="fill:none;stroke:#000000;stroke-width:2;stroke-linecap:butt;stroke-linejoin:miter;stroke-miterlimit:4;stroke-dasharray:2.00000006, 2.00000006;stroke-dashoffset:0;stroke-opacity:1"
       d="m 50.329825,139.40973 0.01142,27.76613 c 0.01141,3.6758 4.110324,7.39202 10.764132,9.40288 6.653804,2.01086 14.851628,2.01086 21.505432,0 6.653808,-2.01086 10.752721,-5.72708 10.752716,-9.74879 v -27.49954"
       id="path1092" />
    <path
       id="path1094"
       d="M 60.578333,177.16064 V 149.16183 L 83.767952,129.35945"
       style="fill:none;stroke:#000000;stroke-width:2;stroke-linecap:butt;stroke-linejoin:miter;stroke-miterlimit:4;stroke-dasharray:2.00000006, 2.00000006;stroke-dashoffset:0;stroke-opacity:1" />
    <path
       style="fill:none;stroke:#000000;stroke-width:2;stroke-linecap:butt;stroke-linejoin:miter;stroke-miterlimit:4;stroke-dasharray:2.00000006, 2.00000006;stroke-dashoffset:0;stroke-opacity:1"
       d="M 82.473137,177.45598 V 149.16183 L 59.659432,129.61006"
       id="path1096" />
  </g>
  <text
     xml:space="preserve"
     style="font-style:normal;font-weight:normal;font-size:4.76249981px;line-height:4.9609375px;font-family:sans-serif;letter-spacing:0px;word-spacing:0px;fill:#000000;fill-opacity:1;stroke:none;stroke-width:0.19843748"
     x="49.596825"
     y="145.36084"
     id="text1102"><tspan
       id="tspan1100"
       x="49.596825"
       y="145.36084"
       style="stroke-width:0.19843748">Replicate</tspan></text>
  <path
     style="fill:none;stroke:#000000;stroke-width:1.49992287;stroke-linecap:butt;stroke-linejoin:miter;stroke-miterlimit:4;stroke-dasharray:none;stroke-dashoffset:0;stroke-opacity:1"
     d="m 43.979007,67.483266 c 6.891788,7.00707 10.148567,21.197708 10.148567,21.197708"
     id="path1104" />
  <path
     style="fill:#000000;fill-opacity:1;stroke:#000000;stroke-width:0.9956848;stroke-miterlimit:4;stroke-dasharray:none;stroke-dashoffset:0;stroke-opacity:1"
     d="m 55.490067,87.221253 -0.562123,6.232033 -3.215677,-5.303748 c 0,0 1.434992,0.13773 2.118376,-0.04056 0.607012,-0.158335 1.659424,-0.887738 1.659424,-0.887738 z"
     id="path1106" />
  <g
     id="g4547">
    <rect
       ry="6.1390071"
       style="fill:none;fill-opacity:1;stroke:#000000;stroke-width:0.75;stroke-miterlimit:4;stroke-dasharray:none;stroke-dashoffset:0;stroke-opacity:1"
       id="rect4533"
       width="71.414673"
       height="82.224335"
       x="0.48783273"
       y="0.37499905" />
    <text
       xml:space="preserve"
       style="font-style:normal;font-weight:normal;font-size:4.76249981px;line-height:4.9609375px;font-family:sans-serif;letter-spacing:0px;word-spacing:0px;fill:#000000;fill-opacity:1;stroke:none;stroke-width:0.19843748"
       x="22.089054"
       y="6.4000387"
       id="text4537"><tspan
         id="tspan4535"
         x="22.089054"
         y="6.4000387"
         style="stroke-width:0.19843748">Name Node</tspan></text>
  </g>
</svg>
