<?xml version="1.0" encoding="UTF-8" standalone="no"?>
<svg
   xmlns:dc="http://purl.org/dc/elements/1.1/"
   xmlns:cc="http://creativecommons.org/ns#"
   xmlns:rdf="http://www.w3.org/1999/02/22-rdf-syntax-ns#"
   xmlns:svg="http://www.w3.org/2000/svg"
   xmlns="http://www.w3.org/2000/svg"
   width="826.08466"
   height="800"
   viewBox="0 0 218.56823 211.66667"
   version="1.1"
   id="svg8">
  <defs
     id="defs2" />
  <metadata
     id="metadata5">
    <rdf:RDF>
      <cc:Work
         rdf:about="">
        <dc:format>image/svg+xml</dc:format>
        <dc:type
           rdf:resource="http://purl.org/dc/dcmitype/StillImage" />
        <dc:title></dc:title>
      </cc:Work>
    </rdf:RDF>
  </metadata>
  <path
     id="path10"
     d="m 165.20047,66.896526 c -9.09154,2.638988 -20.57514,1.878905 -27.99834,-1.853218 -7.4232,-3.732108 -8.93504,-9.505625 -3.68605,-14.076509 5.249,-4.570869 15.95,-6.799371 26.09028,-5.433321 10.14029,1.36605 17.19139,5.986006 17.19139,11.26401 h -23.19458 l 11.5973,10.099038 v 28.044388 c -9.09154,2.623845 -20.57514,1.863747 -27.99834,-1.868361 -4.28478,-2.154234 -6.84514,-5.215423 -6.85759,-8.038118 V 56.413036"
     style="fill:none;fill-opacity:1;stroke:#000000;stroke-width:2.16943502;stroke-miterlimit:4;stroke-dasharray:none;stroke-dashoffset:0;stroke-opacity:1" />
  <path
     id="ellipse817"
     d="m 182.82065,70.370414 h 23.19457 c 0,4.166212 -4.42086,8.015932 -11.59728,10.099038 L 182.82065,70.370414"
     style="fill:none;fill-opacity:1;stroke:#000000;stroke-width:2.16943502;stroke-miterlimit:4;stroke-dasharray:none;stroke-dashoffset:0;stroke-opacity:1" />
  <path
     id="path830"
     d="m 206.01522,98.495866 c 0,4.166194 -4.42086,8.015934 -11.59728,10.099024 L 182.82065,98.495866 V 69.288314"
     style="fill:none;fill-opacity:1;stroke:#000000;stroke-width:2.16943502;stroke-miterlimit:4;stroke-dasharray:none;stroke-dashoffset:0;stroke-opacity:1" />
  <path
     id="path834"
     d="M 206.01522,98.495866 V 70.370414"
     style="fill:none;stroke:#000000;stroke-width:2.16943502;stroke-linecap:butt;stroke-linejoin:miter;stroke-miterlimit:4;stroke-dasharray:none;stroke-opacity:1" />
  <path
     id="path836"
     d="M 194.41794,108.59489 V 80.469452"
     style="fill:none;stroke:#000000;stroke-width:2.16943502;stroke-linecap:butt;stroke-linejoin:miter;stroke-miterlimit:4;stroke-dasharray:none;stroke-opacity:1" />
  <path
     id="path852"
     d="M 176.79775,56.797488 V 84.857033 H 165.35714"
     style="fill:none;stroke:#000000;stroke-width:2.16943502;stroke-linecap:butt;stroke-linejoin:miter;stroke-miterlimit:4;stroke-dasharray:none;stroke-opacity:1" />
  <path
     id="path998"
     d="m 184.96402,104.85387 c -18.70944,10.25175 -33.55566,11.27055 -51.00243,11.91765 -12.96209,0.48076 -26.46311,-1.05261 -38.444049,-6.0229 -6.352777,-2.63543 -10.123596,-5.51031 -16.659084,-12.173946"
     style="fill:none;stroke:#000000;stroke-width:1.08471751;stroke-linecap:butt;stroke-linejoin:miter;stroke-miterlimit:4;stroke-dasharray:none;stroke-opacity:1" />
  <path
     id="path1004"
     d="m 82.856211,99.855841 c 0,0 -1.33879,0.338769 -1.835439,0.780809 -0.524191,0.46634 -1.043014,1.82821 -1.043014,1.82821 l -3.241233,-6.468299 z"
     style="fill:#000000;fill-opacity:1;stroke:#000000;stroke-width:0.24608167;stroke-miterlimit:4;stroke-dasharray:none;stroke-dashoffset:0;stroke-opacity:1" />
  <path
     id="path1009"
     d="M 0.17630952,61.412108 C 12.478405,65.640944 22.279951,73.807374 22.279951,73.807374"
     style="fill:none;stroke:#000000;stroke-width:1.08471751;stroke-linecap:butt;stroke-linejoin:miter;stroke-miterlimit:4;stroke-dasharray:none;stroke-opacity:1" />
  <path
     id="path1011"
     d="M 0.83412752,111.10583 C 14.802131,110.46511 28.29374,99.54289 28.29374,99.54289"
     style="fill:none;stroke:#000000;stroke-width:1.08471751;stroke-linecap:butt;stroke-linejoin:miter;stroke-miterlimit:4;stroke-dasharray:none;stroke-opacity:1" />
  <path
     style="fill:#000000;fill-opacity:1;stroke:#000000;stroke-width:0.24608167;stroke-miterlimit:4;stroke-dasharray:none;stroke-dashoffset:0;stroke-opacity:1"
     d="m 26.48481,98.666852 c 0,0 1.319319,0.408062 1.79226,0.875379 0.499181,0.493019 0.946338,1.880079 0.946338,1.880079 l 3.57386,-6.290625 z"
     id="path1022" />
  <path
     id="path1033"
     d="m 22.902004,71.791596 c 0,0 -0.208504,1.365153 -0.600767,1.901987 -0.413792,0.566599 -1.719485,1.213929 -1.719485,1.213929 l 6.749908,2.60445 z"
     style="fill:#000000;fill-opacity:1;stroke:#000000;stroke-width:0.24608167;stroke-miterlimit:4;stroke-dasharray:none;stroke-dashoffset:0;stroke-opacity:1" />
  <path
     id="path1035"
     d="m 36.240435,119.51914 c 9.233394,-1.85952 15.141423,-12.73991 15.141423,-12.73991"
     style="fill:none;stroke:#000000;stroke-width:1.08471751;stroke-linecap:butt;stroke-linejoin:miter;stroke-miterlimit:4;stroke-dasharray:none;stroke-opacity:1" />
  <path
     id="path1046"
     d="m 49.34882,107.05934 c 0,0 1.3437,-0.31875 1.988472,-0.15645 0.680426,0.1711 1.770194,1.13871 1.770194,1.13871 l -0.117149,-7.234 z"
     style="fill:#000000;fill-opacity:1;stroke:#000000;stroke-width:0.24608167;stroke-miterlimit:4;stroke-dasharray:none;stroke-dashoffset:0;stroke-opacity:1" />
  <g
     id="g4571"
     transform="matrix(1.44629,0,0,1.44629,-4.7127505,1.3792896e-6)">
    <g
       id="g994"
       transform="matrix(0.75,0,0,0.75,-14.418659,-65.032432)">
      <ellipse
         ry="11.256925"
         rx="21.505432"
         cy="139.53999"
         cx="71.801476"
         id="path905"
         style="fill:none;fill-opacity:1;stroke:#000000;stroke-width:2;stroke-miterlimit:4;stroke-dasharray:2.00000006, 2.00000006;stroke-dashoffset:0;stroke-opacity:1" />
      <path
         id="path929"
         d="M 51.499336,139.40973 H 69.79473 m 4.218592,0 H 92.2188"
         style="fill:none;stroke:#000000;stroke-width:2;stroke-linecap:butt;stroke-linejoin:miter;stroke-miterlimit:4;stroke-dasharray:2.00000006, 2.00000006;stroke-dashoffset:0;stroke-opacity:1" />
      <path
         id="path942"
         d="m 50.329825,139.40973 0.01142,27.76613 c 0.01141,3.6758 4.110324,7.39202 10.764132,9.40288 6.653804,2.01086 14.851628,2.01086 21.505432,0 6.653808,-2.01086 10.752721,-5.72708 10.752716,-9.74879 v -27.49954"
         style="fill:none;stroke:#000000;stroke-width:2;stroke-linecap:butt;stroke-linejoin:miter;stroke-miterlimit:4;stroke-dasharray:2.00000006, 2.00000006;stroke-dashoffset:0;stroke-opacity:1" />
      <path
         style="fill:none;stroke:#000000;stroke-width:2;stroke-linecap:butt;stroke-linejoin:miter;stroke-miterlimit:4;stroke-dasharray:2.00000006, 2.00000006;stroke-dashoffset:0;stroke-opacity:1"
         d="M 60.578333,177.16064 V 149.16183 L 83.767952,129.35945"
         id="path965" />
      <path
         id="path976"
         d="M 82.473137,177.45598 V 149.16183 L 59.659432,129.61006"
         style="fill:none;stroke:#000000;stroke-width:2;stroke-linecap:butt;stroke-linejoin:miter;stroke-miterlimit:4;stroke-dasharray:2.00000006, 2.00000006;stroke-dashoffset:0;stroke-opacity:1" />
    </g>
    <text
       xml:space="preserve"
       style="font-style:normal;font-weight:normal;font-size:4.76249981px;line-height:4.9609375px;font-family:sans-serif;text-align:center;letter-spacing:0px;word-spacing:0px;text-anchor:middle;fill:#000000;fill-opacity:1;stroke:none;stroke-width:0.19843748"
       x="39.094322"
       y="21.109146"
       id="text1050"><tspan
         id="tspan1048"
         x="39.094322"
         y="21.109146"
         style="text-align:center;text-anchor:middle;stroke-width:0.19843748">HDFS</tspan><tspan
         x="39.094322"
         y="26.070084"
         style="text-align:center;text-anchor:middle;stroke-width:0.19843748"
         id="tspan1072">Virtual Disk</tspan></text>
  </g>
  <text
     xml:space="preserve"
     style="font-style:normal;font-weight:normal;font-size:6.88795567px;line-height:7.17495441px;font-family:sans-serif;letter-spacing:0px;word-spacing:0px;fill:#000000;fill-opacity:1;stroke:none;stroke-width:0.28699815"
     x="135.55374"
     y="37.704903"
     id="text1064"><tspan
       id="tspan1062"
       x="135.55374"
       y="37.704903"
       style="stroke-width:0.28699815">Local Disk</tspan></text>
  <g
     transform="matrix(1.44629,0,0,1.44629,5.1746887e-7,1.3792896e-6)"
     id="g4531">
    <rect
       ry="6.1390071"
       style="fill:none;fill-opacity:1;stroke:#000000;stroke-width:0.75;stroke-miterlimit:4;stroke-dasharray:none;stroke-dashoffset:0;stroke-opacity:1"
       id="rect1066"
       width="71.414673"
       height="82.224335"
       x="79.33371"
       y="0.37499905" />
    <text
       xml:space="preserve"
       style="font-style:normal;font-weight:normal;font-size:4.76249981px;line-height:4.9609375px;font-family:sans-serif;letter-spacing:0px;word-spacing:0px;fill:#000000;fill-opacity:1;stroke:none;stroke-width:0.19843748"
       x="102.27438"
       y="6.4000387"
       id="text1070"><tspan
         id="tspan1068"
         x="102.27438"
         y="6.4000387"
         style="stroke-width:0.19843748">Data Node</tspan></text>
  </g>
  <g
     id="g1098"
     transform="matrix(1.0847175,0,0,1.0847175,9.9061995,5.2447854)">
    <ellipse
       ry="11.256925"
       rx="21.505432"
       cy="139.53999"
       cx="71.801476"
       id="ellipse1088"
       style="fill:none;fill-opacity:1;stroke:#000000;stroke-width:2;stroke-miterlimit:4;stroke-dasharray:2.00000006, 2.00000006;stroke-dashoffset:0;stroke-opacity:1" />
    <path
       id="path1090"
       d="M 51.499336,139.40973 H 69.79473 m 4.218592,0 H 92.2188"
       style="fill:none;stroke:#000000;stroke-width:2;stroke-linecap:butt;stroke-linejoin:miter;stroke-miterlimit:4;stroke-dasharray:2.00000006, 2.00000006;stroke-dashoffset:0;stroke-opacity:1" />
    <path
       id="path1092"
       d="m 50.329825,139.40973 0.01142,27.76613 c 0.01141,3.6758 4.110324,7.39202 10.764132,9.40288 6.653804,2.01086 14.851628,2.01086 21.505432,0 6.653808,-2.01086 10.752721,-5.72708 10.752716,-9.74879 v -27.49954"
       style="fill:none;stroke:#000000;stroke-width:2;stroke-linecap:butt;stroke-linejoin:miter;stroke-miterlimit:4;stroke-dasharray:2.00000006, 2.00000006;stroke-dashoffset:0;stroke-opacity:1" />
    <path
       style="fill:none;stroke:#000000;stroke-width:2;stroke-linecap:butt;stroke-linejoin:miter;stroke-miterlimit:4;stroke-dasharray:2.00000006, 2.00000006;stroke-dashoffset:0;stroke-opacity:1"
       d="M 60.578333,177.16064 V 149.16183 L 83.767952,129.35945"
       id="path1094" />
    <path
       id="path1096"
       d="M 82.473137,177.45598 V 149.16183 L 59.659432,129.61006"
       style="fill:none;stroke:#000000;stroke-width:2;stroke-linecap:butt;stroke-linejoin:miter;stroke-miterlimit:4;stroke-dasharray:2.00000006, 2.00000006;stroke-dashoffset:0;stroke-opacity:1" />
  </g>
  <text
     id="text1102"
     y="210.23393"
     x="71.731392"
     style="font-style:normal;font-weight:normal;font-size:6.88795567px;line-height:7.17495441px;font-family:sans-serif;letter-spacing:0px;word-spacing:0px;fill:#000000;fill-opacity:1;stroke:none;stroke-width:0.28699815"
     xml:space="preserve"><tspan
       style="stroke-width:0.28699815"
       y="210.23393"
       x="71.731392"
       id="tspan1100">Replicate</tspan></text>
  <path
     id="path1104"
     d="M 63.606399,97.600374 C 73.573923,107.73463 78.28417,128.25841 78.28417,128.25841"
     style="fill:none;stroke:#000000;stroke-width:2.16932344;stroke-linecap:butt;stroke-linejoin:miter;stroke-miterlimit:4;stroke-dasharray:none;stroke-dashoffset:0;stroke-opacity:1" />
  <path
     id="path1106"
     d="m 80.25473,126.14723 -0.812993,9.01332 -4.650802,-7.67075 c 0,0 2.075415,0.19919 3.063786,-0.0587 0.877916,-0.229 2.400009,-1.28393 2.400009,-1.28393 z"
     style="fill:#000000;fill-opacity:1;stroke:#000000;stroke-width:1.44004893;stroke-miterlimit:4;stroke-dasharray:none;stroke-dashoffset:0;stroke-opacity:1" />
  <g
     transform="matrix(1.44629,0,0,1.44629,5.1746887e-7,1.3792896e-6)"
     id="g4547">
    <rect
       y="0.37499905"
       x="0.48783273"
       height="82.224335"
       width="71.414673"
       id="rect4533"
       style="fill:none;fill-opacity:1;stroke:#000000;stroke-width:0.75;stroke-miterlimit:4;stroke-dasharray:none;stroke-dashoffset:0;stroke-opacity:1"
       ry="6.1390071" />
    <text
       id="text4537"
       y="6.4000387"
       x="22.089054"
       style="font-style:normal;font-weight:normal;font-size:4.76249981px;line-height:4.9609375px;font-family:sans-serif;letter-spacing:0px;word-spacing:0px;fill:#000000;fill-opacity:1;stroke:none;stroke-width:0.19843748"
       xml:space="preserve"><tspan
         style="stroke-width:0.19843748"
         y="6.4000387"
         x="22.089054"
         id="tspan4535">Name Node</tspan></text>
  </g>
</svg>
