<?xml version="1.0" encoding="UTF-8" standalone="no"?>
<svg
   xmlns:dc="http://purl.org/dc/elements/1.1/"
   xmlns:cc="http://creativecommons.org/ns#"
   xmlns:rdf="http://www.w3.org/1999/02/22-rdf-syntax-ns#"
   xmlns:svg="http://www.w3.org/2000/svg"
   xmlns="http://www.w3.org/2000/svg"
   id="svg8"
   version="1.1"
   viewBox="0 0 131.14094 137.69307"
   height="137.69307mm"
   width="131.14093mm">
  <defs
     id="defs2" />
  <metadata
     id="metadata5">
    <rdf:RDF>
      <cc:Work
         rdf:about="">
        <dc:format>image/svg+xml</dc:format>
        <dc:type
           rdf:resource="http://purl.org/dc/dcmitype/StillImage" />
        <dc:title></dc:title>
      </cc:Work>
    </rdf:RDF>
  </metadata>
  <g
     transform="translate(47.285877,-86.65869)"
     id="layer1">
    <g
       id="g4737">
      <path
         style="opacity:1;fill:none;fill-opacity:1;stroke:#000000;stroke-width:2;stroke-linecap:round;stroke-miterlimit:4;stroke-dasharray:none;stroke-dashoffset:29.23999977;stroke-opacity:1"
         d="m 76.717454,107.55289 c -3e-5,2.67509 -26.02307,4.84367 -58.1241,4.84367 -32.101032,0 -58.124069,-2.16858 -58.124103,-4.84367"
         id="ellipse4489" />
      <ellipse
         id="ellipse4493"
         style="opacity:1;fill:none;fill-opacity:1;stroke:#000000;stroke-width:2;stroke-linecap:round;stroke-miterlimit:4;stroke-dasharray:none;stroke-dashoffset:29.23999977;stroke-opacity:1"
         cx="18.593355"
         cy="92.502365"
         rx="58.124104"
         ry="4.8436751" />
      <path
         style="fill:none;stroke:#000000;stroke-width:2;stroke-linecap:butt;stroke-linejoin:miter;stroke-miterlimit:4;stroke-dasharray:none;stroke-opacity:1"
         d="m -39.540139,105.48863 v 2.06135"
         id="path4530" />
      <path
         style="fill:none;stroke:#000000;stroke-width:2;stroke-linecap:butt;stroke-linejoin:miter;stroke-miterlimit:4;stroke-dasharray:none;stroke-opacity:1"
         d="M -39.540139,92.514921 V 103.12654"
         id="path4495" />
      <path
         style="opacity:1;fill:none;fill-opacity:1;stroke:#000000;stroke-width:2;stroke-linecap:round;stroke-miterlimit:4;stroke-dasharray:none;stroke-dashoffset:29.25354385;stroke-opacity:1"
         d="m -39.540131,103.12686 a 1.1809973,1.1809973 0 0 1 0.0021,0 1.1809973,1.1809973 0 0 1 1.180998,1.18099 v 0 a 1.1809973,1.1809973 0 0 1 -1.180998,1.181 1.1809973,1.1809973 0 0 1 -0.0021,0"
         id="path4523" />
      <path
         style="opacity:1;fill:none;fill-opacity:1;stroke:#000000;stroke-width:2;stroke-linecap:round;stroke-miterlimit:4;stroke-dasharray:none;stroke-dashoffset:29.25354385;stroke-opacity:1"
         d="m 76.690904,101.71854 a 1.2071614,1.2071614 0 0 1 -1.20561,-1.20716 1.2071614,1.2071614 0 0 1 1.20561,-1.207157"
         id="path4532" />
      <path
         style="fill:none;stroke:#000000;stroke-width:2;stroke-linecap:butt;stroke-linejoin:miter;stroke-miterlimit:4;stroke-dasharray:none;stroke-opacity:1"
         d="m 76.690714,101.71843 v 5.78725"
         id="path4549" />
      <path
         style="fill:none;stroke:#000000;stroke-width:2;stroke-linecap:butt;stroke-linejoin:miter;stroke-miterlimit:4;stroke-dasharray:none;stroke-opacity:1"
         d="m 76.690714,92.457498 -1e-5,6.846612"
         id="path4534" />
      <path
         id="path4555"
         d="m 76.708064,101.55977 c 0,0 -26.02307,4.7969 -58.1241,4.7969 -32.101032,0 -58.124103,-0.86804 -58.124103,-0.86804"
         style="opacity:1;fill:#ffffff;fill-opacity:1;stroke:#000000;stroke-width:1;stroke-linecap:round;stroke-miterlimit:4;stroke-dasharray:none;stroke-dashoffset:29.23999977;stroke-opacity:1" />
      <path
         id="path4557"
         d="m 76.690704,99.30411 c 0,0 -25.99632,4.74446 -58.09735,4.74446 -32.101032,0 -58.133485,-0.92171 -58.133485,-0.92171"
         style="opacity:1;fill:none;fill-opacity:1;stroke:#000000;stroke-width:1;stroke-linecap:round;stroke-miterlimit:4;stroke-dasharray:none;stroke-dashoffset:29.23999977;stroke-opacity:1" />
      <path
         style="opacity:1;fill:none;fill-opacity:1;stroke:#000000;stroke-width:1;stroke-linecap:round;stroke-miterlimit:4;stroke-dasharray:none;stroke-dashoffset:29.23999977;stroke-opacity:1"
         d="m 58.741724,92.651299 a 41.281776,3.0419996 0 0 1 -41.28178,3.041999 41.281776,3.0419996 0 0 1 -41.281774,-3.041999 41.281776,3.0419996 0 0 1 41.281774,-3.042 41.281776,3.0419996 0 0 1 41.28178,3.042 z"
         id="ellipse4559" />
      <path
         style="opacity:1;fill:none;fill-opacity:1;stroke:#000000;stroke-width:1;stroke-linecap:round;stroke-miterlimit:4;stroke-dasharray:none;stroke-dashoffset:29.23999977;stroke-opacity:1"
         d="m -12.092046,94.775108 a 29.552296,1.5686179 0 0 1 -2.64e-4,-0.0071 29.552296,1.5686179 0 0 1 29.552294,-1.568618 29.552296,1.5686179 0 0 1 29.5523,1.568618 v 0 a 29.552296,1.5686179 0 0 1 -6e-5,0.0032"
         id="path4568" />
      <path
         style="fill:none;stroke:#000000;stroke-width:2;stroke-linecap:butt;stroke-linejoin:miter;stroke-miterlimit:4;stroke-dasharray:none;stroke-opacity:1"
         d="m -37.420788,108.88856 c 0,2.06602 -1.075176,2.23466 -1.454647,2.27684 -0.379476,0.0422 -0.865221,0.21363 -1.112223,0.68079 -0.08395,0.15879 -0.0778,0.53549 0.036,0.70699 0.249312,0.37572 0.301998,0.36467 0.566214,0.53322 0.305686,0.19501 0.860344,0.26148 1.142475,0.40854 0.889122,0.46346 1.270704,1.15001 0.746598,1.91116 -0.654967,0.95119 -1.287659,0.69426 -3.850724,2.1593 -0.698358,0.39918 -1.764208,1.24927 -2.44992,2.11588 -0.697048,0.88094 -1.112971,1.37574 -1.719029,2.63903 -0.461736,0.96246 -0.769833,3.39792 -0.769833,3.39792 v 72.70852 c 0,2.74291 0.187131,4.95769 1.624471,6.55913 1.702305,1.89666 3.459036,2.2035 4.65102,3.81623 0.996024,1.3476 1.628385,2.9852 1.908111,4.65102 0.130483,0.77705 0.763807,2.28758 1.177589,2.86216"
         id="path4572" />
      <path
         id="path4602"
         d="m 73.989914,108.88856 c 0,2.06602 1.07518,2.23466 1.45465,2.27684 0.37948,0.0422 0.86523,0.21363 1.11224,0.68079 0.084,0.15879 0.0778,0.53549 -0.036,0.70699 -0.24932,0.37572 -0.302,0.36467 -0.56622,0.53322 -0.30569,0.19501 -0.86035,0.26148 -1.14248,0.40854 -0.88913,0.46346 -1.27071,1.15001 -0.7466,1.91116 0.65497,0.95119 1.28766,0.69426 3.85074,2.1593 0.69836,0.39918 1.76422,1.24927 2.44993,2.11588 0.69706,0.88094 1.11298,1.37574 1.71904,2.63903 0.46174,0.96246 0.76984,3.39792 0.76984,3.39792 v 72.70852 c 0,2.74291 -0.18713,4.95769 -1.62448,6.55913 -1.70232,1.89666 -3.45906,2.2035 -4.65105,3.81623 -0.99602,1.3476 -1.52097,3.02256 -1.90812,4.65102 -0.18642,0.78415 -0.7638,2.28758 -1.17758,2.86216"
         style="fill:none;stroke:#000000;stroke-width:2;stroke-linecap:butt;stroke-linejoin:miter;stroke-miterlimit:4;stroke-dasharray:none;stroke-opacity:1" />
      <path
         style="opacity:1;fill:none;fill-opacity:1;stroke:#000000;stroke-width:3;stroke-linecap:round;stroke-miterlimit:4;stroke-dasharray:none;stroke-dashoffset:29.23999977;stroke-opacity:1"
         d="m 73.612214,216.1514 c -6.30925,3.84954 -28.0254,6.70036 -55.15389,6.70036 -27.727795,0 -49.848739,-2.97817 -55.547798,-6.95692"
         id="path4617" />
      <path
         style="opacity:1;fill:none;fill-opacity:1;stroke:#000000;stroke-width:1;stroke-linecap:round;stroke-miterlimit:4;stroke-dasharray:none;stroke-dashoffset:29.23999977;stroke-opacity:1"
         d="m 74.465454,115.77183 c -6.97403,2.02344 -29.34833,3.50394 -55.8721,3.50394 -27.181291,0 -50.004828,-1.55481 -56.362196,-3.65541"
         id="path4629" />
      <text
         xml:space="preserve"
         style="font-style:normal;font-variant:normal;font-weight:normal;font-stretch:normal;font-size:4.93888903px;line-height:6.61458302px;font-family:'Ubuntu Mono';-inkscape-font-specification:'Ubuntu Mono, Normal';font-variant-ligatures:normal;font-variant-caps:normal;font-variant-numeric:normal;font-feature-settings:normal;text-align:start;letter-spacing:0px;word-spacing:0px;writing-mode:lr-tb;text-anchor:start;fill:#000000;fill-opacity:1;stroke:none;stroke-width:0.26458332"
         x="-20.247211"
         y="174.88148"
         id="text4633"><tspan
           id="tspan4631"
           x="-20.247211"
           y="174.88148"
           style="font-style:normal;font-variant:normal;font-weight:normal;font-stretch:normal;font-size:50.79999924px;font-family:'Ubuntu Mono';-inkscape-font-specification:'Ubuntu Mono, Normal';font-variant-ligatures:normal;font-variant-caps:normal;font-variant-numeric:normal;font-feature-settings:normal;text-align:start;writing-mode:lr-tb;text-anchor:start;stroke-width:0.26458332">JAR</tspan></text>
    </g>
  </g>
</svg>
