<?xml version="1.0" encoding="UTF-8" standalone="no"?>
<svg
   xmlns:dc="http://purl.org/dc/elements/1.1/"
   xmlns:cc="http://creativecommons.org/ns#"
   xmlns:rdf="http://www.w3.org/1999/02/22-rdf-syntax-ns#"
   xmlns:svg="http://www.w3.org/2000/svg"
   xmlns="http://www.w3.org/2000/svg"
   xmlns:sodipodi="http://sodipodi.sourceforge.net/DTD/sodipodi-0.dtd"
   xmlns:inkscape="http://www.inkscape.org/namespaces/inkscape"
   version="1.2"
   viewBox="0 0 424.88562 183.5463"
   preserveAspectRatio="xMidYMid"
   xml:space="preserve"
   id="svg720"
   width="424.88562"
   height="183.54631"
   style="fill-rule:evenodd;stroke-width:28.22200012;stroke-linejoin:round"
   sodipodi:docname="location.svg"
   inkscape:version="0.92.1 15371"><sodipodi:namedview
     pagecolor="#ffffff"
     bordercolor="#666666"
     borderopacity="1"
     objecttolerance="10"
     gridtolerance="10"
     guidetolerance="10"
     inkscape:pageopacity="0"
     inkscape:pageshadow="2"
     inkscape:window-width="2495"
     inkscape:window-height="1416"
     id="namedview4558"
     showgrid="false"
     inkscape:zoom="2.6303892"
     inkscape:cx="96.065436"
     inkscape:cy="66.137077"
     inkscape:window-x="2625"
     inkscape:window-y="24"
     inkscape:window-maximized="1"
     inkscape:current-layer="svg720"
     fit-margin-top="0"
     fit-margin-left="0"
     fit-margin-right="0"
     fit-margin-bottom="0" /><defs
     id="defs4927" /><metadata
     id="metadata724"><rdf:RDF><cc:Work
         rdf:about=""><dc:format>image/svg+xml</dc:format><dc:type
           rdf:resource="http://purl.org/dc/dcmitype/StillImage" /><dc:title></dc:title></cc:Work></rdf:RDF></metadata><path
     style="fill:none;stroke:#000000;stroke-width:3.59060097;stroke-linejoin:round"
     id="path253"
     d="M 19.6779,74.717873 H 1.7953005 v -35.7652 H 37.5605 v 35.7652 z"
     inkscape:connector-curvature="0" /><rect
     style="fill:none;stroke:none;stroke-width:1.98694003"
     id="rect304"
     height="37.173279"
     width="92.440376"
     y="34.981262"
     x="47.430836"
     class="BoundingBox" /><script
     type="text/ecmascript"
     id="script718" /><path
     id="path5956"
     d="M 19.6779,74.717873 V 103.82729"
     style="fill:none;stroke:#000000;stroke-width:2;stroke-linecap:butt;stroke-linejoin:miter;stroke-miterlimit:4;stroke-dasharray:none;stroke-opacity:1"
     inkscape:connector-curvature="0" /><path
     style="fill:none;stroke:#000000;stroke-width:2;stroke-linecap:butt;stroke-linejoin:miter;stroke-miterlimit:4;stroke-dasharray:none;stroke-opacity:1"
     d="M 19.6779,9.3856224 V 38.495043"
     id="path5958"
     inkscape:connector-curvature="0" /><circle
     r="4.2607985"
     cy="107.23592"
     cx="19.677898"
     id="path5960"
     style="opacity:1;fill:#ffffff;fill-opacity:1;stroke:#000000;stroke-width:2;stroke-miterlimit:4;stroke-dasharray:none;stroke-dashoffset:0;stroke-opacity:1" /><circle
     style="opacity:1;fill:#ffffff;fill-opacity:1;stroke:#000000;stroke-width:2;stroke-miterlimit:4;stroke-dasharray:none;stroke-dashoffset:0;stroke-opacity:1"
     id="circle5971"
     cx="19.677898"
     cy="5.2607985"
     r="4.2607985" /><g
     transform="rotate(-180,68.49285,71.727591)"
     id="g7045"><path
       d="M 38.204201,56.860677 60.921582,78.006108 69.109646,60.151241 Z"
       id="path458"
       style="fill:#000000;fill-rule:evenodd;stroke:none;stroke-width:1.98694003;stroke-linejoin:round"
       inkscape:connector-curvature="0" /><path
       style="fill:none;stroke:#000000;stroke-width:1.9993701;stroke-linecap:butt;stroke-linejoin:miter;stroke-miterlimit:4;stroke-dasharray:5.99811029, 1.9993701;stroke-dashoffset:0;stroke-opacity:1"
       d="M 63.987295,68.50042 C 92.702307,81.490545 98.171833,90.378525 98.171833,90.378525"
       id="path7041"
       inkscape:connector-curvature="0" /></g><g
     transform="rotate(146.10403,206.18931,115.46022)"
     id="g7068"><path
       style="fill:#000000;fill-rule:evenodd;stroke:none;stroke-width:1.98694003;stroke-linejoin:round"
       id="path7058"
       d="m 142.73946,127.81047 29.34187,10.11252 0.24151,-19.64134 z"
       inkscape:connector-curvature="0" /><path
       id="path7060"
       d="m 171.42607,128.17817 c 27.14951,0 27.00584,0.0387 27.00584,0.0387"
       style="fill:none;stroke:#000000;stroke-width:1.9993701;stroke-linecap:butt;stroke-linejoin:miter;stroke-miterlimit:4;stroke-dasharray:5.99811029, 1.9993701;stroke-dashoffset:0;stroke-opacity:1"
       inkscape:connector-curvature="0" /></g><g
     id="g4634"
     transform="translate(357.58523,-19.809914)"><path
       sodipodi:nodetypes="ccccc"
       inkscape:connector-curvature="0"
       id="path4592"
       d="m -103.88536,62.907041 c 4.246492,6.561609 4.439514,13.123218 4.439514,17.847577 h 4.061796 c 0,-4.724359 0.193026,-11.285968 4.439516,-17.847577 z"
       style="fill:#000000;fill-opacity:1;stroke:#000000;stroke-width:0.83728671px;stroke-linecap:butt;stroke-linejoin:miter;stroke-opacity:1" /><path
       style="fill:#000000;fill-opacity:1;stroke:#000000;stroke-width:0.83728671px;stroke-linecap:butt;stroke-linejoin:miter;stroke-opacity:1"
       d="m -103.88536,98.602197 c 4.246492,-6.561611 4.439514,-13.12322 4.439514,-17.847579 h 4.061796 c 0,4.724359 0.193026,11.285968 4.439516,17.847579 z"
       id="path4614"
       inkscape:connector-curvature="0"
       sodipodi:nodetypes="ccccc" /><path
       style="fill:#000000;fill-opacity:1;stroke:#000000;stroke-width:0.83728671px;stroke-linecap:butt;stroke-linejoin:miter;stroke-opacity:1"
       d="m -79.567369,74.284206 c -6.561609,4.246492 -13.123218,4.439514 -17.847577,4.439514 v 4.061796 c 4.724359,0 11.285968,0.193026 17.847577,4.439516 z"
       id="path4626"
       inkscape:connector-curvature="0"
       sodipodi:nodetypes="ccccc" /><path
       sodipodi:nodetypes="ccccc"
       inkscape:connector-curvature="0"
       id="path4628"
       d="m -115.26253,74.284206 c 6.56162,4.246492 13.12322,4.439514 17.847584,4.439514 v 4.061796 c -4.724364,0 -11.285964,0.193026 -17.847584,4.439516 z"
       style="fill:#000000;fill-opacity:1;stroke:#000000;stroke-width:0.83728671px;stroke-linecap:butt;stroke-linejoin:miter;stroke-opacity:1" /></g><path
     style="fill:none;stroke:#000000;stroke-width:3.77952766;stroke-linecap:butt;stroke-linejoin:miter;stroke-miterlimit:4;stroke-dasharray:none;stroke-opacity:1"
     d="m 216.11952,16.573559 c 0,0 0,65.009393 0,74.893862 0,9.884469 -7.60344,20.529279 -19.0086,20.529279 -11.40515,0 -85.1585,0 -85.1585,0"
     id="path4674"
     inkscape:connector-curvature="0" /><g
     id="g4644"
     transform="translate(356.25463,-18.479312)"><path
       sodipodi:nodetypes="sssssssss"
       d="m -78.272945,42.267927 c -4.977109,0 -7.293018,2.956965 -7.293018,5.913931 v 23.937339 c 0,2.956966 3.076253,5.984335 8.053362,5.984335 H 59.295995 c 4.977111,0 8.361951,-3.027369 8.361951,-5.984335 V 48.181858 c 0,-2.956966 -2.43441,-5.913931 -7.411521,-5.913931 z"
       id="path308"
       style="fill:#ffffff;fill-opacity:1;stroke:#000000;stroke-width:1.94606245;stroke-linejoin:round;stroke-miterlimit:4;stroke-dasharray:none"
       inkscape:connector-curvature="0" /><text
       style="font-size:0.84484726px;stroke-width:1.98694003"
       y="-299.22885"
       x="-347.78122"
       class="TextShape"
       id="text316"><tspan
         class="TextParagraph"
         font-size="353px"
         font-weight="400"
         id="tspan314"
         style="font-weight:400;font-size:21.33333206px;font-family:'Liberation Sans', sans-serif;stroke-width:1.98694003"><tspan
           class="TextPosition"
           x="-77.782127"
           y="68.138855"
           id="tspan312"
           style="font-size:21.33333206px;fill:#000000;stroke:none;stroke-width:1.98694003">PositionPoint</tspan></tspan></text>
</g><path
     inkscape:connector-curvature="0"
     id="path4685"
     d="m 216.11952,183.50118 v -24.50857 c 0,-9.88447 -7.60344,-20.52929 -19.0086,-20.52929 h -85.1585"
     style="fill:none;stroke:#000000;stroke-width:3.77952766;stroke-linecap:butt;stroke-linejoin:miter;stroke-miterlimit:4;stroke-dasharray:none;stroke-opacity:1"
     sodipodi:nodetypes="cssc" /><path
     inkscape:connector-curvature="0"
     id="path4697"
     d="m 247.84218,16.573559 c 0,0 0,65.009393 0,74.893862 0,9.884469 7.60344,20.529279 19.0086,20.529279 11.40515,0 85.1585,0 85.1585,0"
     style="fill:none;stroke:#000000;stroke-width:3.77952766;stroke-linecap:butt;stroke-linejoin:miter;stroke-miterlimit:4;stroke-dasharray:none;stroke-opacity:1" /><path
     style="fill:none;stroke:#000000;stroke-width:3.77952766;stroke-linecap:butt;stroke-linejoin:miter;stroke-miterlimit:4;stroke-dasharray:none;stroke-opacity:1"
     d="m 247.84218,183.54631 v -24.5537 c 0,-9.88447 7.60344,-20.52929 19.0086,-20.52929 h 85.1585"
     id="path4699"
     inkscape:connector-curvature="0"
     sodipodi:nodetypes="cssc" /><g
     id="g4672"
     transform="translate(-21.09954,12.818508)"><path
       style="fill:#ffffff;fill-opacity:1;stroke:#000000;stroke-width:1.61867237;stroke-linejoin:round;stroke-miterlimit:4;stroke-dasharray:none"
       id="path6343"
       d="m 125.37383,71.672747 c -3.44336,0 -6.88671,2.956965 -6.88671,5.913931 v 23.937342 c 0,2.95696 3.44335,5.98433 6.88671,5.98433 h 92.1507 c 3.44335,0 6.96869,-3.02737 6.96869,-5.98433 V 77.586678 c 0,-2.956966 -3.52534,-5.913931 -6.96869,-5.913931 z"
       inkscape:connector-curvature="0" /><text
       style="font-size:0.84484726px;stroke-width:1.98694003"
       id="text6349"
       class="TextShape"
       x="-143.76414"
       y="-269.82404"><tspan
         style="font-weight:400;font-size:21.33333206px;font-family:'Liberation Sans', sans-serif;stroke-width:1.98694003"
         id="tspan6347"
         font-weight="400"
         font-size="353px"
         class="TextParagraph"><tspan
           style="font-size:21.33333206px;fill:#000000;stroke:none;stroke-width:1.98694003"
           id="tspan6345"
           y="97.543671"
           x="126.23496"
           class="TextPosition">Location</tspan></tspan></text>
</g><g
     style="fill-rule:evenodd;stroke-width:28.22200012;stroke-linejoin:round"
     transform="translate(-140.0123,-59.520703)"
     id="g5247"><path
       inkscape:connector-curvature="0"
       d="m 174.54359,68.898567 c -2.95696,0 -5.91393,2.956965 -5.91393,5.913931 v 23.937339 c 0,2.956963 2.95697,5.984333 5.91393,5.984333 h 79.13403 c 2.95697,0 5.98434,-3.02737 5.98434,-5.984333 V 74.812498 c 0,-2.956966 -3.02737,-5.913931 -5.98434,-5.913931 z"
       id="path308-7"
       style="fill:#ffffff;fill-opacity:1;stroke:#000000;stroke-width:1.5;stroke-linejoin:round;stroke-miterlimit:4;stroke-dasharray:none" /><text
       y="-272.59827"
       x="-90.931427"
       class="TextShape"
       id="text316-6"
       style="font-size:0.84484726px;stroke-width:1.98694003"><tspan
         class="TextParagraph"
         font-size="353px"
         font-weight="400"
         id="tspan314-5"
         style="font-weight:400;font-size:21.33333206px;font-family:'Liberation Sans', sans-serif;stroke-width:1.98694003"><tspan
           class="TextPosition"
           x="179.06769"
           y="94.76947"
           id="tspan312-6"
           style="font-size:21.33333206px;fill:#000000;stroke:none;stroke-width:1.98694003">Switch</tspan></tspan></text>
</g></svg>