<?xml version="1.0" encoding="UTF-8" standalone="no"?>
<svg
   xmlns:dc="http://purl.org/dc/elements/1.1/"
   xmlns:cc="http://creativecommons.org/ns#"
   xmlns:rdf="http://www.w3.org/1999/02/22-rdf-syntax-ns#"
   xmlns:svg="http://www.w3.org/2000/svg"
   xmlns="http://www.w3.org/2000/svg"
   style="fill-rule:evenodd;stroke-width:28.22200012;stroke-linejoin:round"
   height="1080.3461"
   width="1600.0032"
   id="svg8402"
   xml:space="preserve"
   preserveAspectRatio="xMidYMid"
   viewBox="0 0 1600.0031 1080.3461"
   version="1.2"><defs
     id="defs387" /><metadata
     id="metadata8406"><rdf:RDF><cc:Work
         rdf:about=""><dc:format>image/svg+xml</dc:format><dc:type
           rdf:resource="http://purl.org/dc/dcmitype/StillImage" /><dc:title></dc:title></cc:Work></rdf:RDF></metadata><path
     style="fill:none;stroke:#000000;stroke-width:4.09396982;stroke-linejoin:round"
     id="path7611"
     d="m 1260.6457,299.32109 337.311,242.7483 H 915.78884 Z" /><path
     style="fill:none;stroke:#000000;stroke-width:4.09396982;stroke-linejoin:round"
     id="path7618"
     d="M 1256.8728,1078.2991 H 915.78884 V 542.06939 h 682.08756 v 536.22971 z" /><path
     d="m 1299.4982,638.39808 c 22.8781,0 40.3778,17.41943 40.3778,40.2975 0,22.87806 -17.4997,40.37779 -40.3778,40.37779 -22.878,0 -40.2975,-17.49973 -40.2975,-40.37779 0,-22.87807 17.4195,-40.2975 40.2975,-40.2975 z"
     id="path7644"
     style="fill:none;stroke:#000000;stroke-width:4.09396982;stroke-linejoin:round" /><g
     transform="matrix(1.11817,0,0,1.11817,-188.95009,-0.04014609)"
     id="g5527"><path
       style="fill:#ffffff;fill-opacity:1;stroke:#000000;stroke-width:1.29222786;stroke-linejoin:round"
       id="path7653"
       d="m 1340.5512,634.07084 c -3.0152,0 -6.0304,3.0152 -6.0304,6.03039 v 24.40876 c 0,3.01519 3.0152,6.10219 6.0304,6.10219 h 64.4678 c 3.0152,0 6.1022,-3.087 6.1022,-6.10219 v -24.40876 c 0,-3.01519 -3.087,-6.03039 -6.1022,-6.03039 z" /><text
       style="font-size:0.86148518px;stroke-width:2.02606964"
       id="text7661"
       class="TextShape"
       x="-283.19028"
       y="37.626938"><tspan
         style="font-weight:400;font-size:22.97293854px;font-family:'Liberation Sans', sans-serif;stroke-width:2.02606964"
         id="tspan7659"
         font-weight="400"
         font-size="353px"
         class="TextParagraph"><tspan
           id="tspan7657"
           y="660.55249"
           x="1338.4121"
           class="TextPosition"
           style="font-size:22.97293854px;fill:#000000;stroke:none;stroke-width:2.02606964">Meter</tspan></tspan></text>
</g><g
     transform="matrix(1.11817,0,0,1.11817,-188.95009,-0.04014609)"
     id="g5533"><path
       style="fill:#ffffff;fill-opacity:1;stroke:#000000;stroke-width:1.29222786;stroke-linejoin:round"
       id="path7730"
       d="m 1384.2715,327.95644 c -3.0151,0 -6.0303,3.01519 -6.0303,6.03039 v 24.40875 c 0,3.0152 3.0152,6.10219 6.0303,6.10219 h 195.7726 c 3.0152,0 6.1021,-3.08699 6.1021,-6.10219 v -24.40875 c 0,-3.0152 -3.0869,-6.03039 -6.1021,-6.03039 z" /><text
       style="font-size:0.86148518px;stroke-width:2.02606964"
       id="text7738"
       class="TextShape"
       x="-282.14484"
       y="37.980286"><tspan
         style="font-weight:400;font-size:22.97293854px;font-family:'Liberation Sans', sans-serif;stroke-width:2.02606964"
         id="tspan7736"
         font-weight="400"
         font-size="353px"
         class="TextParagraph"><tspan
           id="tspan7734"
           y="354.79144"
           x="1391.3619"
           class="TextPosition"
           style="font-size:22.97293854px;fill:#000000;stroke:none;stroke-width:2.02606964">ServiceLocation</tspan></tspan></text>
</g><path
     d="m 1127.6318,649.71671 c 40.9396,0 72.2465,9.95395 72.2465,23.0386 0,13.08463 -31.3069,23.03864 -72.2465,23.03864 -40.9397,0 -72.1664,-9.95401 -72.1664,-23.03864 0,-13.08465 31.2267,-23.0386 72.1664,-23.0386 z"
     id="path7745"
     style="fill:none;stroke:#000000;stroke-width:4.09396982;stroke-linejoin:round" /><g
     transform="matrix(1.11817,0,0,1.11817,-188.95009,-0.04014609)"
     id="g5539"><path
       style="fill:#ffffff;fill-opacity:1;stroke:#000000;stroke-width:1.29222786;stroke-linejoin:round"
       id="path7754"
       d="m 1009.5255,604.34961 c -3.0152,0 -6.0304,3.01518 -6.0304,6.03039 v 24.40874 c 0,3.01521 3.0152,6.10221 6.0304,6.10221 h 109.265 c 3.0152,0 6.1022,-3.087 6.1022,-6.10221 V 610.38 c 0,-3.01521 -3.087,-6.03039 -6.1022,-6.03039 z" /><text
       style="font-size:0.86148518px;stroke-width:2.02606964"
       id="text7762"
       class="TextShape"
       x="-282.78421"
       y="37.778381"><tspan
         style="font-weight:400;font-size:22.97293854px;font-family:'Liberation Sans', sans-serif;stroke-width:2.02606964"
         id="tspan7760"
         font-weight="400"
         font-size="353px"
         class="TextParagraph"><tspan
           id="tspan7758"
           y="630.98279"
           x="1007.7206"
           class="TextPosition"
           style="font-size:22.97293854px;fill:#000000;stroke:none;stroke-width:2.02606964">Customer</tspan></tspan></text>
</g><path
     d="m 1199.798,733.68322 h 89.8265 v 66.38651 c -35.5614,-0.48164 -34.3572,13.08467 -66.4668,16.29562 -11.4791,-1.92658 -15.7336,-3.45177 -23.3597,-5.69947 z"
     id="path7769"
     style="fill:none;stroke:#000000;stroke-width:4.09396982;stroke-linejoin:round" /><g
     transform="matrix(1.11817,0,0,1.11817,-188.95009,-0.04014609)"
     id="g5545"><path
       style="fill:#ffffff;fill-opacity:1;stroke:#000000;stroke-width:1.29222786;stroke-linejoin:round"
       id="path7778"
       d="m 1037.8827,713.2557 c -3.0152,0 -6.0304,3.01521 -6.0304,6.03039 v 24.40876 c 0,3.01519 3.0152,6.10217 6.0304,6.10217 h 203.0952 c 3.0152,0 6.1021,-3.08698 6.1021,-6.10217 v -24.40876 c 0,-3.01518 -3.0869,-6.03039 -6.1021,-6.03039 z" /><text
       style="font-size:0.86148518px;stroke-width:2.02606964"
       id="text7786"
       class="TextShape"
       x="-283.30917"
       y="37.778381"><tspan
         style="font-weight:400;font-size:22.97293854px;font-family:'Liberation Sans', sans-serif;stroke-width:2.02606964"
         id="tspan7784"
         font-weight="400"
         font-size="353px"
         class="TextParagraph"><tspan
           id="tspan7782"
           y="739.88879"
           x="1036.8451"
           class="TextPosition"
           style="font-size:22.97293854px;fill:#000000;stroke:none;stroke-width:2.02606964">CustomerAccount</tspan></tspan></text>
</g><path
     style="fill:none;stroke:#000000;stroke-width:4.09396982;stroke-linejoin:round"
     id="path7823"
     d="m 976.87732,270.82384 71.68458,51.61614 H 903.66748 Z" /><path
     style="fill:none;stroke:#000000;stroke-width:4.09396982;stroke-linejoin:round"
     id="path7830"
     d="M 976.07459,436.18812 H 903.66748 V 322.3597 h 144.81412 v 113.82842 z" /><g
     transform="matrix(1.11817,0,0,1.11817,-188.95009,-0.04014609)"
     id="g5598"><path
       style="fill:none;stroke:#000000;stroke-width:3.66131234;stroke-linejoin:round"
       id="path7962"
       d="m 1469.7739,662.57163 v 96.62994 h -47.3816 V 565.94173 h 47.3816 z" /><text
       style="font-size:0.86148518px;stroke-width:2.02606964"
       id="text7970"
       transform="rotate(-90)"
       class="TextShape"
       x="-2479.2283"
       y="753.30542"><tspan
         style="font-weight:400;font-size:30.36735535px;font-family:'Liberation Sans', sans-serif;stroke-width:2.02606964"
         id="tspan7968"
         font-weight="400"
         font-size="423px"
         class="TextParagraph"><tspan
           id="tspan7966"
           y="1456.708"
           x="-741.46936"
           class="TextPosition"
           style="stroke-width:2.02606964"><tspan
             style="fill:#000000;stroke:none;stroke-width:2.02606964"
             id="tspan7964">Equipment</tspan></tspan></tspan></text>
</g><g
     transform="matrix(1.11817,0,0,1.11817,-188.95009,-0.04014609)"
     id="g5591"><path
       style="fill:none;stroke:#000000;stroke-width:3.66131234;stroke-linejoin:round"
       id="path7977"
       d="m 1555.9225,725.96259 v 201.44396 h -47.3817 V 524.44687 h 47.3817 z" /><text
       style="font-size:0.86148518px;stroke-width:2.02606964"
       id="text7985"
       transform="rotate(-90)"
       class="TextShape"
       x="-2662.509"
       y="742.32147"><tspan
         style="font-weight:400;font-size:30.36735535px;font-family:'Liberation Sans', sans-serif;stroke-width:2.02606964"
         id="tspan7983"
         font-weight="400"
         font-size="423px"
         class="TextParagraph"><tspan
           id="tspan7981"
           y="1542.8566"
           x="-838.60181"
           class="TextPosition"
           style="stroke-width:2.02606964"><tspan
             style="fill:#000000;stroke:none;stroke-width:2.02606964"
             id="tspan7979">Customer Location</tspan></tspan></tspan></text>
</g><g
     transform="matrix(1.11817,0,0,1.11817,-188.95009,-0.04014609)"
     id="g5584"><path
       style="fill:#ffffff;fill-opacity:1;stroke:#000000;stroke-width:1.29222786;stroke-linejoin:round"
       id="path7994"
       d="m 1547.9537,934.37023 c 0,3.01521 3.0152,6.03039 6.0304,6.03039 h 24.4088 c 3.0152,0 6.1022,-3.01518 6.1022,-6.03039 V 703.92294 c 0,-3.0152 -3.087,-6.10218 -6.1022,-6.10218 h -24.4088 c -3.0152,0 -6.0304,3.08698 -6.0304,6.10218 z" /><text
       style="font-size:0.86148518px;stroke-width:2.02606964"
       id="text8002"
       transform="rotate(-90)"
       class="TextShape"
       x="-2787.9836"
       y="678.84308"><tspan
         style="font-weight:400;font-size:22.97293854px;font-family:'Liberation Sans', sans-serif;stroke-width:2.02606964"
         id="tspan8000"
         font-weight="400"
         font-size="353px"
         class="TextParagraph"><tspan
           id="tspan7998"
           y="1572.5621"
           x="-932.05725"
           class="TextPosition"
           style="font-size:22.97293854px;fill:#000000;stroke:none;stroke-width:2.02606964">UsagePointLocation</tspan></tspan></text>
</g><g
     transform="matrix(1.11817,0,0,1.11817,-188.95009,-0.04014609)"
     id="g5566"><path
       style="fill:#ffffff;fill-opacity:1;stroke:#000000;stroke-width:1.29222786;stroke-linejoin:round"
       id="path8011"
       d="m 1462.5231,830.20232 c 0,3.01518 3.0152,6.03039 6.0304,6.03039 h 24.4088 c 3.0152,0 6.1022,-3.01521 6.1022,-6.03039 V 599.75501 c 0,-3.01519 -3.087,-6.10217 -6.1022,-6.10217 h -24.4088 c -3.0152,0 -6.0304,3.08698 -6.0304,6.10217 z" /><text
       style="font-size:0.86148518px;stroke-width:2.02606964"
       id="text8019"
       transform="rotate(-90)"
       class="TextShape"
       x="-2585.1482"
       y="710.00006"><tspan
         style="font-weight:400;font-size:22.97293854px;font-family:'Liberation Sans', sans-serif;stroke-width:2.02606964"
         id="tspan8017"
         font-weight="400"
         font-size="353px"
         class="TextParagraph"><tspan
           id="tspan8015"
           y="1487.1316"
           x="-814.65295"
           class="TextPosition"
           style="font-size:22.97293854px;fill:#000000;stroke:none;stroke-width:2.02606964">UsagePointGroup</tspan></tspan></text>
</g><text
     y="-47.979725"
     x="-334.03543"
     class="TextShape"
     id="text8032"
     style="font-size:0.96328688px;stroke-width:2.26549029"><tspan
       class="TextParagraph"
       font-size="423px"
       font-weight="400"
       id="tspan8030"
       style="font-weight:400;font-size:33.95586395px;font-family:'Liberation Sans', sans-serif;stroke-width:2.26549029"><tspan
         style="stroke-width:2.26549029"
         class="TextPosition"
         x="1094.9204"
         y="484.95886"
         id="tspan8028"><tspan
           id="tspan8026"
           style="fill:#000000;stroke:none;stroke-width:2.26549029">Service Installation</tspan></tspan></tspan></text>
<g
     transform="matrix(1.11817,0,0,1.11817,-188.95009,-0.04014609)"
     id="g5604"><path
       style="fill:#ffffff;fill-opacity:1;stroke:#000000;stroke-width:1.29222786;stroke-linejoin:round"
       id="path8041"
       d="m 1063.1529,523.08284 c -3.0152,0 -6.0304,3.0152 -6.0304,6.03039 v 24.40876 c 0,3.01518 3.0152,6.10218 6.0304,6.10218 h 141.0682 c 3.0152,0 6.1022,-3.087 6.1022,-6.10218 v -24.40876 c 0,-3.01519 -3.087,-6.03039 -6.1022,-6.03039 z" /><text
       style="font-size:0.86148518px;stroke-width:2.02606964"
       id="text8049"
       class="TextShape"
       x="-280.99731"
       y="35.753662"><tspan
         style="font-weight:400;font-size:22.97293854px;font-family:'Liberation Sans', sans-serif;stroke-width:2.02606964"
         id="tspan8047"
         font-weight="400"
         font-size="353px"
         class="TextParagraph"><tspan
           id="tspan8045"
           y="547.69128"
           x="1068.6628"
           class="TextPosition"
           style="font-size:22.97293854px;fill:#000000;stroke:none;stroke-width:2.02606964">UsagePoint</tspan></tspan></text>
</g><g
     transform="matrix(1.11817,0,0,1.11817,-188.95009,-0.04014609)"
     id="g5611"><path
       style="fill:none;stroke:#000000;stroke-width:3.66131234;stroke-linejoin:round"
       id="path8056"
       d="M 946.49347,626.67644 V 732.42373 H 888.12784 V 520.92911 h 58.36563 z" /><text
       style="font-size:0.86148518px;stroke-width:2.02606964"
       id="text8064"
       transform="rotate(-90)"
       class="TextShape"
       x="-1929.8162"
       y="245.24452"><tspan
         style="font-weight:400;font-size:30.36735535px;font-family:'Liberation Sans', sans-serif;stroke-width:2.02606964"
         id="tspan8062"
         font-weight="400"
         font-size="423px"
         class="TextParagraph"><tspan
           id="tspan8060"
           y="927.97156"
           x="-720.7937"
           class="TextPosition"
           style="stroke-width:2.02606964"><tspan
             style="fill:#000000;stroke:none;stroke-width:2.02606964"
             id="tspan8058">Contract</tspan></tspan></tspan></text>
</g><g
     transform="matrix(1.11817,0,0,1.11817,-188.95009,-0.04014609)"
     id="g5618"><path
       style="fill:none;stroke:#000000;stroke-width:3.66131234;stroke-linejoin:round"
       id="path8071"
       d="M 850.07894,729.62392 V 931.28323 H 791.7133 V 527.89279 h 58.36564 z" /><text
       style="font-size:0.86148518px;stroke-width:2.02606964"
       id="text8079"
       transform="rotate(-90)"
       class="TextShape"
       x="-1959.322"
       y="22.909548"><tspan
         style="font-weight:400;font-size:30.36735535px;font-family:'Liberation Sans', sans-serif;stroke-width:2.02606964"
         id="tspan8077"
         font-weight="400"
         font-size="423px"
         class="TextParagraph"><tspan
           id="tspan8075"
           y="831.55701"
           x="-846.71411"
           class="TextPosition"
           style="stroke-width:2.02606964"><tspan
             style="fill:#000000;stroke:none;stroke-width:2.02606964"
             id="tspan8073">Business Partner</tspan></tspan></tspan></text>
</g><g
     transform="matrix(1.11817,0,0,1.11817,-188.95009,-0.04014609)"
     id="g5664"><path
       style="fill:#ffffff;fill-opacity:1;stroke:#000000;stroke-width:1.29222786;stroke-linejoin:round"
       id="path8341"
       d="m 934.43285,938.96465 c 0,3.01519 3.01521,6.03039 6.03039,6.03039 h 24.40877 c 3.01518,0 6.10218,-3.0152 6.10218,-6.03039 V 691.86196 c 0,-3.01518 -3.087,-6.10219 -6.10218,-6.10219 h -24.40877 c -3.01518,0 -6.03039,3.08701 -6.03039,6.10219 z" /><text
       style="font-size:0.86148518px;stroke-width:2.02606964"
       id="text8349"
       transform="rotate(-90)"
       class="TextShape"
       x="-2173.29"
       y="60.66925"><tspan
         style="font-weight:400;font-size:22.97293854px;font-family:'Liberation Sans', sans-serif;stroke-width:2.02606964"
         id="tspan8347"
         font-weight="400"
         font-size="353px"
         class="TextParagraph"><tspan
           id="tspan8345"
           y="958.83936"
           x="-935.40771"
           class="TextPosition"
           style="font-size:22.97293854px;fill:#000000;stroke:none;stroke-width:2.02606964">CustomerAgreement</tspan></tspan></text>
</g><path
     d="m 865.85846,431.85332 h -5.13752 v -67.51037 h 10.19479 v 67.51037 z"
     id="path8356"
     style="fill:none;stroke:#000000;stroke-width:4.09396982;stroke-linejoin:round" /><path
     d="m 889.94063,385.29445 h -5.13752 v -36.92599 h 10.19479 v 36.92599 z"
     id="path8363"
     style="fill:none;stroke:#000000;stroke-width:4.09396982;stroke-linejoin:round" /><path
     d="m 889.94063,433.45879 h -5.13752 V 396.5328 h 10.19479 v 36.92599 z"
     id="path8370"
     style="fill:none;stroke:#000000;stroke-width:4.09396982;stroke-linejoin:round" /><path
     d="m 156.30744,73.7316 c 11.55944,0 20.38959,8.83011 20.38959,20.38955 0,11.55945 -8.83015,20.38959 -20.38959,20.38959 -11.55944,0 -20.38958,-8.83014 -20.38958,-20.38959 0,-11.55944 8.83014,-20.38955 20.38958,-20.38955 z"
     id="path7347"
     style="fill:none;stroke:#000000;stroke-width:4.09396982;stroke-linejoin:round" /><path
     d="m 156.30744,94.12115 c 11.55944,0 20.38959,8.83014 20.38959,20.38959 0,11.55945 -8.83015,20.38958 -20.38959,20.38958 -11.55944,0 -20.38958,-8.83013 -20.38958,-20.38958 0,-11.55945 8.83014,-20.38959 20.38958,-20.38959 z"
     id="path7354"
     style="fill:none;stroke:#000000;stroke-width:4.09396982;stroke-linejoin:round" /><path
     d="M 156.30744,73.7316 V 12.562871"
     id="path7361"
     style="fill:none;stroke:#000000;stroke-width:4.09396982;stroke-linejoin:round" /><path
     d="m 156.30744,134.90032 v 56.83392"
     id="path7368"
     style="fill:none;stroke:#000000;stroke-width:4.09396982;stroke-linejoin:round" /><path
     d="m 156.30744,232.51337 h -20.38958 v -40.77913 h 40.77917 v 40.77913 z"
     id="path7375"
     style="fill:none;stroke:#000000;stroke-width:4.09396982;stroke-linejoin:round" /><path
     d="M 156.30744,232.51337 V 289.3473"
     id="path7382"
     style="fill:none;stroke:#000000;stroke-width:4.09396982;stroke-linejoin:round" /><path
     d="M 0,289.3473 H 330.79848"
     id="path7389"
     style="fill:none;stroke:#000000;stroke-width:3.8867445;stroke-linejoin:round" /><path
     style="fill:none;stroke:#000000;stroke-width:4.09396982;stroke-linejoin:round"
     id="path7396"
     d="m 31.764023,289.3473 v 61.16873" /><path
     style="fill:none;stroke:#000000;stroke-width:4.09396982;stroke-linejoin:round"
     id="path7403"
     d="m 31.764023,393.86395 v 58.59996" /><path
     style="fill:none;stroke:#000000;stroke-width:4.09396982;stroke-linejoin:round"
     id="path7410"
     d="M 31.764023,391.29518 H 11.374451 v -40.77915 h 40.779156 v 40.77915 z" /><path
     style="fill:none;stroke:#000000;stroke-width:4.09396982;stroke-linejoin:round"
     id="path7419"
     d="m 278.64489,289.3473 v 61.16873" /><path
     style="fill:none;stroke:#000000;stroke-width:4.09396982;stroke-linejoin:round"
     id="path7426"
     d="m 278.64489,393.86395 v 58.59996" /><path
     style="fill:none;stroke:#000000;stroke-width:4.09396982;stroke-linejoin:round"
     id="path7433"
     d="M 278.64489,391.29518 H 258.2553 v -40.77915 h 40.77917 v 40.77915 z" /><path
     d="m 156.30744,273.3728 c 5.77973,0 10.19479,4.41505 10.19479,10.19479 0,5.77971 -4.41506,10.1948 -10.19479,10.1948 -5.77971,0 -10.19479,-4.41509 -10.19479,-10.1948 0,-5.77974 4.41508,-10.19479 10.19479,-10.19479 z m -10.19479,0 z m 20.46985,20.46985 z"
     id="path7442"
     style="fill:#000000;stroke:none;stroke-width:2.26549029" /><path
     d="m 156.30744,273.3728 c 5.77973,0 10.19479,4.41505 10.19479,10.19479 0,5.77971 -4.41506,10.1948 -10.19479,10.1948 -5.77971,0 -10.19479,-4.41509 -10.19479,-10.1948 0,-5.77974 4.41508,-10.19479 10.19479,-10.19479 z"
     id="path7444"
     style="fill:none;stroke:#000000;stroke-width:4.09396982;stroke-linejoin:round" /><path
     d="m 31.764023,279.39334 c 5.77972,0 10.194792,4.41505 10.194792,10.19479 0,5.77971 -4.415072,10.1948 -10.194792,10.1948 -5.77972,0 -10.19478,-4.41509 -10.19478,-10.1948 0,-5.77974 4.41506,-10.19479 10.19478,-10.19479 z m -10.19478,0 z m 20.469846,20.46985 z"
     id="path7451"
     style="fill:#000000;stroke:none;stroke-width:2.26549029" /><path
     d="m 31.764023,279.39334 c 5.77972,0 10.194792,4.41505 10.194792,10.19479 0,5.77971 -4.415072,10.1948 -10.194792,10.1948 -5.77972,0 -10.19478,-4.41509 -10.19478,-10.1948 0,-5.77974 4.41506,-10.19479 10.19478,-10.19479 z"
     id="path7453"
     style="fill:none;stroke:#000000;stroke-width:4.09396982;stroke-linejoin:round" /><path
     d="m 278.64489,279.39334 c 5.77972,0 10.19479,4.41505 10.19479,10.19479 0,5.77971 -4.41507,10.1948 -10.19479,10.1948 -5.77973,0 -10.19479,-4.41509 -10.19479,-10.1948 0,-5.77974 4.41506,-10.19479 10.19479,-10.19479 z m -10.19479,0 z m 20.46983,20.46985 z"
     id="path7460"
     style="fill:#000000;stroke:none;stroke-width:2.26549029" /><path
     d="m 278.64489,279.39334 c 5.77972,0 10.19479,4.41505 10.19479,10.19479 0,5.77971 -4.41507,10.1948 -10.19479,10.1948 -5.77973,0 -10.19479,-4.41509 -10.19479,-10.1948 0,-5.77974 4.41506,-10.19479 10.19479,-10.19479 z"
     id="path7462"
     style="fill:none;stroke:#000000;stroke-width:4.09396982;stroke-linejoin:round" /><path
     d="m 278.36879,456.79869 429.20972,1.28438"
     id="path7469"
     style="fill:none;stroke:#000000;stroke-width:3.58365941;stroke-linejoin:round" /><path
     d="m 156.30744,150.95511 c 5.77973,0 10.19479,4.41505 10.19479,10.19476 0,5.77973 -4.41506,10.19478 -10.19479,10.19478 -5.77971,0 -10.19479,-4.41505 -10.19479,-10.19478 0,-5.77971 4.41508,-10.19476 10.19479,-10.19476 z m -10.19479,0 z m 20.46985,20.46984 z"
     id="path7476"
     style="fill:#000000;stroke:none;stroke-width:2.26549029" /><path
     d="m 156.30744,150.95511 c 5.77973,0 10.19479,4.41505 10.19479,10.19476 0,5.77973 -4.41506,10.19478 -10.19479,10.19478 -5.77971,0 -10.19479,-4.41505 -10.19479,-10.19478 0,-5.77971 4.41508,-10.19476 10.19479,-10.19476 z"
     id="path7478"
     style="fill:none;stroke:#000000;stroke-width:4.09396982;stroke-linejoin:round" /><path
     d="m 156.30744,2.0469849 c 5.77973,0 10.19479,4.415072 10.19479,10.1947921 0,5.77972 -4.41506,10.194781 -10.19479,10.194781 -5.77971,0 -10.19479,-4.415061 -10.19479,-10.194781 0,-5.7797201 4.41508,-10.1947921 10.19479,-10.1947921 z m -10.19479,0 z M 166.5825,22.516831 Z"
     id="path7485"
     style="fill:#000000;stroke:none;stroke-width:2.26549029" /><path
     d="m 156.30744,2.0469849 c 5.77973,0 10.19479,4.415072 10.19479,10.1947921 0,5.77972 -4.41506,10.194781 -10.19479,10.194781 -5.77971,0 -10.19479,-4.415061 -10.19479,-10.194781 0,-5.7797201 4.41508,-10.1947921 10.19479,-10.1947921 z"
     id="path7487"
     style="fill:none;stroke:#000000;stroke-width:4.09396982;stroke-linejoin:round" /><path
     d="m 29.676903,446.6039 c 5.77972,0 10.194792,4.41507 10.194792,10.19479 0,5.7797 -4.415072,10.19477 -10.194792,10.19477 -5.77972,0 -10.194781,-4.41507 -10.194781,-10.19477 0,-5.77972 4.415061,-10.19479 10.194781,-10.19479 z m -10.194781,0 z m 20.469847,20.46985 z"
     id="path7494"
     style="fill:#000000;stroke:none;stroke-width:2.26549029" /><path
     d="m 29.676903,446.6039 c 5.77972,0 10.194792,4.41507 10.194792,10.19479 0,5.7797 -4.415072,10.19477 -10.194792,10.19477 -5.77972,0 -10.194781,-4.41507 -10.194781,-10.19477 0,-5.77972 4.415061,-10.19479 10.194781,-10.19479 z"
     id="path7496"
     style="fill:none;stroke:#000000;stroke-width:4.09396982;stroke-linejoin:round" /><path
     d="M 715.9724,454.6313 V 403.65734"
     id="path7503"
     style="fill:none;stroke:#000000;stroke-width:4.09396982;stroke-linejoin:round" /><path
     d="m 715.9724,403.65734 34.75858,-40.85938 h -69.43692 z"
     id="path7510"
     style="fill:none;stroke:#000000;stroke-width:4.09396982;stroke-linejoin:round" /><path
     d="m 177.72409,50.293795 c -3.37152,0 -6.74303,3.371506 -6.74303,6.743012 v 27.293128 c 0,3.3715 3.37151,6.82329 6.74303,6.82329 h 153.72453 c 3.37151,0 6.82328,-3.45179 6.82328,-6.82329 V 57.036807 c 0,-3.371506 -3.45177,-6.743012 -6.82328,-6.743012 z"
     id="path7519"
     style="fill:#ffffff;fill-opacity:1;stroke:#000000;stroke-width:1.44493043;stroke-linejoin:round" /><text
     y="-176.81738"
     x="-193.0862"
     class="TextShape"
     id="text7527"
     style="font-size:0.96328688px;stroke-width:2.26549029"><tspan
       class="TextParagraph"
       font-size="353px"
       font-weight="400"
       id="tspan7525"
       style="font-weight:400;font-size:25.68765068px;font-family:'Liberation Sans', sans-serif;stroke-width:2.26549029"><tspan
         style="font-size:25.68765068px;fill:#000000;stroke:none;stroke-width:2.26549029"
         class="TextPosition"
         x="177.53845"
         y="80.299927"
         id="tspan7523">Transformer</tspan></tspan></text>
<path
     d="m 178.30228,159.06275 c -3.37149,0 -6.743,3.37151 -6.743,6.743 v 27.29315 c 0,3.37149 3.37151,6.82328 6.743,6.82328 h 104.75747 c 3.37151,0 6.82328,-3.45179 6.82328,-6.82328 v -27.29315 c 0,-3.37149 -3.45177,-6.743 -6.82328,-6.743 z"
     id="path7536"
     style="fill:#ffffff;fill-opacity:1;stroke:#000000;stroke-width:1.44493043;stroke-linejoin:round" /><text
     y="-174.0903"
     x="-199.45546"
     class="TextShape"
     id="text7544"
     style="font-size:0.96328688px;stroke-width:2.26549029"><tspan
       class="TextParagraph"
       font-size="353px"
       font-weight="400"
       id="tspan7542"
       style="font-weight:400;font-size:25.68765068px;font-family:'Liberation Sans', sans-serif;stroke-width:2.26549029"><tspan
         style="font-size:25.68765068px;fill:#000000;stroke:none;stroke-width:2.26549029"
         class="TextPosition"
         x="179.67827"
         y="189.06891"
         id="tspan7540">Breaker</tspan></tspan></text>
<path
     d="m 334.19443,254.90981 c -3.37151,0 -6.74302,3.3715 -6.74302,6.74301 v 27.29312 c 0,3.37151 3.37151,6.82328 6.74302,6.82328 h 194.50368 c 3.37149,0 6.743,-3.45177 6.743,-6.82328 v -27.29312 c 0,-3.37151 -3.37151,-6.74301 -6.743,-6.74301 z"
     id="path7553"
     style="fill:#ffffff;fill-opacity:1;stroke:#000000;stroke-width:1.44493043;stroke-linejoin:round" /><text
     y="-174.09027"
     x="-194.12453"
     class="TextShape"
     id="text7561"
     style="font-size:0.96328688px;stroke-width:2.26549029"><tspan
       class="TextParagraph"
       font-size="353px"
       font-weight="400"
       id="tspan7559"
       style="font-weight:400;font-size:25.68765068px;font-family:'Liberation Sans', sans-serif;stroke-width:2.26549029"><tspan
         style="font-size:25.68765068px;fill:#000000;stroke:none;stroke-width:2.26549029"
         class="TextPosition"
         x="338.57309"
         y="284.91599"
         id="tspan7557">BusbarSection</tspan></tspan></text>
<path
     d="m 278.08296,443.79431 c 5.77971,0 10.19479,4.41507 10.19479,10.19479 0,5.7797 -4.41508,10.19479 -10.19479,10.19479 -5.77972,0 -10.19479,-4.41509 -10.19479,-10.19479 0,-5.77972 4.41507,-10.19479 10.19479,-10.19479 z m -10.19479,0 z m 20.46985,20.46985 z"
     id="path7568"
     style="fill:#000000;stroke:none;stroke-width:2.26549029" /><path
     d="m 278.08296,443.79431 c 5.77971,0 10.19479,4.41507 10.19479,10.19479 0,5.7797 -4.41508,10.19479 -10.19479,10.19479 -5.77972,0 -10.19479,-4.41509 -10.19479,-10.19479 0,-5.77972 4.41507,-10.19479 10.19479,-10.19479 z"
     id="path7570"
     style="fill:none;stroke:#000000;stroke-width:4.09396982;stroke-linejoin:round" /><path
     d="m 162.97018,454.71156 c -3.37149,0 -6.743,3.37151 -6.743,6.743 v 27.29315 c 0,3.37148 3.37151,6.82328 6.743,6.82328 h 104.75745 c 3.37149,0 6.82329,-3.4518 6.82329,-6.82328 v -27.29315 c 0,-3.37149 -3.4518,-6.743 -6.82329,-6.743 z"
     id="path7579"
     style="fill:#ffffff;fill-opacity:1;stroke:#000000;stroke-width:1.44493043;stroke-linejoin:round" /><text
     y="-174.0903"
     x="-192.89784"
     class="TextShape"
     id="text7587"
     style="font-size:0.96328688px;stroke-width:2.26549029"><tspan
       class="TextParagraph"
       font-size="353px"
       font-weight="400"
       id="tspan7585"
       style="font-weight:400;font-size:25.68765068px;font-family:'Liberation Sans', sans-serif;stroke-width:2.26549029"><tspan
         style="font-size:25.68765068px;fill:#000000;stroke:none;stroke-width:2.26549029"
         class="TextPosition"
         x="162.31421"
         y="484.7178"
         id="tspan7583">Terminal</tspan></tspan></text>
<path
     d="m 467.20353,327.5577 c -3.37149,0 -6.743,3.37151 -6.743,6.74301 v 27.29311 c 0,3.37153 3.37151,6.82328 6.743,6.82328 h 218.90698 c 3.3715,0 6.82325,-3.45175 6.82325,-6.82328 v -27.29311 c 0,-3.3715 -3.45175,-6.74301 -6.82325,-6.74301 z"
     id="path7596"
     style="fill:#ffffff;fill-opacity:1;stroke:#000000;stroke-width:1.44493043;stroke-linejoin:round" /><text
     y="-176.80577"
     x="-316.2485"
     class="TextShape"
     id="text7604"
     style="font-size:0.96328688px;stroke-width:2.26549029"><tspan
       class="TextParagraph"
       font-size="353px"
       font-weight="400"
       id="tspan7602"
       style="font-weight:400;font-size:25.68765068px;font-family:'Liberation Sans', sans-serif;stroke-width:2.26549029"><tspan
         style="font-size:25.68765068px;fill:#000000;stroke:none;stroke-width:2.26549029"
         class="TextPosition"
         x="464.89694"
         y="354.84839"
         id="tspan7600">EnergyConsumer</tspan></tspan></text>
<path
     d="m 368.78991,453.50746 c -3.37152,0 -6.743,3.3715 -6.743,6.743 v 27.29312 c 0,3.37152 3.37148,6.82331 6.743,6.82331 h 216.90012 c 3.37151,0 6.74299,-3.45179 6.74299,-6.82331 v -27.29312 c 0,-3.3715 -3.37148,-6.743 -6.74299,-6.743 z"
     id="path7629"
     style="fill:#ffffff;fill-opacity:1;stroke:#000000;stroke-width:1.44493043;stroke-linejoin:round" /><text
     y="-176.58008"
     x="-258.27228"
     class="TextShape"
     id="text7637"
     style="font-size:0.96328688px;stroke-width:2.26549029"><tspan
       class="TextParagraph"
       font-size="353px"
       font-weight="400"
       id="tspan7635"
       style="font-weight:400;font-size:25.68765068px;font-family:'Liberation Sans', sans-serif;stroke-width:2.26549029"><tspan
         style="font-size:25.68765068px;fill:#000000;stroke:none;stroke-width:2.26549029"
         class="TextPosition"
         x="375.32971"
         y="481.0239"
         id="tspan7633">ACLineSegment</tspan></tspan></text>
<path
     d="m 715.41049,447.88828 c 5.77969,0 10.19477,4.41507 10.19477,10.19479 0,5.77973 -4.41508,10.19479 -10.19477,10.19479 -5.77973,0 -10.1948,-4.41506 -10.1948,-10.19479 0,-5.77972 4.41507,-10.19479 10.1948,-10.19479 z m -10.1948,0 z m 20.46984,20.46987 z"
     id="path7814"
     style="fill:#000000;stroke:none;stroke-width:2.26549029" /><path
     d="m 715.41049,447.88828 c 5.77969,0 10.19477,4.41507 10.19477,10.19479 0,5.77973 -4.41508,10.19479 -10.19477,10.19479 -5.77973,0 -10.1948,-4.41506 -10.1948,-10.19479 0,-5.77972 4.41507,-10.19479 10.1948,-10.19479 z"
     id="path7816"
     style="fill:none;stroke:#000000;stroke-width:4.09396982;stroke-linejoin:round" /><path
     d="m 303.44951,318.96838 c -3.37148,0 -6.74299,3.37151 -6.74299,6.743 v 27.29314 c 0,3.37149 3.37151,6.82329 6.74299,6.82329 h 90.22788 c 3.37153,0 6.82327,-3.4518 6.82327,-6.82329 v -27.29314 c 0,-3.37149 -3.45174,-6.743 -6.82327,-6.743 z"
     id="path8379"
     style="fill:#ffffff;fill-opacity:1;stroke:#000000;stroke-width:1.44493043;stroke-linejoin:round" /><text
     y="-174.09027"
     x="-193.58018"
     class="TextShape"
     id="text8387"
     style="font-size:0.96328688px;stroke-width:2.26549029"><tspan
       class="TextParagraph"
       font-size="353px"
       font-weight="400"
       id="tspan8385"
       style="font-weight:400;font-size:25.68765068px;font-family:'Liberation Sans', sans-serif;stroke-width:2.26549029"><tspan
         style="font-size:25.68765068px;fill:#000000;stroke:none;stroke-width:2.26549029"
         class="TextPosition"
         x="306.36572"
         y="348.97461"
         id="tspan8383">Switch</tspan></tspan></text>
<script
     id="script8400"
     type="text/ecmascript" /><path
     id="path5426"
     d="M 758.47549,360.75429 893.69677,325.07112"
     style="fill:none;stroke:#000000;stroke-width:2.23634005;stroke-linecap:butt;stroke-linejoin:miter;stroke-miterlimit:4;stroke-dasharray:4.47268, 2.23634;stroke-dashoffset:0;stroke-opacity:1" /><path
     id="path5428"
     d="m 750.79589,362.86846 160.3958,174.2079"
     style="fill:none;stroke:#000000;stroke-width:2.23634005;stroke-linecap:butt;stroke-linejoin:miter;stroke-miterlimit:4;stroke-dasharray:4.47268, 2.23634;stroke-dashoffset:0;stroke-opacity:1" /><path
     id="path5547"
     d="m 1199.9218,674.15451 h 59.4909"
     style="fill:none;stroke:#000000;stroke-width:2.80996132;stroke-linecap:butt;stroke-linejoin:miter;stroke-miterlimit:4;stroke-dasharray:5.61992242, 2.80996121;stroke-dashoffset:0;stroke-opacity:1" /><path
     id="path5549"
     d="m 1180.6274,688.30369 61.0989,43.4123"
     style="fill:none;stroke:#000000;stroke-width:2.80996132;stroke-linecap:butt;stroke-linejoin:miter;stroke-miterlimit:4;stroke-dasharray:5.61992242, 2.80996121;stroke-dashoffset:0;stroke-opacity:1" /><path
     id="path5551"
     d="M 869.9883,746.77123 H 1200.565"
     style="fill:none;stroke:#000000;stroke-width:2.80996132;stroke-linecap:butt;stroke-linejoin:miter;stroke-miterlimit:4;stroke-dasharray:5.61992244, 2.80996122;stroke-dashoffset:0;stroke-opacity:1" /><path
     id="path5578"
     d="m 1582.7842,872.71325 h 16.2091"
     style="fill:none;stroke:#000000;stroke-width:3.35451007;stroke-linecap:butt;stroke-linejoin:miter;stroke-miterlimit:4;stroke-dasharray:13.41804, 6.70902, 3.35451, 6.70902;stroke-dashoffset:0;stroke-opacity:1" /><path
     id="path5560"
     d="m 1487.2592,872.71325 10.5964,10e-6"
     style="fill:none;stroke:#000000;stroke-width:3.35451007;stroke-linecap:butt;stroke-linejoin:miter;stroke-miterlimit:4;stroke-dasharray:13.41804, 6.70902, 3.35451, 6.70902;stroke-dashoffset:0;stroke-opacity:1" /><path
     id="path5553"
     d="M 917.96557,872.71325 H 1446.4"
     style="fill:none;stroke:#000000;stroke-width:3.35451007;stroke-linecap:butt;stroke-linejoin:miter;stroke-miterlimit:4;stroke-dasharray:13.41804, 6.70902, 3.35451, 6.70902;stroke-dashoffset:0;stroke-opacity:1" /><path
     id="path5620"
     d="m 761.29654,612.81091 h 42.97598"
     style="fill:none;stroke:#000000;stroke-width:2.80996132;stroke-linecap:butt;stroke-linejoin:miter;stroke-miterlimit:4;stroke-dasharray:5.61992242, 2.80996121;stroke-dashoffset:0;stroke-opacity:1" /><g
     transform="matrix(1.11817,0,0,1.11817,-188.95009,-0.04014609)"
     id="g5642"><path
       style="fill:#ffffff;fill-opacity:1;stroke:#000000;stroke-width:1.29222786;stroke-linejoin:round"
       id="path8200"
       d="m 838.0183,959.53277 c 0,3.01521 3.0152,6.03041 6.03039,6.03041 h 24.40876 c 3.01519,0 6.10219,-3.0152 6.10219,-6.03041 V 729.08551 c 0,-3.01523 -3.087,-6.10219 -6.10219,-6.10219 h -24.40876 c -3.01519,0 -6.03039,3.08696 -6.03039,6.10219 z" /><text
       style="font-size:0.86148518px;stroke-width:2.02606964"
       id="text8208"
       transform="rotate(-90)"
       class="TextShape"
       x="-2076.2922"
       y="-101.66238"><tspan
         style="font-weight:400;font-size:22.97293854px;font-family:'Liberation Sans', sans-serif;stroke-width:2.02606964"
         id="tspan8206"
         font-weight="400"
         font-size="353px"
         class="TextParagraph"><tspan
           id="tspan8204"
           y="862.62671"
           x="-934.82458"
           class="TextPosition"
           style="font-size:22.97293854px;fill:#000000;stroke:none;stroke-width:2.02606964">ServiceSupplier</tspan></tspan></text>
</g><path
     id="path5650"
     d="M 1299.4982,638.39808 V 542.9529"
     style="fill:none;stroke:#000000;stroke-width:2.80996132;stroke-linecap:butt;stroke-linejoin:miter;stroke-miterlimit:4;stroke-dasharray:5.61992244, 2.80996122;stroke-dashoffset:0;stroke-opacity:1" /><path
     id="path5652"
     d="M 1497.8551,586.38061 1322.713,645.09974"
     style="fill:none;stroke:#000000;stroke-width:2.80996132;stroke-linecap:butt;stroke-linejoin:miter;stroke-miterlimit:4;stroke-dasharray:5.61992242, 2.80996121;stroke-dashoffset:0;stroke-opacity:1" /><path
     id="path5654"
     d="m 1401.5264,632.77892 -72.2192,18.23285"
     style="fill:none;stroke:#000000;stroke-width:2.80996132;stroke-linecap:butt;stroke-linejoin:miter;stroke-miterlimit:4;stroke-dasharray:5.61992242, 2.80996121;stroke-dashoffset:0;stroke-opacity:1" /></svg>