<?xml version="1.0" encoding="UTF-8" standalone="no"?>
<svg
   xmlns:dc="http://purl.org/dc/elements/1.1/"
   xmlns:cc="http://creativecommons.org/ns#"
   xmlns:rdf="http://www.w3.org/1999/02/22-rdf-syntax-ns#"
   xmlns:svg="http://www.w3.org/2000/svg"
   xmlns="http://www.w3.org/2000/svg"
   width="863.45209"
   height="800"
   viewBox="0 0 228.45504 211.66667"
   version="1.1"
   id="svg4900">
  <defs
     id="defs4894" />
  <metadata
     id="metadata4897">
    <rdf:RDF>
      <cc:Work
         rdf:about="">
        <dc:format>image/svg+xml</dc:format>
        <dc:type
           rdf:resource="http://purl.org/dc/dcmitype/StillImage" />
        <dc:title></dc:title>
      </cc:Work>
    </rdf:RDF>
  </metadata>
  <g
     id="layer1"
     transform="matrix(1.7230163,0,0,1.7230163,-11.569117,-133.49757)">
    <g
       id="g5715">
      <rect
         y="100.14986"
         x="12.020481"
         height="99.659378"
         width="40.772831"
         id="rect4495"
         style="opacity:1;fill:none;fill-opacity:1;stroke:#000000;stroke-width:1;stroke-miterlimit:4;stroke-dasharray:none;stroke-dashoffset:0;stroke-opacity:1" />
      <g
         transform="translate(-79.982239,33.137877)"
         id="g4511">
        <rect
           style="opacity:1;fill:none;fill-opacity:1;stroke:#000000;stroke-width:0.5;stroke-miterlimit:4;stroke-dasharray:none;stroke-dashoffset:0;stroke-opacity:1"
           id="rect4499"
           width="34.848656"
           height="14.977654"
           x="94.964806"
           y="69.005264" />
        <text
           xml:space="preserve"
           style="font-style:normal;font-weight:normal;font-size:4.93888855px;line-height:6.61458302px;font-family:sans-serif;letter-spacing:0px;word-spacing:0px;fill:#000000;fill-opacity:1;stroke:none;stroke-width:0.26458332"
           x="98.761368"
           y="75.02803"
           id="text4503"><tspan
             id="tspan4501"
             x="98.761368"
             y="75.02803"
             style="stroke-width:0.26458332">id=&quot;Adam&quot;</tspan><tspan
             x="98.761368"
             y="81.642616"
             style="stroke-width:0.26458332"
             id="tspan4505">dist=24.0</tspan></text>
      </g>
      <g
         id="g4521"
         transform="translate(-79.982239,49.806637)">
        <rect
           y="69.005264"
           x="94.964806"
           height="14.977654"
           width="34.848656"
           id="rect4513"
           style="opacity:1;fill:none;fill-opacity:1;stroke:#000000;stroke-width:0.5;stroke-miterlimit:4;stroke-dasharray:none;stroke-dashoffset:0;stroke-opacity:1" />
        <text
           id="text4519"
           y="75.02803"
           x="98.761368"
           style="font-style:normal;font-weight:normal;font-size:4.93888855px;line-height:6.61458302px;font-family:sans-serif;letter-spacing:0px;word-spacing:0px;fill:#000000;fill-opacity:1;stroke:none;stroke-width:0.26458332"
           xml:space="preserve"><tspan
             style="stroke-width:0.26458332"
             y="75.02803"
             x="98.761368"
             id="tspan4515">id=&quot;Alice&quot;</tspan><tspan
             id="tspan4517"
             style="stroke-width:0.26458332"
             y="81.642616"
             x="98.761368">dist=18.5</tspan></text>
      </g>
      <g
         transform="translate(-79.982239,66.475397)"
         id="g4531">
        <rect
           style="opacity:1;fill:none;fill-opacity:1;stroke:#000000;stroke-width:0.5;stroke-miterlimit:4;stroke-dasharray:none;stroke-dashoffset:0;stroke-opacity:1"
           id="rect4523"
           width="34.848656"
           height="14.977654"
           x="94.964806"
           y="69.005264" />
        <text
           xml:space="preserve"
           style="font-style:normal;font-weight:normal;font-size:4.93888855px;line-height:6.61458302px;font-family:sans-serif;letter-spacing:0px;word-spacing:0px;fill:#000000;fill-opacity:1;stroke:none;stroke-width:0.26458332"
           x="98.761368"
           y="75.02803"
           id="text4529"><tspan
             id="tspan4525"
             x="98.761368"
             y="75.02803"
             style="stroke-width:0.26458332">id=&quot;Bill&quot;</tspan><tspan
             x="98.761368"
             y="81.642616"
             style="stroke-width:0.26458332"
             id="tspan4527">dist=42.0</tspan></text>
      </g>
      <g
         id="g4541"
         transform="translate(-79.982239,83.144166)">
        <rect
           y="69.005264"
           x="94.964806"
           height="14.977654"
           width="34.848656"
           id="rect4533"
           style="opacity:1;fill:none;fill-opacity:1;stroke:#000000;stroke-width:0.5;stroke-miterlimit:4;stroke-dasharray:none;stroke-dashoffset:0;stroke-opacity:1" />
        <text
           id="text4539"
           y="75.02803"
           x="98.761368"
           style="font-style:normal;font-weight:normal;font-size:4.93888855px;line-height:6.61458302px;font-family:sans-serif;letter-spacing:0px;word-spacing:0px;fill:#000000;fill-opacity:1;stroke:none;stroke-width:0.26458332"
           xml:space="preserve"><tspan
             style="stroke-width:0.26458332"
             y="75.02803"
             x="98.761368"
             id="tspan4535">id=&quot;Bob&quot;</tspan><tspan
             id="tspan4537"
             style="stroke-width:0.26458332"
             y="81.642616"
             x="98.761368">dist=31.0</tspan></text>
      </g>
      <g
         transform="translate(-79.982239,99.81292)"
         id="g4551">
        <rect
           style="opacity:1;fill:none;fill-opacity:1;stroke:#000000;stroke-width:0.5;stroke-miterlimit:4;stroke-dasharray:none;stroke-dashoffset:0;stroke-opacity:1"
           id="rect4543"
           width="34.848656"
           height="14.977654"
           x="94.964806"
           y="69.005264" />
        <text
           xml:space="preserve"
           style="font-style:normal;font-weight:normal;font-size:4.93888855px;line-height:6.61458302px;font-family:sans-serif;letter-spacing:0px;word-spacing:0px;fill:#000000;fill-opacity:1;stroke:none;stroke-width:0.26458332"
           x="98.761368"
           y="75.02803"
           id="text4549"><tspan
             id="tspan4545"
             x="98.761368"
             y="75.02803"
             style="stroke-width:0.26458332">id=&quot;Brenda&quot;</tspan><tspan
             x="98.761368"
             y="81.642616"
             style="stroke-width:0.26458332"
             id="tspan4547">dist=8.0</tspan></text>
      </g>
      <g
         transform="translate(-16.651291,-17.287106)"
         id="g5238">
        <path
           style="opacity:1;fill:none;fill-opacity:1;stroke:#000000;stroke-width:0.5;stroke-miterlimit:4;stroke-dasharray:none;stroke-dashoffset:0;stroke-opacity:1"
           d="m 31.633857,216.93067 v -14.15653 0 h 34.848656 v 14.15652"
           id="path4726" />
        <text
           xml:space="preserve"
           style="font-style:normal;font-weight:normal;font-size:4.93888855px;line-height:6.61458302px;font-family:sans-serif;letter-spacing:0px;word-spacing:0px;fill:#000000;fill-opacity:1;stroke:none;stroke-width:0.26458332"
           x="35.43042"
           y="208.7962"
           id="text4569"><tspan
             id="tspan4565"
             x="35.43042"
             y="208.7962"
             style="stroke-width:0.26458332">id=&quot;Carl&quot;</tspan><tspan
             x="35.43042"
             y="215.41078"
             style="stroke-width:0.26458332"
             id="tspan4567">dist=3.0</tspan></text>
      </g>
      <text
         xml:space="preserve"
         style="font-style:normal;font-weight:normal;font-size:4.93888855px;line-height:6.61458302px;font-family:sans-serif;letter-spacing:0px;word-spacing:0px;fill:#000000;fill-opacity:1;stroke:none;stroke-width:0.26458332"
         x="12.04727"
         y="97.242912"
         id="text4942"><tspan
           id="tspan4940"
           x="12.04727"
           y="97.242912"
           style="stroke-width:0.26458332">a: RDD[X]</tspan></text>
    </g>
    <rect
       style="opacity:1;fill:none;fill-opacity:1;stroke:#000000;stroke-width:1;stroke-miterlimit:4;stroke-dasharray:none;stroke-dashoffset:0;stroke-opacity:1"
       id="rect4963"
       width="131.59018"
       height="109.02575"
       x="7.2144561"
       y="90.799828" />
    <rect
       y="100.3395"
       x="58.247654"
       height="99.280075"
       width="76.102112"
       id="rect5717"
       style="opacity:1;fill:none;fill-opacity:1;stroke:#000000;stroke-width:1;stroke-miterlimit:4;stroke-dasharray:none;stroke-dashoffset:0;stroke-opacity:1" />
    <g
       transform="translate(-2.7238672,33.137877)"
       id="g5727">
      <rect
         style="opacity:1;fill:none;fill-opacity:1;stroke:#000000;stroke-width:0.5;stroke-miterlimit:4;stroke-dasharray:none;stroke-dashoffset:0;stroke-opacity:1"
         id="rect5719"
         width="34.848656"
         height="14.977654"
         x="94.964806"
         y="69.005264" />
      <text
         xml:space="preserve"
         style="font-style:normal;font-weight:normal;font-size:4.93888855px;line-height:6.61458302px;font-family:sans-serif;letter-spacing:0px;word-spacing:0px;fill:#000000;fill-opacity:1;stroke:none;stroke-width:0.26458332"
         x="98.761368"
         y="75.02803"
         id="text5725"><tspan
           id="tspan5721"
           x="98.761368"
           y="75.02803"
           style="stroke-width:0.26458332">id=&quot;Adam&quot;</tspan><tspan
           x="98.761368"
           y="81.642616"
           style="stroke-width:0.26458332"
           id="tspan5723">dist=24.0</tspan></text>
    </g>
    <g
       id="g5737"
       transform="translate(-2.7238672,49.806637)">
      <rect
         y="69.005264"
         x="94.964806"
         height="14.977654"
         width="34.848656"
         id="rect5729"
         style="opacity:1;fill:none;fill-opacity:1;stroke:#000000;stroke-width:0.5;stroke-miterlimit:4;stroke-dasharray:none;stroke-dashoffset:0;stroke-opacity:1" />
      <text
         id="text5735"
         y="75.02803"
         x="98.761368"
         style="font-style:normal;font-weight:normal;font-size:4.93888855px;line-height:6.61458302px;font-family:sans-serif;letter-spacing:0px;word-spacing:0px;fill:#000000;fill-opacity:1;stroke:none;stroke-width:0.26458332"
         xml:space="preserve"><tspan
           style="stroke-width:0.26458332"
           y="75.02803"
           x="98.761368"
           id="tspan5731">id=&quot;Alice&quot;</tspan><tspan
           id="tspan5733"
           style="stroke-width:0.26458332"
           y="81.642616"
           x="98.761368">dist=18.5</tspan></text>
    </g>
    <g
       transform="translate(-2.7238672,66.475397)"
       id="g5747">
      <rect
         style="opacity:1;fill:none;fill-opacity:1;stroke:#000000;stroke-width:0.5;stroke-miterlimit:4;stroke-dasharray:none;stroke-dashoffset:0;stroke-opacity:1"
         id="rect5739"
         width="34.848656"
         height="14.977654"
         x="94.964806"
         y="69.005264" />
      <text
         xml:space="preserve"
         style="font-style:normal;font-weight:normal;font-size:4.93888855px;line-height:6.61458302px;font-family:sans-serif;letter-spacing:0px;word-spacing:0px;fill:#000000;fill-opacity:1;stroke:none;stroke-width:0.26458332"
         x="98.761368"
         y="75.02803"
         id="text5745"><tspan
           id="tspan5741"
           x="98.761368"
           y="75.02803"
           style="stroke-width:0.26458332">id=&quot;Bill&quot;</tspan><tspan
           x="98.761368"
           y="81.642616"
           style="stroke-width:0.26458332"
           id="tspan5743">dist=42.0</tspan></text>
    </g>
    <g
       id="g5757"
       transform="translate(-2.7238672,83.144166)">
      <rect
         y="69.005264"
         x="94.964806"
         height="14.977654"
         width="34.848656"
         id="rect5749"
         style="opacity:1;fill:none;fill-opacity:1;stroke:#000000;stroke-width:0.5;stroke-miterlimit:4;stroke-dasharray:none;stroke-dashoffset:0;stroke-opacity:1" />
      <text
         id="text5755"
         y="75.02803"
         x="98.761368"
         style="font-style:normal;font-weight:normal;font-size:4.93888855px;line-height:6.61458302px;font-family:sans-serif;letter-spacing:0px;word-spacing:0px;fill:#000000;fill-opacity:1;stroke:none;stroke-width:0.26458332"
         xml:space="preserve"><tspan
           style="stroke-width:0.26458332"
           y="75.02803"
           x="98.761368"
           id="tspan5751">id=&quot;Bob&quot;</tspan><tspan
           id="tspan5753"
           style="stroke-width:0.26458332"
           y="81.642616"
           x="98.761368">dist=31.0</tspan></text>
    </g>
    <g
       transform="translate(-2.7238672,99.81292)"
       id="g5767">
      <rect
         style="opacity:1;fill:none;fill-opacity:1;stroke:#000000;stroke-width:0.5;stroke-miterlimit:4;stroke-dasharray:none;stroke-dashoffset:0;stroke-opacity:1"
         id="rect5759"
         width="34.848656"
         height="14.977654"
         x="94.964806"
         y="69.005264" />
      <text
         xml:space="preserve"
         style="font-style:normal;font-weight:normal;font-size:4.93888855px;line-height:6.61458302px;font-family:sans-serif;letter-spacing:0px;word-spacing:0px;fill:#000000;fill-opacity:1;stroke:none;stroke-width:0.26458332"
         x="98.761368"
         y="75.02803"
         id="text5765"><tspan
           id="tspan5761"
           x="98.761368"
           y="75.02803"
           style="stroke-width:0.26458332">id=&quot;Brenda&quot;</tspan><tspan
           x="98.761368"
           y="81.642616"
           style="stroke-width:0.26458332"
           id="tspan5763">dist=8.0</tspan></text>
    </g>
    <g
       transform="translate(60.607085,-17.287106)"
       id="g5777">
      <path
         style="opacity:1;fill:none;fill-opacity:1;stroke:#000000;stroke-width:0.5;stroke-miterlimit:4;stroke-dasharray:none;stroke-dashoffset:0;stroke-opacity:1"
         d="m 31.633857,216.93067 v -14.15653 0 h 34.848656 v 14.15652"
         id="path5769" />
      <text
         xml:space="preserve"
         style="font-style:normal;font-weight:normal;font-size:4.93888855px;line-height:6.61458302px;font-family:sans-serif;letter-spacing:0px;word-spacing:0px;fill:#000000;fill-opacity:1;stroke:none;stroke-width:0.26458332"
         x="35.43042"
         y="208.7962"
         id="text5775"><tspan
           id="tspan5771"
           x="35.43042"
           y="208.7962"
           style="stroke-width:0.26458332">id=&quot;Carl&quot;</tspan><tspan
           x="35.43042"
           y="215.41078"
           style="stroke-width:0.26458332"
           id="tspan5773">dist=3.0</tspan></text>
    </g>
    <text
       xml:space="preserve"
       style="font-style:normal;font-weight:normal;font-size:4.93888855px;line-height:6.61458302px;font-family:sans-serif;letter-spacing:0px;word-spacing:0px;fill:#000000;fill-opacity:1;stroke:none;stroke-width:0.26458332"
       x="58.084793"
       y="97.242912"
       id="text5781"><tspan
         id="tspan5779"
         x="58.084793"
         y="97.242912"
         style="stroke-width:0.26458332">p: RDD[(String,X)]</tspan></text>
    <g
       id="g5836"
       transform="translate(4.7625002,3.2488065)">
      <rect
         y="102.05666"
         x="60.404442"
         height="8.652997"
         width="25.806812"
         id="rect5818"
         style="opacity:1;fill:none;fill-opacity:1;stroke:#000000;stroke-width:0.32704356;stroke-miterlimit:4;stroke-dasharray:none;stroke-dashoffset:0;stroke-opacity:1" />
      <text
         id="text5824"
         y="108.2244"
         x="63.900326"
         style="font-style:normal;font-weight:normal;font-size:4.93888855px;line-height:6.61458302px;font-family:sans-serif;letter-spacing:0px;word-spacing:0px;fill:#000000;fill-opacity:1;stroke:none;stroke-width:0.26458332"
         xml:space="preserve"><tspan
           id="tspan5822"
           style="stroke-width:0.26458332"
           y="108.2244"
           x="63.900326">&quot;Adam&quot;</tspan></text>
    </g>
    <g
       id="g5884"
       transform="translate(4.7625002)">
      <rect
         style="opacity:1;fill:none;fill-opacity:1;stroke:#000000;stroke-width:0.32704356;stroke-miterlimit:4;stroke-dasharray:none;stroke-dashoffset:0;stroke-opacity:1"
         id="rect5838"
         width="25.806812"
         height="8.652997"
         x="60.404442"
         y="121.97423" />
      <text
         xml:space="preserve"
         style="font-style:normal;font-weight:normal;font-size:4.93888855px;line-height:6.61458302px;font-family:sans-serif;letter-spacing:0px;word-spacing:0px;fill:#000000;fill-opacity:1;stroke:none;stroke-width:0.26458332"
         x="65.096466"
         y="128.14197"
         id="text5842"><tspan
           x="65.096466"
           y="128.14197"
           style="stroke-width:0.26458332"
           id="tspan5840">&quot;Alice&quot;</tspan></text>
    </g>
    <g
       id="g5892"
       transform="translate(4.7625002)">
      <rect
         y="138.64299"
         x="60.404442"
         height="8.652997"
         width="25.806812"
         id="rect5846"
         style="opacity:1;fill:none;fill-opacity:1;stroke:#000000;stroke-width:0.32704356;stroke-miterlimit:4;stroke-dasharray:none;stroke-dashoffset:0;stroke-opacity:1" />
      <text
         id="text5850"
         y="144.81073"
         x="67.286163"
         style="font-style:normal;font-weight:normal;font-size:4.93888855px;line-height:6.61458302px;font-family:sans-serif;letter-spacing:0px;word-spacing:0px;fill:#000000;fill-opacity:1;stroke:none;stroke-width:0.26458332"
         xml:space="preserve"><tspan
           id="tspan5848"
           style="stroke-width:0.26458332"
           y="144.81073"
           x="67.286163">&quot;Bill&quot;</tspan></text>
    </g>
    <g
       id="g5900"
       transform="translate(4.7625002)">
      <rect
         style="opacity:1;fill:none;fill-opacity:1;stroke:#000000;stroke-width:0.32704356;stroke-miterlimit:4;stroke-dasharray:none;stroke-dashoffset:0;stroke-opacity:1"
         id="rect5854"
         width="25.806812"
         height="8.652997"
         x="60.404442"
         y="155.31175" />
      <text
         xml:space="preserve"
         style="font-style:normal;font-weight:normal;font-size:4.93888855px;line-height:6.61458302px;font-family:sans-serif;letter-spacing:0px;word-spacing:0px;fill:#000000;fill-opacity:1;stroke:none;stroke-width:0.26458332"
         x="66.263664"
         y="161.47949"
         id="text5858"><tspan
           x="66.263664"
           y="161.47949"
           style="stroke-width:0.26458332"
           id="tspan5856">&quot;Bob&quot;</tspan></text>
    </g>
    <g
       id="g5908"
       transform="translate(4.7625002)">
      <rect
         y="171.98051"
         x="60.404442"
         height="8.652997"
         width="25.806812"
         id="rect5862"
         style="opacity:1;fill:none;fill-opacity:1;stroke:#000000;stroke-width:0.32704356;stroke-miterlimit:4;stroke-dasharray:none;stroke-dashoffset:0;stroke-opacity:1" />
      <text
         id="text5866"
         y="178.14825"
         x="62.207405"
         style="font-style:normal;font-weight:normal;font-size:4.93888855px;line-height:6.61458302px;font-family:sans-serif;letter-spacing:0px;word-spacing:0px;fill:#000000;fill-opacity:1;stroke:none;stroke-width:0.26458332"
         xml:space="preserve"><tspan
           id="tspan5864"
           style="stroke-width:0.26458332"
           y="178.14825"
           x="62.207405">&quot;Brenda&quot;</tspan></text>
    </g>
    <g
       id="g5916"
       transform="translate(4.7625002)">
      <rect
         style="opacity:1;fill:none;fill-opacity:1;stroke:#000000;stroke-width:0.32704356;stroke-miterlimit:4;stroke-dasharray:none;stroke-dashoffset:0;stroke-opacity:1"
         id="rect5870"
         width="25.806812"
         height="8.652997"
         x="60.404442"
         y="188.31088" />
      <text
         xml:space="preserve"
         style="font-style:normal;font-weight:normal;font-size:4.93888855px;line-height:6.61458302px;font-family:sans-serif;letter-spacing:0px;word-spacing:0px;fill:#000000;fill-opacity:1;stroke:none;stroke-width:0.26458332"
         x="66.090027"
         y="194.47862"
         id="text5874"><tspan
           x="66.090027"
           y="194.47862"
           style="stroke-width:0.26458332"
           id="tspan5872">&quot;Carl&quot;</tspan></text>
    </g>
    <g
       id="g6030"
       transform="translate(-2.6458334)">
      <path
         id="path5986"
         d="m 65.57614,116.64475 c -0.04413,0.0119 -0.310793,-0.66176 -0.641412,-1.9226 -0.326539,-1.24527 -0.697863,-3.02936 -0.67961,-4.93012 0.0017,-0.15076 0.0055,-0.30146 0.01129,-0.45208 0.07555,-1.97184 0.494904,-3.86083 0.846894,-5.19671 0.356057,-1.35132 0.623421,-2.08789 0.671674,-2.07562 0.06436,0.0164 -0.09384,0.78197 -0.368118,2.14609 -0.269797,1.34185 -0.640443,3.22728 -0.711778,5.14282 -0.0055,0.14702 -0.0092,0.29398 -0.0112,0.44093 -0.02799,1.83703 0.290234,3.608 0.535225,4.85726 0.249009,1.26976 0.410571,1.97281 0.347031,1.99003 z"
         style="fill:#000000;fill-opacity:1;stroke:#000000;stroke-width:0.26458332px;stroke-linecap:butt;stroke-linejoin:miter;stroke-opacity:1" />
      <path
         style="fill:#000000;fill-opacity:1;stroke:#000000;stroke-width:0.26458332px;stroke-linecap:butt;stroke-linejoin:miter;stroke-opacity:1"
         d="m 65.57614,133.26069 c -0.04413,0.0119 -0.310793,-0.66176 -0.641412,-1.9226 -0.326539,-1.24527 -0.697863,-3.02936 -0.67961,-4.93012 0.0017,-0.15076 0.0055,-0.30146 0.01129,-0.45208 0.07555,-1.97184 0.494904,-3.86083 0.846894,-5.19671 0.356057,-1.35132 0.623421,-2.08789 0.671674,-2.07562 0.06436,0.0164 -0.09384,0.78197 -0.368118,2.14609 -0.269797,1.34185 -0.640443,3.22728 -0.711778,5.14282 -0.0055,0.14702 -0.0092,0.29398 -0.0112,0.44093 -0.02799,1.83703 0.290234,3.608 0.535225,4.85726 0.249009,1.26976 0.410571,1.97281 0.347031,1.99003 z"
         id="path6004" />
      <path
         id="path6008"
         d="m 65.57614,149.87662 c -0.04413,0.0119 -0.310793,-0.66176 -0.641412,-1.9226 -0.326539,-1.24527 -0.697863,-3.02936 -0.67961,-4.93012 0.0017,-0.15076 0.0055,-0.30146 0.01129,-0.45208 0.07555,-1.97184 0.494904,-3.86083 0.846894,-5.19671 0.356057,-1.35132 0.623421,-2.08789 0.671674,-2.07562 0.06436,0.0164 -0.09384,0.78197 -0.368118,2.14609 -0.269797,1.34185 -0.640443,3.22728 -0.711778,5.14282 -0.0055,0.14702 -0.0092,0.29398 -0.0112,0.44093 -0.02799,1.83703 0.290234,3.608 0.535225,4.85726 0.249009,1.26976 0.410571,1.97281 0.347031,1.99003 z"
         style="fill:#000000;fill-opacity:1;stroke:#000000;stroke-width:0.26458332px;stroke-linecap:butt;stroke-linejoin:miter;stroke-opacity:1" />
      <path
         style="fill:#000000;fill-opacity:1;stroke:#000000;stroke-width:0.26458332px;stroke-linecap:butt;stroke-linejoin:miter;stroke-opacity:1"
         d="m 65.57614,166.49257 c -0.04413,0.0119 -0.310793,-0.66176 -0.641412,-1.9226 -0.326539,-1.24527 -0.697863,-3.02936 -0.67961,-4.93012 0.0017,-0.15076 0.0055,-0.30146 0.01129,-0.45208 0.07555,-1.97184 0.494904,-3.86083 0.846894,-5.19671 0.356057,-1.35132 0.623421,-2.08789 0.671674,-2.07562 0.06436,0.0164 -0.09384,0.78197 -0.368118,2.14609 -0.269797,1.34185 -0.640443,3.22728 -0.711778,5.14282 -0.0055,0.14702 -0.0092,0.29398 -0.0112,0.44093 -0.02799,1.83703 0.290234,3.608 0.535225,4.85726 0.249009,1.26976 0.410571,1.97281 0.347031,1.99003 z"
         id="path6012" />
      <path
         id="path6016"
         d="m 65.57614,183.1085 c -0.04413,0.0119 -0.310793,-0.66176 -0.641412,-1.9226 -0.326539,-1.24527 -0.697863,-3.02936 -0.67961,-4.93012 0.0017,-0.15076 0.0055,-0.30146 0.01129,-0.45208 0.07555,-1.97184 0.494904,-3.86083 0.846894,-5.19671 0.356057,-1.35132 0.623421,-2.08789 0.671674,-2.07562 0.06436,0.0164 -0.09384,0.78197 -0.368118,2.14609 -0.269797,1.34185 -0.640443,3.22728 -0.711778,5.14282 -0.0055,0.14702 -0.0092,0.29398 -0.0112,0.44093 -0.02799,1.83703 0.290234,3.608 0.535225,4.85726 0.249009,1.26976 0.410571,1.97281 0.347031,1.99003 z"
         style="fill:#000000;fill-opacity:1;stroke:#000000;stroke-width:0.26458332px;stroke-linecap:butt;stroke-linejoin:miter;stroke-opacity:1" />
      <path
         style="fill:#000000;fill-opacity:1;stroke:#000000;stroke-width:0.26458332px;stroke-linecap:butt;stroke-linejoin:miter;stroke-opacity:1"
         d="m 65.57614,199.72444 c -0.04413,0.0119 -0.310793,-0.66176 -0.641412,-1.9226 -0.326539,-1.24527 -0.697863,-3.02936 -0.67961,-4.93012 0.0017,-0.15076 0.0055,-0.30146 0.01129,-0.45208 0.07555,-1.97184 0.494904,-3.86083 0.846894,-5.19671 0.356057,-1.35132 0.623421,-2.08789 0.671674,-2.07562 0.06436,0.0164 -0.09384,0.78197 -0.368118,2.14609 -0.269797,1.34185 -0.640443,3.22728 -0.711778,5.14282 -0.0055,0.14702 -0.0092,0.29398 -0.0112,0.44093 -0.02799,1.83703 0.290234,3.608 0.535225,4.85726 0.249009,1.26976 0.410571,1.97281 0.347031,1.99003 z"
         id="path6020" />
    </g>
    <g
       id="g6044"
       transform="matrix(-1,0,0,1,195.67051,0)">
      <path
         style="fill:#000000;fill-opacity:1;stroke:#000000;stroke-width:0.26458332px;stroke-linecap:butt;stroke-linejoin:miter;stroke-opacity:1"
         d="m 65.57614,116.64475 c -0.04413,0.0119 -0.310793,-0.66176 -0.641412,-1.9226 -0.326539,-1.24527 -0.697863,-3.02936 -0.67961,-4.93012 0.0017,-0.15076 0.0055,-0.30146 0.01129,-0.45208 0.07555,-1.97184 0.494904,-3.86083 0.846894,-5.19671 0.356057,-1.35132 0.623421,-2.08789 0.671674,-2.07562 0.06436,0.0164 -0.09384,0.78197 -0.368118,2.14609 -0.269797,1.34185 -0.640443,3.22728 -0.711778,5.14282 -0.0055,0.14702 -0.0092,0.29398 -0.0112,0.44093 -0.02799,1.83703 0.290234,3.608 0.535225,4.85726 0.249009,1.26976 0.410571,1.97281 0.347031,1.99003 z"
         id="path6032" />
      <path
         id="path6034"
         d="m 65.57614,133.26069 c -0.04413,0.0119 -0.310793,-0.66176 -0.641412,-1.9226 -0.326539,-1.24527 -0.697863,-3.02936 -0.67961,-4.93012 0.0017,-0.15076 0.0055,-0.30146 0.01129,-0.45208 0.07555,-1.97184 0.494904,-3.86083 0.846894,-5.19671 0.356057,-1.35132 0.623421,-2.08789 0.671674,-2.07562 0.06436,0.0164 -0.09384,0.78197 -0.368118,2.14609 -0.269797,1.34185 -0.640443,3.22728 -0.711778,5.14282 -0.0055,0.14702 -0.0092,0.29398 -0.0112,0.44093 -0.02799,1.83703 0.290234,3.608 0.535225,4.85726 0.249009,1.26976 0.410571,1.97281 0.347031,1.99003 z"
         style="fill:#000000;fill-opacity:1;stroke:#000000;stroke-width:0.26458332px;stroke-linecap:butt;stroke-linejoin:miter;stroke-opacity:1" />
      <path
         style="fill:#000000;fill-opacity:1;stroke:#000000;stroke-width:0.26458332px;stroke-linecap:butt;stroke-linejoin:miter;stroke-opacity:1"
         d="m 65.57614,149.87662 c -0.04413,0.0119 -0.310793,-0.66176 -0.641412,-1.9226 -0.326539,-1.24527 -0.697863,-3.02936 -0.67961,-4.93012 0.0017,-0.15076 0.0055,-0.30146 0.01129,-0.45208 0.07555,-1.97184 0.494904,-3.86083 0.846894,-5.19671 0.356057,-1.35132 0.623421,-2.08789 0.671674,-2.07562 0.06436,0.0164 -0.09384,0.78197 -0.368118,2.14609 -0.269797,1.34185 -0.640443,3.22728 -0.711778,5.14282 -0.0055,0.14702 -0.0092,0.29398 -0.0112,0.44093 -0.02799,1.83703 0.290234,3.608 0.535225,4.85726 0.249009,1.26976 0.410571,1.97281 0.347031,1.99003 z"
         id="path6036" />
      <path
         id="path6038"
         d="m 65.57614,166.49257 c -0.04413,0.0119 -0.310793,-0.66176 -0.641412,-1.9226 -0.326539,-1.24527 -0.697863,-3.02936 -0.67961,-4.93012 0.0017,-0.15076 0.0055,-0.30146 0.01129,-0.45208 0.07555,-1.97184 0.494904,-3.86083 0.846894,-5.19671 0.356057,-1.35132 0.623421,-2.08789 0.671674,-2.07562 0.06436,0.0164 -0.09384,0.78197 -0.368118,2.14609 -0.269797,1.34185 -0.640443,3.22728 -0.711778,5.14282 -0.0055,0.14702 -0.0092,0.29398 -0.0112,0.44093 -0.02799,1.83703 0.290234,3.608 0.535225,4.85726 0.249009,1.26976 0.410571,1.97281 0.347031,1.99003 z"
         style="fill:#000000;fill-opacity:1;stroke:#000000;stroke-width:0.26458332px;stroke-linecap:butt;stroke-linejoin:miter;stroke-opacity:1" />
      <path
         style="fill:#000000;fill-opacity:1;stroke:#000000;stroke-width:0.26458332px;stroke-linecap:butt;stroke-linejoin:miter;stroke-opacity:1"
         d="m 65.57614,183.1085 c -0.04413,0.0119 -0.310793,-0.66176 -0.641412,-1.9226 -0.326539,-1.24527 -0.697863,-3.02936 -0.67961,-4.93012 0.0017,-0.15076 0.0055,-0.30146 0.01129,-0.45208 0.07555,-1.97184 0.494904,-3.86083 0.846894,-5.19671 0.356057,-1.35132 0.623421,-2.08789 0.671674,-2.07562 0.06436,0.0164 -0.09384,0.78197 -0.368118,2.14609 -0.269797,1.34185 -0.640443,3.22728 -0.711778,5.14282 -0.0055,0.14702 -0.0092,0.29398 -0.0112,0.44093 -0.02799,1.83703 0.290234,3.608 0.535225,4.85726 0.249009,1.26976 0.410571,1.97281 0.347031,1.99003 z"
         id="path6040" />
      <path
         id="path6042"
         d="m 65.57614,199.72444 c -0.04413,0.0119 -0.310793,-0.66176 -0.641412,-1.9226 -0.326539,-1.24527 -0.697863,-3.02936 -0.67961,-4.93012 0.0017,-0.15076 0.0055,-0.30146 0.01129,-0.45208 0.07555,-1.97184 0.494904,-3.86083 0.846894,-5.19671 0.356057,-1.35132 0.623421,-2.08789 0.671674,-2.07562 0.06436,0.0164 -0.09384,0.78197 -0.368118,2.14609 -0.269797,1.34185 -0.640443,3.22728 -0.711778,5.14282 -0.0055,0.14702 -0.0092,0.29398 -0.0112,0.44093 -0.02799,1.83703 0.290234,3.608 0.535225,4.85726 0.249009,1.26976 0.410571,1.97281 0.347031,1.99003 z"
         style="fill:#000000;fill-opacity:1;stroke:#000000;stroke-width:0.26458332px;stroke-linecap:butt;stroke-linejoin:miter;stroke-opacity:1" />
    </g>
    <text
       xml:space="preserve"
       style="font-style:normal;font-weight:normal;font-size:4.93888855px;line-height:6.61458349px;font-family:sans-serif;letter-spacing:0px;word-spacing:0px;fill:#000000;fill-opacity:1;stroke:none;stroke-width:0.26458332"
       x="12.630383"
       y="81.231392"
       id="text4730"><tspan
         x="12.630383"
         y="81.231392"
         style="stroke-width:0.26458332"
         id="tspan4938">p: RDD[(String,X)] = a.keyBy(_.id)</tspan></text>
  </g>
</svg>
