<?xml version="1.0" encoding="UTF-8" standalone="no"?>
<svg
   xmlns:dc="http://purl.org/dc/elements/1.1/"
   xmlns:cc="http://creativecommons.org/ns#"
   xmlns:rdf="http://www.w3.org/1999/02/22-rdf-syntax-ns#"
   xmlns:svg="http://www.w3.org/2000/svg"
   xmlns="http://www.w3.org/2000/svg"
   id="svg4900"
   version="1.1"
   viewBox="0 0 132.59018 122.84658"
   height="122.84658mm"
   width="132.59018mm">
  <defs
     id="defs4894" />
  <metadata
     id="metadata4897">
    <rdf:RDF>
      <cc:Work
         rdf:about="">
        <dc:format>image/svg+xml</dc:format>
        <dc:type
           rdf:resource="http://purl.org/dc/dcmitype/StillImage" />
        <dc:title></dc:title>
      </cc:Work>
    </rdf:RDF>
  </metadata>
  <g
     transform="translate(-6.7144561,-77.478994)"
     id="layer1">
    <g
       id="g5715">
      <rect
         style="opacity:1;fill:none;fill-opacity:1;stroke:#000000;stroke-width:1;stroke-miterlimit:4;stroke-dasharray:none;stroke-dashoffset:0;stroke-opacity:1"
         id="rect4495"
         width="40.772831"
         height="99.659378"
         x="12.020481"
         y="100.14986" />
      <g
         id="g4511"
         transform="translate(-79.982239,33.137877)">
        <rect
           y="69.005264"
           x="94.964806"
           height="14.977654"
           width="34.848656"
           id="rect4499"
           style="opacity:1;fill:none;fill-opacity:1;stroke:#000000;stroke-width:0.5;stroke-miterlimit:4;stroke-dasharray:none;stroke-dashoffset:0;stroke-opacity:1" />
        <text
           id="text4503"
           y="75.02803"
           x="98.761368"
           style="font-style:normal;font-weight:normal;font-size:4.93888855px;line-height:6.61458302px;font-family:sans-serif;letter-spacing:0px;word-spacing:0px;fill:#000000;fill-opacity:1;stroke:none;stroke-width:0.26458332"
           xml:space="preserve"><tspan
             style="stroke-width:0.26458332"
             y="75.02803"
             x="98.761368"
             id="tspan4501">id=&quot;Adam&quot;</tspan><tspan
             id="tspan4505"
             style="stroke-width:0.26458332"
             y="81.642616"
             x="98.761368">dist=24.0</tspan></text>
      </g>
      <g
         transform="translate(-79.982239,49.806637)"
         id="g4521">
        <rect
           style="opacity:1;fill:none;fill-opacity:1;stroke:#000000;stroke-width:0.5;stroke-miterlimit:4;stroke-dasharray:none;stroke-dashoffset:0;stroke-opacity:1"
           id="rect4513"
           width="34.848656"
           height="14.977654"
           x="94.964806"
           y="69.005264" />
        <text
           xml:space="preserve"
           style="font-style:normal;font-weight:normal;font-size:4.93888855px;line-height:6.61458302px;font-family:sans-serif;letter-spacing:0px;word-spacing:0px;fill:#000000;fill-opacity:1;stroke:none;stroke-width:0.26458332"
           x="98.761368"
           y="75.02803"
           id="text4519"><tspan
             id="tspan4515"
             x="98.761368"
             y="75.02803"
             style="stroke-width:0.26458332">id=&quot;Alice&quot;</tspan><tspan
             x="98.761368"
             y="81.642616"
             style="stroke-width:0.26458332"
             id="tspan4517">dist=18.5</tspan></text>
      </g>
      <g
         id="g4531"
         transform="translate(-79.982239,66.475397)">
        <rect
           y="69.005264"
           x="94.964806"
           height="14.977654"
           width="34.848656"
           id="rect4523"
           style="opacity:1;fill:none;fill-opacity:1;stroke:#000000;stroke-width:0.5;stroke-miterlimit:4;stroke-dasharray:none;stroke-dashoffset:0;stroke-opacity:1" />
        <text
           id="text4529"
           y="75.02803"
           x="98.761368"
           style="font-style:normal;font-weight:normal;font-size:4.93888855px;line-height:6.61458302px;font-family:sans-serif;letter-spacing:0px;word-spacing:0px;fill:#000000;fill-opacity:1;stroke:none;stroke-width:0.26458332"
           xml:space="preserve"><tspan
             style="stroke-width:0.26458332"
             y="75.02803"
             x="98.761368"
             id="tspan4525">id=&quot;Bill&quot;</tspan><tspan
             id="tspan4527"
             style="stroke-width:0.26458332"
             y="81.642616"
             x="98.761368">dist=42.0</tspan></text>
      </g>
      <g
         transform="translate(-79.982239,83.144166)"
         id="g4541">
        <rect
           style="opacity:1;fill:none;fill-opacity:1;stroke:#000000;stroke-width:0.5;stroke-miterlimit:4;stroke-dasharray:none;stroke-dashoffset:0;stroke-opacity:1"
           id="rect4533"
           width="34.848656"
           height="14.977654"
           x="94.964806"
           y="69.005264" />
        <text
           xml:space="preserve"
           style="font-style:normal;font-weight:normal;font-size:4.93888855px;line-height:6.61458302px;font-family:sans-serif;letter-spacing:0px;word-spacing:0px;fill:#000000;fill-opacity:1;stroke:none;stroke-width:0.26458332"
           x="98.761368"
           y="75.02803"
           id="text4539"><tspan
             id="tspan4535"
             x="98.761368"
             y="75.02803"
             style="stroke-width:0.26458332">id=&quot;Bob&quot;</tspan><tspan
             x="98.761368"
             y="81.642616"
             style="stroke-width:0.26458332"
             id="tspan4537">dist=31.0</tspan></text>
      </g>
      <g
         id="g4551"
         transform="translate(-79.982239,99.81292)">
        <rect
           y="69.005264"
           x="94.964806"
           height="14.977654"
           width="34.848656"
           id="rect4543"
           style="opacity:1;fill:none;fill-opacity:1;stroke:#000000;stroke-width:0.5;stroke-miterlimit:4;stroke-dasharray:none;stroke-dashoffset:0;stroke-opacity:1" />
        <text
           id="text4549"
           y="75.02803"
           x="98.761368"
           style="font-style:normal;font-weight:normal;font-size:4.93888855px;line-height:6.61458302px;font-family:sans-serif;letter-spacing:0px;word-spacing:0px;fill:#000000;fill-opacity:1;stroke:none;stroke-width:0.26458332"
           xml:space="preserve"><tspan
             style="stroke-width:0.26458332"
             y="75.02803"
             x="98.761368"
             id="tspan4545">id=&quot;Brenda&quot;</tspan><tspan
             id="tspan4547"
             style="stroke-width:0.26458332"
             y="81.642616"
             x="98.761368">dist=8.0</tspan></text>
      </g>
      <g
         id="g5238"
         transform="translate(-16.651291,-17.287106)">
        <path
           id="path4726"
           d="m 31.633857,216.93067 v -14.15653 0 h 34.848656 v 14.15652"
           style="opacity:1;fill:none;fill-opacity:1;stroke:#000000;stroke-width:0.5;stroke-miterlimit:4;stroke-dasharray:none;stroke-dashoffset:0;stroke-opacity:1" />
        <text
           id="text4569"
           y="208.7962"
           x="35.43042"
           style="font-style:normal;font-weight:normal;font-size:4.93888855px;line-height:6.61458302px;font-family:sans-serif;letter-spacing:0px;word-spacing:0px;fill:#000000;fill-opacity:1;stroke:none;stroke-width:0.26458332"
           xml:space="preserve"><tspan
             style="stroke-width:0.26458332"
             y="208.7962"
             x="35.43042"
             id="tspan4565">id=&quot;Carl&quot;</tspan><tspan
             id="tspan4567"
             style="stroke-width:0.26458332"
             y="215.41078"
             x="35.43042">dist=3.0</tspan></text>
      </g>
      <text
         id="text4942"
         y="97.242912"
         x="12.04727"
         style="font-style:normal;font-weight:normal;font-size:4.93888855px;line-height:6.61458302px;font-family:sans-serif;letter-spacing:0px;word-spacing:0px;fill:#000000;fill-opacity:1;stroke:none;stroke-width:0.26458332"
         xml:space="preserve"><tspan
           style="stroke-width:0.26458332"
           y="97.242912"
           x="12.04727"
           id="tspan4940">a: RDD[X]</tspan></text>
    </g>
    <rect
       y="90.799828"
       x="7.2144561"
       height="109.02575"
       width="131.59018"
       id="rect4963"
       style="opacity:1;fill:none;fill-opacity:1;stroke:#000000;stroke-width:1;stroke-miterlimit:4;stroke-dasharray:none;stroke-dashoffset:0;stroke-opacity:1" />
    <rect
       style="opacity:1;fill:none;fill-opacity:1;stroke:#000000;stroke-width:1;stroke-miterlimit:4;stroke-dasharray:none;stroke-dashoffset:0;stroke-opacity:1"
       id="rect5717"
       width="76.102112"
       height="99.280075"
       x="58.247654"
       y="100.3395" />
    <g
       id="g5727"
       transform="translate(-2.7238672,33.137877)">
      <rect
         y="69.005264"
         x="94.964806"
         height="14.977654"
         width="34.848656"
         id="rect5719"
         style="opacity:1;fill:none;fill-opacity:1;stroke:#000000;stroke-width:0.5;stroke-miterlimit:4;stroke-dasharray:none;stroke-dashoffset:0;stroke-opacity:1" />
      <text
         id="text5725"
         y="75.02803"
         x="98.761368"
         style="font-style:normal;font-weight:normal;font-size:4.93888855px;line-height:6.61458302px;font-family:sans-serif;letter-spacing:0px;word-spacing:0px;fill:#000000;fill-opacity:1;stroke:none;stroke-width:0.26458332"
         xml:space="preserve"><tspan
           style="stroke-width:0.26458332"
           y="75.02803"
           x="98.761368"
           id="tspan5721">id=&quot;Adam&quot;</tspan><tspan
           id="tspan5723"
           style="stroke-width:0.26458332"
           y="81.642616"
           x="98.761368">dist=24.0</tspan></text>
    </g>
    <g
       transform="translate(-2.7238672,49.806637)"
       id="g5737">
      <rect
         style="opacity:1;fill:none;fill-opacity:1;stroke:#000000;stroke-width:0.5;stroke-miterlimit:4;stroke-dasharray:none;stroke-dashoffset:0;stroke-opacity:1"
         id="rect5729"
         width="34.848656"
         height="14.977654"
         x="94.964806"
         y="69.005264" />
      <text
         xml:space="preserve"
         style="font-style:normal;font-weight:normal;font-size:4.93888855px;line-height:6.61458302px;font-family:sans-serif;letter-spacing:0px;word-spacing:0px;fill:#000000;fill-opacity:1;stroke:none;stroke-width:0.26458332"
         x="98.761368"
         y="75.02803"
         id="text5735"><tspan
           id="tspan5731"
           x="98.761368"
           y="75.02803"
           style="stroke-width:0.26458332">id=&quot;Alice&quot;</tspan><tspan
           x="98.761368"
           y="81.642616"
           style="stroke-width:0.26458332"
           id="tspan5733">dist=18.5</tspan></text>
    </g>
    <g
       id="g5747"
       transform="translate(-2.7238672,66.475397)">
      <rect
         y="69.005264"
         x="94.964806"
         height="14.977654"
         width="34.848656"
         id="rect5739"
         style="opacity:1;fill:none;fill-opacity:1;stroke:#000000;stroke-width:0.5;stroke-miterlimit:4;stroke-dasharray:none;stroke-dashoffset:0;stroke-opacity:1" />
      <text
         id="text5745"
         y="75.02803"
         x="98.761368"
         style="font-style:normal;font-weight:normal;font-size:4.93888855px;line-height:6.61458302px;font-family:sans-serif;letter-spacing:0px;word-spacing:0px;fill:#000000;fill-opacity:1;stroke:none;stroke-width:0.26458332"
         xml:space="preserve"><tspan
           style="stroke-width:0.26458332"
           y="75.02803"
           x="98.761368"
           id="tspan5741">id=&quot;Bill&quot;</tspan><tspan
           id="tspan5743"
           style="stroke-width:0.26458332"
           y="81.642616"
           x="98.761368">dist=42.0</tspan></text>
    </g>
    <g
       transform="translate(-2.7238672,83.144166)"
       id="g5757">
      <rect
         style="opacity:1;fill:none;fill-opacity:1;stroke:#000000;stroke-width:0.5;stroke-miterlimit:4;stroke-dasharray:none;stroke-dashoffset:0;stroke-opacity:1"
         id="rect5749"
         width="34.848656"
         height="14.977654"
         x="94.964806"
         y="69.005264" />
      <text
         xml:space="preserve"
         style="font-style:normal;font-weight:normal;font-size:4.93888855px;line-height:6.61458302px;font-family:sans-serif;letter-spacing:0px;word-spacing:0px;fill:#000000;fill-opacity:1;stroke:none;stroke-width:0.26458332"
         x="98.761368"
         y="75.02803"
         id="text5755"><tspan
           id="tspan5751"
           x="98.761368"
           y="75.02803"
           style="stroke-width:0.26458332">id=&quot;Bob&quot;</tspan><tspan
           x="98.761368"
           y="81.642616"
           style="stroke-width:0.26458332"
           id="tspan5753">dist=31.0</tspan></text>
    </g>
    <g
       id="g5767"
       transform="translate(-2.7238672,99.81292)">
      <rect
         y="69.005264"
         x="94.964806"
         height="14.977654"
         width="34.848656"
         id="rect5759"
         style="opacity:1;fill:none;fill-opacity:1;stroke:#000000;stroke-width:0.5;stroke-miterlimit:4;stroke-dasharray:none;stroke-dashoffset:0;stroke-opacity:1" />
      <text
         id="text5765"
         y="75.02803"
         x="98.761368"
         style="font-style:normal;font-weight:normal;font-size:4.93888855px;line-height:6.61458302px;font-family:sans-serif;letter-spacing:0px;word-spacing:0px;fill:#000000;fill-opacity:1;stroke:none;stroke-width:0.26458332"
         xml:space="preserve"><tspan
           style="stroke-width:0.26458332"
           y="75.02803"
           x="98.761368"
           id="tspan5761">id=&quot;Brenda&quot;</tspan><tspan
           id="tspan5763"
           style="stroke-width:0.26458332"
           y="81.642616"
           x="98.761368">dist=8.0</tspan></text>
    </g>
    <g
       id="g5777"
       transform="translate(60.607085,-17.287106)">
      <path
         id="path5769"
         d="m 31.633857,216.93067 v -14.15653 0 h 34.848656 v 14.15652"
         style="opacity:1;fill:none;fill-opacity:1;stroke:#000000;stroke-width:0.5;stroke-miterlimit:4;stroke-dasharray:none;stroke-dashoffset:0;stroke-opacity:1" />
      <text
         id="text5775"
         y="208.7962"
         x="35.43042"
         style="font-style:normal;font-weight:normal;font-size:4.93888855px;line-height:6.61458302px;font-family:sans-serif;letter-spacing:0px;word-spacing:0px;fill:#000000;fill-opacity:1;stroke:none;stroke-width:0.26458332"
         xml:space="preserve"><tspan
           style="stroke-width:0.26458332"
           y="208.7962"
           x="35.43042"
           id="tspan5771">id=&quot;Carl&quot;</tspan><tspan
           id="tspan5773"
           style="stroke-width:0.26458332"
           y="215.41078"
           x="35.43042">dist=3.0</tspan></text>
    </g>
    <text
       id="text5781"
       y="97.242912"
       x="58.084793"
       style="font-style:normal;font-weight:normal;font-size:4.93888855px;line-height:6.61458302px;font-family:sans-serif;letter-spacing:0px;word-spacing:0px;fill:#000000;fill-opacity:1;stroke:none;stroke-width:0.26458332"
       xml:space="preserve"><tspan
         style="stroke-width:0.26458332"
         y="97.242912"
         x="58.084793"
         id="tspan5779">p: RDD[(String,X)]</tspan></text>
    <g
       transform="translate(4.7625002,3.2488065)"
       id="g5836">
      <rect
         style="opacity:1;fill:none;fill-opacity:1;stroke:#000000;stroke-width:0.32704356;stroke-miterlimit:4;stroke-dasharray:none;stroke-dashoffset:0;stroke-opacity:1"
         id="rect5818"
         width="25.806812"
         height="8.652997"
         x="60.404442"
         y="102.05666" />
      <text
         xml:space="preserve"
         style="font-style:normal;font-weight:normal;font-size:4.93888855px;line-height:6.61458302px;font-family:sans-serif;letter-spacing:0px;word-spacing:0px;fill:#000000;fill-opacity:1;stroke:none;stroke-width:0.26458332"
         x="63.900326"
         y="108.2244"
         id="text5824"><tspan
           x="63.900326"
           y="108.2244"
           style="stroke-width:0.26458332"
           id="tspan5822">&quot;Adam&quot;</tspan></text>
    </g>
    <g
       transform="translate(4.7625002)"
       id="g5884">
      <rect
         y="121.97423"
         x="60.404442"
         height="8.652997"
         width="25.806812"
         id="rect5838"
         style="opacity:1;fill:none;fill-opacity:1;stroke:#000000;stroke-width:0.32704356;stroke-miterlimit:4;stroke-dasharray:none;stroke-dashoffset:0;stroke-opacity:1" />
      <text
         id="text5842"
         y="128.14197"
         x="65.096466"
         style="font-style:normal;font-weight:normal;font-size:4.93888855px;line-height:6.61458302px;font-family:sans-serif;letter-spacing:0px;word-spacing:0px;fill:#000000;fill-opacity:1;stroke:none;stroke-width:0.26458332"
         xml:space="preserve"><tspan
           id="tspan5840"
           style="stroke-width:0.26458332"
           y="128.14197"
           x="65.096466">&quot;Alice&quot;</tspan></text>
    </g>
    <g
       transform="translate(4.7625002)"
       id="g5892">
      <rect
         style="opacity:1;fill:none;fill-opacity:1;stroke:#000000;stroke-width:0.32704356;stroke-miterlimit:4;stroke-dasharray:none;stroke-dashoffset:0;stroke-opacity:1"
         id="rect5846"
         width="25.806812"
         height="8.652997"
         x="60.404442"
         y="138.64299" />
      <text
         xml:space="preserve"
         style="font-style:normal;font-weight:normal;font-size:4.93888855px;line-height:6.61458302px;font-family:sans-serif;letter-spacing:0px;word-spacing:0px;fill:#000000;fill-opacity:1;stroke:none;stroke-width:0.26458332"
         x="67.286163"
         y="144.81073"
         id="text5850"><tspan
           x="67.286163"
           y="144.81073"
           style="stroke-width:0.26458332"
           id="tspan5848">&quot;Bill&quot;</tspan></text>
    </g>
    <g
       transform="translate(4.7625002)"
       id="g5900">
      <rect
         y="155.31175"
         x="60.404442"
         height="8.652997"
         width="25.806812"
         id="rect5854"
         style="opacity:1;fill:none;fill-opacity:1;stroke:#000000;stroke-width:0.32704356;stroke-miterlimit:4;stroke-dasharray:none;stroke-dashoffset:0;stroke-opacity:1" />
      <text
         id="text5858"
         y="161.47949"
         x="66.263664"
         style="font-style:normal;font-weight:normal;font-size:4.93888855px;line-height:6.61458302px;font-family:sans-serif;letter-spacing:0px;word-spacing:0px;fill:#000000;fill-opacity:1;stroke:none;stroke-width:0.26458332"
         xml:space="preserve"><tspan
           id="tspan5856"
           style="stroke-width:0.26458332"
           y="161.47949"
           x="66.263664">&quot;Bob&quot;</tspan></text>
    </g>
    <g
       transform="translate(4.7625002)"
       id="g5908">
      <rect
         style="opacity:1;fill:none;fill-opacity:1;stroke:#000000;stroke-width:0.32704356;stroke-miterlimit:4;stroke-dasharray:none;stroke-dashoffset:0;stroke-opacity:1"
         id="rect5862"
         width="25.806812"
         height="8.652997"
         x="60.404442"
         y="171.98051" />
      <text
         xml:space="preserve"
         style="font-style:normal;font-weight:normal;font-size:4.93888855px;line-height:6.61458302px;font-family:sans-serif;letter-spacing:0px;word-spacing:0px;fill:#000000;fill-opacity:1;stroke:none;stroke-width:0.26458332"
         x="62.207405"
         y="178.14825"
         id="text5866"><tspan
           x="62.207405"
           y="178.14825"
           style="stroke-width:0.26458332"
           id="tspan5864">&quot;Brenda&quot;</tspan></text>
    </g>
    <g
       transform="translate(4.7625002)"
       id="g5916">
      <rect
         y="188.31088"
         x="60.404442"
         height="8.652997"
         width="25.806812"
         id="rect5870"
         style="opacity:1;fill:none;fill-opacity:1;stroke:#000000;stroke-width:0.32704356;stroke-miterlimit:4;stroke-dasharray:none;stroke-dashoffset:0;stroke-opacity:1" />
      <text
         id="text5874"
         y="194.47862"
         x="66.090027"
         style="font-style:normal;font-weight:normal;font-size:4.93888855px;line-height:6.61458302px;font-family:sans-serif;letter-spacing:0px;word-spacing:0px;fill:#000000;fill-opacity:1;stroke:none;stroke-width:0.26458332"
         xml:space="preserve"><tspan
           id="tspan5872"
           style="stroke-width:0.26458332"
           y="194.47862"
           x="66.090027">&quot;Carl&quot;</tspan></text>
    </g>
    <g
       transform="translate(-2.6458334)"
       id="g6030">
      <path
         style="fill:#000000;fill-opacity:1;stroke:#000000;stroke-width:0.26458332px;stroke-linecap:butt;stroke-linejoin:miter;stroke-opacity:1"
         d="m 65.57614,116.64475 c -0.04413,0.0119 -0.310793,-0.66176 -0.641412,-1.9226 -0.326539,-1.24527 -0.697863,-3.02936 -0.67961,-4.93012 0.0017,-0.15076 0.0055,-0.30146 0.01129,-0.45208 0.07555,-1.97184 0.494904,-3.86083 0.846894,-5.19671 0.356057,-1.35132 0.623421,-2.08789 0.671674,-2.07562 0.06436,0.0164 -0.09384,0.78197 -0.368118,2.14609 -0.269797,1.34185 -0.640443,3.22728 -0.711778,5.14282 -0.0055,0.14702 -0.0092,0.29398 -0.0112,0.44093 -0.02799,1.83703 0.290234,3.608 0.535225,4.85726 0.249009,1.26976 0.410571,1.97281 0.347031,1.99003 z"
         id="path5986" />
      <path
         id="path6004"
         d="m 65.57614,133.26069 c -0.04413,0.0119 -0.310793,-0.66176 -0.641412,-1.9226 -0.326539,-1.24527 -0.697863,-3.02936 -0.67961,-4.93012 0.0017,-0.15076 0.0055,-0.30146 0.01129,-0.45208 0.07555,-1.97184 0.494904,-3.86083 0.846894,-5.19671 0.356057,-1.35132 0.623421,-2.08789 0.671674,-2.07562 0.06436,0.0164 -0.09384,0.78197 -0.368118,2.14609 -0.269797,1.34185 -0.640443,3.22728 -0.711778,5.14282 -0.0055,0.14702 -0.0092,0.29398 -0.0112,0.44093 -0.02799,1.83703 0.290234,3.608 0.535225,4.85726 0.249009,1.26976 0.410571,1.97281 0.347031,1.99003 z"
         style="fill:#000000;fill-opacity:1;stroke:#000000;stroke-width:0.26458332px;stroke-linecap:butt;stroke-linejoin:miter;stroke-opacity:1" />
      <path
         style="fill:#000000;fill-opacity:1;stroke:#000000;stroke-width:0.26458332px;stroke-linecap:butt;stroke-linejoin:miter;stroke-opacity:1"
         d="m 65.57614,149.87662 c -0.04413,0.0119 -0.310793,-0.66176 -0.641412,-1.9226 -0.326539,-1.24527 -0.697863,-3.02936 -0.67961,-4.93012 0.0017,-0.15076 0.0055,-0.30146 0.01129,-0.45208 0.07555,-1.97184 0.494904,-3.86083 0.846894,-5.19671 0.356057,-1.35132 0.623421,-2.08789 0.671674,-2.07562 0.06436,0.0164 -0.09384,0.78197 -0.368118,2.14609 -0.269797,1.34185 -0.640443,3.22728 -0.711778,5.14282 -0.0055,0.14702 -0.0092,0.29398 -0.0112,0.44093 -0.02799,1.83703 0.290234,3.608 0.535225,4.85726 0.249009,1.26976 0.410571,1.97281 0.347031,1.99003 z"
         id="path6008" />
      <path
         id="path6012"
         d="m 65.57614,166.49257 c -0.04413,0.0119 -0.310793,-0.66176 -0.641412,-1.9226 -0.326539,-1.24527 -0.697863,-3.02936 -0.67961,-4.93012 0.0017,-0.15076 0.0055,-0.30146 0.01129,-0.45208 0.07555,-1.97184 0.494904,-3.86083 0.846894,-5.19671 0.356057,-1.35132 0.623421,-2.08789 0.671674,-2.07562 0.06436,0.0164 -0.09384,0.78197 -0.368118,2.14609 -0.269797,1.34185 -0.640443,3.22728 -0.711778,5.14282 -0.0055,0.14702 -0.0092,0.29398 -0.0112,0.44093 -0.02799,1.83703 0.290234,3.608 0.535225,4.85726 0.249009,1.26976 0.410571,1.97281 0.347031,1.99003 z"
         style="fill:#000000;fill-opacity:1;stroke:#000000;stroke-width:0.26458332px;stroke-linecap:butt;stroke-linejoin:miter;stroke-opacity:1" />
      <path
         style="fill:#000000;fill-opacity:1;stroke:#000000;stroke-width:0.26458332px;stroke-linecap:butt;stroke-linejoin:miter;stroke-opacity:1"
         d="m 65.57614,183.1085 c -0.04413,0.0119 -0.310793,-0.66176 -0.641412,-1.9226 -0.326539,-1.24527 -0.697863,-3.02936 -0.67961,-4.93012 0.0017,-0.15076 0.0055,-0.30146 0.01129,-0.45208 0.07555,-1.97184 0.494904,-3.86083 0.846894,-5.19671 0.356057,-1.35132 0.623421,-2.08789 0.671674,-2.07562 0.06436,0.0164 -0.09384,0.78197 -0.368118,2.14609 -0.269797,1.34185 -0.640443,3.22728 -0.711778,5.14282 -0.0055,0.14702 -0.0092,0.29398 -0.0112,0.44093 -0.02799,1.83703 0.290234,3.608 0.535225,4.85726 0.249009,1.26976 0.410571,1.97281 0.347031,1.99003 z"
         id="path6016" />
      <path
         id="path6020"
         d="m 65.57614,199.72444 c -0.04413,0.0119 -0.310793,-0.66176 -0.641412,-1.9226 -0.326539,-1.24527 -0.697863,-3.02936 -0.67961,-4.93012 0.0017,-0.15076 0.0055,-0.30146 0.01129,-0.45208 0.07555,-1.97184 0.494904,-3.86083 0.846894,-5.19671 0.356057,-1.35132 0.623421,-2.08789 0.671674,-2.07562 0.06436,0.0164 -0.09384,0.78197 -0.368118,2.14609 -0.269797,1.34185 -0.640443,3.22728 -0.711778,5.14282 -0.0055,0.14702 -0.0092,0.29398 -0.0112,0.44093 -0.02799,1.83703 0.290234,3.608 0.535225,4.85726 0.249009,1.26976 0.410571,1.97281 0.347031,1.99003 z"
         style="fill:#000000;fill-opacity:1;stroke:#000000;stroke-width:0.26458332px;stroke-linecap:butt;stroke-linejoin:miter;stroke-opacity:1" />
    </g>
    <g
       transform="matrix(-1,0,0,1,195.67051,0)"
       id="g6044">
      <path
         id="path6032"
         d="m 65.57614,116.64475 c -0.04413,0.0119 -0.310793,-0.66176 -0.641412,-1.9226 -0.326539,-1.24527 -0.697863,-3.02936 -0.67961,-4.93012 0.0017,-0.15076 0.0055,-0.30146 0.01129,-0.45208 0.07555,-1.97184 0.494904,-3.86083 0.846894,-5.19671 0.356057,-1.35132 0.623421,-2.08789 0.671674,-2.07562 0.06436,0.0164 -0.09384,0.78197 -0.368118,2.14609 -0.269797,1.34185 -0.640443,3.22728 -0.711778,5.14282 -0.0055,0.14702 -0.0092,0.29398 -0.0112,0.44093 -0.02799,1.83703 0.290234,3.608 0.535225,4.85726 0.249009,1.26976 0.410571,1.97281 0.347031,1.99003 z"
         style="fill:#000000;fill-opacity:1;stroke:#000000;stroke-width:0.26458332px;stroke-linecap:butt;stroke-linejoin:miter;stroke-opacity:1" />
      <path
         style="fill:#000000;fill-opacity:1;stroke:#000000;stroke-width:0.26458332px;stroke-linecap:butt;stroke-linejoin:miter;stroke-opacity:1"
         d="m 65.57614,133.26069 c -0.04413,0.0119 -0.310793,-0.66176 -0.641412,-1.9226 -0.326539,-1.24527 -0.697863,-3.02936 -0.67961,-4.93012 0.0017,-0.15076 0.0055,-0.30146 0.01129,-0.45208 0.07555,-1.97184 0.494904,-3.86083 0.846894,-5.19671 0.356057,-1.35132 0.623421,-2.08789 0.671674,-2.07562 0.06436,0.0164 -0.09384,0.78197 -0.368118,2.14609 -0.269797,1.34185 -0.640443,3.22728 -0.711778,5.14282 -0.0055,0.14702 -0.0092,0.29398 -0.0112,0.44093 -0.02799,1.83703 0.290234,3.608 0.535225,4.85726 0.249009,1.26976 0.410571,1.97281 0.347031,1.99003 z"
         id="path6034" />
      <path
         id="path6036"
         d="m 65.57614,149.87662 c -0.04413,0.0119 -0.310793,-0.66176 -0.641412,-1.9226 -0.326539,-1.24527 -0.697863,-3.02936 -0.67961,-4.93012 0.0017,-0.15076 0.0055,-0.30146 0.01129,-0.45208 0.07555,-1.97184 0.494904,-3.86083 0.846894,-5.19671 0.356057,-1.35132 0.623421,-2.08789 0.671674,-2.07562 0.06436,0.0164 -0.09384,0.78197 -0.368118,2.14609 -0.269797,1.34185 -0.640443,3.22728 -0.711778,5.14282 -0.0055,0.14702 -0.0092,0.29398 -0.0112,0.44093 -0.02799,1.83703 0.290234,3.608 0.535225,4.85726 0.249009,1.26976 0.410571,1.97281 0.347031,1.99003 z"
         style="fill:#000000;fill-opacity:1;stroke:#000000;stroke-width:0.26458332px;stroke-linecap:butt;stroke-linejoin:miter;stroke-opacity:1" />
      <path
         style="fill:#000000;fill-opacity:1;stroke:#000000;stroke-width:0.26458332px;stroke-linecap:butt;stroke-linejoin:miter;stroke-opacity:1"
         d="m 65.57614,166.49257 c -0.04413,0.0119 -0.310793,-0.66176 -0.641412,-1.9226 -0.326539,-1.24527 -0.697863,-3.02936 -0.67961,-4.93012 0.0017,-0.15076 0.0055,-0.30146 0.01129,-0.45208 0.07555,-1.97184 0.494904,-3.86083 0.846894,-5.19671 0.356057,-1.35132 0.623421,-2.08789 0.671674,-2.07562 0.06436,0.0164 -0.09384,0.78197 -0.368118,2.14609 -0.269797,1.34185 -0.640443,3.22728 -0.711778,5.14282 -0.0055,0.14702 -0.0092,0.29398 -0.0112,0.44093 -0.02799,1.83703 0.290234,3.608 0.535225,4.85726 0.249009,1.26976 0.410571,1.97281 0.347031,1.99003 z"
         id="path6038" />
      <path
         id="path6040"
         d="m 65.57614,183.1085 c -0.04413,0.0119 -0.310793,-0.66176 -0.641412,-1.9226 -0.326539,-1.24527 -0.697863,-3.02936 -0.67961,-4.93012 0.0017,-0.15076 0.0055,-0.30146 0.01129,-0.45208 0.07555,-1.97184 0.494904,-3.86083 0.846894,-5.19671 0.356057,-1.35132 0.623421,-2.08789 0.671674,-2.07562 0.06436,0.0164 -0.09384,0.78197 -0.368118,2.14609 -0.269797,1.34185 -0.640443,3.22728 -0.711778,5.14282 -0.0055,0.14702 -0.0092,0.29398 -0.0112,0.44093 -0.02799,1.83703 0.290234,3.608 0.535225,4.85726 0.249009,1.26976 0.410571,1.97281 0.347031,1.99003 z"
         style="fill:#000000;fill-opacity:1;stroke:#000000;stroke-width:0.26458332px;stroke-linecap:butt;stroke-linejoin:miter;stroke-opacity:1" />
      <path
         style="fill:#000000;fill-opacity:1;stroke:#000000;stroke-width:0.26458332px;stroke-linecap:butt;stroke-linejoin:miter;stroke-opacity:1"
         d="m 65.57614,199.72444 c -0.04413,0.0119 -0.310793,-0.66176 -0.641412,-1.9226 -0.326539,-1.24527 -0.697863,-3.02936 -0.67961,-4.93012 0.0017,-0.15076 0.0055,-0.30146 0.01129,-0.45208 0.07555,-1.97184 0.494904,-3.86083 0.846894,-5.19671 0.356057,-1.35132 0.623421,-2.08789 0.671674,-2.07562 0.06436,0.0164 -0.09384,0.78197 -0.368118,2.14609 -0.269797,1.34185 -0.640443,3.22728 -0.711778,5.14282 -0.0055,0.14702 -0.0092,0.29398 -0.0112,0.44093 -0.02799,1.83703 0.290234,3.608 0.535225,4.85726 0.249009,1.26976 0.410571,1.97281 0.347031,1.99003 z"
         id="path6042" />
    </g>
    <text
       id="text4730"
       y="81.231392"
       x="12.630383"
       style="font-style:normal;font-weight:normal;font-size:4.93888855px;line-height:6.61458349px;font-family:sans-serif;letter-spacing:0px;word-spacing:0px;fill:#000000;fill-opacity:1;stroke:none;stroke-width:0.26458332"
       xml:space="preserve"><tspan
         id="tspan4938"
         style="stroke-width:0.26458332"
         y="81.231392"
         x="12.630383">p: RDD[(String,X)] = a.keyBy(_.id)</tspan></text>
  </g>
</svg>
