<?xml version="1.0" encoding="UTF-8" standalone="no"?>
<svg
   xmlns:dc="http://purl.org/dc/elements/1.1/"
   xmlns:cc="http://creativecommons.org/ns#"
   xmlns:rdf="http://www.w3.org/1999/02/22-rdf-syntax-ns#"
   xmlns:svg="http://www.w3.org/2000/svg"
   xmlns="http://www.w3.org/2000/svg"
   id="svg4806"
   version="1.1"
   viewBox="0 0 423.33271 355.56437"
   height="1343.8652"
   width="1599.9977">
  <defs
     id="defs4800">
    <marker
       style="overflow:visible"
       id="Arrow1Mstart"
       refX="0"
       refY="0"
       orient="auto">
      <path
         transform="matrix(0.4,0,0,0.4,4,0)"
         style="fill:#000000;fill-opacity:1;fill-rule:evenodd;stroke:#000000;stroke-width:1.00000003pt;stroke-opacity:1"
         d="M 0,0 5,-5 -12.5,0 5,5 Z"
         id="path5089" />
    </marker>
    <marker
       style="overflow:visible"
       id="Arrow1Mend"
       refX="0"
       refY="0"
       orient="auto">
      <path
         transform="matrix(-0.4,0,0,-0.4,-4,0)"
         style="fill:#000000;fill-opacity:1;fill-rule:evenodd;stroke:#000000;stroke-width:1.00000003pt;stroke-opacity:1"
         d="M 0,0 5,-5 -12.5,0 5,5 Z"
         id="path5092" />
    </marker>
    <marker
       style="overflow:visible"
       id="Arrow1Lend"
       refX="0"
       refY="0"
       orient="auto">
      <path
         transform="matrix(-0.8,0,0,-0.8,-10,0)"
         style="fill:#000000;fill-opacity:1;fill-rule:evenodd;stroke:#000000;stroke-width:1.00000003pt;stroke-opacity:1"
         d="M 0,0 5,-5 -12.5,0 5,5 Z"
         id="path5086" />
    </marker>
  </defs>
  <metadata
     id="metadata4803">
    <rdf:RDF>
      <cc:Work
         rdf:about="">
        <dc:format>image/svg+xml</dc:format>
        <dc:type
           rdf:resource="http://purl.org/dc/dcmitype/StillImage" />
        <dc:title></dc:title>
      </cc:Work>
    </rdf:RDF>
  </metadata>
  <g
     transform="matrix(2.4036651,0,0,2.4036651,-5.98585e-4,0)"
     id="g4960">
    <path
       id="rect5372"
       d="m 6.767529,58.19308 h 29.378044 v 23.59425 c 0,0 -4.473128,-0.13476 -6.652238,0.24817 -2.564212,0.45061 -5.027333,1.35928 -7.38556,2.38142 -1.824928,0.791 -3.250247,2.31683 -5.175176,2.87751 -3.235589,0.94243 -10.16507,0.65773 -10.16507,0.65773 z"
       style="opacity:1;fill:none;fill-opacity:1;stroke:#000000;stroke-width:0.5291667;stroke-miterlimit:4;stroke-dasharray:none;stroke-dashoffset:0;stroke-opacity:1" />
    <text
       id="text5465"
       y="74.746964"
       x="7.3922939"
       style="font-style:normal;font-weight:normal;font-size:3.70416641px;line-height:4.9609375px;font-family:sans-serif;letter-spacing:0px;word-spacing:0px;fill:#000000;fill-opacity:1;stroke:none;stroke-width:1;stroke-miterlimit:4;stroke-dasharray:none"
       xml:space="preserve"><tspan
         style="font-size:6.34999943px;stroke-width:1;stroke-miterlimit:4;stroke-dasharray:none"
         y="74.746964"
         x="7.3922939"
         id="tspan5463">Message</tspan></text>
  </g>
  <g
     transform="matrix(2.4036651,0,0,2.4036651,-5.98585e-4,0)"
     id="g4955">
    <rect
       ry="2.6955452"
       y="94.567352"
       x="9.1816769"
       height="26.955452"
       width="24.549746"
       id="rect5350"
       style="opacity:1;fill:none;fill-opacity:1;stroke:#000000;stroke-width:0.5291667;stroke-miterlimit:4;stroke-dasharray:none;stroke-dashoffset:0;stroke-opacity:1" />
    <text
       id="text5469"
       y="107.4906"
       x="21.535616"
       style="font-style:normal;font-weight:normal;font-size:3.70416641px;line-height:4.9609375px;font-family:sans-serif;letter-spacing:0px;word-spacing:0px;fill:#000000;fill-opacity:1;stroke:none;stroke-width:1;stroke-miterlimit:4;stroke-dasharray:none"
       xml:space="preserve"><tspan
         style="font-size:6.34999943px;text-align:center;text-anchor:middle;stroke-width:1;stroke-miterlimit:4;stroke-dasharray:none"
         y="107.4906"
         x="21.535616"
         id="tspan5467">Vertex</tspan><tspan
         id="tspan5471"
         style="font-size:6.34999943px;text-align:center;text-anchor:middle;stroke-width:1;stroke-miterlimit:4;stroke-dasharray:none"
         y="113.13884"
         x="21.535616">Data</tspan></text>
  </g>
  <g
     transform="matrix(2.4036651,0,0,2.4036651,-5.98585e-4,0)"
     id="g4972">
    <rect
       y="40.591434"
       x="10.868301"
       height="11.026815"
       width="20.174061"
       id="rect5519"
       style="opacity:1;fill:none;fill-opacity:1;stroke:#000000;stroke-width:0.5291667;stroke-linecap:round;stroke-miterlimit:4;stroke-dasharray:none;stroke-dashoffset:0;stroke-opacity:1" />
    <text
       id="text5523"
       y="47.856678"
       x="12.819393"
       style="font-style:normal;font-weight:normal;font-size:3.70416641px;line-height:4.9609375px;font-family:sans-serif;letter-spacing:0px;word-spacing:0px;fill:#000000;fill-opacity:1;stroke:none;stroke-width:1;stroke-miterlimit:4;stroke-dasharray:none"
       xml:space="preserve"><tspan
         style="font-size:6.34999943px;stroke-width:1;stroke-miterlimit:4;stroke-dasharray:none"
         y="47.856678"
         x="12.819393"
         id="tspan5521">Edge</tspan></text>
    <path
       id="path5540"
       d="m 31.042541,46.11551 10.867593,0.0115"
       style="fill:none;stroke:#000000;stroke-width:0.5291667;stroke-linecap:butt;stroke-linejoin:miter;stroke-miterlimit:4;stroke-dasharray:none;stroke-opacity:1" />
    <path
       id="path5525"
       d="m 5.29e-4,46.08268 10.867979,0.0115"
       style="fill:none;stroke:#000000;stroke-width:0.5291667;stroke-linecap:butt;stroke-linejoin:miter;stroke-miterlimit:4;stroke-dasharray:none;stroke-opacity:1" />
  </g>
  <g
     transform="matrix(2.4036651,0,0,2.4036651,-5.98585e-4,0)"
     id="g4980">
    <path
       d="m 28.589247,12.11662 6.321978,10.94999 -6.321977,10.94998 H 15.945295 L 9.623318,23.06661 15.945294,12.11662 Z"
       id="path5590"
       style="opacity:1;fill:none;fill-opacity:1;stroke:#000000;stroke-width:0.5291667;stroke-linecap:round;stroke-miterlimit:4;stroke-dasharray:none;stroke-dashoffset:0;stroke-opacity:1" />
    <text
       id="text5492"
       y="25.336231"
       x="12.139208"
       style="font-style:normal;font-weight:normal;font-size:3.70416641px;line-height:4.9609375px;font-family:sans-serif;letter-spacing:0px;word-spacing:0px;fill:#000000;fill-opacity:1;stroke:none;stroke-width:1;stroke-miterlimit:4;stroke-dasharray:none"
       xml:space="preserve"><tspan
         style="font-size:6.34999943px;stroke-width:1;stroke-miterlimit:4;stroke-dasharray:none"
         y="25.336231"
         x="12.139208"
         id="tspan5490">Vertex</tspan></text>
  </g>
  <text
     xml:space="preserve"
     style="font-style:normal;font-weight:normal;font-size:11.87143421px;line-height:15.8992424px;font-family:sans-serif;letter-spacing:0px;word-spacing:0px;fill:#000000;fill-opacity:1;stroke:none;stroke-width:0.6359697"
     x="130.93883"
     y="109.74258"
     id="text5990"><tspan
       id="tspan5988"
       x="130.93883"
       y="109.74258"
       style="font-size:20.35103035px;stroke-width:0.6359697">Three Functions:</tspan></text>
  <g
     transform="matrix(2.4036651,0,0,2.4036651,-5.98585e-4,0)"
     id="g4717">
    <rect
       style="opacity:1;fill:none;fill-opacity:1;stroke:#000000;stroke-width:0.5;stroke-miterlimit:4;stroke-dasharray:none;stroke-dashoffset:0;stroke-opacity:1"
       id="rect6010"
       width="16.366497"
       height="17.970301"
       x="142.33597"
       y="55.052677"
       ry="1.7970301" />
    <text
       xml:space="preserve"
       style="font-style:normal;font-weight:normal;font-size:2.46944427px;line-height:3.30729151px;font-family:sans-serif;letter-spacing:0px;word-spacing:0px;fill:#000000;fill-opacity:1;stroke:none;stroke-width:0.13229166"
       x="150.57193"
       y="61.785419"
       id="text6016"><tspan
         id="tspan6012"
         x="150.57193"
         y="61.785419"
         style="font-size:4.23333311px;text-align:center;text-anchor:middle;stroke-width:0.13229166">New</tspan><tspan
         id="tspan6084"
         x="150.57193"
         y="65.550903"
         style="font-size:4.23333311px;text-align:center;text-anchor:middle;stroke-width:0.13229166">Vertex</tspan><tspan
         x="150.57193"
         y="69.316391"
         style="font-size:4.23333311px;text-align:center;text-anchor:middle;stroke-width:0.13229166"
         id="tspan6014">Data</tspan></text>
    <text
       id="text6024"
       y="67.57663"
       x="130.54373"
       style="font-style:normal;font-weight:normal;font-size:4.93888855px;line-height:6.61458302px;font-family:sans-serif;letter-spacing:0px;word-spacing:0px;fill:#000000;fill-opacity:1;stroke:none;stroke-width:0.26458332"
       xml:space="preserve"><tspan
         style="font-size:11.28888893px;stroke-width:0.26458332"
         y="67.57663"
         x="130.54373"
         id="tspan6022">⇒</tspan></text>
    <rect
       style="opacity:1;fill:none;fill-opacity:1;stroke:#000000;stroke-width:0.5;stroke-miterlimit:4;stroke-dasharray:none;stroke-dashoffset:0;stroke-opacity:1"
       id="rect5992"
       width="16.366497"
       height="17.970301"
       x="82.741516"
       y="55.052677"
       ry="1.7970301" />
    <text
       xml:space="preserve"
       style="font-style:normal;font-weight:normal;font-size:2.46944427px;line-height:3.30729151px;font-family:sans-serif;letter-spacing:0px;word-spacing:0px;fill:#000000;fill-opacity:1;stroke:none;stroke-width:0.13229166"
       x="90.977478"
       y="61.850544"
       id="text5998"><tspan
         id="tspan6063"
         x="90.977478"
         y="61.850544"
         style="font-size:4.23333311px;text-align:center;text-anchor:middle;stroke-width:0.13229166">Old</tspan><tspan
         id="tspan6071"
         x="90.977478"
         y="65.616035"
         style="font-size:4.23333311px;text-align:center;text-anchor:middle;stroke-width:0.13229166">Vertex</tspan><tspan
         id="tspan6067"
         x="90.977478"
         y="69.381523"
         style="font-size:4.23333311px;text-align:center;text-anchor:middle;stroke-width:0.13229166">Data</tspan></text>
    <path
       style="opacity:1;fill:none;fill-opacity:1;stroke:#000000;stroke-width:0.375;stroke-miterlimit:4;stroke-dasharray:none;stroke-dashoffset:0;stroke-opacity:1"
       d="m 113.67756,56.58797 h 14.68902 v 11.79712 c 0,0 -2.23656,-0.0674 -3.32611,0.12409 -1.28211,0.2253 -2.51367,0.67964 -3.69279,1.19071 -0.91246,0.3955 -1.62512,1.15842 -2.58759,1.43875 -1.61779,0.47122 -5.08253,0.32886 -5.08253,0.32886 z"
       id="path6002" />
    <text
       xml:space="preserve"
       style="font-style:normal;font-weight:normal;font-size:2.46944427px;line-height:3.30729151px;font-family:sans-serif;letter-spacing:0px;word-spacing:0px;fill:#000000;fill-opacity:1;stroke:none;stroke-width:0.5;stroke-miterlimit:4;stroke-dasharray:none"
       x="115.03277"
       y="65.550919"
       id="text6006"><tspan
         id="tspan6004"
         x="115.03277"
         y="65.550919"
         style="font-size:4.23333311px;stroke-width:0.5;stroke-miterlimit:4;stroke-dasharray:none">Mess.</tspan></text>
    <text
       id="text6028"
       y="67.57663"
       x="100.79645"
       style="font-style:normal;font-weight:normal;font-size:4.93888855px;line-height:6.61458302px;font-family:sans-serif;letter-spacing:0px;word-spacing:0px;fill:#000000;fill-opacity:1;stroke:none;stroke-width:0.26458332"
       xml:space="preserve"><tspan
         style="font-size:11.28888893px;stroke-width:0.26458332"
         y="67.57663"
         x="100.79645"
         id="tspan6026">+</tspan></text>
  </g>
  <text
     xml:space="preserve"
     style="font-style:normal;font-weight:normal;font-size:11.87143421px;line-height:15.8992424px;font-family:sans-serif;letter-spacing:0px;word-spacing:0px;fill:#000000;fill-opacity:1;stroke:none;stroke-width:0.6359697"
     x="136.15947"
     y="125.53725"
     id="text6109"><tspan
       id="tspan6107"
       x="136.15947"
       y="125.53725"
       style="stroke-width:0.6359697">vertexProgram</tspan></text>
  <text
     xml:space="preserve"
     style="font-style:normal;font-weight:normal;font-size:11.87143421px;line-height:15.8992424px;font-family:sans-serif;letter-spacing:0px;word-spacing:0px;fill:#000000;fill-opacity:1;stroke:none;stroke-width:0.6359697"
     x="135.86964"
     y="197.01974"
     id="text6113"><tspan
       id="tspan6111"
       x="135.86964"
       y="197.01974"
       style="stroke-width:0.6359697">sendMessage</tspan></text>
  <g
     transform="matrix(2.4036651,0,0,2.4036651,-5.98585e-4,0)"
     id="g4932">
    <text
       id="text6622"
       y="143.60588"
       x="130.48427"
       style="font-style:normal;font-weight:normal;font-size:4.93888855px;line-height:6.61458302px;font-family:sans-serif;letter-spacing:0px;word-spacing:0px;fill:#000000;fill-opacity:1;stroke:none;stroke-width:0.26458332"
       xml:space="preserve"><tspan
         style="font-size:11.28888893px;stroke-width:0.26458332"
         y="143.60588"
         x="130.48427"
         id="tspan6620">⇒</tspan></text>
    <path
       style="opacity:1;fill:none;fill-opacity:1;stroke:#000000;stroke-width:0.5;stroke-miterlimit:4;stroke-dasharray:none;stroke-dashoffset:0;stroke-opacity:1"
       d="m 86.218352,132.7762 h 14.689028 v 11.79712 c 0,0 -2.236568,-0.0673 -3.326118,0.12409 -1.28211,0.22531 -2.51367,0.67963 -3.69278,1.19071 -0.91246,0.39549 -1.62512,1.15841 -2.58759,1.43875 -1.61779,0.47121 -5.08254,0.32886 -5.08254,0.32886 z"
       id="path6538" />
    <text
       xml:space="preserve"
       style="font-style:normal;font-weight:normal;font-size:2.46944427px;line-height:3.30729151px;font-family:sans-serif;letter-spacing:0px;word-spacing:0px;fill:#000000;fill-opacity:1;stroke:none;stroke-width:0.5;stroke-miterlimit:4;stroke-dasharray:none"
       x="92.115898"
       y="141.76912"
       id="text6542"><tspan
         id="tspan6540"
         x="92.115898"
         y="141.76912"
         style="font-size:4.23333311px;stroke-width:0.5;stroke-miterlimit:4;stroke-dasharray:none">A</tspan></text>
    <path
       id="path6546"
       d="m 113.6181,132.50982 h 14.68902 v 11.79712 c 0,0 -2.23656,-0.0674 -3.32612,0.12409 -1.28211,0.2253 -2.51367,0.67964 -3.69278,1.19071 -0.91246,0.3955 -1.62512,1.15842 -2.58759,1.43875 -1.61779,0.47122 -5.08253,0.32886 -5.08253,0.32886 z"
       style="opacity:1;fill:none;fill-opacity:1;stroke:#000000;stroke-width:0.5;stroke-miterlimit:4;stroke-dasharray:none;stroke-dashoffset:0;stroke-opacity:1" />
    <text
       id="text6550"
       y="141.50276"
       x="119.45262"
       style="font-style:normal;font-weight:normal;font-size:2.46944427px;line-height:3.30729151px;font-family:sans-serif;letter-spacing:0px;word-spacing:0px;fill:#000000;fill-opacity:1;stroke:none;stroke-width:0.5;stroke-miterlimit:4;stroke-dasharray:none"
       xml:space="preserve"><tspan
         style="font-size:4.23333311px;stroke-width:0.5;stroke-miterlimit:4;stroke-dasharray:none"
         y="141.50276"
         x="119.45262"
         id="tspan6548">B</tspan></text>
    <text
       id="text6626"
       y="143.60588"
       x="102.5333"
       style="font-style:normal;font-weight:normal;font-size:4.93888855px;line-height:6.61458302px;font-family:sans-serif;letter-spacing:0px;word-spacing:0px;fill:#000000;fill-opacity:1;stroke:none;stroke-width:0.26458332"
       xml:space="preserve"><tspan
         style="font-size:11.28888893px;stroke-width:0.26458332"
         y="143.60588"
         x="102.5333"
         id="tspan6624">+</tspan></text>
    <path
       style="opacity:1;fill:none;fill-opacity:1;stroke:#000000;stroke-width:0.5;stroke-miterlimit:4;stroke-dasharray:none;stroke-dashoffset:0;stroke-opacity:1"
       d="m 142.214,132.50982 h 14.68902 v 11.79712 c 0,0 -2.23656,-0.0674 -3.32612,0.12409 -1.2821,0.2253 -2.51367,0.67964 -3.69278,1.19071 -0.91246,0.3955 -1.62512,1.15842 -2.58758,1.43875 -1.61779,0.47122 -5.08254,0.32886 -5.08254,0.32886 z"
       id="path6694" />
    <text
       xml:space="preserve"
       style="font-style:normal;font-weight:normal;font-size:2.46944427px;line-height:3.30729151px;font-family:sans-serif;letter-spacing:0px;word-spacing:0px;fill:#000000;fill-opacity:1;stroke:none;stroke-width:0.5;stroke-miterlimit:4;stroke-dasharray:none"
       x="145.01926"
       y="141.50276"
       id="text6698"><tspan
         id="tspan6696"
         x="145.01926"
         y="141.50276"
         style="font-size:4.23333311px;stroke-width:0.5;stroke-miterlimit:4;stroke-dasharray:none">A+B</tspan></text>
  </g>
  <text
     id="text6740"
     y="311.93701"
     x="135.86964"
     style="font-style:normal;font-weight:normal;font-size:11.87143421px;line-height:15.8992424px;font-family:sans-serif;letter-spacing:0px;word-spacing:0px;fill:#000000;fill-opacity:1;stroke:none;stroke-width:0.6359697"
     xml:space="preserve"><tspan
       style="stroke-width:0.6359697"
       y="311.93701"
       x="135.86964"
       id="tspan6738">mergeMessage</tspan></text>
  <g
     transform="matrix(2.4036651,0,0,2.4036651,-5.98585e-4,0)"
     id="g4892">
    <text
       xml:space="preserve"
       style="font-style:normal;font-weight:normal;font-size:4.93888855px;line-height:6.61458302px;font-family:sans-serif;letter-spacing:0px;word-spacing:0px;fill:#000000;fill-opacity:1;stroke:none;stroke-width:0.26458332"
       x="130.54373"
       y="99.799393"
       id="text6210"><tspan
         id="tspan6208"
         x="130.54373"
         y="99.799393"
         style="font-size:11.28888893px;stroke-width:0.26458332">⇒</tspan></text>
    <path
       id="path5986"
       d="m 145.82981,101.32967 c -0.0441,0.0119 -0.3108,-0.66176 -0.64142,-1.9226 -0.32654,-1.24527 -0.69786,-3.02936 -0.67961,-4.93012 0.002,-0.15076 0.006,-0.30146 0.0113,-0.45208 0.0755,-1.97184 0.49491,-3.86083 0.8469,-5.19671 0.35605,-1.35132 0.62342,-2.08789 0.67167,-2.07562 0.0644,0.0164 -0.0938,0.78197 -0.36812,2.14609 -0.26979,1.34185 -0.64044,3.22728 -0.71177,5.14282 -0.006,0.14702 -0.009,0.29398 -0.0112,0.44093 -0.028,1.83703 0.29023,3.608 0.53522,4.85726 0.24901,1.26976 0.41057,1.97281 0.34703,1.99003 z"
       style="fill:#000000;fill-opacity:1;stroke:#000000;stroke-width:0.26458332px;stroke-linecap:butt;stroke-linejoin:miter;stroke-opacity:1" />
    <path
       style="fill:#000000;fill-opacity:1;stroke:#000000;stroke-width:0.26458332px;stroke-linecap:butt;stroke-linejoin:miter;stroke-opacity:1"
       d="m 171.17512,101.32967 c 0.0441,0.0119 0.31079,-0.66176 0.64141,-1.9226 0.32654,-1.24527 0.69787,-3.02936 0.67961,-4.93012 -0.002,-0.15076 -0.005,-0.30146 -0.0113,-0.45208 -0.0755,-1.97184 -0.4949,-3.86083 -0.84689,-5.19671 -0.35606,-1.35132 -0.62342,-2.08789 -0.67167,-2.07562 -0.0644,0.0164 0.0938,0.78197 0.36811,2.14609 0.2698,1.34185 0.64045,3.22728 0.71178,5.14282 0.006,0.14702 0.009,0.29398 0.0112,0.44093 0.028,1.83703 -0.29023,3.608 -0.53522,4.85726 -0.24901,1.26976 -0.41057,1.97281 -0.34703,1.99003 z"
       id="path6032" />
    <text
       id="text6488"
       y="96.434006"
       x="146.4359"
       style="font-style:normal;font-weight:normal;font-size:4.93888855px;line-height:6.61458302px;font-family:sans-serif;letter-spacing:0px;word-spacing:0px;fill:#000000;fill-opacity:1;stroke:none;stroke-width:0.26458332"
       xml:space="preserve"><tspan
         style="stroke-width:0.26458332"
         y="96.434006"
         x="146.4359"
         id="tspan6486">#,</tspan></text>
    <path
       style="opacity:1;fill:none;fill-opacity:1;stroke:#000000;stroke-width:0.5;stroke-miterlimit:4;stroke-dasharray:none;stroke-dashoffset:0;stroke-opacity:1"
       d="m 154.3026,88.48306 h 14.68902 v 11.79712 c 0,0 -2.23656,-0.0674 -3.32611,0.12409 -1.28211,0.2253 -2.51367,0.67963 -3.69279,1.19071 -0.91246,0.39549 -1.62512,1.15841 -2.58758,1.43875 -1.61779,0.47121 -5.08254,0.32886 -5.08254,0.32886 z"
       id="path6490" />
    <text
       xml:space="preserve"
       style="font-style:normal;font-weight:normal;font-size:2.46944427px;line-height:3.30729151px;font-family:sans-serif;letter-spacing:0px;word-spacing:0px;fill:#000000;fill-opacity:1;stroke:none;stroke-width:0.5;stroke-miterlimit:4;stroke-dasharray:none"
       x="155.65781"
       y="97.446014"
       id="text6494"><tspan
         id="tspan6492"
         x="155.65781"
         y="97.446014"
         style="font-size:4.23333311px;stroke-width:0.5;stroke-miterlimit:4;stroke-dasharray:none">Mess.</tspan></text>
    <text
       id="text6531"
       y="126.33929"
       x="160.10118"
       style="font-style:normal;font-weight:normal;font-size:4.93888855px;line-height:6.61458302px;font-family:sans-serif;letter-spacing:0px;word-spacing:0px;fill:#000000;fill-opacity:1;stroke:none;stroke-width:0.26458332"
       xml:space="preserve"><tspan
         style="stroke-width:0.26458332"
         y="126.33929"
         x="160.10118"
         id="tspan6529">⁝</tspan></text>
    <path
       style="fill:#000000;fill-opacity:1;stroke:#000000;stroke-width:0.26458332px;stroke-linecap:butt;stroke-linejoin:miter;stroke-opacity:1"
       d="m 145.82981,119.32134 c -0.0441,0.0119 -0.3108,-0.66176 -0.64142,-1.9226 -0.32654,-1.24527 -0.69786,-3.02936 -0.67961,-4.93012 0.002,-0.15076 0.006,-0.30146 0.0113,-0.45208 0.0755,-1.97184 0.49491,-3.86083 0.8469,-5.19671 0.35605,-1.35132 0.62342,-2.08789 0.67167,-2.07562 0.0644,0.0164 -0.0938,0.78197 -0.36812,2.14609 -0.26979,1.34185 -0.64044,3.22728 -0.71177,5.14282 -0.006,0.14702 -0.009,0.29398 -0.0112,0.44093 -0.028,1.83703 0.29023,3.608 0.53522,4.85726 0.24901,1.26976 0.41057,1.97281 0.34703,1.99003 z"
       id="path6926" />
    <path
       id="path6928"
       d="m 171.17512,119.32134 c 0.0441,0.0119 0.31079,-0.66176 0.64141,-1.9226 0.32654,-1.24527 0.69787,-3.02936 0.67961,-4.93012 -0.002,-0.15076 -0.005,-0.30146 -0.0113,-0.45208 -0.0755,-1.97184 -0.4949,-3.86083 -0.84689,-5.19671 -0.35606,-1.35132 -0.62342,-2.08789 -0.67167,-2.07562 -0.0644,0.0164 0.0938,0.78197 0.36811,2.14609 0.2698,1.34185 0.64045,3.22728 0.71178,5.14282 0.006,0.14702 0.009,0.29398 0.0112,0.44093 0.028,1.83703 -0.29023,3.608 -0.53522,4.85726 -0.24901,1.26976 -0.41057,1.97281 -0.34703,1.99003 z"
       style="fill:#000000;fill-opacity:1;stroke:#000000;stroke-width:0.26458332px;stroke-linecap:butt;stroke-linejoin:miter;stroke-opacity:1" />
    <text
       xml:space="preserve"
       style="font-style:normal;font-weight:normal;font-size:4.93888855px;line-height:6.61458302px;font-family:sans-serif;letter-spacing:0px;word-spacing:0px;fill:#000000;fill-opacity:1;stroke:none;stroke-width:0.26458332"
       x="146.4359"
       y="114.42567"
       id="text6932"><tspan
         id="tspan6930"
         x="146.4359"
         y="114.42567"
         style="stroke-width:0.26458332">#,</tspan></text>
    <path
       id="path6934"
       d="m 154.3026,106.47473 h 14.68902 v 11.79712 c 0,0 -2.23656,-0.0674 -3.32611,0.12409 -1.28211,0.2253 -2.51367,0.67963 -3.69279,1.19071 -0.91246,0.39549 -1.62512,1.15841 -2.58758,1.43875 -1.61779,0.47121 -5.08254,0.32886 -5.08254,0.32886 z"
       style="opacity:1;fill:none;fill-opacity:1;stroke:#000000;stroke-width:0.5;stroke-miterlimit:4;stroke-dasharray:none;stroke-dashoffset:0;stroke-opacity:1" />
    <text
       id="text6938"
       y="115.43768"
       x="155.65781"
       style="font-style:normal;font-weight:normal;font-size:2.46944427px;line-height:3.30729151px;font-family:sans-serif;letter-spacing:0px;word-spacing:0px;fill:#000000;fill-opacity:1;stroke:none;stroke-width:0.5;stroke-miterlimit:4;stroke-dasharray:none"
       xml:space="preserve"><tspan
         style="font-size:4.23333311px;stroke-width:0.5;stroke-miterlimit:4;stroke-dasharray:none"
         y="115.43768"
         x="155.65781"
         id="tspan6936">Mess.</tspan></text>
    <path
       id="rect6947"
       d="M 142.09046,125.93307 V 84.75979 h 33.78963 v 41.17328"
       style="opacity:1;fill:none;fill-opacity:1;stroke:#000000;stroke-width:0.47962919;stroke-linecap:round;stroke-miterlimit:4;stroke-dasharray:none;stroke-dashoffset:0;stroke-opacity:1" />
    <rect
       style="opacity:1;fill:none;fill-opacity:1;stroke:#000000;stroke-width:0.5;stroke-linecap:round;stroke-miterlimit:4;stroke-dasharray:none;stroke-dashoffset:0;stroke-opacity:1"
       id="rect6115"
       width="13.449373"
       height="7.3512101"
       x="95.365158"
       y="84.759796" />
    <text
       xml:space="preserve"
       style="font-style:normal;font-weight:normal;font-size:2.46944427px;line-height:3.30729151px;font-family:sans-serif;letter-spacing:0px;word-spacing:0px;fill:#000000;fill-opacity:1;stroke:none;stroke-width:0.13229166"
       x="96.665886"
       y="89.603287"
       id="text6119"><tspan
         id="tspan6117"
         x="96.665886"
         y="89.603287"
         style="font-size:4.23333311px;stroke-width:0.13229166">Edge</tspan></text>
    <path
       style="fill:none;stroke:#000000;stroke-width:0.5;stroke-linecap:butt;stroke-linejoin:miter;stroke-miterlimit:4;stroke-dasharray:none;stroke-opacity:1"
       d="m 108.81465,88.442508 7.24506,0.0077"
       id="path6121" />
    <path
       style="fill:none;stroke:#000000;stroke-width:0.5;stroke-linecap:butt;stroke-linejoin:miter;stroke-miterlimit:4;stroke-dasharray:none;stroke-opacity:1"
       d="m 88.119978,88.42062 7.245319,0.0077"
       id="path6123" />
    <path
       style="opacity:1;fill:none;fill-opacity:1;stroke:#000000;stroke-width:0.5;stroke-linecap:round;stroke-miterlimit:4;stroke-dasharray:none;stroke-dashoffset:0;stroke-opacity:1"
       id="path6139"
       d="m 122.38169,84.80017 2.10733,3.65 -2.10733,3.64999 h -4.21465 l -2.10733,-3.64999 2.10733,-3.64999 z" />
    <text
       xml:space="preserve"
       style="font-style:normal;font-weight:normal;font-size:2.46944427px;line-height:3.30729151px;font-family:sans-serif;letter-spacing:0px;word-spacing:0px;fill:#000000;fill-opacity:1;stroke:none;stroke-width:0.13229166"
       x="118.92046"
       y="89.635628"
       id="text6137"><tspan
         id="tspan6135"
         x="118.92046"
         y="89.635628"
         style="font-size:4.23333311px;stroke-width:0.13229166">n</tspan></text>
    <rect
       style="opacity:1;fill:none;fill-opacity:1;stroke:#000000;stroke-width:0.5;stroke-miterlimit:4;stroke-dasharray:none;stroke-dashoffset:0;stroke-opacity:1"
       id="rect6143"
       width="16.366497"
       height="17.970301"
       x="75.614868"
       y="93.558777"
       ry="1.7970301" />
    <text
       xml:space="preserve"
       style="font-style:normal;font-weight:normal;font-size:2.46944427px;line-height:3.30729151px;font-family:sans-serif;letter-spacing:0px;word-spacing:0px;fill:#000000;fill-opacity:1;stroke:none;stroke-width:0.13229166"
       x="83.850822"
       y="102.17427"
       id="text6149"><tspan
         id="tspan6145"
         x="83.850822"
         y="102.17427"
         style="font-size:4.23333311px;text-align:center;text-anchor:middle;stroke-width:0.13229166">Vertex</tspan><tspan
         x="83.850822"
         y="105.93976"
         style="font-size:4.23333311px;text-align:center;text-anchor:middle;stroke-width:0.13229166"
         id="tspan6147">Data</tspan></text>
    <rect
       ry="1.7970301"
       y="93.558777"
       x="111.93758"
       height="17.970301"
       width="16.366497"
       id="rect6153"
       style="opacity:1;fill:none;fill-opacity:1;stroke:#000000;stroke-width:0.5;stroke-miterlimit:4;stroke-dasharray:none;stroke-dashoffset:0;stroke-opacity:1" />
    <text
       id="text6159"
       y="102.17427"
       x="120.17354"
       style="font-style:normal;font-weight:normal;font-size:2.46944427px;line-height:3.30729151px;font-family:sans-serif;letter-spacing:0px;word-spacing:0px;fill:#000000;fill-opacity:1;stroke:none;stroke-width:0.13229166"
       xml:space="preserve"><tspan
         style="font-size:4.23333311px;text-align:center;text-anchor:middle;stroke-width:0.13229166"
         y="102.17427"
         x="120.17354"
         id="tspan6155">Vertex</tspan><tspan
         id="tspan6157"
         style="font-size:4.23333311px;text-align:center;text-anchor:middle;stroke-width:0.13229166"
         y="105.93976"
         x="120.17354">Data</tspan></text>
    <path
       style="opacity:1;fill:none;fill-opacity:1;stroke:#000000;stroke-width:0.5;stroke-linecap:round;stroke-miterlimit:4;stroke-dasharray:none;stroke-dashoffset:0;stroke-opacity:1"
       id="path6131"
       d="m 86.012653,84.77063 2.107326,3.64999 -2.107325,3.65 h -4.214651 l -2.107326,-3.65 2.107325,-3.64999 z" />
    <text
       xml:space="preserve"
       style="font-style:normal;font-weight:normal;font-size:2.46944427px;line-height:3.30729151px;font-family:sans-serif;letter-spacing:0px;word-spacing:0px;fill:#000000;fill-opacity:1;stroke:none;stroke-width:0.13229166;stroke-opacity:1"
       x="81.831032"
       y="89.606079"
       id="text6129"><tspan
         id="tspan6127"
         x="81.831032"
         y="89.606079"
         style="font-size:4.23333311px;fill:#000000;fill-opacity:1;stroke:none;stroke-width:0.13229166;stroke-opacity:1">m</tspan></text>
  </g>
  <g
     transform="matrix(2.4036651,0,0,2.4036651,-5.98585e-4,0)"
     id="g4665">
    <g
       style="fill:none;fill-opacity:1"
       transform="matrix(0.8660254,0.5,0.5,-0.8660254,-133.76305,140.55716)"
       id="g5658">
      <rect
         y="217.61656"
         x="121.31406"
         height="7.3512101"
         width="13.449373"
         id="rect5638"
         style="opacity:1;fill:none;fill-opacity:1;stroke:#000000;stroke-width:0.5;stroke-linecap:round;stroke-miterlimit:4;stroke-dasharray:none;stroke-dashoffset:0;stroke-opacity:1" />
      <path
         id="path5644"
         d="m 134.76355,221.29927 7.24506,0.008"
         style="fill:none;fill-opacity:1;stroke:#000000;stroke-width:0.5;stroke-linecap:butt;stroke-linejoin:miter;stroke-miterlimit:4;stroke-dasharray:none;stroke-opacity:1" />
      <path
         id="path5646"
         d="m 114.06888,221.27738 7.24532,0.008"
         style="fill:none;fill-opacity:1;stroke:#000000;stroke-width:0.5;stroke-linecap:butt;stroke-linejoin:miter;stroke-miterlimit:4;stroke-dasharray:none;stroke-opacity:1" />
    </g>
    <g
       style="fill:none;fill-opacity:1"
       id="g5682"
       transform="matrix(0.8660254,-0.5,-0.5,-0.8660254,118.76213,268.78788)">
      <rect
         style="opacity:1;fill:none;fill-opacity:1;stroke:#000000;stroke-width:0.5;stroke-linecap:round;stroke-miterlimit:4;stroke-dasharray:none;stroke-dashoffset:0;stroke-opacity:1"
         id="rect5676"
         width="13.449373"
         height="7.3512101"
         x="121.31406"
         y="217.61656" />
      <path
         style="fill:none;fill-opacity:1;stroke:#000000;stroke-width:0.5;stroke-linecap:butt;stroke-linejoin:miter;stroke-miterlimit:4;stroke-dasharray:none;stroke-opacity:1"
         d="m 134.76355,221.29927 7.24506,0.008"
         id="path5678" />
      <path
         style="fill:none;fill-opacity:1;stroke:#000000;stroke-width:0.5;stroke-linecap:butt;stroke-linejoin:miter;stroke-miterlimit:4;stroke-dasharray:none;stroke-opacity:1"
         d="m 114.06888,221.27738 7.24532,0.008"
         id="path5680" />
    </g>
    <path
       d="m 136.82695,0.25 2.23523,3.87154 -2.23523,3.87154 h -4.47048 L 130.12124,4.12154 132.35647,0.25 Z"
       id="path5688"
       style="opacity:1;fill:none;fill-opacity:1;stroke:#000000;stroke-width:0.5;stroke-linecap:round;stroke-miterlimit:4;stroke-dasharray:none;stroke-dashoffset:0;stroke-opacity:1" />
    <g
       style="fill:none;fill-opacity:1"
       transform="translate(-17.114626,-275.5407)"
       id="g5820">
      <rect
         style="opacity:1;fill:none;fill-opacity:1;stroke:#000000;stroke-width:0.5;stroke-linecap:round;stroke-miterlimit:4;stroke-dasharray:none;stroke-dashoffset:0;stroke-opacity:1"
         id="rect5700"
         width="13.449373"
         height="7.3512101"
         x="113.80604"
         y="276.18259" />
      <path
         style="fill:none;fill-opacity:1;stroke:#000000;stroke-width:0.5;stroke-linecap:butt;stroke-linejoin:miter;stroke-miterlimit:4;stroke-dasharray:none;stroke-opacity:1"
         d="m 127.25553,279.86528 20.08853,0.0222"
         id="path5702" />
      <path
         style="fill:none;fill-opacity:1;stroke:#000000;stroke-width:0.5;stroke-linecap:butt;stroke-linejoin:miter;stroke-miterlimit:4;stroke-dasharray:none;stroke-opacity:1"
         d="m 93.772163,279.82927 20.034017,0.0221"
         id="path5704" />
    </g>
    <path
       d="m 105.59097,25.85567 2.23524,-3.87155 -2.23524,-3.87154 h -4.47047 l -2.235239,3.87154 2.235239,3.87155 z"
       id="path5664"
       style="opacity:1;fill:none;fill-opacity:1;stroke:#000000;stroke-width:0.5;stroke-linecap:round;stroke-miterlimit:4;stroke-dasharray:none;stroke-dashoffset:0;stroke-opacity:1" />
    <g
       style="fill:none;fill-opacity:1"
       id="g5936"
       transform="matrix(0.8660254,0.5,0.5,-0.8660254,-71.194228,140.6407)">
      <rect
         style="opacity:1;fill:none;fill-opacity:1;stroke:#000000;stroke-width:0.5;stroke-linecap:round;stroke-miterlimit:4;stroke-dasharray:none;stroke-dashoffset:0;stroke-opacity:1"
         id="rect5930"
         width="13.449373"
         height="7.3512101"
         x="121.31406"
         y="217.61656" />
      <path
         style="fill:none;fill-opacity:1;stroke:#000000;stroke-width:0.5;stroke-linecap:butt;stroke-linejoin:miter;stroke-miterlimit:4;stroke-dasharray:none;stroke-opacity:1"
         d="m 134.76355,221.29927 7.24506,0.008"
         id="path5932" />
      <path
         style="fill:none;fill-opacity:1;stroke:#000000;stroke-width:0.5;stroke-linecap:butt;stroke-linejoin:miter;stroke-miterlimit:4;stroke-dasharray:none;stroke-opacity:1"
         d="m 114.06888,221.27738 7.24532,0.008"
         id="path5934" />
    </g>
    <path
       style="opacity:1;fill:none;fill-opacity:1;stroke:#000000;stroke-width:0.5;stroke-linecap:round;stroke-miterlimit:4;stroke-dasharray:none;stroke-dashoffset:0;stroke-opacity:1"
       id="path5938"
       d="m 168.1598,25.93919 2.23524,-3.87154 -2.23524,-3.87154 -4.47047,-10e-6 -2.23524,3.87155 2.23524,3.87154 z" />
    <path
       style="opacity:1;fill:none;fill-opacity:1;stroke:#000000;stroke-width:0.5;stroke-linecap:round;stroke-miterlimit:4;stroke-dasharray:none;stroke-dashoffset:0;stroke-opacity:1"
       id="path5616"
       d="m 74.475729,0.25 2.23524,3.87154 -2.23524,3.87155 H 70.005261 L 67.770024,4.12154 70.00526,0.25 Z" />
    <rect
       style="opacity:1;fill:none;fill-opacity:1;stroke:#000000;stroke-width:0.5;stroke-miterlimit:4;stroke-dasharray:none;stroke-dashoffset:0;stroke-opacity:1"
       id="rect5050"
       width="6.1374364"
       height="6.738863"
       x="100.27267"
       y="27.087988"
       ry="0.6738863" />
    <rect
       ry="0.6738863"
       y="9.1831427"
       x="131.66583"
       height="6.738863"
       width="6.1374364"
       id="rect5064"
       style="opacity:1;fill:none;fill-opacity:1;stroke:#000000;stroke-width:0.5;stroke-miterlimit:4;stroke-dasharray:none;stroke-dashoffset:0;stroke-opacity:1" />
    <rect
       style="opacity:1;fill:none;fill-opacity:1;stroke:#000000;stroke-width:0.5;stroke-miterlimit:4;stroke-dasharray:none;stroke-dashoffset:0;stroke-opacity:1"
       id="rect5066"
       width="6.1374364"
       height="6.738863"
       x="163.17836"
       y="27.087988"
       ry="0.6738863" />
    <rect
       ry="0.6738863"
       y="9.1831427"
       x="69.11824"
       height="6.738863"
       width="6.1374364"
       id="rect5068"
       style="opacity:1;fill:none;fill-opacity:1;stroke:#000000;stroke-width:0.5;stroke-miterlimit:4;stroke-dasharray:none;stroke-dashoffset:0;stroke-opacity:1" />
    <path
       style="opacity:1;fill:none;fill-opacity:1;stroke:#000000;stroke-width:0.5;stroke-miterlimit:4;stroke-dasharray:none;stroke-dashoffset:0;stroke-opacity:1"
       d="m 79.854427,18.518116 h 7.344511 v 5.898562 c 0,0 -1.118282,-0.03369 -1.66306,0.06204 -0.641053,0.112652 -1.256833,0.33982 -1.84639,0.595355 -0.456232,0.19775 -0.812562,0.579207 -1.293794,0.719377 -0.808897,0.235608 -2.541267,0.164433 -2.541267,0.164433 z"
       id="path5070" />
    <path
       style="fill:none;stroke:#000000;stroke-width:0.5;stroke-linecap:butt;stroke-linejoin:miter;stroke-miterlimit:4;stroke-dasharray:1.00000002, 0.50000002;stroke-dashoffset:0;stroke-opacity:1;marker-end:url(#Arrow1Mend)"
       d="m 87.198975,23.423207 c 5.285679,2.174452 10.322753,1.046749 10.322753,1.046749"
       id="path5352" />
    <path
       style="fill:none;stroke:#000000;stroke-width:0.5;stroke-linecap:butt;stroke-linejoin:miter;stroke-miterlimit:4;stroke-dasharray:1.00000002, 0.50000002;stroke-dashoffset:0;stroke-opacity:1;marker-start:url(#Arrow1Mstart)"
       d="m 76.632739,10.146079 c 0.985083,3.603963 2.419929,6.337421 4.083563,8.404796"
       id="path5081" />
  </g>
</svg>
