<?xml version="1.0" encoding="UTF-8" standalone="no"?>
<svg
   xmlns:dc="http://purl.org/dc/elements/1.1/"
   xmlns:cc="http://creativecommons.org/ns#"
   xmlns:rdf="http://www.w3.org/1999/02/22-rdf-syntax-ns#"
   xmlns:svg="http://www.w3.org/2000/svg"
   xmlns="http://www.w3.org/2000/svg"
   id="svg4782"
   version="1.1"
   viewBox="0 0 236.39778 211.66664"
   height="799.99994"
   width="893.47186">
  <defs
     id="defs4776" />
  <metadata
     id="metadata4779">
    <rdf:RDF>
      <cc:Work
         rdf:about="">
        <dc:format>image/svg+xml</dc:format>
        <dc:type
           rdf:resource="http://purl.org/dc/dcmitype/StillImage" />
        <dc:title></dc:title>
      </cc:Work>
    </rdf:RDF>
  </metadata>
  <path
     style="opacity:1;fill:none;fill-opacity:1;stroke:#000000;stroke-width:1.29439676;stroke-miterlimit:4;stroke-dasharray:none;stroke-dashoffset:0;stroke-opacity:1"
     d="m 235.69102,134.70808 v 0 0 c 0,0.11719 -0.0771,0.21131 -0.17268,0.21131 H 0.86116788 c -0.09559,0 -0.172692,-0.0948 -0.172692,-0.21131 v 0 0 0 -23.78139 c 0,0 9.00076492,0.002 10.65835612,0.002 2.442856,0 3.266242,-2.00757 3.266242,-4.9517 0,-3.07069 -0.823386,-5.0481 -3.290258,-5.0481 -1.6483621,0 -10.63430612,-0.0289 -10.63430612,-0.0289 V 72.829668 c 0,0 9.00073092,0.0019 10.65832212,0.0019 2.442856,0 3.266242,-2.007597 3.266242,-4.95172 0,-3.070688 -0.823386,-5.048063 -3.290258,-5.048063 -1.6483621,0 -10.63430612,-0.02893 -10.63430612,-0.02893 l -3.4e-5,-28.070923 c 0,0 9.00076492,0.003 10.65835612,0.003 2.442856,0 3.266242,-2.007585 3.266242,-4.95172 0,-3.070687 -0.823386,-5.048093 -3.290258,-5.048093 -1.6483621,0 -10.63434012,-0.02893 -10.63434012,-0.02893 V 0.85848538 c 0,-0.117223 0.07706,-0.211287 0.172692,-0.211287 v 0 H 235.51834 c 0.0956,0 0.17269,0.09481 0.17269,0.211287 V 24.706927 c 0,0 -8.98591,0.02893 -10.63427,0.02893 -2.46687,0 -3.29026,1.977417 -3.29026,5.048104 0,2.944135 0.82339,4.95172 3.26624,4.95172 1.65756,0 10.65829,-0.003 10.65829,-0.003 v 28.070913 c 0,0 -8.98591,0.02893 -10.63427,0.02893 -2.46687,0 -3.29026,1.977386 -3.29026,5.048073 0,2.944124 0.82339,4.951718 3.26624,4.951718 1.65759,0 10.65829,-0.0019 10.65829,-0.0019 v 28.070855 c 0,0 -8.98591,0.0289 -10.63427,0.0289 -2.46687,0 -3.29026,1.97741 -3.29026,5.0481 0,2.94413 0.82339,4.95171 3.26624,4.95171 1.65759,0 10.65829,-0.002 10.65829,-0.002 z"
     id="path4624" />
  <path
     style="opacity:1;fill:none;fill-opacity:1;stroke:#000000;stroke-width:1.37701976;stroke-miterlimit:4;stroke-dasharray:none;stroke-dashoffset:0;stroke-opacity:1"
     d="m 0.68850988,210.74639 c 0,0.12862 0.0774,0.23175 0.172374,0.23175 H 235.53719 c 0.0956,0 0.17206,-0.10309 0.17206,-0.23175 v 0 l -0.0186,-28.41967 c 0,0 -8.76219,0.002 -10.37252,0.002 -2.37325,0 -3.17319,-2.1439 -3.17319,-5.288 0,-3.27914 0.79994,-5.39078 3.19653,-5.39078 1.60138,0 10.34918,-0.0286 10.34918,-0.0286 l 0.0186,-28.41751 c 3.2e-4,-0.12903 -0.0772,-0.23216 -0.17206,-0.23216 H 0.86107688 v 0 c -0.09593,0 -0.172385,0.10355 -0.172385,0.23216 l 3.4e-5,28.42403 c 0,0 8.71210722,0.0327 10.31018712,0.0327 2.391699,0 3.189966,2.10735 3.189966,5.37986 0,3.13765 -0.798267,5.27714 -3.166666,5.27714 -1.6070817,0 -10.33355512,0.002 -10.33355512,0.002 z"
     id="path4569" />
  <path
     id="path4728"
     d="m 58.94809,39.770698 c -0.379088,-0.287584 -0.986937,-0.673214 -1.281056,-0.666675 -0.294847,0.0065 -0.465707,-0.02999 -0.70589,0.326804 -0.201463,0.299258 -0.143794,0.575167 -0.01308,0.73203 0.130721,0.156863 2.091523,1.908515 2.091523,1.908515 0,0 -1.908515,-1.320275 -2.366036,-1.450996 -0.45752,-0.130719 -0.795179,-0.118065 -0.928113,0 -0.185388,0.164657 -0.199737,0.463313 -0.169935,0.575173 0.04883,0.183298 0.156864,0.326799 0.287584,0.45752 0.130721,0.130719 2.104595,1.673216 2.104595,1.673216 0,0 -1.921231,-1.114878 -2.183028,-1.228769 -0.265268,-0.115409 -0.640526,-0.24837 -0.797391,-0.07844 -0.156863,0.169934 -0.160174,0.294985 -0.09151,0.562096 0.122569,0.476768 1.110847,1.29748 1.776364,1.768889 0.665519,0.471409 3.428647,1.941042 3.428647,1.941042 l -0.0023,3.257466 H 21.300685 v -12.862863 0 h 38.797743 v 3.832482 c -0.319151,-0.201863 -0.862503,-0.529133 -1.150338,-0.74749 z"
     style="fill:#ffffff;fill-opacity:1;stroke:#000000;stroke-width:0.26458335;stroke-linecap:butt;stroke-linejoin:miter;stroke-miterlimit:4;stroke-dasharray:none;stroke-opacity:1" />
  <path
     style="fill:none;stroke:#000000;stroke-width:0.46572754;stroke-linecap:butt;stroke-linejoin:miter;stroke-miterlimit:4;stroke-dasharray:none;stroke-opacity:1"
     d="M 56.278721,15.727716 C 53.156479,14.171776 46.746025,10.004467 46.548941,9.838502 46.351856,9.6725353 46.310364,9.5454666 46.33111,9.4313655 c 0.02075,-0.1140999 0.0726,-0.2022723 0.235983,-0.274883 0.42529,-0.3189655 14.016379,0.9594935 17.107504,2.3702045 0.912815,-0.746845 2.79031,-1.7530165 3.308954,-2.1783048 0.518645,-0.4252893 3.163734,-3.1533618 3.277836,-3.1844804 0.160781,-0.077794 0.220426,-0.1296615 0.365647,-0.1296615 0.145218,0 0.243762,-0.033712 0.420101,0.038898 0.161141,0.057414 0.327756,0.099553 0.383796,0.186712 0.05186,0.082983 0.0752,0.1530008 0.02335,0.2774756 -0.05186,0.1244742 -0.07261,0.2074579 -0.217831,0.39417 -0.145221,0.186712 -1.099528,1.5870536 -1.224002,1.7633929 0.443444,-0.1841188 1.27587,-0.7105432 1.421089,-0.8142725 0.145221,-0.1037279 0.752037,-0.7209164 0.842799,-0.7572215 0.09076,-0.036302 0.103735,-0.033712 0.168559,-0.033712 0.06483,0 0.09595,-0.0026 0.147815,0.020746 0.05186,0.023336 0.152999,0.077796 0.189305,0.1166941 0.0363,0.038898 0.406074,0.2738026 0.611524,0.6764769 0.139435,0.263313 0.268392,0.6002792 0.276172,0.6547371 0.0078,0.054459 0.06141,0.1961954 0.06141,0.281772 0,0.085577 0.02075,0.2256109 -0.02075,0.32156 -0.04148,0.095949 -2.014935,3.0366651 -2.816243,4.6340921 -0.365642,0.757223 -0.370829,1.286239 -0.425287,1.530002 -0.05447,0.243762 -0.217832,1.221411 -0.230798,1.312173 1.589649,1.444425 4.213993,4.037651 4.877858,4.825993 0.663867,0.788339 1.836004,2.116066 2.250919,2.769562 0.389038,0.612731 0.613153,0.99695 0.70232,1.231335 0.03417,0.128035 0.180114,0.231981 0.09713,0.366831 -0.08298,0.134839 -0.322859,0.04464 -0.5505,-6.2e-4 -0.279904,-0.05564 -0.834994,-0.2207 -1.400341,-0.394174 -0.319274,-0.09797 -1.234313,-0.486008 -1.888784,-0.796896 -1.486892,-0.706324 -3.053361,-1.575632 -3.370276,-1.734091"
     id="path6916" />
  <path
     style="fill:none;stroke:#000000;stroke-width:0.46572754;stroke-linecap:butt;stroke-linejoin:miter;stroke-miterlimit:4;stroke-dasharray:none;stroke-opacity:1"
     d="m 46.317491,9.3440418 c 6.586602,1.2028982 11.711288,3.6165532 15.628044,5.6996142 3.887418,2.156419 7.688441,4.637343 9.038037,5.576186 1.349592,0.938853 6.257212,4.240855 7.108041,5.165038"
     id="path6918" />
  <path
     style="fill:none;stroke:#000000;stroke-width:0.46572754;stroke-linecap:butt;stroke-linejoin:miter;stroke-miterlimit:4;stroke-dasharray:none;stroke-opacity:1"
     d="m 55.884549,15.56175 c -1.327731,1.524812 -1.172137,1.400337 -1.535189,1.970848 -0.36305,0.570509 -0.612,1.016546 -0.715729,1.265493 -0.103725,0.248948 -0.176862,0.469603 -0.267917,0.853616 -0.06172,0.288665 -0.06465,0.382319 -0.0549,0.723064 0.02075,0.186714 0.05312,0.383797 0.18797,0.601627 0.134852,0.21783 0.228205,0.300816 0.383797,0.446036"
     id="path6920" />
  <path
     style="fill:none;stroke:#000000;stroke-width:0.46572754;stroke-linecap:butt;stroke-linejoin:miter;stroke-miterlimit:4;stroke-dasharray:none;stroke-opacity:1"
     d="m 54.10041,21.038639 c -2.717696,2.987392 -13.073321,13.88848 -13.446745,14.282653 1.603528,-0.489624 4.661073,-1.473954 8.126448,-2.818032 4.281427,-1.660579 9.207222,-3.788381 13.043884,-5.230834 3.584109,-1.347499 6.359035,-2.153437 6.56008,-2.228358"
     id="path6922" />
  <path
     style="fill:#000000;fill-opacity:1;stroke:#000000;stroke-width:0;stroke-linecap:butt;stroke-linejoin:miter;stroke-miterlimit:4;stroke-dasharray:none;stroke-opacity:1"
     d="m 63.840563,11.78601 c 1.141019,-0.622373 3.25709,-1.9397293 3.25709,-1.9397293 1.6078,0.7053583 2.136817,1.8048863 2.448003,2.3546483 0.446037,0.798711 0.632748,1.410715 0.726105,1.680408 -0.425289,1.203253 -0.414915,2.479123 -0.414915,2.696954 -1.92936,-1.887866 -2.831804,-2.582851 -3.391939,-3.018512 -0.560137,-0.435666 -1.587054,-1.078786 -2.624344,-1.773769 z"
     id="path6924" />
  <path
     style="fill:none;stroke:#000000;stroke-width:0.37258205;stroke-linecap:butt;stroke-linejoin:miter;stroke-miterlimit:4;stroke-dasharray:none;stroke-opacity:1"
     d="m 64.296971,26.349559 c 0.04282,-0.482003 0.06685,-0.832187 0.03163,-1.085275 -0.07196,-0.516983 -0.175559,-0.677845 -0.207967,-0.771468 -0.112783,-0.163185 -0.19739,-0.360797 -0.373565,-0.548374 -0.204586,-0.217824 -0.512777,-0.427531 -0.819318,-0.639325"
     id="path6926" />
  <path
     style="fill:none;stroke:#000000;stroke-width:0.37258205;stroke-linecap:butt;stroke-linejoin:miter;stroke-miterlimit:4;stroke-dasharray:none;stroke-opacity:1"
     d="m 67.39328,25.312272 c 0.01034,-0.7261 -0.03112,-0.980239 -0.108907,-1.296611 -0.0778,-0.316378 -0.171155,-0.544577 -0.285255,-0.746852 -0.05714,-0.101281 -0.222163,-0.337715 -0.390331,-0.553899 -0.167701,-0.215589 -0.379983,-0.416107 -0.470621,-0.519697"
     id="path6928" />
  <path
     style="fill:none;stroke:#000000;stroke-width:0.31048504;stroke-linecap:butt;stroke-linejoin:miter;stroke-miterlimit:4;stroke-dasharray:none;stroke-opacity:1"
     d="m 64.322903,25.400443 3.023699,-0.943937"
     id="path6930" />
  <path
     style="fill:none;stroke:#000000;stroke-width:0.31048504;stroke-linecap:butt;stroke-linejoin:miter;stroke-miterlimit:4;stroke-dasharray:none;stroke-opacity:1"
     d="m 64.001344,24.176437 3.018513,-0.76241"
     id="path6932" />
  <path
     style="fill:#000000;fill-opacity:1;stroke:#000000;stroke-width:0;stroke-linecap:round;stroke-linejoin:miter;stroke-miterlimit:4;stroke-dasharray:none;stroke-opacity:1"
     d="m 67.03023,22.034451 c 0,0 6.21e-4,-9.3e-5 -9.94e-4,0.01 -0.02526,0.03855 -0.193986,0.08337 -0.487529,0.159005 -0.41726,0.09821 -0.552063,0.168295 -1.157293,0.3676 -0.379756,0.126109 -0.785882,0.263765 -1.200415,0.419721 -0.0031,0.0012 -0.102633,0.0385 -0.105691,0.03969 -0.55035,0.206101 -0.965894,0.357382 -1.437187,0.554093 -0.545871,0.228486 -0.727063,0.280479 -1.034905,0.481078 v 0 c -0.06688,0.05936 -0.142933,0.109271 -0.187549,0.138216 v 0 c -0.04271,0.02826 -0.07988,0.05043 -0.106941,0.06417 -0.0396,0.02019 -0.06386,0.02323 -0.06958,0.01739 -0.01308,-0.01336 -0.0057,-0.03372 0.01604,-0.07334 0.01551,-0.02838 0.03827,-0.06213 0.06979,-0.104281 v 0 c 0.03958,-0.05235 0.09359,-0.112556 0.144829,-0.183187 v 0 c 0.247831,-0.247692 0.536501,-0.404016 1.025835,-0.649883 0.443487,-0.222765 0.916969,-0.415043 1.442199,-0.611499 0.03536,-0.01322 0.07071,-0.02638 0.106043,-0.0395 0.425147,-0.157653 0.846407,-0.285896 1.237214,-0.389368 0.530134,-0.141171 0.85718,-0.227282 1.228473,-0.244402 0.308133,-0.0057 0.479215,-0.0012 0.514709,0.03496 0.0035,0.0095 0.0028,0.0097 0.0028,0.0097 z"
     id="path6934" />
  <path
     style="fill:none;stroke:#000000;stroke-width:0.46572754;stroke-linecap:butt;stroke-linejoin:miter;stroke-miterlimit:4;stroke-dasharray:none;stroke-opacity:1"
     d="m 63.992768,41.896693 c 0.642334,-1.333353 0.947324,-3.296736 1.289629,-4.686704 0.342304,-1.389971 0.746848,-3.557903 0.860951,-4.273633 0.1141,-0.715731 0.363051,-2.157566 0.373425,-3.039264 0.01034,-0.881694 -0.08298,-1.483322 -0.145221,-1.908612 -0.06224,-0.42529 -0.238576,-1.763394 -0.39417,-2.116067"
     id="path6936" />
  <path
     style="fill:none;stroke:#000000;stroke-width:0.46572754;stroke-linecap:butt;stroke-linejoin:miter;stroke-miterlimit:4;stroke-dasharray:none;stroke-opacity:1"
     d="m 60.104334,47.921722 c 0.116386,-0.164707 0.23133,-0.329957 0.343821,-0.493806"
     id="path6938" />
  <path
     style="fill:none;stroke:#000000;stroke-width:0.46572754;stroke-linecap:butt;stroke-linejoin:miter;stroke-miterlimit:4;stroke-dasharray:none;stroke-opacity:1"
     d="m 68.466876,25.333019 c -0.207458,-2.655466 -0.278412,-3.389994 -0.165966,-4.460347 0.0889,-0.846277 0.161287,-1.15085 0.205297,-1.209526 0.04401,-0.05869 0.230567,-0.170487 0.311249,-0.133819 0.08067,0.0367 0.234711,0.148474 0.293391,0.265832 0.03105,0.0621 0.829926,1.416631 1.54382,2.745625 0.635049,1.182203 0.973136,1.951412 1.3051,2.558292 0.195783,0.35792 1.481618,3.315302 1.723665,3.865407 0.242045,0.550106 0.968187,2.772534 1.217569,3.528017 0.24938,0.755479 1.14422,4.107456 1.246907,4.584213 0.102679,0.476762 0.623454,3.667375 0.704136,4.224812 0.08067,0.557445 0.308057,3.227295 0.337397,3.704051 0.02935,0.476761 0.198038,3.124602 0.220042,3.55735 0.02201,0.432755 0.249385,4.518203 0.256717,4.899616 0.0073,0.381406 0.205376,6.351889 0.212708,6.674614 0.0073,0.322731 0.190702,6.835986 0.212708,7.408099 -5.547452,0.201369 -12.964812,-2.058013 -15.952207,-2.887845 -2.987394,-0.829827 -6.70261,-2.058809 -9.584559,-3.102238 -2.99979,-1.086089 -5.378521,-1.900273 -5.378521,-1.900273 2.016383,-1.168057 3.991425,-2.821409 4.944944,-3.554887 0.953514,-0.73347 2.593561,-2.204828 3.365389,-2.921011 1.073393,-0.995998 2.549344,-2.628026 3.364537,-3.604527 0.0063,-0.0074 0.01239,-0.01491 0.01868,-0.02241"
     id="path6940" />
  <path
     style="fill:#000000;fill-opacity:1;stroke:#000000;stroke-width:0;stroke-linecap:butt;stroke-linejoin:miter;stroke-miterlimit:4;stroke-dasharray:none;stroke-opacity:1"
     d="m 69.196713,30.191178 c -0.05145,-0.291241 -0.0976,-0.583147 -0.14533,-0.875164 0,0 0,0 0,0 -0.07689,-0.470744 -0.133875,-0.943968 -0.18697,-1.418507 0,0 0,0 0,0 -0.09701,-0.867855 -0.138133,-1.741033 -0.190722,-2.618985 l -0.44475,0.04676 c 0.130761,0.866098 0.252005,1.740553 0.428498,2.6049 0,0 0,0 0,0 0.09588,0.469008 0.196025,0.938231 0.315573,1.402302 0,0 0,0 0,0 0.0738,0.286253 0.146182,0.573284 0.223701,0.858694 z"
     id="path6942" />
  <path
     style="fill:#000000;fill-opacity:1;stroke:#000000;stroke-width:0;stroke-linecap:butt;stroke-linejoin:miter;stroke-miterlimit:4;stroke-dasharray:none;stroke-opacity:1"
     d="m 59.802423,17.705656 c -1.646696,2.001124 -2.926304,2.485954 -3.890194,3.051409 -0.953516,0.425414 -1.013085,0.410592 -1.233127,0.425258 -0.220042,0.01465 -0.358267,0.01198 -0.464589,-0.07367 -0.106316,-0.08559 -0.2221,-0.171792 -0.30645,-0.274474 -0.08435,-0.102691 -0.113056,-0.245348 -0.124056,-0.362699 -0.01103,-0.117363 0.04061,-0.554406 0.06262,-0.730439 0.022,-0.176033 0.09902,-0.399744 0.194371,-0.656459 0.09535,-0.256715 0.22371,-0.608788 0.322727,-0.792152 0.09902,-0.183373 0.29339,-0.465759 0.440087,-0.674796 0.146693,-0.209045 0.484092,-0.663798 0.64179,-0.861838 0.157696,-0.198034 0.425414,-0.48776 0.616119,-0.707801 0.190702,-0.220042 0.344733,-0.396079 0.524434,-0.58678 0.179701,-0.190699 0.429082,-0.421744 0.638123,-0.575775 0.209039,-0.154032 0.447419,-0.341069 0.645457,-0.440089 0.198039,-0.09902 0.421747,-0.216115 0.612452,-0.271121 0.190703,-0.05501 0.385074,-0.106612 0.619785,-0.135953 0.234713,-0.0293 0.36307,-0.04769 0.465757,-0.02565 0.102679,0.02198 0.157351,0.02136 0.231043,0.06234 0.09902,0.05501 0.09536,0.05135 0.201707,0.135692 0.02821,0.04484 0.10918,0.06142 0.129165,0.120764 0.02415,0.0718 -0.0081,0.168959 -0.0081,0.168959 -0.01336,0.0684 -0.146694,0.557439 -0.146694,0.557439 -0.03301,0.16868 -0.07335,0.513412 -0.08436,0.718786 -0.01103,0.205374 -0.022,0.740804 -0.022,0.942514 0,0.201705 -0.0038,0.311727 -0.0038,0.502428 0,0.190706 -0.01467,0.289719 -0.01834,0.355735 z"
     id="path6944" />
  <path
     style="fill:#ffffff;fill-opacity:1;stroke:#000000;stroke-width:0.06209701;stroke-linecap:butt;stroke-linejoin:miter;stroke-miterlimit:4;stroke-dasharray:none;stroke-opacity:1"
     d="m 59.369843,16.676832 c -0.378611,0.267111 -0.420101,0.300817 -0.632747,0.48753 -0.212644,0.186714 -0.342304,0.295625 -0.477153,0.456407 -0.134852,0.160781 -0.331935,0.399359 -0.456407,0.586065 -0.124482,0.186713 -0.124482,0.184124 -0.23339,0.383803 -0.0778,0.191899 -0.103736,0.24894 -0.114101,0.363051 0.0052,0.124468 0.01034,0.12966 0.04148,0.15559 0.03112,0.02596 0.06743,0.01559 0.09336,0.01559 0.02593,0 0.01556,0.005 0.1141,-0.01559 0.09854,-0.02074 0.171154,-0.05707 0.264508,-0.119291 0.09336,-0.06223 0.171155,-0.140035 0.331935,-0.274879 0.149586,-0.125461 0.381224,-0.334325 0.497899,-0.446036 0.127154,-0.121743 0.313136,-0.332505 0.40973,-0.440846 0.0953,-0.106896 0.176339,-0.217836 0.176339,-0.217836 z"
     id="path6946" />
  <path
     style="fill:#000000;fill-opacity:1;stroke:#000000;stroke-width:0;stroke-linecap:butt;stroke-linejoin:miter;stroke-miterlimit:4;stroke-dasharray:none;stroke-opacity:1"
     d="m 59.846428,17.577296 c -1.161195,1.002966 -1.76801,1.967642 -1.923603,2.195849 -0.155594,0.228207 -0.689799,1.011355 -0.829834,1.218816 -0.140033,0.207459 -0.720917,1.177321 -0.829832,1.36922 -0.108907,0.191904 -0.269695,0.58607 -0.347492,0.793531 -0.0778,0.207453 -0.108907,0.306001 -0.124469,0.503084 -0.01556,0.197083 -0.03112,0.316372 0.05186,0.440846 0.08298,0.124483 0.1141,0.140035 0.233392,0.202275 0.119291,0.06223 0.228202,0.134838 0.404543,0.155589 0.176339,0.02074 0.378611,0.01034 0.663865,-0.04147 0.285254,-0.05186 0.762408,-0.202274 0.990611,-0.326748 0.228203,-0.124483 0.342305,-0.176343 0.68461,-0.399358 0.342306,-0.223015 1.488513,-1.00617 1.87231,-1.327734 0.383797,-0.321556 1.286199,-1.032312 1.576681,-1.338103 0.591758,-0.622938 0.925726,-1.045975 1.068408,-1.239555 0.149555,-0.20291 0.549762,-0.855766 0.648306,-1.05804 0.09854,-0.20227 0.256393,-0.577453 0.316375,-0.83502 0.116399,-0.499849 0.05705,-0.985422 0.05186,-1.135827 0,0 -0.96382,0.221662 -1.448468,0.319519 -0.521209,0.105248 -1.044289,0.201736 -1.569014,0.28774 -0.495256,0.08117 -1.490109,0.215396 -1.490109,0.215396 z"
     id="path6948" />
  <path
     style="fill:#ffffff;fill-opacity:1;stroke:#000000;stroke-width:0.06209701;stroke-linecap:butt;stroke-linejoin:miter;stroke-miterlimit:4;stroke-dasharray:none;stroke-opacity:1"
     d="m 62.813337,18.32177 c -0.458316,0.530576 -0.850832,1.092882 -0.990192,1.298256 -0.13936,0.205373 -0.311726,0.471253 -0.370404,0.617945 -0.05867,0.146699 -0.110669,0.209175 -0.113687,0.311733 -0.0022,0.07369 -0.0073,0.120187 0.04401,0.170532 0.04505,0.04421 0.117349,0.04396 0.183367,0.0293 0.066,-0.01465 0.19804,-0.05869 0.286056,-0.117364 0.08802,-0.05869 0.167462,-0.108759 0.300726,-0.234713 0.13386,-0.126521 0.22004,-0.198035 0.366735,-0.3594 0.146696,-0.161365 0.240215,-0.267725 0.379573,-0.458424 0.139361,-0.190706 0.289725,-0.394242 0.370405,-0.5336 0.08069,-0.139364 0.209043,-0.352072 0.276887,-0.504265 0.06711,-0.150548 0.111499,-0.256907 0.117363,-0.344732 0.0055,-0.08253 0.02324,-0.13324 -0.0092,-0.203541 -0.02855,-0.06191 -0.03807,-0.102861 -0.122858,-0.126521 -0.07884,-0.02198 -0.166866,-0.01281 -0.247548,0.03118 -0.08067,0.04402 -0.167943,0.117941 -0.254883,0.199877 -0.08924,0.08411 -0.114349,0.105657 -0.216364,0.223755 z"
     id="path6950" />
  <path
     style="fill:#000000;fill-opacity:1;stroke:#000000;stroke-width:0;stroke-linecap:butt;stroke-linejoin:miter;stroke-miterlimit:4;stroke-dasharray:none;stroke-opacity:1"
     d="m 66.334833,17.730383 c -0.01764,0.187011 -0.04009,0.36831 -0.08302,0.549782 -0.03665,0.152815 -0.08246,0.297872 -0.129356,0.431158 -0.08006,0.227547 -0.185621,0.429413 -0.28251,0.593163 -0.300304,0.508003 -0.631995,0.682776 -0.645705,0.670934 -0.03991,-0.03446 0.203308,-0.315311 0.412297,-0.791663 0.07351,-0.165519 0.157146,-0.364124 0.215387,-0.568591 0.03737,-0.130086 0.07456,-0.268428 0.103315,-0.40804 0.03338,-0.159782 0.05041,-0.325344 0.0681,-0.509214 0.113825,0.01068 0.22766,0.02168 0.34149,0.03247 z"
     id="path6952" />
  <path
     style="fill:#000000;fill-opacity:1;stroke:#000000;stroke-width:0;stroke-linecap:butt;stroke-linejoin:miter;stroke-miterlimit:4;stroke-dasharray:none;stroke-opacity:1"
     d="m 67.349324,18.407228 c -0.01666,0.05427 -0.02356,0.12568 -0.0479,0.203542 -0.05017,0.156056 -0.110532,0.291514 -0.179826,0.408268 -0.175552,0.292236 -0.385343,0.371576 -0.392187,0.365125 -0.0259,-0.0244 0.128642,-0.183534 0.240538,-0.443975 0.05077,-0.114321 0.09528,-0.239446 0.138095,-0.388386 0.01509,-0.05142 0.02013,-0.120737 0.04393,-0.20302 0.06577,0.01949 0.13156,0.03893 0.197346,0.05843 z"
     id="path6954" />
  <path
     style="fill:#000000;fill-opacity:1;stroke:#000000;stroke-width:0;stroke-linecap:butt;stroke-linejoin:miter;stroke-miterlimit:4;stroke-dasharray:none;stroke-opacity:1"
     d="m 59.846428,17.577296 c 0,0 -6.9e-5,5.4e-5 1.72e-4,-4.92e-4 0,0 0,0 0,0 0,0 0,0 0,0 0,0 0,0 0,0 0,0 0,0 0,0 0,0 0,0 0,0 0,0 0,0 0,0 0,0 0,0 0,0 0.0011,-0.0025 0.0047,-0.01639 -0.0063,-0.04993 v 0 c 0,0 0,0 0,0 v 0 c 0.0045,-0.0218 0.01442,-0.04968 0.02927,-0.08312 v 0 c 0.02725,-0.06147 0.07141,-0.141842 0.130293,-0.236563 v 0 c 0.08412,-0.135527 0.211427,-0.323335 0.36435,-0.509761 0.124965,-0.153194 0.309389,-0.398322 0.490307,-0.587675 0.0031,-0.0032 0.0059,-0.0063 0.0089,-0.0092 0.674567,-0.698397 0.77089,-0.590615 0.829959,-0.526606 0.07488,0.08109 0.08951,0.09193 -0.570504,0.776789 -0.0026,0.0025 -0.0053,0.0057 -0.008,0.0083 -0.178691,0.18618 -0.34149,0.387715 -0.509371,0.556545 -0.166249,0.166103 -0.310744,0.318862 -0.431425,0.433462 v 0 c -0.08044,0.07634 -0.148848,0.13616 -0.202855,0.176108 v 0 c -0.02927,0.02161 -0.05421,0.03738 -0.07435,0.04664 v 0 c 0,0 0,0 0,0 v 0 c -0.03516,-0.0032 -0.04774,0.0038 -0.05004,0.005 0,0 0,0 0,0 0,0 0,0 0,0 0,0 0,0 0,0 0,0 0,0 0,0 0,0 0,0 0,0 0,0 0,0 0,0 0,0 0,0 0,0 -4.79e-4,3.59e-4 -4.4e-4,2.8e-4 -4.4e-4,2.8e-4 z"
     id="path6956" />
  <path
     style="fill:#000000;fill-opacity:1;stroke:#000000;stroke-width:0.06209701;stroke-linecap:butt;stroke-linejoin:miter;stroke-miterlimit:4;stroke-dasharray:none;stroke-opacity:1"
     d="m 70.82282,49.13924 c 0.03308,-1.20901 0.02122,-2.44595 -0.03542,-3.72054 -0.04758,-1.070609 -0.124,-2.103948 -0.217095,-3.086905 0,0 0,0 0,-6e-6 -0.469661,-4.968326 -1.385635,-8.58963 -1.25286,-8.617468 -0.04216,0.0089 1.268365,3.510684 1.817515,8.560046 0,0 0,0 0,0 0.107646,0.991001 0.192151,2.03521 0.240228,3.118226 0.05715,1.287185 0.05891,2.543389 0.0052,3.765216 -0.09121,-0.0032 -0.182433,-0.0063 -0.273651,-0.009 -0.09464,-0.0032 -0.189299,-0.0064 -0.283949,-0.0097 z"
     id="path6958" />
  <path
     style="fill:#000000;fill-opacity:1;stroke:#000000;stroke-width:0.06209701;stroke-linecap:butt;stroke-linejoin:miter;stroke-miterlimit:4;stroke-dasharray:none;stroke-opacity:1"
     d="m 74.131726,56.818964 c 0.161015,-0.699542 0.389003,-1.382651 0.569607,-2.073891 0.251949,-0.964311 0.454268,-1.953759 0.594311,-2.961506 0,0 0,0 0,0 0.05735,-0.411677 0.103815,-0.825486 0.140945,-1.241356 0.151819,-1.700079 0.144551,-3.410635 0.103122,-5.00125 -0.067,-2.57279 -0.468491,-5.392528 -0.725405,-7.39515 -0.609067,-4.753073 -1.787157,-7.687995 -1.721115,-7.709325 -0.100872,0.03254 1.3579,2.83389 2.059139,7.663112 0.291993,2.011397 0.721606,4.805775 0.805263,7.429255 0.05102,1.598445 0.06253,3.323637 -0.0918,5.051691 -0.03773,0.422409 -0.08515,0.843314 -0.143853,1.262562 0,0 0,0 0,0 -0.143964,1.025713 -0.352586,2.031255 -0.613007,3.009469 -0.18855,0.708329 -0.418968,1.384609 -0.578255,2.057149 -0.06529,-0.01478 -0.130555,-0.02955 -0.195843,-0.04427 -0.0677,-0.01546 -0.135402,-0.03098 -0.2031,-0.04644 z"
     id="path6960" />
  <path
     style="fill:#000000;fill-opacity:1;stroke:#000000;stroke-width:0.06209701;stroke-linecap:butt;stroke-linejoin:miter;stroke-miterlimit:4;stroke-dasharray:none;stroke-opacity:1"
     d="m 71.044189,49.252643 c 0,0 -1.23e-4,-1.3e-5 -4.08e-4,-0.005 0,0 0,0 0,0 0.0057,-0.04316 0.173929,-0.109237 0.458454,-0.180014 0.145354,-0.03658 0.36369,-0.09719 0.58323,-0.101168 0.05558,-6.2e-4 0.111658,-3.6e-4 0.168058,0.0019 0.175357,0.0064 0.343932,0.0272 0.503086,0.06489 0,0 0,0 0,0 0.492556,0.124814 0.625625,0.433028 0.622986,0.436895 -0.03014,0.04421 -0.297439,-0.146989 -0.670218,-0.187389 0,0 0,0 0,0 -0.148639,-0.02049 -0.299731,-0.03172 -0.465578,-0.03738 -0.0528,-0.0019 -0.105566,-0.0032 -0.158334,-0.0038 -0.182756,-0.0044 -0.37797,0.03403 -0.549156,0.04484 -0.291405,0.02081 -0.471946,0.01023 -0.491006,-0.029 0,0 0,0 0,0 -0.0013,-0.0044 -0.0011,-0.0044 -0.0011,-0.0044 z"
     id="path6962" />
  <path
     style="fill:#000000;fill-opacity:1;stroke:#000000;stroke-width:0.06209701;stroke-linecap:butt;stroke-linejoin:miter;stroke-miterlimit:4;stroke-dasharray:none;stroke-opacity:1"
     d="m 70.994632,49.355332 c 0.01335,-0.01198 0.365313,0.1581 0.758548,0.556359 0,0 0,0 0,0 0.08647,0.08865 0.163655,0.185695 0.234755,0.288279 0.09144,0.131933 0.170591,0.27001 0.240178,0.39549 0,0 0,0 0,0 0.264267,0.471495 0.226638,0.822829 0.180749,0.830373 -0.05504,0.0091 -0.146575,-0.31803 -0.401585,-0.694779 0,0 0,0 0,0 -0.08169,-0.120818 -0.16314,-0.250914 -0.247457,-0.373657 -0.06562,-0.09551 -0.1309,-0.183352 -0.201938,-0.264359 0,0 0,0 0,0 -0.330301,-0.380672 -0.607775,-0.697994 -0.56325,-0.737706 z"
     id="path6964" />
  <path
     style="fill:none;stroke:#000000;stroke-width:0.37258205;stroke-linecap:butt;stroke-linejoin:miter;stroke-miterlimit:4;stroke-dasharray:none;stroke-opacity:1"
     d="m 71.128661,49.269831 c -0.198732,0.09937 -0.719918,-0.08848 -1.03525,-0.251883 -0.57003,-0.295372 -1.16466,-1.016765 -1.4512,-1.266333 -0.286543,-0.249574 -1.377255,-1.478933 -1.580607,-1.737742 -0.203353,-0.258813 -1.146171,-1.386495 -1.460444,-1.802445 -0.31427,-0.415951 -0.106293,-0.154797 -0.448299,-0.589233 -0.01848,0.08319 -0.226464,1.485864 -0.263435,1.772404 -0.03697,0.286547 -0.212597,0.748711 -0.388219,1.118442 -0.175623,0.369731 -0.665517,0.952059 -0.942817,1.238605 -0.277298,0.28654 -0.94282,0.656273 -1.469688,0.831895 -0.526868,0.175623 -0.924331,0.212608 -1.155413,0.268061 -0.231083,0.05545 -0.268057,0.09243 -0.323516,0.175622 -0.05546,0.08319 -0.04621,0.129426 -0.03697,0.166377 0.0092,0.03695 0.07395,0.08319 0.240326,0.268054 0.166381,0.184869 0.868869,0.545354 1.47893,0.952066 0.610056,0.406704 1.146168,0.850381 1.710013,1.331036 0.563839,0.480649 1.266333,1.090709 1.746985,1.460441 0.480652,0.369732 1.9557,1.331709 2.54191,1.65455 0.637791,0.351245 2.551155,1.266338 3.161212,1.506659 0.61006,0.240328 1.765469,0.610079 2.199908,0.684013 0.434433,0.07393 0.614679,0.01843 0.663209,-0.169887"
     id="path6966" />
  <path
     style="fill:none;stroke:#000000;stroke-width:0.37258205;stroke-linecap:butt;stroke-linejoin:miter;stroke-miterlimit:4;stroke-dasharray:none;stroke-opacity:1"
     d="M 61.700483,48.638969 C 60.32323,47.002906 59.565279,46.494524 59.565279,46.494524"
     id="path6968" />
  <path
     style="fill:none;stroke:#000000;stroke-width:0.37258205;stroke-linecap:butt;stroke-linejoin:miter;stroke-miterlimit:4;stroke-dasharray:none;stroke-opacity:1"
     d="m 63.271849,42.103942 c 0.332759,-0.240327 0.08757,-0.02279 0.286542,-0.129399 0.206108,-0.110453 0.264185,-0.09431 0.383598,-0.05545 0.07883,0.02565 0.185049,0.09694 0.212595,0.143271 0.103895,0.174735 0.127209,0.265081 0.07357,0.483778 v -2.9e-5 c -0.05543,0.226014 -0.09499,0.532922 -0.359791,0.988409 -0.06454,0.111022 -0.353007,0.681752 -0.680177,1.135253 -0.0921,0.127649 -0.513946,0.641349 -0.646567,0.750293 -0.299833,0.246295 -0.508381,0.390459 -0.776438,0.51987 -0.268055,0.129398 -0.767195,0.36973 -1.035252,0.43443 -0.268057,0.06471 -0.67298,0.123547 -0.876335,0.151261 -0.203352,0.02769 -0.112692,0.07982 -0.288323,-0.03111 -0.171885,-0.125874 -0.0077,-0.413015 0.04621,-0.554595"
     id="path6970" />
  <path
     style="fill:none;stroke:#000000;stroke-width:0.37258205;stroke-linecap:butt;stroke-linejoin:miter;stroke-miterlimit:4;stroke-dasharray:none;stroke-opacity:1"
     d="m 65.152859,43.622195 c -0.92433,-1.301026 -0.989032,-1.550592 -0.989032,-1.550592"
     id="path6972" />
  <path
     style="opacity:1;fill:none;fill-opacity:1;stroke:#000000;stroke-width:0.62097013;stroke-miterlimit:4;stroke-dasharray:none;stroke-dashoffset:0;stroke-opacity:1"
     d="m 60.098428,46.942588 v 2.605981 H 21.300685 v -12.862863 0 h 38.797743 v 3.832482"
     id="path6974" />
  <path
     style="fill:none;stroke:#000000;stroke-width:0.37258205;stroke-linecap:butt;stroke-linejoin:miter;stroke-miterlimit:4;stroke-dasharray:none;stroke-opacity:1"
     d="M 64.111536,43.117134 C 62.595182,40.751097 60.124572,39.496185 60.124572,39.496185"
     id="path6976" />
  <path
     style="fill:none;stroke:#000000;stroke-width:0.37258205;stroke-linecap:butt;stroke-linejoin:miter;stroke-miterlimit:4;stroke-dasharray:none;stroke-opacity:1"
     d="m 60.310807,39.880634 c 0.327454,0.38931 0.94338,0.841557 0.808828,0.912689 -0.424395,0.224375 -1.88371,-0.804268 -2.171545,-1.022625 -0.379088,-0.287584 -0.986937,-0.673214 -1.281056,-0.666675 -0.294847,0.0065 -0.465707,-0.02999 -0.70589,0.326804 -0.201463,0.299258 -0.143794,0.575167 -0.01308,0.73203 0.130721,0.156863 2.091523,1.908515 2.091523,1.908515 0,0 -1.908515,-1.320275 -2.366036,-1.450996 -0.45752,-0.130719 -0.795179,-0.118065 -0.928113,0 -0.185388,0.164657 -0.199737,0.463313 -0.169935,0.575173 0.04883,0.183298 0.156864,0.326799 0.287584,0.45752 0.130721,0.130719 2.104595,1.673216 2.104595,1.673216 0,0 -1.921231,-1.114878 -2.183028,-1.228769 -0.265268,-0.115409 -0.640526,-0.24837 -0.797391,-0.07844 -0.156863,0.169934 -0.160174,0.294985 -0.09151,0.562096 0.122569,0.476768 1.110847,1.29748 1.776364,1.768889 0.665519,0.471409 3.743542,2.079746 3.743542,2.079746"
     id="path6978" />
  <text
     id="text6984"
     y="46.242462"
     x="23.873899"
     style="font-style:normal;font-weight:normal;font-size:6.80094719px;line-height:9.10841179px;font-family:sans-serif;letter-spacing:0px;word-spacing:0px;fill:#000000;fill-opacity:1;stroke:none;stroke-width:0.36433646"
     xml:space="preserve"><tspan
       style="font-size:8.74407578px;stroke-width:0.36433646"
       y="46.242462"
       x="23.873899"
       id="tspan6982">Master</tspan></text>
  <g
     id="g4843">
    <path
       id="path4804"
       d="m 58.94809,179.95371 c -0.379088,-0.28758 -0.986937,-0.67321 -1.281056,-0.66667 -0.294847,0.007 -0.465707,-0.03 -0.70589,0.3268 -0.201463,0.29926 -0.143794,0.57517 -0.01308,0.73203 0.130721,0.15687 2.091523,1.90852 2.091523,1.90852 0,0 -1.908515,-1.32028 -2.366036,-1.451 -0.45752,-0.13072 -0.795179,-0.11806 -0.928113,0 -0.185388,0.16466 -0.199737,0.46331 -0.169935,0.57517 0.04883,0.1833 0.156864,0.3268 0.287584,0.45752 0.130721,0.13072 2.104595,1.67322 2.104595,1.67322 0,0 -1.921231,-1.11488 -2.183028,-1.22877 -0.265268,-0.11541 -0.640526,-0.24837 -0.797391,-0.0784 -0.156863,0.16993 -0.160174,0.29499 -0.09151,0.5621 0.122569,0.47677 1.110847,1.29748 1.776364,1.76889 0.665519,0.47141 3.428647,1.94104 3.428647,1.94104 l -0.0023,3.25746 H 21.300685 v -12.86286 0 h 38.797743 v 3.83248 c -0.319151,-0.20186 -0.862503,-0.52913 -1.150338,-0.74749 z"
       style="fill:#ffffff;fill-opacity:1;stroke:#000000;stroke-width:0.26458335;stroke-linecap:butt;stroke-linejoin:miter;stroke-miterlimit:4;stroke-dasharray:none;stroke-opacity:1" />
    <path
       style="fill:none;stroke:#000000;stroke-width:0.46572754;stroke-linecap:butt;stroke-linejoin:miter;stroke-miterlimit:4;stroke-dasharray:none;stroke-opacity:1"
       d="m 56.278721,155.91074 c -3.122242,-1.55594 -9.532696,-5.72325 -9.72978,-5.88921 -0.197085,-0.16598 -0.238577,-0.29305 -0.217831,-0.40715 0.02075,-0.11415 0.0726,-0.20227 0.235983,-0.27488 0.42529,-0.31897 14.016379,0.9595 17.107504,2.37021 0.912815,-0.74686 2.79031,-1.75303 3.308954,-2.1783 0.518645,-0.4253 3.163734,-3.15337 3.277836,-3.18449 0.160781,-0.0777 0.220426,-0.12972 0.365647,-0.12972 0.145218,0 0.243762,-0.0337 0.420101,0.0389 0.161141,0.0574 0.327756,0.0996 0.383796,0.18671 0.05186,0.0831 0.0752,0.15301 0.02335,0.27747 -0.05186,0.12448 -0.07261,0.20747 -0.217831,0.39417 -0.145221,0.18672 -1.099528,1.58706 -1.224002,1.7634 0.443444,-0.18412 1.27587,-0.71054 1.421089,-0.81427 0.145221,-0.10366 0.752037,-0.72093 0.842799,-0.75723 0.09076,-0.0364 0.103735,-0.0337 0.168559,-0.0337 0.06483,0 0.09595,-0.002 0.147815,0.0208 0.05186,0.0233 0.152999,0.0778 0.189305,0.11663 0.0363,0.039 0.406074,0.27379 0.611524,0.67648 0.139435,0.26332 0.268392,0.60028 0.276172,0.65473 0.0078,0.0544 0.06141,0.1962 0.06141,0.28178 0,0.0855 0.02075,0.22561 -0.02075,0.32157 -0.04148,0.0959 -2.014935,3.03665 -2.816243,4.63408 -0.365642,0.75722 -0.370829,1.28625 -0.425287,1.53 -0.05447,0.24376 -0.217832,1.2214 -0.230798,1.31216 1.589649,1.44445 4.213993,4.03766 4.877858,4.82601 0.663867,0.78834 1.836004,2.11606 2.250919,2.76955 0.389038,0.61273 0.613153,0.99696 0.70232,1.23135 0.03417,0.12806 0.180114,0.23197 0.09713,0.36682 -0.08298,0.13481 -0.322859,0.0446 -0.5505,-6.2e-4 -0.279904,-0.0556 -0.834994,-0.22069 -1.400341,-0.39417 -0.319274,-0.0979 -1.234313,-0.486 -1.888784,-0.79689 -1.486892,-0.70633 -3.053361,-1.57563 -3.370276,-1.7341"
       id="path4737" />
    <path
       style="fill:none;stroke:#000000;stroke-width:0.46572754;stroke-linecap:butt;stroke-linejoin:miter;stroke-miterlimit:4;stroke-dasharray:none;stroke-opacity:1"
       d="m 46.317491,149.52707 c 6.586602,1.20289 11.711288,3.61655 15.628044,5.6996 3.887418,2.15642 7.688441,4.63735 9.038037,5.57619 1.349592,0.93885 6.257212,4.24085 7.108041,5.16504"
       id="path4760" />
    <path
       style="fill:none;stroke:#000000;stroke-width:0.46572754;stroke-linecap:butt;stroke-linejoin:miter;stroke-miterlimit:4;stroke-dasharray:none;stroke-opacity:1"
       d="m 55.884549,155.74476 c -1.327731,1.52482 -1.172137,1.40035 -1.535189,1.97085 -0.36305,0.57052 -0.612,1.01656 -0.715729,1.26549 -0.103725,0.24896 -0.176862,0.46961 -0.267917,0.85362 -0.06172,0.28867 -0.06465,0.38233 -0.0549,0.72307 0.02075,0.18672 0.05312,0.38379 0.18797,0.60163 0.134852,0.21782 0.228205,0.30082 0.383797,0.44604"
       id="path4762" />
    <path
       style="fill:none;stroke:#000000;stroke-width:0.46572754;stroke-linecap:butt;stroke-linejoin:miter;stroke-miterlimit:4;stroke-dasharray:none;stroke-opacity:1"
       d="m 54.10041,161.22166 c -2.717696,2.98739 -13.073321,13.88847 -13.446745,14.28265 1.603528,-0.48963 4.661073,-1.47395 8.126448,-2.81803 4.281427,-1.66058 9.207222,-3.78839 13.043884,-5.23083 3.584109,-1.34751 6.359035,-2.15344 6.56008,-2.22836"
       id="path4764" />
    <path
       style="fill:#000000;fill-opacity:1;stroke:#000000;stroke-width:0;stroke-linecap:butt;stroke-linejoin:miter;stroke-miterlimit:4;stroke-dasharray:none;stroke-opacity:1"
       d="m 63.840563,151.96904 c 1.141019,-0.62238 3.25709,-1.93973 3.25709,-1.93973 1.6078,0.70535 2.136817,1.80487 2.448003,2.35465 0.446037,0.7987 0.632748,1.4107 0.726105,1.6804 -0.425289,1.20325 -0.414915,2.47911 -0.414915,2.69695 -1.92936,-1.88786 -2.831804,-2.58285 -3.391939,-3.01851 -0.560137,-0.43566 -1.587054,-1.07879 -2.624344,-1.77376 z"
       id="path4766" />
    <path
       style="fill:none;stroke:#000000;stroke-width:0.37258205;stroke-linecap:butt;stroke-linejoin:miter;stroke-miterlimit:4;stroke-dasharray:none;stroke-opacity:1"
       d="m 64.296971,166.53258 c 0.04282,-0.48201 0.06685,-0.83219 0.03163,-1.08528 -0.07195,-0.51699 -0.17556,-0.67784 -0.207968,-0.77146 -0.112795,-0.16319 -0.197391,-0.3608 -0.373565,-0.54839 -0.204586,-0.21781 -0.512777,-0.42752 -0.819318,-0.63931"
       id="path4768" />
    <path
       style="fill:none;stroke:#000000;stroke-width:0.37258205;stroke-linecap:butt;stroke-linejoin:miter;stroke-miterlimit:4;stroke-dasharray:none;stroke-opacity:1"
       d="m 67.39328,165.49529 c 0.01034,-0.7261 -0.03112,-0.98023 -0.108907,-1.29662 -0.0778,-0.31636 -0.171155,-0.54457 -0.285255,-0.74685 -0.05714,-0.10115 -0.222163,-0.33771 -0.390331,-0.55389 -0.167701,-0.21558 -0.379983,-0.41611 -0.470621,-0.5197"
       id="path4770" />
    <path
       style="fill:none;stroke:#000000;stroke-width:0.31048504;stroke-linecap:butt;stroke-linejoin:miter;stroke-miterlimit:4;stroke-dasharray:none;stroke-opacity:1"
       d="m 64.322903,165.58346 3.023699,-0.94393"
       id="path4772" />
    <path
       style="fill:none;stroke:#000000;stroke-width:0.31048504;stroke-linecap:butt;stroke-linejoin:miter;stroke-miterlimit:4;stroke-dasharray:none;stroke-opacity:1"
       d="m 64.001344,164.35945 3.018513,-0.7624"
       id="path4774" />
    <path
       style="fill:#000000;fill-opacity:1;stroke:#000000;stroke-width:0;stroke-linecap:round;stroke-linejoin:miter;stroke-miterlimit:4;stroke-dasharray:none;stroke-opacity:1"
       d="m 67.03023,162.21747 c 0,0 6.21e-4,-9e-5 -9.94e-4,0.009 -0.02526,0.0385 -0.193986,0.0833 -0.487529,0.159 -0.41726,0.0982 -0.552063,0.16829 -1.157293,0.3676 -0.379756,0.12614 -0.785882,0.26376 -1.200415,0.41973 -0.0031,0.001 -0.102633,0.0385 -0.105691,0.0397 -0.55035,0.20611 -0.965894,0.35739 -1.437187,0.55411 -0.545871,0.22848 -0.727063,0.28046 -1.034905,0.48107 v 0 c -0.06688,0.0593 -0.142933,0.10922 -0.187549,0.13821 v 0 c -0.04271,0.0282 -0.07988,0.0503 -0.106941,0.0642 -0.0396,0.0202 -0.06386,0.0233 -0.06958,0.0174 -0.01308,-0.0137 -0.0057,-0.0337 0.01604,-0.0734 0.01551,-0.0284 0.03827,-0.0621 0.06979,-0.10422 v 0 c 0.03958,-0.0523 0.09359,-0.11253 0.144829,-0.18319 v 0 c 0.247831,-0.24768 0.536501,-0.40402 1.025835,-0.64988 0.443487,-0.22276 0.916969,-0.41504 1.442199,-0.6115 0.03536,-0.0137 0.07071,-0.0265 0.106043,-0.0395 0.425147,-0.15765 0.846407,-0.28589 1.237214,-0.38937 0.530134,-0.14117 0.85718,-0.22727 1.228473,-0.24441 0.308133,-0.006 0.479215,-0.001 0.514709,0.035 0.0035,0.009 0.0028,0.009 0.0028,0.009 z"
       id="path4780" />
    <path
       style="fill:none;stroke:#000000;stroke-width:0.46572754;stroke-linecap:butt;stroke-linejoin:miter;stroke-miterlimit:4;stroke-dasharray:none;stroke-opacity:1"
       d="m 63.992768,182.0797 c 0.642334,-1.33335 0.947324,-3.29673 1.289629,-4.68669 0.342304,-1.38999 0.746848,-3.5579 0.860951,-4.27364 0.1141,-0.71573 0.363051,-2.15757 0.373425,-3.03926 0.01034,-0.88169 -0.08298,-1.48333 -0.145221,-1.9086 -0.06224,-0.4253 -0.238576,-1.7634 -0.39417,-2.11609"
       id="path6022" />
    <path
       style="fill:none;stroke:#000000;stroke-width:0.46572754;stroke-linecap:butt;stroke-linejoin:miter;stroke-miterlimit:4;stroke-dasharray:none;stroke-opacity:1"
       d="m 60.104334,188.10474 c 0.116386,-0.16472 0.23133,-0.32995 0.343821,-0.4938"
       id="path6020" />
    <path
       style="fill:none;stroke:#000000;stroke-width:0.46572754;stroke-linecap:butt;stroke-linejoin:miter;stroke-miterlimit:4;stroke-dasharray:none;stroke-opacity:1"
       d="m 68.466876,165.51603 c -0.207458,-2.65546 -0.278412,-3.38999 -0.165966,-4.46035 0.0889,-0.84627 0.161287,-1.15084 0.205297,-1.20951 0.04401,-0.0587 0.230567,-0.17049 0.311249,-0.13385 0.08067,0.0367 0.234711,0.14848 0.293391,0.26583 0.03105,0.062 0.829926,1.41664 1.54382,2.74563 0.635049,1.1822 0.973136,1.95142 1.3051,2.55829 0.195783,0.35791 1.481618,3.3153 1.723665,3.86541 0.242045,0.5501 0.968187,2.77253 1.217569,3.52802 0.24938,0.75547 1.14422,4.10745 1.246907,4.58421 0.102679,0.47676 0.623454,3.66737 0.704136,4.22481 0.08067,0.55744 0.308057,3.22729 0.337397,3.70405 0.02935,0.47675 0.198038,3.1246 0.220042,3.55736 0.02201,0.43274 0.249385,4.5182 0.256717,4.8996 0.0073,0.3814 0.205376,6.3519 0.212708,6.67462 0.0073,0.32274 0.190702,6.83598 0.212708,7.40811 -5.547452,0.20136 -12.964812,-2.05803 -15.952207,-2.88786 -2.987394,-0.82982 -6.70261,-2.0588 -9.584559,-3.10224 -2.99979,-1.08608 -5.378521,-1.90027 -5.378521,-1.90027 2.016383,-1.16805 3.991425,-2.82141 4.944944,-3.55489 0.953514,-0.73347 2.593561,-2.20483 3.365389,-2.921 1.073393,-0.996 2.549344,-2.62803 3.364537,-3.60453 0.0063,-0.007 0.01239,-0.0149 0.01868,-0.0224"
       id="path4876" />
    <path
       style="fill:#000000;fill-opacity:1;stroke:#000000;stroke-width:0;stroke-linecap:butt;stroke-linejoin:miter;stroke-miterlimit:4;stroke-dasharray:none;stroke-opacity:1"
       d="m 69.196713,170.3742 c -0.05145,-0.29125 -0.0976,-0.58314 -0.14533,-0.87517 0,0 0,0 0,0 -0.07689,-0.47075 -0.133875,-0.94396 -0.18697,-1.41851 0,0 0,0 0,0 -0.09701,-0.86785 -0.138133,-1.74101 -0.190722,-2.61898 l -0.44475,0.0468 c 0.130761,0.86608 0.252005,1.74055 0.428498,2.6049 0,0 0,0 0,0 0.09588,0.46901 0.196025,0.93822 0.315573,1.4023 0,0 0,0 0,0 0.0738,0.28625 0.146182,0.57328 0.223701,0.85869 z"
       id="path4504" />
    <path
       style="fill:#000000;fill-opacity:1;stroke:#000000;stroke-width:0;stroke-linecap:butt;stroke-linejoin:miter;stroke-miterlimit:4;stroke-dasharray:none;stroke-opacity:1"
       d="m 59.802423,157.88868 c -1.646696,2.00112 -2.926304,2.48594 -3.890194,3.0514 -0.953516,0.42542 -1.013085,0.4106 -1.233127,0.42526 -0.220042,0.0145 -0.358267,0.0124 -0.464589,-0.0737 -0.106316,-0.0855 -0.2221,-0.17178 -0.30645,-0.27446 -0.08435,-0.10275 -0.113056,-0.24535 -0.124056,-0.3627 -0.01103,-0.11732 0.04061,-0.55441 0.06262,-0.73044 0.022,-0.17603 0.09902,-0.39974 0.194371,-0.65646 0.09535,-0.25672 0.22371,-0.6088 0.322727,-0.79216 0.09902,-0.18336 0.29339,-0.46575 0.440087,-0.67479 0.146693,-0.20905 0.484092,-0.6638 0.64179,-0.86183 0.157696,-0.19803 0.425414,-0.48776 0.616119,-0.70781 0.190702,-0.22003 0.344733,-0.39607 0.524434,-0.58677 0.179701,-0.19071 0.429082,-0.42174 0.638123,-0.57577 0.209039,-0.15404 0.447419,-0.34108 0.645457,-0.4401 0.198039,-0.099 0.421747,-0.21611 0.612452,-0.27112 0.190703,-0.0549 0.385074,-0.10661 0.619785,-0.13591 0.234713,-0.0293 0.36307,-0.0476 0.465757,-0.0256 0.102679,0.0221 0.157351,0.0214 0.231043,0.0624 0.09902,0.0551 0.09536,0.0514 0.201707,0.13564 0.02821,0.0449 0.10918,0.0614 0.129165,0.12076 0.02415,0.0717 -0.0081,0.16897 -0.0081,0.16897 -0.01336,0.0684 -0.146694,0.55745 -0.146694,0.55745 -0.03301,0.16867 -0.07335,0.5134 -0.08436,0.71877 -0.01103,0.20537 -0.022,0.74081 -0.022,0.94251 0,0.20171 -0.0038,0.31173 -0.0038,0.50244 0,0.19071 -0.01467,0.28971 -0.01834,0.35573 z"
       id="path4540" />
    <path
       style="fill:#ffffff;fill-opacity:1;stroke:#000000;stroke-width:0.06209701;stroke-linecap:butt;stroke-linejoin:miter;stroke-miterlimit:4;stroke-dasharray:none;stroke-opacity:1"
       d="m 59.369843,156.85985 c -0.378611,0.26711 -0.420101,0.30082 -0.632747,0.48753 -0.212644,0.18672 -0.342304,0.29562 -0.477153,0.4564 -0.134852,0.1608 -0.331935,0.39936 -0.456407,0.58607 -0.124482,0.18672 -0.124482,0.18413 -0.23339,0.3838 -0.0778,0.19191 -0.103736,0.24895 -0.114101,0.36306 0.0052,0.12448 0.01034,0.12972 0.04148,0.15559 0.03112,0.0259 0.06743,0.0156 0.09336,0.0156 0.02593,0 0.01556,0.006 0.1141,-0.0156 0.09854,-0.0208 0.171154,-0.0571 0.264508,-0.11925 0.09336,-0.0623 0.171155,-0.14003 0.331935,-0.27489 0.149586,-0.12544 0.381224,-0.33432 0.497899,-0.44602 0.127154,-0.12173 0.313136,-0.33251 0.40973,-0.44085 0.0953,-0.10684 0.176339,-0.21784 0.176339,-0.21784 z"
       id="path4542" />
    <path
       style="fill:#000000;fill-opacity:1;stroke:#000000;stroke-width:0;stroke-linecap:butt;stroke-linejoin:miter;stroke-miterlimit:4;stroke-dasharray:none;stroke-opacity:1"
       d="m 59.846428,157.76031 c -1.161195,1.00297 -1.76801,1.96765 -1.923603,2.19585 -0.155594,0.22822 -0.689799,1.01136 -0.829834,1.21882 -0.140033,0.20746 -0.720917,1.17732 -0.829832,1.36922 -0.108907,0.1919 -0.269695,0.58607 -0.347492,0.79353 -0.0778,0.20745 -0.108907,0.30601 -0.124469,0.50309 -0.01556,0.19707 -0.03112,0.31637 0.05186,0.44083 0.08298,0.12448 0.1141,0.14004 0.233392,0.20229 0.119291,0.0623 0.228202,0.13481 0.404543,0.15559 0.176339,0.0208 0.378611,0.0114 0.663865,-0.0415 0.285254,-0.052 0.762408,-0.20227 0.990611,-0.32674 0.228203,-0.12449 0.342305,-0.17635 0.68461,-0.39937 0.342306,-0.22301 1.488513,-1.00616 1.87231,-1.32773 0.383797,-0.32155 1.286199,-1.03232 1.576681,-1.33809 0.591758,-0.62295 0.925726,-1.04599 1.068408,-1.23957 0.149555,-0.2029 0.549762,-0.85576 0.648306,-1.05803 0.09854,-0.20228 0.256393,-0.57745 0.316375,-0.83502 0.116399,-0.49985 0.05705,-0.98543 0.05186,-1.13583 0,0 -0.96382,0.22166 -1.448468,0.31951 -0.521209,0.10525 -1.044289,0.20175 -1.569014,0.28775 -0.495256,0.0812 -1.490109,0.21539 -1.490109,0.21539 z"
       id="path4544" />
    <path
       style="fill:#ffffff;fill-opacity:1;stroke:#000000;stroke-width:0.06209701;stroke-linecap:butt;stroke-linejoin:miter;stroke-miterlimit:4;stroke-dasharray:none;stroke-opacity:1"
       d="m 62.813337,158.50479 c -0.458316,0.53057 -0.850832,1.09287 -0.990192,1.29825 -0.13936,0.20537 -0.311726,0.47125 -0.370404,0.61795 -0.05867,0.1467 -0.110669,0.20918 -0.113687,0.31174 -0.0022,0.0736 -0.0073,0.12021 0.04401,0.17053 0.04505,0.0442 0.117349,0.0439 0.183367,0.0293 0.066,-0.0146 0.19804,-0.0587 0.286056,-0.11732 0.08802,-0.0587 0.167462,-0.10877 0.300726,-0.23473 0.13386,-0.12654 0.22004,-0.19803 0.366735,-0.35938 0.146696,-0.16138 0.240215,-0.26774 0.379573,-0.45843 0.139361,-0.19072 0.289725,-0.39424 0.370405,-0.53361 0.08069,-0.13935 0.209043,-0.35206 0.276887,-0.50426 0.06711,-0.15055 0.111499,-0.25692 0.117363,-0.34473 0.0055,-0.0825 0.02324,-0.1333 -0.0092,-0.20355 -0.02855,-0.0619 -0.03807,-0.10286 -0.122858,-0.12655 -0.07884,-0.022 -0.166866,-0.0124 -0.247548,0.0311 -0.08067,0.0441 -0.167943,0.11801 -0.254883,0.19986 -0.08924,0.0841 -0.114349,0.10559 -0.216364,0.22376 z"
       id="path4546" />
    <path
       style="fill:#000000;fill-opacity:1;stroke:#000000;stroke-width:0;stroke-linecap:butt;stroke-linejoin:miter;stroke-miterlimit:4;stroke-dasharray:none;stroke-opacity:1"
       d="m 66.334833,157.91341 c -0.01764,0.18701 -0.04009,0.36831 -0.08302,0.54977 -0.03665,0.15283 -0.08246,0.29788 -0.129356,0.43115 -0.08006,0.22756 -0.185621,0.42942 -0.28251,0.59318 -0.300304,0.508 -0.631995,0.68277 -0.645705,0.67093 -0.03991,-0.0344 0.203308,-0.31531 0.412297,-0.79166 0.07351,-0.16553 0.157146,-0.36413 0.215387,-0.5686 0.03737,-0.13013 0.07456,-0.26842 0.103315,-0.40803 0.03338,-0.15978 0.05041,-0.32535 0.0681,-0.50921 0.113825,0.0114 0.22766,0.0216 0.34149,0.0325 z"
       id="path4548" />
    <path
       style="fill:#000000;fill-opacity:1;stroke:#000000;stroke-width:0;stroke-linecap:butt;stroke-linejoin:miter;stroke-miterlimit:4;stroke-dasharray:none;stroke-opacity:1"
       d="m 67.349324,158.59025 c -0.01666,0.0542 -0.02356,0.12572 -0.0479,0.20354 -0.05017,0.15606 -0.110532,0.29151 -0.179826,0.40827 -0.175552,0.29223 -0.385343,0.37158 -0.392187,0.36512 -0.0259,-0.0243 0.128642,-0.18354 0.240538,-0.44398 0.05077,-0.11429 0.09528,-0.23944 0.138095,-0.38837 0.01509,-0.0514 0.02013,-0.12077 0.04393,-0.20303 0.06577,0.0196 0.13156,0.039 0.197346,0.0584 z"
       id="path4576" />
    <path
       style="fill:#000000;fill-opacity:1;stroke:#000000;stroke-width:0;stroke-linecap:butt;stroke-linejoin:miter;stroke-miterlimit:4;stroke-dasharray:none;stroke-opacity:1"
       d="m 59.846428,157.76031 c 0,0 -6.9e-5,6e-5 1.72e-4,-4.8e-4 0,0 0,0 0,0 0,0 0,0 0,0 0,0 0,0 0,0 0,0 0,0 0,0 0,0 0,0 0,0 0,0 0,0 0,0 0,0 0,0 0,0 0.0011,-0.002 0.0047,-0.0164 -0.0063,-0.05 v 0 c 0,0 0,0 0,0 v 0 c 0.0045,-0.0217 0.01442,-0.0497 0.02927,-0.0832 v 0 c 0.02725,-0.0616 0.07141,-0.14185 0.130293,-0.23657 v 0 c 0.08412,-0.13551 0.211427,-0.32333 0.36435,-0.50977 0.124965,-0.15319 0.309389,-0.39832 0.490307,-0.58767 0.0031,-0.002 0.0059,-0.007 0.0089,-0.009 0.674567,-0.6984 0.77089,-0.59062 0.829959,-0.52662 0.07488,0.0812 0.08951,0.0919 -0.570504,0.7768 -0.0026,0.002 -0.0053,0.006 -0.008,0.008 -0.178691,0.18617 -0.34149,0.38771 -0.509371,0.55652 -0.166249,0.16612 -0.310744,0.31887 -0.431425,0.43346 v 0 c -0.08044,0.0763 -0.148848,0.13619 -0.202855,0.17612 v 0 c -0.02927,0.0216 -0.05421,0.0374 -0.07435,0.0467 v 0 c 0,0 0,0 0,0 v 0 c -0.03516,-0.002 -0.04774,0.005 -0.05004,0.006 0,0 0,0 0,0 0,0 0,0 0,0 0,0 0,0 0,0 0,0 0,0 0,0 0,0 0,0 0,0 0,0 0,0 0,0 0,0 0,0 0,0 -4.79e-4,3.7e-4 -4.4e-4,2.9e-4 -4.4e-4,2.9e-4 z"
       id="path4608" />
    <path
       style="fill:#000000;fill-opacity:1;stroke:#000000;stroke-width:0.06209701;stroke-linecap:butt;stroke-linejoin:miter;stroke-miterlimit:4;stroke-dasharray:none;stroke-opacity:1"
       d="m 70.82282,189.32227 c 0.03308,-1.20902 0.02122,-2.44596 -0.03542,-3.72055 -0.04758,-1.0706 -0.124,-2.10395 -0.217095,-3.0869 0,0 0,0 0,-2e-5 -0.469661,-4.96831 -1.385635,-8.58963 -1.25286,-8.61746 -0.04216,0.008 1.268365,3.51069 1.817515,8.56005 0,0 0,0 0,0 0.107646,0.99101 0.192151,2.03521 0.240228,3.11822 0.05715,1.28718 0.05891,2.54339 0.0052,3.76522 -0.09121,-0.002 -0.182433,-0.007 -0.273651,-0.008 -0.09464,-0.002 -0.189299,-0.007 -0.283949,-0.009 z"
       id="path4629" />
    <path
       style="fill:#000000;fill-opacity:1;stroke:#000000;stroke-width:0.06209701;stroke-linecap:butt;stroke-linejoin:miter;stroke-miterlimit:4;stroke-dasharray:none;stroke-opacity:1"
       d="m 74.131726,197.00198 c 0.161015,-0.69953 0.389003,-1.38265 0.569607,-2.07389 0.251949,-0.96431 0.454268,-1.95375 0.594311,-2.96151 0,0 0,0 0,0 0.05735,-0.41167 0.103815,-0.82548 0.140945,-1.24135 0.151819,-1.70009 0.144551,-3.41063 0.103122,-5.00125 -0.067,-2.57279 -0.468491,-5.39252 -0.725405,-7.39516 -0.609067,-4.75307 -1.787157,-7.68798 -1.721115,-7.70932 -0.100872,0.0325 1.3579,2.8339 2.059139,7.66311 0.291993,2.01141 0.721606,4.80577 0.805263,7.42926 0.05102,1.59844 0.06253,3.32365 -0.0918,5.0517 -0.03773,0.42241 -0.08515,0.84331 -0.143853,1.26256 0,0 0,0 0,0 -0.143964,1.0257 -0.352586,2.03125 -0.613007,3.00947 -0.18855,0.70833 -0.418968,1.38461 -0.578255,2.05715 -0.06529,-0.0148 -0.130555,-0.0296 -0.195843,-0.0443 -0.0677,-0.0155 -0.135402,-0.031 -0.2031,-0.0464 z"
       id="path4655" />
    <path
       style="fill:#000000;fill-opacity:1;stroke:#000000;stroke-width:0.06209701;stroke-linecap:butt;stroke-linejoin:miter;stroke-miterlimit:4;stroke-dasharray:none;stroke-opacity:1"
       d="m 71.044189,189.43566 c 0,0 -1.23e-4,-1e-5 -4.08e-4,-0.006 0,0 0,0 0,0 0.0057,-0.0431 0.173929,-0.10923 0.458454,-0.18 0.145354,-0.0366 0.36369,-0.0972 0.58323,-0.10116 0.05558,-6.1e-4 0.111658,-3.5e-4 0.168058,10e-4 0.175357,0.007 0.343932,0.0272 0.503086,0.0649 0,0 0,0 0,0 0.492556,0.12475 0.625625,0.43302 0.622986,0.4369 -0.03014,0.0442 -0.297439,-0.147 -0.670218,-0.1874 0,0 0,0 0,0 -0.148639,-0.0206 -0.299731,-0.0317 -0.465578,-0.0373 -0.0528,-0.001 -0.105566,-0.002 -0.158334,-0.005 -0.182756,-0.005 -0.37797,0.034 -0.549156,0.0449 -0.291405,0.0208 -0.471946,0.009 -0.491006,-0.0291 0,0 0,0 0,0 -0.0013,-0.005 -0.0011,-0.005 -0.0011,-0.005 z"
       id="path4689" />
    <path
       style="fill:#000000;fill-opacity:1;stroke:#000000;stroke-width:0.06209701;stroke-linecap:butt;stroke-linejoin:miter;stroke-miterlimit:4;stroke-dasharray:none;stroke-opacity:1"
       d="m 70.994632,189.53834 c 0.01335,-0.0124 0.365313,0.15811 0.758548,0.55636 0,0 0,0 0,0 0.08647,0.0887 0.163655,0.1857 0.234755,0.28828 0.09144,0.13192 0.170591,0.27002 0.240178,0.3955 0,0 0,0 0,0 0.264267,0.4715 0.226638,0.82284 0.180749,0.83036 -0.05504,0.009 -0.146575,-0.31801 -0.401585,-0.69477 0,0 0,0 0,0 -0.08169,-0.12076 -0.16314,-0.25091 -0.247457,-0.37365 -0.06562,-0.0956 -0.1309,-0.18335 -0.201938,-0.26437 0,0 0,0 0,0 -0.330301,-0.38067 -0.607775,-0.69799 -0.56325,-0.73771 z"
       id="path4710" />
    <path
       style="fill:none;stroke:#000000;stroke-width:0.37258205;stroke-linecap:butt;stroke-linejoin:miter;stroke-miterlimit:4;stroke-dasharray:none;stroke-opacity:1"
       d="m 71.128661,189.45285 c -0.198732,0.0994 -0.719918,-0.0885 -1.03525,-0.25189 -0.57003,-0.29537 -1.16466,-1.01677 -1.4512,-1.26631 -0.286543,-0.2496 -1.377255,-1.47896 -1.580607,-1.73776 -0.203353,-0.25882 -1.146171,-1.38649 -1.460444,-1.80245 -0.31427,-0.41595 -0.106293,-0.15479 -0.448299,-0.58922 -0.01848,0.0832 -0.226464,1.48586 -0.263435,1.7724 -0.03697,0.28655 -0.212597,0.74871 -0.388219,1.11845 -0.175623,0.36973 -0.665517,0.95206 -0.942817,1.2386 -0.277298,0.28654 -0.94282,0.65627 -1.469688,0.83189 -0.526868,0.17562 -0.924331,0.21261 -1.155413,0.26806 -0.231083,0.0555 -0.268057,0.0924 -0.323516,0.17562 -0.05546,0.0832 -0.04621,0.12944 -0.03697,0.16638 0.0092,0.0369 0.07395,0.0832 0.240326,0.26806 0.166381,0.18486 0.868869,0.54535 1.47893,0.95206 0.610056,0.4067 1.146168,0.85038 1.710013,1.33104 0.563839,0.48065 1.266333,1.09071 1.746985,1.46044 0.480652,0.36973 1.9557,1.3317 2.54191,1.65454 0.637791,0.35125 2.551155,1.26635 3.161212,1.50667 0.61006,0.24033 1.765469,0.61007 2.199908,0.684 0.434433,0.074 0.614679,0.0184 0.663209,-0.16988"
       id="path4719" />
    <path
       style="fill:none;stroke:#000000;stroke-width:0.37258205;stroke-linecap:butt;stroke-linejoin:miter;stroke-miterlimit:4;stroke-dasharray:none;stroke-opacity:1"
       d="m 61.700483,188.82199 c -1.377253,-1.63607 -2.135204,-2.14445 -2.135204,-2.14445"
       id="path4723" />
    <path
       style="fill:none;stroke:#000000;stroke-width:0.37258205;stroke-linecap:butt;stroke-linejoin:miter;stroke-miterlimit:4;stroke-dasharray:none;stroke-opacity:1"
       d="m 63.271849,182.28696 c 0.332759,-0.24033 0.08757,-0.0227 0.286542,-0.12944 0.206108,-0.11047 0.264185,-0.0943 0.383598,-0.0555 0.07883,0.0256 0.185049,0.0969 0.212595,0.14327 0.103895,0.17472 0.127209,0.26507 0.07357,0.48377 v -2e-5 c -0.05543,0.22601 -0.09499,0.53292 -0.359791,0.9884 -0.06454,0.11105 -0.353007,0.68175 -0.680177,1.13526 -0.0921,0.12765 -0.513946,0.64135 -0.646567,0.7503 -0.299833,0.24628 -0.508381,0.39045 -0.776438,0.51986 -0.268055,0.12945 -0.767195,0.36973 -1.035252,0.43442 -0.268057,0.0647 -0.67298,0.12353 -0.876335,0.15127 -0.203352,0.0276 -0.112692,0.0799 -0.288323,-0.0311 -0.171885,-0.12587 -0.0077,-0.41301 0.04621,-0.5546"
       id="path4725" />
    <path
       style="fill:none;stroke:#000000;stroke-width:0.37258205;stroke-linecap:butt;stroke-linejoin:miter;stroke-miterlimit:4;stroke-dasharray:none;stroke-opacity:1"
       d="m 65.152859,183.80522 c -0.92433,-1.30104 -0.989032,-1.5506 -0.989032,-1.5506"
       id="path4727" />
    <path
       style="opacity:1;fill:none;fill-opacity:1;stroke:#000000;stroke-width:0.62097013;stroke-miterlimit:4;stroke-dasharray:none;stroke-dashoffset:0;stroke-opacity:1"
       d="m 60.098428,187.1256 v 2.60598 H 21.300685 v -12.86285 0 h 38.797743 v 3.83248"
       id="path6013" />
    <path
       style="fill:none;stroke:#000000;stroke-width:0.37258205;stroke-linecap:butt;stroke-linejoin:miter;stroke-miterlimit:4;stroke-dasharray:none;stroke-opacity:1"
       d="m 64.111536,183.30015 c -1.516354,-2.36603 -3.986964,-3.62095 -3.986964,-3.62095"
       id="path5966" />
    <path
       style="fill:none;stroke:#000000;stroke-width:0.37258205;stroke-linecap:butt;stroke-linejoin:miter;stroke-miterlimit:4;stroke-dasharray:none;stroke-opacity:1"
       d="m 60.310807,180.06366 c 0.327454,0.3893 0.94338,0.84156 0.808828,0.91268 -0.424395,0.22438 -1.88371,-0.80427 -2.171545,-1.02263 -0.379088,-0.28757 -0.986937,-0.67322 -1.281056,-0.66667 -0.294847,0.007 -0.465707,-0.03 -0.70589,0.3268 -0.201463,0.29926 -0.143794,0.57517 -0.01308,0.73203 0.130721,0.15687 2.091523,1.90852 2.091523,1.90852 0,0 -1.908515,-1.32027 -2.366036,-1.45099 -0.45752,-0.13068 -0.795179,-0.11801 -0.928113,0 -0.185388,0.16465 -0.199737,0.46332 -0.169935,0.57517 0.04883,0.18329 0.156864,0.32679 0.287584,0.45752 0.130721,0.13067 2.104595,1.67321 2.104595,1.67321 0,0 -1.921231,-1.11488 -2.183028,-1.22877 -0.265268,-0.11539 -0.640526,-0.24836 -0.797391,-0.0785 -0.156863,0.16993 -0.160174,0.29497 -0.09151,0.56209 0.122569,0.47677 1.110847,1.29747 1.776364,1.76888 0.665519,0.47141 3.743542,2.07975 3.743542,2.07975"
       id="path6006" />
    <text
       xml:space="preserve"
       style="font-style:normal;font-weight:normal;font-size:6.80094719px;line-height:9.10841179px;font-family:sans-serif;letter-spacing:0px;word-spacing:0px;fill:#000000;fill-opacity:1;stroke:none;stroke-width:0.36433646"
       x="23.688175"
       y="186.55997"
       id="text6988"><tspan
         id="tspan6986"
         x="23.688175"
         y="186.55997"
         style="font-size:8.74407578px;stroke-width:0.36433646">Worker</tspan></text>
  </g>
  <rect
     ry="6.8850989"
     y="149.43506"
     x="158.84901"
     height="55.080791"
     width="55.080791"
     id="rect7147"
     style="opacity:1;fill:none;fill-opacity:1;stroke:#000000;stroke-width:2.75431514;stroke-miterlimit:4;stroke-dasharray:none;stroke-dashoffset:0;stroke-opacity:1" />
  <text
     id="text7151"
     y="166.35365"
     x="162.94948"
     style="font-style:normal;font-weight:normal;font-size:6.80094719px;line-height:9.10841179px;font-family:sans-serif;letter-spacing:0px;word-spacing:0px;fill:#000000;fill-opacity:1;stroke:none;stroke-width:0.36433646"
     xml:space="preserve"><tspan
       style="font-size:8.74407578px;stroke-width:0.36433646"
       y="166.35365"
       x="162.94948"
       id="tspan7149">Data Node</tspan></text>
  <rect
     style="opacity:1;fill:none;fill-opacity:1;stroke:#000000;stroke-width:2.75431514;stroke-miterlimit:4;stroke-dasharray:none;stroke-dashoffset:0;stroke-opacity:1"
     id="rect7170"
     width="55.080791"
     height="55.080791"
     x="96.183105"
     y="9.2518435"
     ry="6.8850989" />
  <text
     xml:space="preserve"
     style="font-style:normal;font-weight:normal;font-size:6.80094719px;line-height:9.10841179px;font-family:sans-serif;letter-spacing:0px;word-spacing:0px;fill:#000000;fill-opacity:1;stroke:none;stroke-width:0.36433646"
     x="97.824295"
     y="26.170448"
     id="text7174"><tspan
       id="tspan7172"
       x="97.824295"
       y="26.170448"
       style="font-size:8.74407578px;stroke-width:0.36433646">Name Node</tspan></text>
  <rect
     style="opacity:1;fill:none;fill-opacity:1;stroke:#000000;stroke-width:2.75431514;stroke-miterlimit:4;stroke-dasharray:5.50863009, 2.75431505;stroke-dashoffset:0;stroke-opacity:1"
     id="rect7178"
     width="55.080791"
     height="55.080791"
     x="96.183098"
     y="149.43506"
     ry="6.8850989" />
  <text
     xml:space="preserve"
     style="font-style:normal;font-weight:normal;font-size:6.80094719px;line-height:9.10841179px;font-family:sans-serif;letter-spacing:0px;word-spacing:0px;fill:#000000;fill-opacity:1;stroke:none;stroke-width:0.36433646"
     x="104.0173"
     y="166.35367"
     id="text7182"><tspan
       id="tspan7180"
       x="104.0173"
       y="166.35367"
       style="font-size:8.74407578px;stroke-width:0.36433646">Executor</tspan></text>
  <rect
     ry="6.8850989"
     y="9.2518492"
     x="158.849"
     height="55.080791"
     width="55.080791"
     id="rect7186"
     style="opacity:1;fill:none;fill-opacity:1;stroke:#000000;stroke-width:2.75431514;stroke-miterlimit:4;stroke-dasharray:none;stroke-dashoffset:0;stroke-opacity:1" />
  <text
     id="text7190"
     y="26.170454"
     x="162.94948"
     style="font-style:normal;font-weight:normal;font-size:6.80094719px;line-height:9.10841179px;font-family:sans-serif;letter-spacing:0px;word-spacing:0px;fill:#000000;fill-opacity:1;stroke:none;stroke-width:0.36433646"
     xml:space="preserve"><tspan
       style="font-size:8.74407578px;stroke-width:0.36433646"
       y="26.170454"
       x="162.94948"
       id="tspan7188">Data Node</tspan></text>
  <path
     style="fill:none;stroke:#000000;stroke-width:0.72867292;stroke-linecap:butt;stroke-linejoin:miter;stroke-miterlimit:4;stroke-dasharray:1.45734592, 0.72867295;stroke-dashoffset:0;stroke-opacity:1"
     d="m 69.665738,71.921933 c 18.56479,43.254017 22.93756,58.359947 12.557452,69.414927"
     id="path4755" />
  <path
     style="fill:#000000;fill-opacity:1;stroke:#000000;stroke-width:1.37107754;stroke-miterlimit:4;stroke-dasharray:none;stroke-dashoffset:0;stroke-opacity:1"
     d="m 84.75918,142.59292 -8.102712,2.93078 4.742671,-7.10308 c 0,0 0.664499,1.87056 1.285266,2.61923 0.551308,0.66504 2.074665,1.55293 2.074665,1.55293 z"
     id="path1106" />
  <path
     style="fill:none;stroke:#000000;stroke-width:0.72867292;stroke-linecap:butt;stroke-linejoin:miter;stroke-miterlimit:4;stroke-dasharray:1.45734592, 0.72867295;stroke-dashoffset:0;stroke-opacity:1"
     d="m 76.056992,172.75849 c 11.097293,-3.51865 9.270294,-2.03 9.270294,-2.03"
     id="path5358" />
  <path
     id="path5360"
     d="m 83.023479,167.84471 8.564795,0.9421 -7.388773,4.28403 c 0,0 0.228351,-1.97191 0.0011,-2.91758 -0.201607,-0.83998 -1.177397,-2.30858 -1.177397,-2.30858 z"
     style="fill:#000000;fill-opacity:1;stroke:#000000;stroke-width:1.37107754;stroke-miterlimit:4;stroke-dasharray:none;stroke-dashoffset:0;stroke-opacity:1" />
  <rect
     ry="6.8850989"
     y="72.20713"
     x="96.183098"
     height="55.080791"
     width="55.080791"
     id="rect4938"
     style="opacity:1;fill:none;fill-opacity:1;stroke:#000000;stroke-width:2.75431514;stroke-miterlimit:4;stroke-dasharray:5.50863009, 2.75431505;stroke-dashoffset:0;stroke-opacity:1" />
  <text
     id="text4942"
     y="89.12574"
     x="109.84099"
     style="font-style:normal;font-weight:normal;font-size:6.80094719px;line-height:9.10841179px;font-family:sans-serif;letter-spacing:0px;word-spacing:0px;fill:#000000;fill-opacity:1;stroke:none;stroke-width:0.36433646"
     xml:space="preserve"><tspan
       style="font-size:8.74407578px;stroke-width:0.36433646"
       y="89.12574"
       x="109.84099"
       id="tspan4940">Driver</tspan></text>
  <path
     id="path4954"
     d="m 76.938525,70.964988 c 4.073829,19.23604 8.899609,21.292072 8.899609,21.292072"
     style="fill:none;stroke:#000000;stroke-width:0.68850988;stroke-linecap:butt;stroke-linejoin:miter;stroke-miterlimit:4;stroke-dasharray:1.37701976, 0.68850989;stroke-dashoffset:0;stroke-opacity:1" />
  <path
     id="path4965"
     d="m 87.630115,89.795291 4.794343,7.159445 -8.0355,-2.894409 c 0,0 1.655727,-1.095074 2.23302,-1.877748 0.512837,-0.695122 1.008103,-2.387368 1.008103,-2.387368 z"
     style="fill:#000000;fill-opacity:1;stroke:#000000;stroke-width:1.37107754;stroke-miterlimit:4;stroke-dasharray:none;stroke-dashoffset:0;stroke-opacity:1" />
  <path
     id="path4967"
     d="m 122.18109,127.92299 0.12132,12.7666"
     style="fill:none;stroke:#000000;stroke-width:0.68865043;stroke-linecap:butt;stroke-linejoin:miter;stroke-miterlimit:4;stroke-dasharray:1.37730083, 0.68865042;stroke-dashoffset:0;stroke-opacity:1" />
  <path
     id="path4969"
     d="m 124.81003,137.59737 -2.71562,8.17732 -2.64093,-8.12232 c 0,0 1.88031,0.63643 2.85256,0.61253 0.86358,-0.0208 2.50403,-0.6676 2.50403,-0.6676 z"
     style="fill:#000000;fill-opacity:1;stroke:#000000;stroke-width:1.37107754;stroke-miterlimit:4;stroke-dasharray:none;stroke-dashoffset:0;stroke-opacity:1" />
  <g
     transform="matrix(0.26832876,0,0,0.26832876,48.108561,69.813028)"
     id="g4737">
    <path
       id="ellipse4489"
       d="m 76.717454,107.55289 c -3e-5,2.67509 -26.02307,4.84367 -58.1241,4.84367 -32.101032,0 -58.124069,-2.16858 -58.124103,-4.84367"
       style="opacity:1;fill:none;fill-opacity:1;stroke:#000000;stroke-width:2;stroke-linecap:round;stroke-miterlimit:4;stroke-dasharray:none;stroke-dashoffset:29.23999977;stroke-opacity:1" />
    <ellipse
       ry="4.8436751"
       rx="58.124104"
       cy="92.502365"
       cx="18.593355"
       style="opacity:1;fill:none;fill-opacity:1;stroke:#000000;stroke-width:2;stroke-linecap:round;stroke-miterlimit:4;stroke-dasharray:none;stroke-dashoffset:29.23999977;stroke-opacity:1"
       id="ellipse4493" />
    <path
       id="path4530"
       d="m -39.540139,105.48863 v 2.06135"
       style="fill:none;stroke:#000000;stroke-width:2;stroke-linecap:butt;stroke-linejoin:miter;stroke-miterlimit:4;stroke-dasharray:none;stroke-opacity:1" />
    <path
       id="path4495"
       d="M -39.540139,92.514921 V 103.12654"
       style="fill:none;stroke:#000000;stroke-width:2;stroke-linecap:butt;stroke-linejoin:miter;stroke-miterlimit:4;stroke-dasharray:none;stroke-opacity:1" />
    <path
       id="path4523"
       d="m -39.540131,103.12686 a 1.1809973,1.1809973 0 0 1 0.0021,0 1.1809973,1.1809973 0 0 1 1.180998,1.18099 v 0 a 1.1809973,1.1809973 0 0 1 -1.180998,1.181 1.1809973,1.1809973 0 0 1 -0.0021,0"
       style="opacity:1;fill:none;fill-opacity:1;stroke:#000000;stroke-width:2;stroke-linecap:round;stroke-miterlimit:4;stroke-dasharray:none;stroke-dashoffset:29.25354385;stroke-opacity:1" />
    <path
       id="path4532"
       d="m 76.690904,101.71854 a 1.2071614,1.2071614 0 0 1 -1.20561,-1.20716 1.2071614,1.2071614 0 0 1 1.20561,-1.207157"
       style="opacity:1;fill:none;fill-opacity:1;stroke:#000000;stroke-width:2;stroke-linecap:round;stroke-miterlimit:4;stroke-dasharray:none;stroke-dashoffset:29.25354385;stroke-opacity:1" />
    <path
       id="path4549"
       d="m 76.690714,101.71843 v 5.78725"
       style="fill:none;stroke:#000000;stroke-width:2;stroke-linecap:butt;stroke-linejoin:miter;stroke-miterlimit:4;stroke-dasharray:none;stroke-opacity:1" />
    <path
       id="path4534"
       d="m 76.690714,92.457498 -1e-5,6.846612"
       style="fill:none;stroke:#000000;stroke-width:2;stroke-linecap:butt;stroke-linejoin:miter;stroke-miterlimit:4;stroke-dasharray:none;stroke-opacity:1" />
    <path
       style="opacity:1;fill:#ffffff;fill-opacity:1;stroke:#000000;stroke-width:1;stroke-linecap:round;stroke-miterlimit:4;stroke-dasharray:none;stroke-dashoffset:29.23999977;stroke-opacity:1"
       d="m 76.708064,101.55977 c 0,0 -26.02307,4.7969 -58.1241,4.7969 -32.101032,0 -58.124103,-0.86804 -58.124103,-0.86804"
       id="path4555" />
    <path
       style="opacity:1;fill:none;fill-opacity:1;stroke:#000000;stroke-width:1;stroke-linecap:round;stroke-miterlimit:4;stroke-dasharray:none;stroke-dashoffset:29.23999977;stroke-opacity:1"
       d="m 76.690704,99.30411 c 0,0 -25.99632,4.74446 -58.09735,4.74446 -32.101032,0 -58.133485,-0.92171 -58.133485,-0.92171"
       id="path4557" />
    <path
       id="ellipse4559"
       d="m 58.741724,92.651299 a 41.281776,3.0419996 0 0 1 -41.28178,3.041999 41.281776,3.0419996 0 0 1 -41.281774,-3.041999 41.281776,3.0419996 0 0 1 41.281774,-3.042 41.281776,3.0419996 0 0 1 41.28178,3.042 z"
       style="opacity:1;fill:none;fill-opacity:1;stroke:#000000;stroke-width:1;stroke-linecap:round;stroke-miterlimit:4;stroke-dasharray:none;stroke-dashoffset:29.23999977;stroke-opacity:1" />
    <path
       id="path4568"
       d="m -12.092046,94.775108 a 29.552296,1.5686179 0 0 1 -2.64e-4,-0.0071 29.552296,1.5686179 0 0 1 29.552294,-1.568618 29.552296,1.5686179 0 0 1 29.5523,1.568618 v 0 a 29.552296,1.5686179 0 0 1 -6e-5,0.0032"
       style="opacity:1;fill:none;fill-opacity:1;stroke:#000000;stroke-width:1;stroke-linecap:round;stroke-miterlimit:4;stroke-dasharray:none;stroke-dashoffset:29.23999977;stroke-opacity:1" />
    <path
       id="path4572"
       d="m -37.420788,108.88856 c 0,2.06602 -1.075176,2.23466 -1.454647,2.27684 -0.379476,0.0422 -0.865221,0.21363 -1.112223,0.68079 -0.08395,0.15879 -0.0778,0.53549 0.036,0.70699 0.249312,0.37572 0.301998,0.36467 0.566214,0.53322 0.305686,0.19501 0.860344,0.26148 1.142475,0.40854 0.889122,0.46346 1.270704,1.15001 0.746598,1.91116 -0.654967,0.95119 -1.287659,0.69426 -3.850724,2.1593 -0.698358,0.39918 -1.764208,1.24927 -2.44992,2.11588 -0.697048,0.88094 -1.112971,1.37574 -1.719029,2.63903 -0.461736,0.96246 -0.769833,3.39792 -0.769833,3.39792 v 72.70852 c 0,2.74291 0.187131,4.95769 1.624471,6.55913 1.702305,1.89666 3.459036,2.2035 4.65102,3.81623 0.996024,1.3476 1.628385,2.9852 1.908111,4.65102 0.130483,0.77705 0.763807,2.28758 1.177589,2.86216"
       style="fill:none;stroke:#000000;stroke-width:2;stroke-linecap:butt;stroke-linejoin:miter;stroke-miterlimit:4;stroke-dasharray:none;stroke-opacity:1" />
    <path
       style="fill:none;stroke:#000000;stroke-width:2;stroke-linecap:butt;stroke-linejoin:miter;stroke-miterlimit:4;stroke-dasharray:none;stroke-opacity:1"
       d="m 73.989914,108.88856 c 0,2.06602 1.07518,2.23466 1.45465,2.27684 0.37948,0.0422 0.86523,0.21363 1.11224,0.68079 0.084,0.15879 0.0778,0.53549 -0.036,0.70699 -0.24932,0.37572 -0.302,0.36467 -0.56622,0.53322 -0.30569,0.19501 -0.86035,0.26148 -1.14248,0.40854 -0.88913,0.46346 -1.27071,1.15001 -0.7466,1.91116 0.65497,0.95119 1.28766,0.69426 3.85074,2.1593 0.69836,0.39918 1.76422,1.24927 2.44993,2.11588 0.69706,0.88094 1.11298,1.37574 1.71904,2.63903 0.46174,0.96246 0.76984,3.39792 0.76984,3.39792 v 72.70852 c 0,2.74291 -0.18713,4.95769 -1.62448,6.55913 -1.70232,1.89666 -3.45906,2.2035 -4.65105,3.81623 -0.99602,1.3476 -1.52097,3.02256 -1.90812,4.65102 -0.18642,0.78415 -0.7638,2.28758 -1.17758,2.86216"
       id="path4602" />
    <path
       id="path4617"
       d="m 73.612214,216.1514 c -6.30925,3.84954 -28.0254,6.70036 -55.15389,6.70036 -27.727795,0 -49.848739,-2.97817 -55.547798,-6.95692"
       style="opacity:1;fill:none;fill-opacity:1;stroke:#000000;stroke-width:3;stroke-linecap:round;stroke-miterlimit:4;stroke-dasharray:none;stroke-dashoffset:29.23999977;stroke-opacity:1" />
    <path
       id="path4629-1"
       d="m 74.465454,115.77183 c -6.97403,2.02344 -29.34833,3.50394 -55.8721,3.50394 -27.181291,0 -50.004828,-1.55481 -56.362196,-3.65541"
       style="opacity:1;fill:none;fill-opacity:1;stroke:#000000;stroke-width:1;stroke-linecap:round;stroke-miterlimit:4;stroke-dasharray:none;stroke-dashoffset:29.23999977;stroke-opacity:1" />
    <text
       id="text4633"
       y="174.88148"
       x="-20.247211"
       style="font-style:normal;font-variant:normal;font-weight:normal;font-stretch:normal;font-size:4.93888903px;line-height:6.61458302px;font-family:'Ubuntu Mono';-inkscape-font-specification:'Ubuntu Mono, Normal';font-variant-ligatures:normal;font-variant-caps:normal;font-variant-numeric:normal;font-feature-settings:normal;text-align:start;letter-spacing:0px;word-spacing:0px;writing-mode:lr-tb;text-anchor:start;fill:#000000;fill-opacity:1;stroke:none;stroke-width:0.26458332"
       xml:space="preserve"><tspan
         style="font-style:normal;font-variant:normal;font-weight:normal;font-stretch:normal;font-size:50.79999924px;font-family:'Ubuntu Mono';-inkscape-font-specification:'Ubuntu Mono, Normal';font-variant-ligatures:normal;font-variant-caps:normal;font-variant-numeric:normal;font-feature-settings:normal;text-align:start;writing-mode:lr-tb;text-anchor:start;stroke-width:0.26458332"
         y="174.88148"
         x="-20.247211"
         id="tspan4631">JAR</tspan></text>
  </g>
</svg>
