<?xml version="1.0" encoding="UTF-8" standalone="no"?>
<svg
   xmlns:dc="http://purl.org/dc/elements/1.1/"
   xmlns:cc="http://creativecommons.org/ns#"
   xmlns:rdf="http://www.w3.org/1999/02/22-rdf-syntax-ns#"
   xmlns:svg="http://www.w3.org/2000/svg"
   xmlns="http://www.w3.org/2000/svg"
   xmlns:sodipodi="http://sodipodi.sourceforge.net/DTD/sodipodi-0.dtd"
   xmlns:inkscape="http://www.inkscape.org/namespaces/inkscape"
   id="svg4782"
   version="1.1"
   viewBox="0 0 207.99006 211.66735"
   height="800.00262"
   width="786.10413"
   sodipodi:docname="software_stack.svg"
   inkscape:version="0.92.1 15371">
  <sodipodi:namedview
     pagecolor="#ffffff"
     bordercolor="#666666"
     borderopacity="1"
     objecttolerance="10"
     gridtolerance="10"
     guidetolerance="10"
     inkscape:pageopacity="0"
     inkscape:pageshadow="2"
     inkscape:window-width="2495"
     inkscape:window-height="1416"
     id="namedview4803"
     showgrid="false"
     inkscape:zoom="1.5712448"
     inkscape:cx="393.05206"
     inkscape:cy="400.00131"
     inkscape:window-x="2625"
     inkscape:window-y="24"
     inkscape:window-maximized="1"
     inkscape:current-layer="svg4782" />
  <defs
     id="defs4776" />
  <metadata
     id="metadata4779">
    <rdf:RDF>
      <cc:Work
         rdf:about="">
        <dc:format>image/svg+xml</dc:format>
        <dc:type
           rdf:resource="http://purl.org/dc/dcmitype/StillImage" />
        <dc:title />
      </cc:Work>
    </rdf:RDF>
  </metadata>
  <path
     style="opacity:1;fill:none;fill-opacity:1;stroke:#000000;stroke-width:1.21154439;stroke-miterlimit:4;stroke-dasharray:none;stroke-dashoffset:0;stroke-opacity:1"
     d="m 207.36824,134.09137 v 0 0 c 0,0.11667 -0.0678,0.21039 -0.15193,0.21039 H 0.75771285 c -0.0841,0 -0.15194,-0.0944 -0.15194,-0.21039 v 0 0 0 -23.67935 c 0,0 7.91914995,0.002 9.37754995,0.002 2.1493002,0 2.8737402,-1.99896 2.8737402,-4.93046 0,-3.05751 -0.72444,-5.02643 -2.8948702,-5.02643 -1.45028,0 -9.35638995,-0.0288 -9.35638995,-0.0288 V 72.478502 c 0,0 7.91911995,0.002 9.37751995,0.002 2.1493002,0 2.8737402,-1.99898 2.8737402,-4.93047 0,-3.05751 -0.72444,-5.0264 -2.8948702,-5.0264 -1.45028,0 -9.35638995,-0.0288 -9.35638995,-0.0288 l -3e-5,-27.95046 c 0,0 7.91914995,0.003 9.37754995,0.003 2.1493002,0 2.8737402,-1.99897 2.8737402,-4.93047 0,-3.05751 -0.72444,-5.02643 -2.8948702,-5.02643 -1.45028,0 -9.35641995,-0.0288 -9.35641995,-0.0288 V 0.8161522 c 0,-0.11672 0.0678,-0.21038 0.15194,-0.21038 v 0 H 207.21631 c 0.0841,0 0.15194,0.0944 0.15194,0.21038 V 24.562252 c 0,0 -7.90608,0.0288 -9.35636,0.0288 -2.17043,0 -2.89487,1.96893 -2.89487,5.02644 0,2.9315 0.72444,4.93047 2.87374,4.93047 1.45837,0 9.37749,-0.003 9.37749,-0.003 v 27.95045 c 0,0 -7.90608,0.0288 -9.35636,0.0288 -2.17043,0 -2.89487,1.9689 -2.89487,5.02641 0,2.93149 0.72444,4.93047 2.87374,4.93047 1.4584,0 9.37749,-0.002 9.37749,-0.002 v 27.950448 c 0,0 -7.90608,0.0288 -9.35636,0.0288 -2.17043,0 -2.89487,1.96893 -2.89487,5.02644 0,2.9315 0.72444,4.93047 2.87374,4.93047 1.4584,0 9.37749,-0.002 9.37749,-0.002 z"
     id="path4624" />
  <path
     style="opacity:1;fill:none;fill-opacity:1;stroke:#000000;stroke-width:1.21154439;stroke-miterlimit:4;stroke-dasharray:none;stroke-dashoffset:0;stroke-opacity:1"
     d="m 0.60580285,210.85768 c 0,0.11316 0.0681,0.2039 0.15166,0.2039 H 207.2329 c 0.0841,0 0.15138,-0.0907 0.15138,-0.2039 v 0 l -0.0164,-25.0045 c 0,0 -7.70924,0.002 -9.12606,0.002 -2.08806,0 -2.79187,-1.88627 -2.79187,-4.65254 0,-2.88509 0.70381,-4.74298 2.8124,-4.74298 1.40895,0 9.10553,-0.0252 9.10553,-0.0252 l 0.0164,-25.0026 c 2.8e-4,-0.11353 -0.0679,-0.20426 -0.15138,-0.20426 H 0.75763285 v 0 c -0.0844,0 -0.15167,0.0911 -0.15167,0.20426 l 3e-5,25.00833 c 0,0 7.66517995,0.0288 9.07121995,0.0288 2.1042902,0 2.8066302,1.85411 2.8066302,4.73337 0,2.7606 -0.70234,4.64299 -2.7861302,4.64299 -1.41396,0 -9.09177995,0.002 -9.09177995,0.002 z"
     id="path4569" />
  <g
     transform="matrix(1.2115444,0,0,1.2115444,9.8440728,-3.9261078)"
     id="g7056">
    <path
       id="path6916"
       d="m 32.744742,14.692147 c -2.267391,-1.129933 -6.9227,-4.156258 -7.065824,-4.276783 -0.143124,-0.120526 -0.173256,-0.212804 -0.15819,-0.295665 0.01507,-0.08286 0.05273,-0.1468913 0.171372,-0.1996216 0.308848,-0.2316347 10.178778,0.6967896 12.423571,1.7212566 0.662892,-0.542363 2.02634,-1.273051 2.402983,-1.581898 0.376643,-0.3088476 2.297522,-2.2899901 2.380384,-2.3125886 0.11676,-0.056495 0.160074,-0.094161 0.265534,-0.094161 0.105459,0 0.177022,-0.024482 0.30508,0.028248 0.117022,0.041695 0.238019,0.072296 0.278716,0.1355914 0.03766,0.060263 0.05461,0.1111101 0.01695,0.2015044 -0.03766,0.090394 -0.05273,0.1506572 -0.15819,0.2862486 -0.10546,0.1355914 -0.798484,1.1525278 -0.888878,1.2805865 0.322032,-0.1337082 0.926545,-0.5160007 1.032004,-0.5913295 0.10546,-0.075328 0.546133,-0.5235339 0.612045,-0.5498988 0.06591,-0.026363 0.07533,-0.024482 0.122409,-0.024482 0.04708,0 0.06968,-0.00189 0.107344,0.015066 0.03766,0.016947 0.111109,0.056496 0.137474,0.084744 0.02636,0.028248 0.294894,0.198837 0.444093,0.4912615 0.101258,0.1912195 0.194908,0.4359264 0.200558,0.475474 0.0057,0.039549 0.0446,0.1424783 0.0446,0.2046245 0,0.062146 0.01507,0.16384 -0.01507,0.2335188 -0.03013,0.069679 -1.463258,2.2052442 -2.045172,3.3653052 -0.265532,0.5499 -0.269299,0.934075 -0.308847,1.111097 -0.03955,0.177021 -0.15819,0.886996 -0.167606,0.952907 1.154412,1.048951 3.060227,2.932167 3.54233,3.504665 0.482103,0.572497 1.333316,1.5367 1.63463,2.011273 0.282522,0.444969 0.445275,0.723991 0.510029,0.894203 0.02481,0.09298 0.1308,0.168466 0.07054,0.266395 -0.06026,0.09792 -0.234462,0.03242 -0.399777,-4.51e-4 -0.203268,-0.0404 -0.606377,-0.160273 -1.016936,-0.286251 -0.231858,-0.07115 -0.896366,-0.352942 -1.371646,-0.578711 -1.07979,-0.512936 -2.217369,-1.144233 -2.447515,-1.259307"
       style="fill:none;stroke:#000000;stroke-width:0.33821413;stroke-linecap:butt;stroke-linejoin:miter;stroke-miterlimit:4;stroke-dasharray:none;stroke-opacity:1" />
    <path
       id="path6918"
       d="m 25.510837,10.056284 c 4.78323,0.873552 8.504808,2.626362 11.349179,4.139094 2.823066,1.566004 5.583392,3.367666 6.563476,4.04946 0.980082,0.6818 4.544025,3.079733 5.161903,3.750881"
       style="fill:none;stroke:#000000;stroke-width:0.33821413;stroke-linecap:butt;stroke-linejoin:miter;stroke-miterlimit:4;stroke-dasharray:none;stroke-opacity:1" />
    <path
       id="path6920"
       d="m 32.458492,14.571621 c -0.964206,1.107327 -0.851213,1.016933 -1.114863,1.431241 -0.26365,0.414308 -0.444439,0.738222 -0.519767,0.919009 -0.07533,0.180787 -0.128438,0.341028 -0.194563,0.619901 -0.04482,0.20963 -0.04695,0.277643 -0.03987,0.525094 0.01507,0.135592 0.03858,0.278715 0.136505,0.436905 0.09793,0.158189 0.165724,0.218454 0.278716,0.323914"
       style="fill:none;stroke:#000000;stroke-width:0.33821413;stroke-linecap:butt;stroke-linejoin:miter;stroke-miterlimit:4;stroke-dasharray:none;stroke-opacity:1" />
    <path
       id="path6922"
       d="m 31.16284,18.54897 c -1.973608,2.169463 -9.493924,10.085897 -9.765107,10.372148 1.164492,-0.355567 3.384899,-1.070394 5.901475,-2.046471 3.109198,-1.205923 6.68634,-2.751146 9.472546,-3.798663 2.602802,-0.978562 4.61797,-1.563839 4.76397,-1.618247"
       style="fill:none;stroke:#000000;stroke-width:0.33821413;stroke-linecap:butt;stroke-linejoin:miter;stroke-miterlimit:4;stroke-dasharray:none;stroke-opacity:1" />
    <path
       id="path6924"
       d="m 38.236197,11.829656 c 0.828615,-0.451971 2.365318,-1.408643 2.365318,-1.408643 1.167594,0.512235 1.55177,1.310719 1.777755,1.70996 0.323914,0.580028 0.459505,1.024469 0.527301,1.220322 -0.308847,0.87381 -0.301314,1.800354 -0.301314,1.958544 -1.401112,-1.37098 -2.056472,-1.875682 -2.463246,-2.192061 -0.406775,-0.316383 -1.152528,-0.783421 -1.905814,-1.288122 z"
       style="fill:#000000;fill-opacity:1;stroke:#000000;stroke-width:0;stroke-linecap:butt;stroke-linejoin:miter;stroke-miterlimit:4;stroke-dasharray:none;stroke-opacity:1" />
    <path
       id="path6926"
       d="m 38.567643,22.405792 c 0.03109,-0.350033 0.04855,-0.604339 0.02297,-0.788133 C 38.53836,21.242223 38.463121,21.125404 38.439586,21.057414 38.35768,20.938908 38.29624,20.795401 38.168301,20.659182 38.019729,20.500997 37.795919,20.348706 37.573307,20.1949"
       style="fill:none;stroke:#000000;stroke-width:0.27057132;stroke-linecap:butt;stroke-linejoin:miter;stroke-miterlimit:4;stroke-dasharray:none;stroke-opacity:1" />
    <path
       id="path6928"
       d="m 40.816201,21.652508 c 0.0075,-0.527298 -0.0226,-0.711855 -0.07909,-0.941606 -0.0565,-0.229756 -0.124293,-0.395476 -0.207154,-0.542369 -0.04149,-0.07355 -0.161336,-0.245251 -0.28346,-0.402245 -0.121786,-0.156562 -0.275946,-0.302179 -0.341768,-0.377406"
       style="fill:none;stroke:#000000;stroke-width:0.27057132;stroke-linecap:butt;stroke-linejoin:miter;stroke-miterlimit:4;stroke-dasharray:none;stroke-opacity:1" />
    <path
       id="path6930"
       d="m 38.586475,21.716539 2.195828,-0.685493"
       style="fill:none;stroke:#000000;stroke-width:0.22547609;stroke-linecap:butt;stroke-linejoin:miter;stroke-miterlimit:4;stroke-dasharray:none;stroke-opacity:1" />
    <path
       id="path6932"
       d="m 38.352957,20.827658 2.192062,-0.553666"
       style="fill:none;stroke:#000000;stroke-width:0.22547609;stroke-linecap:butt;stroke-linejoin:miter;stroke-miterlimit:4;stroke-dasharray:none;stroke-opacity:1" />
    <path
       id="path6934"
       d="m 40.552552,19.272135 c 0,0 4.51e-4,-6.8e-5 -7.22e-4,0.0073 -0.01834,0.028 -0.140874,0.06054 -0.354046,0.115471 -0.303017,0.07132 -0.400912,0.122217 -0.840433,0.266954 -0.275781,0.09158 -0.570712,0.191547 -0.871749,0.304803 -0.0022,9.02e-4 -0.07453,0.02796 -0.07675,0.02882 -0.399667,0.149671 -0.701438,0.259532 -1.043694,0.402385 -0.396415,0.165928 -0.527997,0.203686 -0.751554,0.349362 v 0 c -0.04857,0.04311 -0.103799,0.07935 -0.136199,0.100373 v 0 c -0.03102,0.02052 -0.05801,0.03662 -0.07766,0.0466 -0.02876,0.01466 -0.04638,0.01687 -0.05053,0.01263 -0.0095,-0.0097 -0.0041,-0.02449 0.01165,-0.05326 0.01127,-0.02061 0.02779,-0.04512 0.05068,-0.07573 v 0 c 0.02874,-0.03802 0.06796,-0.08174 0.105176,-0.133031 v 0 c 0.179976,-0.179876 0.38961,-0.293399 0.744967,-0.471949 0.322064,-0.161774 0.665909,-0.301407 1.047334,-0.444075 0.02568,-0.0096 0.05135,-0.01916 0.07701,-0.02868 0.308744,-0.114488 0.614666,-0.207619 0.898472,-0.282761 0.384986,-0.102519 0.622489,-0.165053 0.892124,-0.177486 0.223768,-0.0041 0.348009,-9.02e-4 0.373785,0.02539 0.0026,0.0069 0.0021,0.007 0.0021,0.007 z"
       style="fill:#000000;fill-opacity:1;stroke:#000000;stroke-width:0;stroke-linecap:round;stroke-linejoin:miter;stroke-miterlimit:4;stroke-dasharray:none;stroke-opacity:1" />
    <path
       id="path6936"
       d="m 38.346729,33.696214 c 0.466467,-0.968289 0.687953,-2.39411 0.936536,-3.403512 0.248584,-1.009406 0.542366,-2.583771 0.625228,-3.103538 0.08286,-0.519768 0.26365,-1.566838 0.271183,-2.207132 0.0075,-0.640292 -0.06026,-1.077198 -0.10546,-1.386046 -0.0452,-0.308848 -0.173255,-1.280587 -0.286249,-1.5367"
       style="fill:none;stroke:#000000;stroke-width:0.33821413;stroke-linecap:butt;stroke-linejoin:miter;stroke-miterlimit:4;stroke-dasharray:none;stroke-opacity:1" />
    <path
       id="path6938"
       d="m 35.522925,38.071626 c 0.08452,-0.119611 0.167993,-0.239617 0.249685,-0.358605"
       style="fill:none;stroke:#000000;stroke-width:0.33821413;stroke-linecap:butt;stroke-linejoin:miter;stroke-miterlimit:4;stroke-dasharray:none;stroke-opacity:1" />
    <path
       id="path6940"
       d="m 41.595853,21.667575 c -0.150657,-1.928416 -0.202185,-2.461834 -0.120525,-3.239131 0.06456,-0.614571 0.117127,-0.835754 0.149087,-0.878365 0.03196,-0.04262 0.167439,-0.123809 0.226031,-0.09718 0.05859,0.02665 0.170449,0.107823 0.213062,0.193049 0.02255,0.0451 0.602698,1.028766 1.121132,1.993889 0.461176,0.858523 0.706697,1.417127 0.947771,1.857847 0.142179,0.259924 1.07596,2.407592 1.251736,2.807082 0.175775,0.39949 0.703103,2.01343 0.884206,2.562067 0.181101,0.548633 0.830939,2.982859 0.905511,3.329082 0.07457,0.346228 0.452756,2.66327 0.511348,3.068084 0.05859,0.40482 0.223713,2.343681 0.24502,2.689904 0.02131,0.346227 0.143816,2.269105 0.159796,2.583369 0.01598,0.314269 0.181104,3.281146 0.186429,3.55813 0.0053,0.27698 0.149145,4.61278 0.15447,4.847145 0.0053,0.234369 0.138489,4.964334 0.154469,5.379805 -4.028592,0.146236 -9.415123,-1.494541 -11.584587,-2.09717 -2.169464,-0.602625 -4.867476,-1.495119 -6.960364,-2.252863 -2.178466,-0.788725 -3.905915,-1.37999 -3.905915,-1.37999 1.46431,-0.84825 2.898597,-2.048924 3.591048,-2.58158 0.692448,-0.53265 1.88346,-1.601159 2.443966,-2.121256 0.779504,-0.7233 1.851349,-1.908488 2.443347,-2.617629 0.0045,-0.0054 0.009,-0.01083 0.01357,-0.01628"
       style="fill:none;stroke:#000000;stroke-width:0.33821413;stroke-linecap:butt;stroke-linejoin:miter;stroke-miterlimit:4;stroke-dasharray:none;stroke-opacity:1" />
    <path
       id="path6942"
       d="m 42.125865,25.195599 c -0.03737,-0.211501 -0.07088,-0.423485 -0.10554,-0.63555 0,0 0,0 0,0 -0.05584,-0.341857 -0.09722,-0.685515 -0.135778,-1.030128 0,0 0,0 0,0 -0.07045,-0.630241 -0.100314,-1.264348 -0.138504,-1.901922 l -0.32298,0.03396 c 0.09496,0.628965 0.183008,1.264 0.311178,1.891694 0,0 0,0 0,0 0.06963,0.340596 0.142355,0.681348 0.229171,1.018359 0,0 0,0 0,0 0.05359,0.20788 0.106158,0.416323 0.162453,0.62359 z"
       style="fill:#000000;fill-opacity:1;stroke:#000000;stroke-width:0;stroke-linecap:butt;stroke-linejoin:miter;stroke-miterlimit:4;stroke-dasharray:none;stroke-opacity:1" />
    <path
       id="path6944"
       d="m 35.303675,16.128538 c -1.19584,1.453229 -2.125099,1.805315 -2.825082,2.215952 -0.692449,0.308938 -0.735708,0.298174 -0.895504,0.308825 -0.159796,0.01064 -0.260175,0.0087 -0.337387,-0.0535 -0.07721,-0.06215 -0.16129,-0.124756 -0.222546,-0.199325 -0.06125,-0.07457 -0.0821,-0.178172 -0.09009,-0.263393 -0.008,-0.08523 0.02949,-0.402614 0.04547,-0.53045 0.01598,-0.127836 0.07191,-0.290296 0.141154,-0.476724 0.06924,-0.186428 0.162459,-0.442105 0.234366,-0.575266 0.07191,-0.133166 0.213062,-0.338237 0.319594,-0.490041 0.106529,-0.151809 0.35155,-0.482054 0.466072,-0.625872 0.11452,-0.143813 0.308938,-0.354214 0.447429,-0.514009 0.138489,-0.159795 0.250347,-0.287635 0.380847,-0.426123 0.1305,-0.138487 0.311602,-0.306273 0.463409,-0.418131 0.151805,-0.111859 0.324918,-0.247686 0.468735,-0.319595 0.143816,-0.07191 0.306275,-0.156945 0.444766,-0.19689 0.138489,-0.03995 0.279643,-0.07742 0.450092,-0.09873 0.170449,-0.02128 0.263663,-0.03463 0.338235,-0.01863 0.07457,0.01596 0.114269,0.01551 0.167785,0.04527 0.07191,0.03995 0.06925,0.03729 0.146481,0.09854 0.02049,0.03256 0.07929,0.0446 0.0938,0.0877 0.01754,0.05214 -0.0059,0.122699 -0.0059,0.122699 -0.0097,0.04967 -0.10653,0.404815 -0.10653,0.404815 -0.02397,0.122497 -0.05327,0.372843 -0.06126,0.521987 -0.008,0.149143 -0.01598,0.537976 -0.01598,0.684459 0,0.146479 -0.0027,0.226378 -0.0027,0.364866 0,0.138492 -0.01066,0.210396 -0.01332,0.258337 z"
       style="fill:#000000;fill-opacity:1;stroke:#000000;stroke-width:0;stroke-linecap:butt;stroke-linejoin:miter;stroke-miterlimit:4;stroke-dasharray:none;stroke-opacity:1" />
    <path
       id="path6946"
       d="m 34.989533,15.3814 c -0.274949,0.193978 -0.30508,0.218455 -0.459504,0.354047 -0.154424,0.135593 -0.248584,0.214685 -0.346512,0.331446 -0.09793,0.11676 -0.241053,0.290016 -0.331445,0.425604 -0.0904,0.135592 -0.0904,0.133712 -0.16949,0.27872 -0.0565,0.139358 -0.07533,0.180782 -0.08286,0.263649 0.0038,0.09039 0.0075,0.09416 0.03013,0.112991 0.0226,0.01885 0.04897,0.01132 0.0678,0.01132 0.01883,0 0.0113,0.0036 0.08286,-0.01132 0.07156,-0.01506 0.124293,-0.04144 0.192088,-0.08663 0.0678,-0.04519 0.124293,-0.101694 0.241052,-0.199619 0.108631,-0.09111 0.276848,-0.242788 0.361578,-0.323914 0.09234,-0.08841 0.227401,-0.241467 0.297548,-0.320145 0.06921,-0.07763 0.128059,-0.158194 0.128059,-0.158194 z"
       style="fill:#ffffff;fill-opacity:1;stroke:#000000;stroke-width:0.04509522;stroke-linecap:butt;stroke-linejoin:miter;stroke-miterlimit:4;stroke-dasharray:none;stroke-opacity:1" />
    <path
       id="path6948"
       d="m 35.335632,16.035322 c -0.843267,0.72836 -1.283939,1.428914 -1.396932,1.594639 -0.112993,0.165725 -0.500936,0.734452 -0.60263,0.885111 -0.101693,0.150658 -0.523534,0.854978 -0.602629,0.994336 -0.07909,0.139362 -0.195854,0.425608 -0.252351,0.576267 -0.0565,0.150654 -0.07909,0.22222 -0.09039,0.365343 -0.0113,0.143123 -0.0226,0.229751 0.03766,0.320145 0.06026,0.0904 0.08286,0.101694 0.16949,0.146893 0.08663,0.04519 0.165723,0.09792 0.293782,0.11299 0.128058,0.01506 0.274949,0.0075 0.482103,-0.03012 0.207153,-0.03766 0.553665,-0.146893 0.719388,-0.237287 0.165722,-0.0904 0.248583,-0.128061 0.497168,-0.290016 0.248584,-0.161955 1.080966,-0.730687 1.359682,-0.964208 0.278716,-0.233516 0.934045,-0.749672 1.144995,-0.971739 0.429738,-0.452381 0.672268,-0.759593 0.775884,-0.900172 0.108608,-0.147354 0.399241,-0.621462 0.470804,-0.768355 0.07156,-0.146889 0.186194,-0.41935 0.229753,-0.606396 0.08453,-0.362994 0.04143,-0.71562 0.03766,-0.824845 0,0 -0.699932,0.160972 -1.051887,0.232037 -0.378504,0.07643 -0.758368,0.146501 -1.139426,0.208958 -0.359659,0.05895 -1.082127,0.156422 -1.082127,0.156422 z"
       style="fill:#000000;fill-opacity:1;stroke:#000000;stroke-width:0;stroke-linecap:butt;stroke-linejoin:miter;stroke-miterlimit:4;stroke-dasharray:none;stroke-opacity:1" />
    <path
       id="path6950"
       d="m 37.490219,16.575964 c -0.332831,0.385307 -0.617879,0.793657 -0.719083,0.942801 -0.101204,0.149143 -0.226377,0.342227 -0.26899,0.448756 -0.04261,0.106533 -0.08037,0.151903 -0.08256,0.226382 -0.0016,0.05351 -0.0053,0.08728 0.03196,0.123841 0.03272,0.03211 0.08522,0.03193 0.133163,0.02128 0.04793,-0.01064 0.143818,-0.04262 0.207735,-0.08523 0.06392,-0.04262 0.121612,-0.07898 0.218389,-0.17045 0.09721,-0.09188 0.159795,-0.143814 0.266326,-0.260998 0.106531,-0.117185 0.174445,-0.194424 0.275648,-0.332911 0.101205,-0.138492 0.2104,-0.286301 0.26899,-0.387503 0.05859,-0.101207 0.151808,-0.255677 0.201077,-0.3662 0.04874,-0.109329 0.08097,-0.186568 0.08523,-0.250347 0.004,-0.05993 0.01688,-0.09676 -0.0067,-0.147813 -0.02073,-0.04496 -0.02765,-0.0747 -0.08922,-0.09188 -0.05726,-0.01596 -0.121179,-0.0093 -0.179771,0.02264 -0.05859,0.03197 -0.121961,0.08565 -0.185098,0.145152 -0.06481,0.06108 -0.08304,0.07673 -0.157124,0.162492 z"
       style="fill:#ffffff;fill-opacity:1;stroke:#000000;stroke-width:0.04509522;stroke-linecap:butt;stroke-linejoin:miter;stroke-miterlimit:4;stroke-dasharray:none;stroke-opacity:1" />
    <path
       id="path6952"
       d="m 40.047551,16.146495 c -0.01281,0.135809 -0.02911,0.267469 -0.06029,0.399255 -0.02662,0.110975 -0.05988,0.216317 -0.09394,0.31311 -0.05814,0.165246 -0.134799,0.311842 -0.20516,0.430758 -0.218082,0.368915 -0.458958,0.495836 -0.468915,0.487236 -0.02898,-0.02503 0.147644,-0.22898 0.299413,-0.57491 0.05339,-0.120201 0.11412,-0.264429 0.156415,-0.412914 0.02714,-0.09447 0.05415,-0.194934 0.07503,-0.296321 0.02424,-0.116035 0.03661,-0.236267 0.04946,-0.369794 0.08266,0.0078 0.165328,0.01574 0.247992,0.02358 z"
       style="fill:#000000;fill-opacity:1;stroke:#000000;stroke-width:0;stroke-linecap:butt;stroke-linejoin:miter;stroke-miterlimit:4;stroke-dasharray:none;stroke-opacity:1" />
    <path
       id="path6954"
       d="m 40.78428,16.638024 c -0.0121,0.03941 -0.01711,0.09127 -0.03478,0.147813 -0.03643,0.113329 -0.08027,0.211699 -0.130591,0.296487 -0.127487,0.212223 -0.279838,0.269841 -0.284808,0.265156 -0.01881,-0.01772 0.09342,-0.133284 0.17468,-0.322418 0.03687,-0.08302 0.06919,-0.173887 0.100285,-0.282048 0.01096,-0.03734 0.01462,-0.08768 0.0319,-0.147434 0.04777,0.01416 0.09554,0.02827 0.143314,0.04243 z"
       style="fill:#000000;fill-opacity:1;stroke:#000000;stroke-width:0;stroke-linecap:butt;stroke-linejoin:miter;stroke-miterlimit:4;stroke-dasharray:none;stroke-opacity:1" />
    <path
       id="path6956"
       d="m 35.335632,16.035322 c 0,0 -5e-5,4e-5 1.25e-4,-3.57e-4 0,0 0,0 0,0 0,0 0,0 0,0 0,0 0,0 0,0 0,0 0,0 0,0 0,0 0,0 0,0 0,0 0,0 0,0 0,0 0,0 0,0 8.57e-4,-0.0018 0.0034,-0.0119 -0.0045,-0.03626 v 0 c 0,0 0,0 0,0 v 0 c 0.0033,-0.01583 0.01047,-0.03608 0.02125,-0.06036 v 0 c 0.01979,-0.04464 0.05186,-0.103006 0.09462,-0.171794 v 0 c 0.06109,-0.09842 0.153539,-0.234807 0.264593,-0.370191 0.09075,-0.11125 0.22468,-0.289264 0.356063,-0.426773 0.0022,-0.0023 0.0043,-0.0045 0.0064,-0.0067 0.489874,-0.507181 0.559825,-0.428909 0.60272,-0.382425 0.05438,0.05889 0.065,0.06676 -0.414303,0.564109 -0.0019,0.0018 -0.0039,0.0041 -0.0058,0.006 -0.129767,0.135205 -0.247993,0.281561 -0.369909,0.404166 -0.120731,0.120625 -0.225664,0.231559 -0.313303,0.314783 v 0 c -0.05841,0.05544 -0.108095,0.09888 -0.147315,0.12789 v 0 c -0.02125,0.01569 -0.03937,0.02715 -0.054,0.03387 v 0 c 0,0 0,0 0,0 v 0 c -0.02553,-0.0023 -0.03467,0.0027 -0.03634,0.0036 0,0 0,0 0,0 0,0 0,0 0,0 0,0 0,0 0,0 0,0 0,0 0,0 0,0 0,0 0,0 0,0 0,0 0,0 0,0 0,0 0,0 -3.47e-4,2.61e-4 -3.19e-4,2.03e-4 -3.19e-4,2.03e-4 z"
       style="fill:#000000;fill-opacity:1;stroke:#000000;stroke-width:0;stroke-linecap:butt;stroke-linejoin:miter;stroke-miterlimit:4;stroke-dasharray:none;stroke-opacity:1" />
    <path
       id="path6958"
       d="m 43.306754,38.955795 c 0.02402,-0.87799 0.01541,-1.776264 -0.02572,-2.701879 -0.03455,-0.777483 -0.09005,-1.527899 -0.157656,-2.241729 0,0 0,0 0,-4e-6 -0.341071,-3.608028 -1.006256,-6.237841 -0.909835,-6.258057 -0.03061,0.0064 0.921095,2.54948 1.319891,6.216357 0,0 0,0 0,0 0.07817,0.71967 0.139541,1.477982 0.174455,2.264474 0.0415,0.934761 0.04278,1.847024 0.0038,2.734322 -0.06624,-0.0023 -0.132484,-0.0045 -0.198727,-0.0065 -0.06873,-0.0023 -0.13747,-0.0046 -0.206205,-0.007 z"
       style="fill:#000000;fill-opacity:1;stroke:#000000;stroke-width:0.04509522;stroke-linecap:butt;stroke-linejoin:miter;stroke-miterlimit:4;stroke-dasharray:none;stroke-opacity:1" />
    <path
       id="path6960"
       d="m 45.709701,44.532856 c 0.11693,-0.508011 0.282496,-1.00409 0.413652,-1.506072 0.182966,-0.700288 0.329892,-1.418831 0.431592,-2.150663 0,0 0,0 0,0 0.04165,-0.298963 0.07539,-0.599473 0.102355,-0.90148 0.110252,-1.234608 0.104974,-2.476824 0.07489,-3.631938 -0.04866,-1.868376 -0.340221,-3.916086 -0.526794,-5.370402 -0.442308,-3.45171 -1.297844,-5.583068 -1.249884,-5.598558 -0.07325,0.02363 0.986115,2.057988 1.495359,5.564998 0.212047,1.460688 0.524035,3.489982 0.584787,5.395169 0.03705,1.1608 0.04541,2.413645 -0.06667,3.668568 -0.0274,0.306756 -0.06184,0.61242 -0.104467,0.91688 0,0 0,0 0,0 -0.104548,0.744879 -0.25605,1.47511 -0.44517,2.185495 -0.136926,0.514392 -0.304257,1.005511 -0.419932,1.493914 -0.04741,-0.01073 -0.09481,-0.02146 -0.142222,-0.03215 -0.04916,-0.01123 -0.09833,-0.0225 -0.147493,-0.03373 z"
       style="fill:#000000;fill-opacity:1;stroke:#000000;stroke-width:0.04509522;stroke-linecap:butt;stroke-linejoin:miter;stroke-miterlimit:4;stroke-dasharray:none;stroke-opacity:1" />
    <path
       id="path6962"
       d="m 43.467513,39.038148 c 0,0 -8.9e-5,-9e-6 -2.96e-4,-0.0036 0,0 0,0 0,0 0.0041,-0.03134 0.126308,-0.07933 0.332932,-0.130727 0.105557,-0.02656 0.264114,-0.07058 0.423545,-0.07347 0.04036,-4.51e-4 0.08109,-2.62e-4 0.122044,0.0014 0.127346,0.0046 0.249766,0.01975 0.365345,0.04712 0,0 0,0 0,0 0.357697,0.09064 0.454332,0.314467 0.452416,0.317276 -0.02189,0.03211 -0.216002,-0.106745 -0.486716,-0.136084 0,0 0,0 0,0 -0.107943,-0.01488 -0.217667,-0.02304 -0.338106,-0.02715 -0.03835,-0.0014 -0.07666,-0.0023 -0.114983,-0.0027 -0.132719,-0.0032 -0.274484,0.02471 -0.398801,0.03256 -0.21162,0.01511 -0.342729,0.0074 -0.356571,-0.02106 0,0 0,0 0,0 -9.02e-4,-0.0032 -8.12e-4,-0.0032 -8.12e-4,-0.0032 z"
       style="fill:#000000;fill-opacity:1;stroke:#000000;stroke-width:0.04509522;stroke-linecap:butt;stroke-linejoin:miter;stroke-miterlimit:4;stroke-dasharray:none;stroke-opacity:1" />
    <path
       id="path6964"
       d="m 43.431524,39.112722 c 0.0097,-0.0087 0.265293,0.114813 0.550862,0.404031 0,0 0,0 0,0 0.0628,0.06438 0.118848,0.134853 0.170481,0.20935 0.0664,0.09581 0.123884,0.196083 0.174419,0.287207 0,0 0,0 0,0 0.191912,0.342403 0.164586,0.597543 0.13126,0.603022 -0.03997,0.0066 -0.106443,-0.230955 -0.291632,-0.504552 0,0 0,0 0,0 -0.05932,-0.08774 -0.118474,-0.182216 -0.179706,-0.271352 -0.04765,-0.06936 -0.09506,-0.133152 -0.146648,-0.191979 0,0 0,0 0,0 -0.239867,-0.276447 -0.44137,-0.506888 -0.409036,-0.535727 z"
       style="fill:#000000;fill-opacity:1;stroke:#000000;stroke-width:0.04509522;stroke-linecap:butt;stroke-linejoin:miter;stroke-miterlimit:4;stroke-dasharray:none;stroke-opacity:1" />
    <path
       id="path6966"
       d="m 43.528857,39.050631 c -0.14432,0.07216 -0.522809,-0.06426 -0.751805,-0.18292 -0.413959,-0.2145 -0.845782,-0.73838 -1.05387,-0.919618 -0.208089,-0.181242 -1.00017,-1.07401 -1.147846,-1.261958 -0.147676,-0.187952 -0.832356,-1.006881 -1.060583,-1.308947 -0.228225,-0.302066 -0.07719,-0.112414 -0.325558,-0.427904 -0.01342,0.06041 -0.164459,1.079043 -0.191308,1.28713 -0.02685,0.208092 -0.154389,0.543718 -0.281927,0.812219 -0.127538,0.268501 -0.483302,0.691391 -0.684679,0.899483 -0.201376,0.208087 -0.684681,0.476589 -1.067296,0.604127 -0.382615,0.127538 -0.671255,0.154397 -0.839068,0.194667 -0.167814,0.04027 -0.194665,0.06712 -0.234939,0.127538 -0.04028,0.06041 -0.03356,0.09399 -0.02685,0.120824 0.0067,0.02683 0.0537,0.06041 0.174526,0.194662 0.120827,0.134253 0.630978,0.39604 1.074008,0.691396 0.443026,0.295351 0.832354,0.617552 1.241821,0.966607 0.409464,0.34905 0.919619,0.792079 1.268671,1.060581 0.349053,0.268501 1.420241,0.967094 1.845951,1.201544 0.463167,0.255076 1.852664,0.919622 2.295691,1.094145 0.443029,0.174527 1.282094,0.443042 1.597586,0.496733 0.315488,0.05369 0.446384,0.01339 0.481626,-0.123372"
       style="fill:none;stroke:#000000;stroke-width:0.27057132;stroke-linecap:butt;stroke-linejoin:miter;stroke-miterlimit:4;stroke-dasharray:none;stroke-opacity:1" />
    <path
       id="path6968"
       d="M 36.682058,38.592495 C 35.681888,37.404376 35.13146,37.035186 35.13146,37.035186"
       style="fill:none;stroke:#000000;stroke-width:0.27057132;stroke-linecap:butt;stroke-linejoin:miter;stroke-miterlimit:4;stroke-dasharray:none;stroke-opacity:1" />
    <path
       id="path6970"
       d="m 37.823193,33.846719 c 0.241652,-0.174527 0.0636,-0.01655 0.208089,-0.09397 0.149677,-0.08021 0.191853,-0.06849 0.278571,-0.04027 0.05725,0.01863 0.134384,0.0704 0.154388,0.104044 0.07545,0.126893 0.09238,0.192503 0.05343,0.351323 v -2.2e-5 c -0.04025,0.164133 -0.06899,0.387011 -0.261283,0.717789 -0.04687,0.08062 -0.256355,0.495092 -0.493948,0.824427 -0.06688,0.0927 -0.373231,0.465752 -0.469541,0.544867 -0.21774,0.178861 -0.369189,0.283554 -0.563854,0.377533 -0.194663,0.09397 -0.557142,0.268501 -0.751806,0.315486 -0.194664,0.04699 -0.488722,0.08972 -0.6364,0.109847 -0.147675,0.02011 -0.08184,0.05797 -0.209381,-0.02259 -0.124824,-0.09141 -0.0056,-0.299933 0.03356,-0.40275"
       style="fill:none;stroke:#000000;stroke-width:0.27057132;stroke-linecap:butt;stroke-linejoin:miter;stroke-miterlimit:4;stroke-dasharray:none;stroke-opacity:1" />
    <path
       id="path6972"
       d="m 39.189194,34.949284 c -0.671254,-0.944813 -0.718241,-1.12605 -0.718241,-1.12605"
       style="fill:none;stroke:#000000;stroke-width:0.27057132;stroke-linecap:butt;stroke-linejoin:miter;stroke-miterlimit:4;stroke-dasharray:none;stroke-opacity:1" />
    <path
       id="path6974"
       d="m 35.518636,37.360573 v 1.892479 H 7.3434835 v -9.341088 0 H 35.518636 v 2.783171"
       style="opacity:1;fill:none;fill-opacity:1;stroke:#000000;stroke-width:0.4509522;stroke-miterlimit:4;stroke-dasharray:none;stroke-dashoffset:0;stroke-opacity:1" />
    <path
       id="path6976"
       d="M 38.432979,34.582506 C 37.331794,32.864275 35.537622,31.95295 35.537622,31.95295"
       style="fill:none;stroke:#000000;stroke-width:0.27057132;stroke-linecap:butt;stroke-linejoin:miter;stroke-miterlimit:4;stroke-dasharray:none;stroke-opacity:1" />
    <path
       id="path6978"
       d="m 35.672867,32.232139 c 0.237799,0.28272 0.685088,0.611144 0.587376,0.662801 -0.308199,0.162942 -1.367962,-0.584065 -1.576989,-0.742637 -0.275296,-0.208845 -0.71672,-0.488891 -0.930311,-0.484143 -0.214119,0.0047 -0.338199,-0.02178 -0.512621,0.237327 -0.146304,0.217323 -0.104425,0.41769 -0.0095,0.531605 0.09493,0.113915 1.518876,1.385975 1.518876,1.385975 0,0 -1.385975,-0.958792 -1.718229,-1.053722 -0.332254,-0.09493 -0.577464,-0.08574 -0.674002,0 -0.13463,0.119574 -0.14505,0.33646 -0.123408,0.417694 0.03546,0.133112 0.113916,0.237323 0.208846,0.332253 0.09493,0.09493 1.528369,1.2151 1.528369,1.2151 0,0 -1.395209,-0.809631 -1.585328,-0.89234 -0.192639,-0.08381 -0.465154,-0.180367 -0.57907,-0.05696 -0.113915,0.123407 -0.116319,0.21422 -0.06645,0.408197 0.08901,0.346232 0.806703,0.942238 1.290006,1.284578 0.483304,0.34234 2.718582,1.510324 2.718582,1.510324"
       style="fill:none;stroke:#000000;stroke-width:0.27057132;stroke-linecap:butt;stroke-linejoin:miter;stroke-miterlimit:4;stroke-dasharray:none;stroke-opacity:1" />
    <text
       xml:space="preserve"
       style="font-style:normal;font-weight:normal;font-size:4.93888855px;line-height:6.61458302px;font-family:sans-serif;letter-spacing:0px;word-spacing:0px;fill:#000000;fill-opacity:1;stroke:none;stroke-width:0.26458332"
       x="9.2121677"
       y="36.852139"
       id="text6984"><tspan
         id="tspan6982"
         x="9.2121677"
         y="36.852139"
         style="font-size:6.3499999px;stroke-width:0.26458332">Master</tspan></text>
  </g>
  <g
     transform="matrix(1.2115444,0,0,1.2115444,9.8440728,-3.9261078)"
     id="g7124">
    <path
       style="fill:none;stroke:#000000;stroke-width:0.33821413;stroke-linecap:butt;stroke-linejoin:miter;stroke-miterlimit:4;stroke-dasharray:none;stroke-opacity:1"
       d="m 32.744742,137.45888 c -2.267391,-1.12993 -6.9227,-4.15626 -7.065824,-4.27678 -0.143124,-0.12053 -0.173256,-0.21281 -0.15819,-0.29567 0.01507,-0.0829 0.05273,-0.14689 0.171372,-0.19962 0.308848,-0.23164 10.178778,0.69679 12.423571,1.72126 0.662892,-0.54237 2.02634,-1.27306 2.402983,-1.5819 0.376643,-0.30885 2.297522,-2.28999 2.380384,-2.31259 0.11676,-0.0565 0.160074,-0.0942 0.265534,-0.0942 0.105459,0 0.177022,-0.0245 0.30508,0.0282 0.117022,0.0417 0.238019,0.0723 0.278716,0.13559 0.03766,0.0603 0.05461,0.11111 0.01695,0.2015 -0.03766,0.0904 -0.05273,0.15066 -0.15819,0.28625 -0.10546,0.13559 -0.798484,1.15253 -0.888878,1.28059 0.322032,-0.13371 0.926545,-0.516 1.032004,-0.59133 0.10546,-0.0753 0.546133,-0.52354 0.612045,-0.5499 0.06591,-0.0264 0.07533,-0.0245 0.122409,-0.0245 0.04708,0 0.06968,-0.002 0.107344,0.0151 0.03766,0.0169 0.111109,0.0565 0.137474,0.0847 0.02636,0.0283 0.294894,0.19883 0.444093,0.49126 0.101258,0.19122 0.194908,0.43593 0.200558,0.47547 0.0057,0.0395 0.0446,0.14248 0.0446,0.20463 0,0.0621 0.01507,0.16384 -0.01507,0.23352 -0.03013,0.0697 -1.463258,2.20524 -2.045172,3.3653 -0.265532,0.5499 -0.269299,0.93408 -0.308847,1.1111 -0.03955,0.17702 -0.15819,0.88699 -0.167606,0.9529 1.154412,1.04896 3.060227,2.93217 3.54233,3.50467 0.482103,0.5725 1.333316,1.5367 1.63463,2.01127 0.282522,0.44497 0.445275,0.72399 0.510029,0.89421 0.02481,0.093 0.1308,0.16846 0.07054,0.26639 -0.06026,0.0979 -0.234462,0.0324 -0.399777,-4.5e-4 -0.203268,-0.0404 -0.606377,-0.16027 -1.016936,-0.28625 -0.231858,-0.0711 -0.896366,-0.35294 -1.371646,-0.57871 -1.07979,-0.51294 -2.217369,-1.14423 -2.447515,-1.25931"
       id="path4737" />
    <path
       style="fill:none;stroke:#000000;stroke-width:0.33821413;stroke-linecap:butt;stroke-linejoin:miter;stroke-miterlimit:4;stroke-dasharray:none;stroke-opacity:1"
       d="m 25.510837,132.82302 c 4.78323,0.87355 8.504808,2.62636 11.349179,4.13909 2.823066,1.566 5.583392,3.36767 6.563476,4.04946 0.980082,0.6818 4.544025,3.07973 5.161903,3.75088"
       id="path4760" />
    <path
       style="fill:none;stroke:#000000;stroke-width:0.33821413;stroke-linecap:butt;stroke-linejoin:miter;stroke-miterlimit:4;stroke-dasharray:none;stroke-opacity:1"
       d="m 32.458492,137.33835 c -0.964206,1.10733 -0.851213,1.01694 -1.114863,1.43124 -0.26365,0.41431 -0.444439,0.73823 -0.519767,0.91901 -0.07533,0.18079 -0.128438,0.34103 -0.194563,0.6199 -0.04482,0.20963 -0.04695,0.27765 -0.03987,0.5251 0.01507,0.13559 0.03858,0.27871 0.136505,0.4369 0.09793,0.15819 0.165724,0.21846 0.278716,0.32392"
       id="path4762" />
    <path
       style="fill:none;stroke:#000000;stroke-width:0.33821413;stroke-linecap:butt;stroke-linejoin:miter;stroke-miterlimit:4;stroke-dasharray:none;stroke-opacity:1"
       d="m 31.16284,141.3157 c -1.973608,2.16946 -9.493924,10.0859 -9.765107,10.37215 1.164492,-0.35557 3.384899,-1.07039 5.901475,-2.04647 3.109198,-1.20592 6.68634,-2.75115 9.472546,-3.79866 2.602802,-0.97857 4.61797,-1.56384 4.76397,-1.61825"
       id="path4764" />
    <path
       style="fill:#000000;fill-opacity:1;stroke:#000000;stroke-width:0;stroke-linecap:butt;stroke-linejoin:miter;stroke-miterlimit:4;stroke-dasharray:none;stroke-opacity:1"
       d="m 38.236197,134.59639 c 0.828615,-0.45197 2.365318,-1.40864 2.365318,-1.40864 1.167594,0.51223 1.55177,1.31071 1.777755,1.70996 0.323914,0.58002 0.459505,1.02446 0.527301,1.22032 -0.308847,0.87381 -0.301314,1.80035 -0.301314,1.95854 -1.401112,-1.37098 -2.056472,-1.87568 -2.463246,-2.19206 -0.406775,-0.31638 -1.152528,-0.78342 -1.905814,-1.28812 z"
       id="path4766" />
    <path
       style="fill:none;stroke:#000000;stroke-width:0.27057132;stroke-linecap:butt;stroke-linejoin:miter;stroke-miterlimit:4;stroke-dasharray:none;stroke-opacity:1"
       d="m 38.567643,145.17252 c 0.03109,-0.35003 0.04855,-0.60433 0.02297,-0.78813 -0.05225,-0.37544 -0.127493,-0.49225 -0.151028,-0.56024 -0.08191,-0.11851 -0.143346,-0.26202 -0.271285,-0.39824 -0.148572,-0.15818 -0.372382,-0.31047 -0.594994,-0.46428"
       id="path4768" />
    <path
       style="fill:none;stroke:#000000;stroke-width:0.27057132;stroke-linecap:butt;stroke-linejoin:miter;stroke-miterlimit:4;stroke-dasharray:none;stroke-opacity:1"
       d="m 40.816201,144.41924 c 0.0075,-0.5273 -0.0226,-0.71185 -0.07909,-0.94161 -0.0565,-0.22975 -0.124293,-0.39547 -0.207154,-0.54237 -0.04149,-0.0735 -0.161336,-0.24525 -0.28346,-0.40224 -0.121786,-0.15656 -0.275946,-0.30218 -0.341768,-0.37741"
       id="path4770" />
    <path
       style="fill:none;stroke:#000000;stroke-width:0.22547609;stroke-linecap:butt;stroke-linejoin:miter;stroke-miterlimit:4;stroke-dasharray:none;stroke-opacity:1"
       d="m 38.586475,144.48327 2.195828,-0.68549"
       id="path4772" />
    <path
       style="fill:none;stroke:#000000;stroke-width:0.22547609;stroke-linecap:butt;stroke-linejoin:miter;stroke-miterlimit:4;stroke-dasharray:none;stroke-opacity:1"
       d="m 38.352957,143.59439 2.192062,-0.55367"
       id="path4774" />
    <path
       style="fill:#000000;fill-opacity:1;stroke:#000000;stroke-width:0;stroke-linecap:round;stroke-linejoin:miter;stroke-miterlimit:4;stroke-dasharray:none;stroke-opacity:1"
       d="m 40.552552,142.03887 c 0,0 4.51e-4,-7e-5 -7.22e-4,0.007 -0.01834,0.028 -0.140874,0.0605 -0.354046,0.11547 -0.303017,0.0713 -0.400912,0.12221 -0.840433,0.26695 -0.275781,0.0916 -0.570712,0.19155 -0.871749,0.30481 -0.0022,9e-4 -0.07453,0.028 -0.07675,0.0288 -0.399667,0.14967 -0.701438,0.25953 -1.043694,0.40239 -0.396415,0.16592 -0.527997,0.20368 -0.751554,0.34936 v 0 c -0.04857,0.0431 -0.103799,0.0793 -0.136199,0.10037 v 0 c -0.03102,0.0205 -0.05801,0.0366 -0.07766,0.0466 -0.02876,0.0147 -0.04638,0.0169 -0.05053,0.0126 -0.0095,-0.01 -0.0041,-0.0245 0.01165,-0.0533 0.01127,-0.0206 0.02779,-0.0451 0.05068,-0.0757 v 0 c 0.02874,-0.038 0.06796,-0.0817 0.105176,-0.13303 v 0 c 0.179976,-0.17987 0.38961,-0.2934 0.744967,-0.47195 0.322064,-0.16177 0.665909,-0.3014 1.047334,-0.44407 0.02568,-0.01 0.05135,-0.0192 0.07701,-0.0287 0.308744,-0.11449 0.614666,-0.20762 0.898472,-0.28276 0.384986,-0.10252 0.622489,-0.16505 0.892124,-0.17749 0.223768,-0.004 0.348009,-9e-4 0.373785,0.0254 0.0026,0.007 0.0021,0.007 0.0021,0.007 z"
       id="path4780" />
    <path
       style="fill:none;stroke:#000000;stroke-width:0.33821413;stroke-linecap:butt;stroke-linejoin:miter;stroke-miterlimit:4;stroke-dasharray:none;stroke-opacity:1"
       d="m 38.346729,156.46294 c 0.466467,-0.96829 0.687953,-2.39411 0.936536,-3.40351 0.248584,-1.00941 0.542366,-2.58377 0.625228,-3.10354 0.08286,-0.51977 0.26365,-1.56684 0.271183,-2.20713 0.0075,-0.64029 -0.06026,-1.0772 -0.10546,-1.38604 -0.0452,-0.30885 -0.173255,-1.28059 -0.286249,-1.53671"
       id="path6022" />
    <path
       style="fill:none;stroke:#000000;stroke-width:0.33821413;stroke-linecap:butt;stroke-linejoin:miter;stroke-miterlimit:4;stroke-dasharray:none;stroke-opacity:1"
       d="m 35.522925,160.83835 c 0.08452,-0.11961 0.167993,-0.23961 0.249685,-0.3586"
       id="path6020" />
    <path
       style="fill:none;stroke:#000000;stroke-width:0.33821413;stroke-linecap:butt;stroke-linejoin:miter;stroke-miterlimit:4;stroke-dasharray:none;stroke-opacity:1"
       d="m 41.595853,144.4343 c -0.150657,-1.92841 -0.202185,-2.46183 -0.120525,-3.23913 0.06456,-0.61457 0.117127,-0.83575 0.149087,-0.87836 0.03196,-0.0426 0.167439,-0.12381 0.226031,-0.0972 0.05859,0.0267 0.170449,0.10783 0.213062,0.19305 0.02255,0.0451 0.602698,1.02877 1.121132,1.99389 0.461176,0.85852 0.706697,1.41713 0.947771,1.85785 0.142179,0.25992 1.07596,2.40759 1.251736,2.80708 0.175775,0.39949 0.703103,2.01343 0.884206,2.56207 0.181101,0.54863 0.830939,2.98285 0.905511,3.32908 0.07457,0.34623 0.452756,2.66327 0.511348,3.06808 0.05859,0.40482 0.223713,2.34368 0.24502,2.68991 0.02131,0.34622 0.143816,2.2691 0.159796,2.58337 0.01598,0.31426 0.181104,3.28114 0.186429,3.55812 0.0053,0.27698 0.149145,4.61279 0.15447,4.84715 0.0053,0.23437 0.138489,4.96433 0.154469,5.37981 -4.028592,0.14623 -9.415123,-1.49455 -11.584587,-2.09718 -2.169464,-0.60262 -4.867476,-1.49511 -6.960364,-2.25286 -2.178466,-0.78872 -3.905915,-1.37999 -3.905915,-1.37999 1.46431,-0.84825 2.898597,-2.04892 3.591048,-2.58158 0.692448,-0.53265 1.88346,-1.60116 2.443966,-2.12125 0.779504,-0.7233 1.851349,-1.90849 2.443347,-2.61763 0.0045,-0.005 0.009,-0.0108 0.01357,-0.0163"
       id="path4876" />
    <path
       style="fill:#000000;fill-opacity:1;stroke:#000000;stroke-width:0;stroke-linecap:butt;stroke-linejoin:miter;stroke-miterlimit:4;stroke-dasharray:none;stroke-opacity:1"
       d="m 42.125865,147.96233 c -0.03737,-0.2115 -0.07088,-0.42348 -0.10554,-0.63555 0,0 0,0 0,0 -0.05584,-0.34186 -0.09722,-0.68551 -0.135778,-1.03013 0,0 0,0 0,0 -0.07045,-0.63024 -0.100314,-1.26434 -0.138504,-1.90192 l -0.32298,0.034 c 0.09496,0.62896 0.183008,1.264 0.311178,1.89169 0,0 0,0 0,0 0.06963,0.3406 0.142355,0.68135 0.229171,1.01836 0,0 0,0 0,0 0.05359,0.20788 0.106158,0.41632 0.162453,0.62359 z"
       id="path4504" />
    <path
       style="fill:#000000;fill-opacity:1;stroke:#000000;stroke-width:0;stroke-linecap:butt;stroke-linejoin:miter;stroke-miterlimit:4;stroke-dasharray:none;stroke-opacity:1"
       d="m 35.303675,138.89527 c -1.19584,1.45323 -2.125099,1.80531 -2.825082,2.21595 -0.692449,0.30894 -0.735708,0.29818 -0.895504,0.30883 -0.159796,0.0106 -0.260175,0.009 -0.337387,-0.0535 -0.07721,-0.0621 -0.16129,-0.12475 -0.222546,-0.19932 -0.06125,-0.0746 -0.0821,-0.17818 -0.09009,-0.2634 -0.008,-0.0852 0.02949,-0.40261 0.04547,-0.53045 0.01598,-0.12783 0.07191,-0.29029 0.141154,-0.47672 0.06924,-0.18643 0.162459,-0.44211 0.234366,-0.57527 0.07191,-0.13316 0.213062,-0.33823 0.319594,-0.49004 0.106529,-0.15181 0.35155,-0.48205 0.466072,-0.62587 0.11452,-0.14381 0.308938,-0.35421 0.447429,-0.51401 0.138489,-0.15979 0.250347,-0.28763 0.380847,-0.42612 0.1305,-0.13849 0.311602,-0.30627 0.463409,-0.41813 0.151805,-0.11186 0.324918,-0.24769 0.468735,-0.3196 0.143816,-0.0719 0.306275,-0.15694 0.444766,-0.19689 0.138489,-0.0399 0.279643,-0.0774 0.450092,-0.0987 0.170449,-0.0213 0.263663,-0.0346 0.338235,-0.0186 0.07457,0.016 0.114269,0.0155 0.167785,0.0453 0.07191,0.04 0.06925,0.0373 0.146481,0.0985 0.02049,0.0326 0.07929,0.0446 0.0938,0.0877 0.01754,0.0521 -0.0059,0.1227 -0.0059,0.1227 -0.0097,0.0497 -0.10653,0.40482 -0.10653,0.40482 -0.02397,0.12249 -0.05327,0.37284 -0.06126,0.52198 -0.008,0.14914 -0.01598,0.53798 -0.01598,0.68446 0,0.14648 -0.0027,0.22638 -0.0027,0.36487 0,0.13849 -0.01066,0.21039 -0.01332,0.25833 z"
       id="path4540" />
    <path
       style="fill:#ffffff;fill-opacity:1;stroke:#000000;stroke-width:0.04509522;stroke-linecap:butt;stroke-linejoin:miter;stroke-miterlimit:4;stroke-dasharray:none;stroke-opacity:1"
       d="m 34.989533,138.14813 c -0.274949,0.19398 -0.30508,0.21846 -0.459504,0.35405 -0.154424,0.13559 -0.248584,0.21468 -0.346512,0.33144 -0.09793,0.11677 -0.241053,0.29002 -0.331445,0.42561 -0.0904,0.13559 -0.0904,0.13371 -0.16949,0.27872 -0.0565,0.13936 -0.07533,0.18078 -0.08286,0.26365 0.0038,0.0904 0.0075,0.0942 0.03013,0.11299 0.0226,0.0188 0.04897,0.0113 0.0678,0.0113 0.01883,0 0.0113,0.004 0.08286,-0.0113 0.07156,-0.0151 0.124293,-0.0414 0.192088,-0.0866 0.0678,-0.0452 0.124293,-0.10169 0.241052,-0.19962 0.108631,-0.0911 0.276848,-0.24279 0.361578,-0.32391 0.09234,-0.0884 0.227401,-0.24147 0.297548,-0.32015 0.06921,-0.0776 0.128059,-0.15819 0.128059,-0.15819 z"
       id="path4542" />
    <path
       style="fill:#000000;fill-opacity:1;stroke:#000000;stroke-width:0;stroke-linecap:butt;stroke-linejoin:miter;stroke-miterlimit:4;stroke-dasharray:none;stroke-opacity:1"
       d="m 35.335632,138.80205 c -0.843267,0.72836 -1.283939,1.42892 -1.396932,1.59464 -0.112993,0.16573 -0.500936,0.73445 -0.60263,0.88511 -0.101693,0.15066 -0.523534,0.85498 -0.602629,0.99434 -0.07909,0.13936 -0.195854,0.42561 -0.252351,0.57627 -0.0565,0.15065 -0.07909,0.22222 -0.09039,0.36534 -0.0113,0.14312 -0.0226,0.22975 0.03766,0.32014 0.06026,0.0904 0.08286,0.1017 0.16949,0.1469 0.08663,0.0452 0.165723,0.0979 0.293782,0.11299 0.128058,0.0151 0.274949,0.008 0.482103,-0.0301 0.207153,-0.0377 0.553665,-0.14689 0.719388,-0.23728 0.165722,-0.0904 0.248583,-0.12806 0.497168,-0.29002 0.248584,-0.16195 1.080966,-0.73068 1.359682,-0.96421 0.278716,-0.23351 0.934045,-0.74967 1.144995,-0.97173 0.429738,-0.45239 0.672268,-0.7596 0.775884,-0.90018 0.108608,-0.14735 0.399241,-0.62146 0.470804,-0.76835 0.07156,-0.14689 0.186194,-0.41935 0.229753,-0.6064 0.08453,-0.36299 0.04143,-0.71562 0.03766,-0.82484 0,0 -0.699932,0.16097 -1.051887,0.23203 -0.378504,0.0764 -0.758368,0.14651 -1.139426,0.20896 -0.359659,0.0589 -1.082127,0.15642 -1.082127,0.15642 z"
       id="path4544" />
    <path
       style="fill:#ffffff;fill-opacity:1;stroke:#000000;stroke-width:0.04509522;stroke-linecap:butt;stroke-linejoin:miter;stroke-miterlimit:4;stroke-dasharray:none;stroke-opacity:1"
       d="m 37.490219,139.3427 c -0.332831,0.3853 -0.617879,0.79365 -0.719083,0.9428 -0.101204,0.14914 -0.226377,0.34222 -0.26899,0.44875 -0.04261,0.10654 -0.08037,0.15191 -0.08256,0.22639 -0.0016,0.0535 -0.0053,0.0873 0.03196,0.12384 0.03272,0.0321 0.08522,0.0319 0.133163,0.0213 0.04793,-0.0106 0.143818,-0.0426 0.207735,-0.0852 0.06392,-0.0426 0.121612,-0.079 0.218389,-0.17046 0.09721,-0.0919 0.159795,-0.14381 0.266326,-0.26099 0.106531,-0.11719 0.174445,-0.19443 0.275648,-0.33291 0.101205,-0.1385 0.2104,-0.2863 0.26899,-0.38751 0.05859,-0.1012 0.151808,-0.25567 0.201077,-0.3662 0.04874,-0.10933 0.08097,-0.18657 0.08523,-0.25034 0.004,-0.0599 0.01688,-0.0968 -0.0067,-0.14782 -0.02073,-0.045 -0.02765,-0.0747 -0.08922,-0.0919 -0.05726,-0.016 -0.121179,-0.009 -0.179771,0.0226 -0.05859,0.032 -0.121961,0.0857 -0.185098,0.14515 -0.06481,0.0611 -0.08304,0.0767 -0.157124,0.16249 z"
       id="path4546" />
    <path
       style="fill:#000000;fill-opacity:1;stroke:#000000;stroke-width:0;stroke-linecap:butt;stroke-linejoin:miter;stroke-miterlimit:4;stroke-dasharray:none;stroke-opacity:1"
       d="m 40.047551,138.91323 c -0.01281,0.13581 -0.02911,0.26747 -0.06029,0.39925 -0.02662,0.11098 -0.05988,0.21632 -0.09394,0.31311 -0.05814,0.16525 -0.134799,0.31184 -0.20516,0.43076 -0.218082,0.36892 -0.458958,0.49584 -0.468915,0.48724 -0.02898,-0.025 0.147644,-0.22898 0.299413,-0.57491 0.05339,-0.12021 0.11412,-0.26443 0.156415,-0.41292 0.02714,-0.0945 0.05415,-0.19493 0.07503,-0.29632 0.02424,-0.11603 0.03661,-0.23627 0.04946,-0.36979 0.08266,0.008 0.165328,0.0157 0.247992,0.0236 z"
       id="path4548" />
    <path
       style="fill:#000000;fill-opacity:1;stroke:#000000;stroke-width:0;stroke-linecap:butt;stroke-linejoin:miter;stroke-miterlimit:4;stroke-dasharray:none;stroke-opacity:1"
       d="m 40.78428,139.40476 c -0.0121,0.0394 -0.01711,0.0913 -0.03478,0.14781 -0.03643,0.11333 -0.08027,0.2117 -0.130591,0.29649 -0.127487,0.21222 -0.279838,0.26984 -0.284808,0.26515 -0.01881,-0.0177 0.09342,-0.13328 0.17468,-0.32242 0.03687,-0.083 0.06919,-0.17388 0.100285,-0.28204 0.01096,-0.0373 0.01462,-0.0877 0.0319,-0.14744 0.04777,0.0142 0.09554,0.0283 0.143314,0.0424 z"
       id="path4576" />
    <path
       style="fill:#000000;fill-opacity:1;stroke:#000000;stroke-width:0;stroke-linecap:butt;stroke-linejoin:miter;stroke-miterlimit:4;stroke-dasharray:none;stroke-opacity:1"
       d="m 35.335632,138.80205 c 0,0 -5e-5,4e-5 1.25e-4,-3.5e-4 0,0 0,0 0,0 0,0 0,0 0,0 0,0 0,0 0,0 0,0 0,0 0,0 0,0 0,0 0,0 0,0 0,0 0,0 0,0 0,0 0,0 8.57e-4,-0.002 0.0034,-0.0119 -0.0045,-0.0363 v 0 c 0,0 0,0 0,0 v 0 c 0.0033,-0.0158 0.01047,-0.0361 0.02125,-0.0604 v 0 c 0.01979,-0.0447 0.05186,-0.10301 0.09462,-0.1718 v 0 c 0.06109,-0.0984 0.153539,-0.2348 0.264593,-0.37019 0.09075,-0.11125 0.22468,-0.28926 0.356063,-0.42677 0.0022,-0.002 0.0043,-0.005 0.0064,-0.007 0.489874,-0.50718 0.559825,-0.42891 0.60272,-0.38243 0.05438,0.0589 0.065,0.0668 -0.414303,0.56411 -0.0019,0.002 -0.0039,0.004 -0.0058,0.006 -0.129767,0.1352 -0.247993,0.28156 -0.369909,0.40416 -0.120731,0.12063 -0.225664,0.23156 -0.313303,0.31478 v 0 c -0.05841,0.0554 -0.108095,0.0989 -0.147315,0.12789 v 0 c -0.02125,0.0157 -0.03937,0.0272 -0.054,0.0339 v 0 c 0,0 0,0 0,0 v 0 c -0.02553,-0.002 -0.03467,0.003 -0.03634,0.004 0,0 0,0 0,0 0,0 0,0 0,0 0,0 0,0 0,0 0,0 0,0 0,0 0,0 0,0 0,0 0,0 0,0 0,0 0,0 0,0 0,0 -3.47e-4,2.6e-4 -3.19e-4,2e-4 -3.19e-4,2e-4 z"
       id="path4608" />
    <path
       style="fill:#000000;fill-opacity:1;stroke:#000000;stroke-width:0.04509522;stroke-linecap:butt;stroke-linejoin:miter;stroke-miterlimit:4;stroke-dasharray:none;stroke-opacity:1"
       d="m 43.306754,161.72253 c 0.02402,-0.87799 0.01541,-1.77627 -0.02572,-2.70188 -0.03455,-0.77748 -0.09005,-1.5279 -0.157656,-2.24173 0,0 0,0 0,-1e-5 -0.341071,-3.60802 -1.006256,-6.23784 -0.909835,-6.25805 -0.03061,0.006 0.921095,2.54948 1.319891,6.21636 0,0 0,0 0,0 0.07817,0.71967 0.139541,1.47798 0.174455,2.26447 0.0415,0.93476 0.04278,1.84702 0.0038,2.73432 -0.06624,-0.002 -0.132484,-0.005 -0.198727,-0.006 -0.06873,-0.002 -0.13747,-0.005 -0.206205,-0.007 z"
       id="path4629" />
    <path
       style="fill:#000000;fill-opacity:1;stroke:#000000;stroke-width:0.04509522;stroke-linecap:butt;stroke-linejoin:miter;stroke-miterlimit:4;stroke-dasharray:none;stroke-opacity:1"
       d="m 45.709701,167.29959 c 0.11693,-0.50801 0.282496,-1.00409 0.413652,-1.50607 0.182966,-0.70029 0.329892,-1.41883 0.431592,-2.15067 0,0 0,0 0,0 0.04165,-0.29896 0.07539,-0.59947 0.102355,-0.90148 0.110252,-1.23461 0.104974,-2.47682 0.07489,-3.63193 -0.04866,-1.86838 -0.340221,-3.91609 -0.526794,-5.37041 -0.442308,-3.45171 -1.297844,-5.58306 -1.249884,-5.59856 -0.07325,0.0236 0.986115,2.05799 1.495359,5.565 0.212047,1.46069 0.524035,3.48998 0.584787,5.39517 0.03705,1.1608 0.04541,2.41365 -0.06667,3.66857 -0.0274,0.30676 -0.06184,0.61242 -0.104467,0.91688 0,0 0,0 0,0 -0.104548,0.74488 -0.25605,1.47511 -0.44517,2.1855 -0.136926,0.51439 -0.304257,1.00551 -0.419932,1.49391 -0.04741,-0.0107 -0.09481,-0.0215 -0.142222,-0.0322 -0.04916,-0.0112 -0.09833,-0.0225 -0.147493,-0.0337 z"
       id="path4655" />
    <path
       style="fill:#000000;fill-opacity:1;stroke:#000000;stroke-width:0.04509522;stroke-linecap:butt;stroke-linejoin:miter;stroke-miterlimit:4;stroke-dasharray:none;stroke-opacity:1"
       d="m 43.467513,161.80488 c 0,0 -8.9e-5,-1e-5 -2.96e-4,-0.004 0,0 0,0 0,0 0.0041,-0.0313 0.126308,-0.0793 0.332932,-0.13072 0.105557,-0.0266 0.264114,-0.0706 0.423545,-0.0735 0.04036,-4.5e-4 0.08109,-2.6e-4 0.122044,10e-4 0.127346,0.005 0.249766,0.0197 0.365345,0.0471 0,0 0,0 0,0 0.357697,0.0906 0.454332,0.31447 0.452416,0.31728 -0.02189,0.0321 -0.216002,-0.10675 -0.486716,-0.13609 0,0 0,0 0,0 -0.107943,-0.0149 -0.217667,-0.023 -0.338106,-0.0271 -0.03835,-10e-4 -0.07666,-0.002 -0.114983,-0.003 -0.132719,-0.003 -0.274484,0.0247 -0.398801,0.0326 -0.21162,0.0151 -0.342729,0.007 -0.356571,-0.0211 0,0 0,0 0,0 -9.02e-4,-0.003 -8.12e-4,-0.003 -8.12e-4,-0.003 z"
       id="path4689" />
    <path
       style="fill:#000000;fill-opacity:1;stroke:#000000;stroke-width:0.04509522;stroke-linecap:butt;stroke-linejoin:miter;stroke-miterlimit:4;stroke-dasharray:none;stroke-opacity:1"
       d="m 43.431524,161.87945 c 0.0097,-0.009 0.265293,0.11482 0.550862,0.40403 0,0 0,0 0,0 0.0628,0.0644 0.118848,0.13486 0.170481,0.20935 0.0664,0.0958 0.123884,0.19609 0.174419,0.28721 0,0 0,0 0,0 0.191912,0.34241 0.164586,0.59755 0.13126,0.60302 -0.03997,0.007 -0.106443,-0.23095 -0.291632,-0.50455 0,0 0,0 0,0 -0.05932,-0.0877 -0.118474,-0.18221 -0.179706,-0.27135 -0.04765,-0.0694 -0.09506,-0.13315 -0.146648,-0.19198 0,0 0,0 0,0 -0.239867,-0.27645 -0.44137,-0.50689 -0.409036,-0.53573 z"
       id="path4710" />
    <path
       style="fill:none;stroke:#000000;stroke-width:0.27057132;stroke-linecap:butt;stroke-linejoin:miter;stroke-miterlimit:4;stroke-dasharray:none;stroke-opacity:1"
       d="m 43.528857,161.81736 c -0.14432,0.0722 -0.522809,-0.0643 -0.751805,-0.18292 -0.413959,-0.2145 -0.845782,-0.73838 -1.05387,-0.91961 -0.208089,-0.18125 -1.00017,-1.07402 -1.147846,-1.26196 -0.147676,-0.18796 -0.832356,-1.00688 -1.060583,-1.30895 -0.228225,-0.30207 -0.07719,-0.11241 -0.325558,-0.4279 -0.01342,0.0604 -0.164459,1.07904 -0.191308,1.28713 -0.02685,0.20809 -0.154389,0.54371 -0.281927,0.81222 -0.127538,0.2685 -0.483302,0.69139 -0.684679,0.89948 -0.201376,0.20809 -0.684681,0.47659 -1.067296,0.60412 -0.382615,0.12754 -0.671255,0.1544 -0.839068,0.19467 -0.167814,0.0403 -0.194665,0.0671 -0.234939,0.12754 -0.04028,0.0604 -0.03356,0.094 -0.02685,0.12082 0.0067,0.0268 0.0537,0.0604 0.174526,0.19467 0.120827,0.13425 0.630978,0.39604 1.074008,0.69139 0.443026,0.29535 0.832354,0.61755 1.241821,0.96661 0.409464,0.34905 0.919619,0.79208 1.268671,1.06058 0.349053,0.2685 1.420241,0.96709 1.845951,1.20154 0.463167,0.25508 1.852664,0.91963 2.295691,1.09415 0.443029,0.17453 1.282094,0.44304 1.597586,0.49673 0.315488,0.0537 0.446384,0.0134 0.481626,-0.12337"
       id="path4719" />
    <path
       style="fill:none;stroke:#000000;stroke-width:0.27057132;stroke-linecap:butt;stroke-linejoin:miter;stroke-miterlimit:4;stroke-dasharray:none;stroke-opacity:1"
       d="m 36.682058,161.35923 c -1.00017,-1.18812 -1.550598,-1.55731 -1.550598,-1.55731"
       id="path4723" />
    <path
       style="fill:none;stroke:#000000;stroke-width:0.27057132;stroke-linecap:butt;stroke-linejoin:miter;stroke-miterlimit:4;stroke-dasharray:none;stroke-opacity:1"
       d="m 37.823193,156.61345 c 0.241652,-0.17453 0.0636,-0.0165 0.208089,-0.094 0.149677,-0.0802 0.191853,-0.0685 0.278571,-0.0403 0.05725,0.0186 0.134384,0.0704 0.154388,0.10404 0.07545,0.12689 0.09238,0.1925 0.05343,0.35132 v -2e-5 c -0.04025,0.16413 -0.06899,0.38701 -0.261283,0.71779 -0.04687,0.0806 -0.256355,0.49509 -0.493948,0.82443 -0.06688,0.0927 -0.373231,0.46575 -0.469541,0.54487 -0.21774,0.17886 -0.369189,0.28355 -0.563854,0.37753 -0.194663,0.094 -0.557142,0.2685 -0.751806,0.31548 -0.194664,0.047 -0.488722,0.0897 -0.6364,0.10985 -0.147675,0.0201 -0.08184,0.058 -0.209381,-0.0226 -0.124824,-0.0914 -0.0056,-0.29993 0.03356,-0.40275"
       id="path4725" />
    <path
       style="fill:none;stroke:#000000;stroke-width:0.27057132;stroke-linecap:butt;stroke-linejoin:miter;stroke-miterlimit:4;stroke-dasharray:none;stroke-opacity:1"
       d="m 39.189194,157.71602 c -0.671254,-0.94482 -0.718241,-1.12605 -0.718241,-1.12605"
       id="path4727" />
    <path
       style="opacity:1;fill:none;fill-opacity:1;stroke:#000000;stroke-width:0.4509522;stroke-miterlimit:4;stroke-dasharray:none;stroke-dashoffset:0;stroke-opacity:1"
       d="m 35.518636,160.1273 v 1.89248 H 7.3434835 v -9.34108 0 H 35.518636 v 2.78317"
       id="path6013" />
    <path
       style="fill:none;stroke:#000000;stroke-width:0.27057132;stroke-linecap:butt;stroke-linejoin:miter;stroke-miterlimit:4;stroke-dasharray:none;stroke-opacity:1"
       d="m 38.432979,157.34924 c -1.101185,-1.71823 -2.895357,-2.62956 -2.895357,-2.62956"
       id="path5966" />
    <path
       style="fill:none;stroke:#000000;stroke-width:0.27057132;stroke-linecap:butt;stroke-linejoin:miter;stroke-miterlimit:4;stroke-dasharray:none;stroke-opacity:1"
       d="m 35.672867,154.99887 c 0.237799,0.28272 0.685088,0.61115 0.587376,0.6628 -0.308199,0.16294 -1.367962,-0.58406 -1.576989,-0.74264 -0.275296,-0.20884 -0.71672,-0.48889 -0.930311,-0.48414 -0.214119,0.005 -0.338199,-0.0218 -0.512621,0.23733 -0.146304,0.21732 -0.104425,0.41769 -0.0095,0.5316 0.09493,0.11392 1.518876,1.38598 1.518876,1.38598 0,0 -1.385975,-0.95879 -1.718229,-1.05372 -0.332254,-0.0949 -0.577464,-0.0857 -0.674002,0 -0.13463,0.11957 -0.14505,0.33646 -0.123408,0.41769 0.03546,0.13311 0.113916,0.23732 0.208846,0.33225 0.09493,0.0949 1.528369,1.2151 1.528369,1.2151 0,0 -1.395209,-0.80963 -1.585328,-0.89234 -0.192639,-0.0838 -0.465154,-0.18036 -0.57907,-0.057 -0.113915,0.12341 -0.116319,0.21422 -0.06645,0.4082 0.08901,0.34623 0.806703,0.94223 1.290006,1.28457 0.483304,0.34234 2.718582,1.51033 2.718582,1.51033"
       id="path6006" />
    <text
       xml:space="preserve"
       style="font-style:normal;font-weight:normal;font-size:4.93888855px;line-height:6.61458302px;font-family:sans-serif;letter-spacing:0px;word-spacing:0px;fill:#000000;fill-opacity:1;stroke:none;stroke-width:0.26458332"
       x="9.0772934"
       y="159.71654"
       id="text6988"><tspan
         id="tspan6986"
         x="9.0772934"
         y="159.71654"
         style="font-size:6.3499999px;stroke-width:0.26458332">Worker</tspan></text>
  </g>
  <g
     transform="matrix(1.2115444,0,0,1.2115444,81.007203,-3.5142178)"
     id="g7156">
    <rect
       style="opacity:1;fill:none;fill-opacity:1;stroke:#000000;stroke-width:2.00020003;stroke-miterlimit:4;stroke-dasharray:none;stroke-dashoffset:0;stroke-opacity:1"
       id="rect7147"
       width="40"
       height="40"
       x="48.49437"
       y="132.41623"
       ry="5" />
    <text
       xml:space="preserve"
       style="font-style:normal;font-weight:normal;font-size:4.93888855px;line-height:6.61458302px;font-family:sans-serif;letter-spacing:0px;word-spacing:0px;fill:#000000;fill-opacity:1;stroke:none;stroke-width:0.26458332"
       x="51.472153"
       y="144.70262"
       id="text7151"><tspan
         id="tspan7149"
         x="51.472153"
         y="144.70262"
         style="font-size:6.3499999px;stroke-width:0.26458332">Data Node</tspan></text>
  </g>
  <g
     transform="matrix(1.2115444,0,0,1.2115444,25.871803,-3.9261078)"
     id="g7200">
    <rect
       ry="5"
       y="9.9893293"
       x="48.49437"
       height="40"
       width="40"
       id="rect7170"
       style="opacity:1;fill:none;fill-opacity:1;stroke:#000000;stroke-width:2.00020003;stroke-miterlimit:4;stroke-dasharray:none;stroke-dashoffset:0;stroke-opacity:1" />
    <text
       id="text7174"
       y="22.275721"
       x="49.686214"
       style="font-style:normal;font-weight:normal;font-size:4.93888855px;line-height:6.61458302px;font-family:sans-serif;letter-spacing:0px;word-spacing:0px;fill:#000000;fill-opacity:1;stroke:none;stroke-width:0.26458332"
       xml:space="preserve"><tspan
         style="font-size:6.3499999px;stroke-width:0.26458332"
         y="22.275721"
         x="49.686214"
         id="tspan7172">Name Node</tspan></text>
  </g>
  <g
     id="g5368"
     transform="matrix(1.2115444,0,0,1.2115444,2.8476853e-6,7.2219725e-4)">
    <rect
       ry="5"
       y="129.51503"
       x="69.848763"
       height="40"
       width="40"
       id="rect7178"
       style="opacity:1;fill:none;fill-opacity:1;stroke:#000000;stroke-width:2.00020003;stroke-miterlimit:4;stroke-dasharray:4.00040006, 2.00020003;stroke-dashoffset:0;stroke-opacity:1" />
    <text
       id="text7182"
       y="141.80142"
       x="75.53801"
       style="font-style:normal;font-weight:normal;font-size:4.93888855px;line-height:6.61458302px;font-family:sans-serif;letter-spacing:0px;word-spacing:0px;fill:#000000;fill-opacity:1;stroke:none;stroke-width:0.26458332"
       xml:space="preserve"><tspan
         style="font-size:6.3499999px;stroke-width:0.26458332"
         y="141.80142"
         x="75.53801"
         id="tspan7180">Executor</tspan></text>
  </g>
  <g
     transform="matrix(1.2115444,0,0,1.2115444,81.007193,-152.25172)"
     id="g7192">
    <rect
       style="opacity:1;fill:none;fill-opacity:1;stroke:#000000;stroke-width:2.00020003;stroke-miterlimit:4;stroke-dasharray:none;stroke-dashoffset:0;stroke-opacity:1"
       id="rect7186"
       width="40"
       height="40"
       x="48.49437"
       y="132.41623"
       ry="5" />
    <text
       xml:space="preserve"
       style="font-style:normal;font-weight:normal;font-size:4.93888855px;line-height:6.61458302px;font-family:sans-serif;letter-spacing:0px;word-spacing:0px;fill:#000000;fill-opacity:1;stroke:none;stroke-width:0.26458332"
       x="51.472153"
       y="144.70262"
       id="text7190"><tspan
         id="tspan7188"
         x="51.472153"
         y="144.70262"
         style="font-size:6.3499999px;stroke-width:0.26458332">Data Node</tspan></text>
  </g>
  <path
     style="fill:none;stroke:#000000;stroke-width:0.64110887;stroke-linecap:butt;stroke-linejoin:miter;stroke-miterlimit:4;stroke-dasharray:1.28221779, 0.64110889;stroke-dashoffset:0;stroke-opacity:1"
     d="m 59.778573,63.315482 c 11.95571,38.056218 -0.73893,77.575698 -0.73893,77.575698"
     id="path4755" />
  <path
     style="fill:#000000;fill-opacity:1;stroke:#000000;stroke-width:1.20631623;stroke-miterlimit:4;stroke-dasharray:none;stroke-dashoffset:0;stroke-opacity:1"
     d="m 61.251873,141.44531 -4.50433,6.09779 0.009,-7.51453 c 0,0 1.39886,1.04575 2.21856,1.29126 0.72805,0.21814 2.27662,0.12543 2.27662,0.12543 z"
     id="path1106" />
  <path
     style="fill:none;stroke:#000000;stroke-width:0.64110887;stroke-linecap:butt;stroke-linejoin:miter;stroke-miterlimit:4;stroke-dasharray:1.28221779, 0.64110889;stroke-dashoffset:0;stroke-opacity:1"
     d="m 66.917313,177.43475 c 9.76374,-3.09581 8.15629,-1.78605 8.15629,-1.78605"
     id="path5358" />
  <path
     id="path5360"
     d="m 73.046643,173.11146 7.53557,0.82889 -6.50087,3.76922 c 0,0 0.20091,-1.73495 9.9e-4,-2.56698 -0.17738,-0.73904 -1.03591,-2.03116 -1.03591,-2.03116 z"
     style="fill:#000000;fill-opacity:1;stroke:#000000;stroke-width:1.20631623;stroke-miterlimit:4;stroke-dasharray:none;stroke-dashoffset:0;stroke-opacity:1" />
  <g
     id="g4952"
     transform="matrix(1.2115444,0,0,1.2115444,2.8476853e-6,7.2219725e-4)">
    <rect
       style="opacity:1;fill:none;fill-opacity:1;stroke:#000000;stroke-width:2.00020003;stroke-miterlimit:4;stroke-dasharray:4.00040006, 2.00020003;stroke-dashoffset:0;stroke-opacity:1"
       id="rect4938"
       width="40"
       height="40"
       x="69.848763"
       y="55.960823"
       ry="5" />
    <text
       xml:space="preserve"
       style="font-style:normal;font-weight:normal;font-size:4.93888855px;line-height:6.61458302px;font-family:sans-serif;letter-spacing:0px;word-spacing:0px;fill:#000000;fill-opacity:1;stroke:none;stroke-width:0.26458332"
       x="79.767204"
       y="68.247215"
       id="text4942"><tspan
         id="tspan4940"
         x="79.767204"
         y="68.247215"
         style="font-size:6.3499999px;stroke-width:0.26458332">Driver</tspan></text>
  </g>
  <path
     id="path4954"
     d="m 67.692913,62.473532 c 3.58428,16.92446 7.83015,18.73342 7.83015,18.73342"
     style="fill:none;stroke:#000000;stroke-width:0.6057722;stroke-linecap:butt;stroke-linejoin:miter;stroke-miterlimit:4;stroke-dasharray:1.21154436, 0.60577219;stroke-dashoffset:0;stroke-opacity:1" />
  <path
     id="path4965"
     d="m 77.099703,79.041012 4.21821,6.2991 -7.06988,-2.54659 c 0,0 1.45676,-0.96348 1.96468,-1.6521 0.45121,-0.61159 0.88696,-2.10048 0.88696,-2.10048 z"
     style="fill:#000000;fill-opacity:1;stroke:#000000;stroke-width:1.20631623;stroke-miterlimit:4;stroke-dasharray:none;stroke-dashoffset:0;stroke-opacity:1" />
  <path
     id="path4967"
     d="m 107.52016,119.15001 0.0842,27.15598"
     style="fill:none;stroke:#000000;stroke-width:0.6057722;stroke-linecap:butt;stroke-linejoin:miter;stroke-miterlimit:4;stroke-dasharray:1.21154436, 0.60577219;stroke-dashoffset:0;stroke-opacity:1" />
  <path
     id="path4969"
     d="m 109.81173,145.68383 -2.38928,7.19466 -2.32357,-7.14627 c 0,0 1.65435,0.55995 2.50977,0.53892 0.7598,-0.0183 2.20312,-0.58737 2.20312,-0.58737 z"
     style="fill:#000000;fill-opacity:1;stroke:#000000;stroke-width:1.20631623;stroke-miterlimit:4;stroke-dasharray:none;stroke-dashoffset:0;stroke-opacity:1" />
  <g
     transform="matrix(0.2360839,0,0,0.2360839,42.327423,61.460002)"
     id="layer1">
    <g
       id="g4737">
      <path
         style="opacity:1;fill:none;fill-opacity:1;stroke:#000000;stroke-width:2;stroke-linecap:round;stroke-miterlimit:4;stroke-dasharray:none;stroke-dashoffset:29.23999977;stroke-opacity:1"
         d="m 76.717454,107.55289 c -3e-5,2.67509 -26.02307,4.84367 -58.1241,4.84367 -32.101032,0 -58.124069,-2.16858 -58.124103,-4.84367"
         id="ellipse4489" />
      <ellipse
         id="ellipse4493"
         style="opacity:1;fill:none;fill-opacity:1;stroke:#000000;stroke-width:2;stroke-linecap:round;stroke-miterlimit:4;stroke-dasharray:none;stroke-dashoffset:29.23999977;stroke-opacity:1"
         cx="18.593355"
         cy="92.502365"
         rx="58.124104"
         ry="4.8436751" />
      <path
         style="fill:none;stroke:#000000;stroke-width:2;stroke-linecap:butt;stroke-linejoin:miter;stroke-miterlimit:4;stroke-dasharray:none;stroke-opacity:1"
         d="m -39.540139,105.48863 v 2.06135"
         id="path4530" />
      <path
         style="fill:none;stroke:#000000;stroke-width:2;stroke-linecap:butt;stroke-linejoin:miter;stroke-miterlimit:4;stroke-dasharray:none;stroke-opacity:1"
         d="M -39.540139,92.514921 V 103.12654"
         id="path4495" />
      <path
         style="opacity:1;fill:none;fill-opacity:1;stroke:#000000;stroke-width:2;stroke-linecap:round;stroke-miterlimit:4;stroke-dasharray:none;stroke-dashoffset:29.25354385;stroke-opacity:1"
         d="m -39.540131,103.12686 a 1.1809973,1.1809973 0 0 1 0.0021,0 1.1809973,1.1809973 0 0 1 1.180998,1.18099 v 0 a 1.1809973,1.1809973 0 0 1 -1.180998,1.181 1.1809973,1.1809973 0 0 1 -0.0021,0"
         id="path4523" />
      <path
         style="opacity:1;fill:none;fill-opacity:1;stroke:#000000;stroke-width:2;stroke-linecap:round;stroke-miterlimit:4;stroke-dasharray:none;stroke-dashoffset:29.25354385;stroke-opacity:1"
         d="m 76.690904,101.71854 a 1.2071614,1.2071614 0 0 1 -1.20561,-1.20716 1.2071614,1.2071614 0 0 1 1.20561,-1.207157"
         id="path4532" />
      <path
         style="fill:none;stroke:#000000;stroke-width:2;stroke-linecap:butt;stroke-linejoin:miter;stroke-miterlimit:4;stroke-dasharray:none;stroke-opacity:1"
         d="m 76.690714,101.71843 v 5.78725"
         id="path4549" />
      <path
         style="fill:none;stroke:#000000;stroke-width:2;stroke-linecap:butt;stroke-linejoin:miter;stroke-miterlimit:4;stroke-dasharray:none;stroke-opacity:1"
         d="m 76.690714,92.457498 -1e-5,6.846612"
         id="path4534" />
      <path
         id="path4555"
         d="m 76.708064,101.55977 c 0,0 -26.02307,4.7969 -58.1241,4.7969 -32.101032,0 -58.124103,-0.86804 -58.124103,-0.86804"
         style="opacity:1;fill:#ffffff;fill-opacity:1;stroke:#000000;stroke-width:1;stroke-linecap:round;stroke-miterlimit:4;stroke-dasharray:none;stroke-dashoffset:29.23999977;stroke-opacity:1" />
      <path
         id="path4557"
         d="m 76.690704,99.30411 c 0,0 -25.99632,4.74446 -58.09735,4.74446 -32.101032,0 -58.133485,-0.92171 -58.133485,-0.92171"
         style="opacity:1;fill:none;fill-opacity:1;stroke:#000000;stroke-width:1;stroke-linecap:round;stroke-miterlimit:4;stroke-dasharray:none;stroke-dashoffset:29.23999977;stroke-opacity:1" />
      <path
         style="opacity:1;fill:none;fill-opacity:1;stroke:#000000;stroke-width:1;stroke-linecap:round;stroke-miterlimit:4;stroke-dasharray:none;stroke-dashoffset:29.23999977;stroke-opacity:1"
         d="m 58.741724,92.651299 a 41.281776,3.0419996 0 0 1 -41.28178,3.041999 41.281776,3.0419996 0 0 1 -41.281774,-3.041999 41.281776,3.0419996 0 0 1 41.281774,-3.042 41.281776,3.0419996 0 0 1 41.28178,3.042 z"
         id="ellipse4559" />
      <path
         style="opacity:1;fill:none;fill-opacity:1;stroke:#000000;stroke-width:1;stroke-linecap:round;stroke-miterlimit:4;stroke-dasharray:none;stroke-dashoffset:29.23999977;stroke-opacity:1"
         d="m -12.092046,94.775108 a 29.552296,1.5686179 0 0 1 -2.64e-4,-0.0071 29.552296,1.5686179 0 0 1 29.552294,-1.568618 29.552296,1.5686179 0 0 1 29.5523,1.568618 v 0 a 29.552296,1.5686179 0 0 1 -6e-5,0.0032"
         id="path4568" />
      <path
         style="fill:none;stroke:#000000;stroke-width:2;stroke-linecap:butt;stroke-linejoin:miter;stroke-miterlimit:4;stroke-dasharray:none;stroke-opacity:1"
         d="m -37.420788,108.88856 c 0,2.06602 -1.075176,2.23466 -1.454647,2.27684 -0.379476,0.0422 -0.865221,0.21363 -1.112223,0.68079 -0.08395,0.15879 -0.0778,0.53549 0.036,0.70699 0.249312,0.37572 0.301998,0.36467 0.566214,0.53322 0.305686,0.19501 0.860344,0.26148 1.142475,0.40854 0.889122,0.46346 1.270704,1.15001 0.746598,1.91116 -0.654967,0.95119 -1.287659,0.69426 -3.850724,2.1593 -0.698358,0.39918 -1.764208,1.24927 -2.44992,2.11588 -0.697048,0.88094 -1.112971,1.37574 -1.719029,2.63903 -0.461736,0.96246 -0.769833,3.39792 -0.769833,3.39792 v 72.70852 c 0,2.74291 0.187131,4.95769 1.624471,6.55913 1.702305,1.89666 3.459036,2.2035 4.65102,3.81623 0.996024,1.3476 1.628385,2.9852 1.908111,4.65102 0.130483,0.77705 0.763807,2.28758 1.177589,2.86216"
         id="path4572" />
      <path
         id="path4602"
         d="m 73.989914,108.88856 c 0,2.06602 1.07518,2.23466 1.45465,2.27684 0.37948,0.0422 0.86523,0.21363 1.11224,0.68079 0.084,0.15879 0.0778,0.53549 -0.036,0.70699 -0.24932,0.37572 -0.302,0.36467 -0.56622,0.53322 -0.30569,0.19501 -0.86035,0.26148 -1.14248,0.40854 -0.88913,0.46346 -1.27071,1.15001 -0.7466,1.91116 0.65497,0.95119 1.28766,0.69426 3.85074,2.1593 0.69836,0.39918 1.76422,1.24927 2.44993,2.11588 0.69706,0.88094 1.11298,1.37574 1.71904,2.63903 0.46174,0.96246 0.76984,3.39792 0.76984,3.39792 v 72.70852 c 0,2.74291 -0.18713,4.95769 -1.62448,6.55913 -1.70232,1.89666 -3.45906,2.2035 -4.65105,3.81623 -0.99602,1.3476 -1.52097,3.02256 -1.90812,4.65102 -0.18642,0.78415 -0.7638,2.28758 -1.17758,2.86216"
         style="fill:none;stroke:#000000;stroke-width:2;stroke-linecap:butt;stroke-linejoin:miter;stroke-miterlimit:4;stroke-dasharray:none;stroke-opacity:1" />
      <path
         style="opacity:1;fill:none;fill-opacity:1;stroke:#000000;stroke-width:3;stroke-linecap:round;stroke-miterlimit:4;stroke-dasharray:none;stroke-dashoffset:29.23999977;stroke-opacity:1"
         d="m 73.612214,216.1514 c -6.30925,3.84954 -28.0254,6.70036 -55.15389,6.70036 -27.727795,0 -49.848739,-2.97817 -55.547798,-6.95692"
         id="path4617" />
      <path
         style="opacity:1;fill:none;fill-opacity:1;stroke:#000000;stroke-width:1;stroke-linecap:round;stroke-miterlimit:4;stroke-dasharray:none;stroke-dashoffset:29.23999977;stroke-opacity:1"
         d="m 74.465454,115.77183 c -6.97403,2.02344 -29.34833,3.50394 -55.8721,3.50394 -27.181291,0 -50.004828,-1.55481 -56.362196,-3.65541"
         id="path4629-1" />
      <text
         xml:space="preserve"
         style="font-style:normal;font-variant:normal;font-weight:normal;font-stretch:normal;font-size:4.93888903px;line-height:6.61458302px;font-family:'Ubuntu Mono';-inkscape-font-specification:'Ubuntu Mono, Normal';font-variant-ligatures:normal;font-variant-caps:normal;font-variant-numeric:normal;font-feature-settings:normal;text-align:start;letter-spacing:0px;word-spacing:0px;writing-mode:lr-tb;text-anchor:start;fill:#000000;fill-opacity:1;stroke:none;stroke-width:0.26458332"
         x="-20.247211"
         y="174.88148"
         id="text4633"><tspan
           id="tspan4631"
           x="-20.247211"
           y="174.88148"
           style="font-style:normal;font-variant:normal;font-weight:normal;font-stretch:normal;font-size:50.79999924px;font-family:'Ubuntu Mono';-inkscape-font-specification:'Ubuntu Mono, Normal';font-variant-ligatures:normal;font-variant-caps:normal;font-variant-numeric:normal;font-feature-settings:normal;text-align:start;writing-mode:lr-tb;text-anchor:start;stroke-width:0.26458332">JAR</tspan></text>
    </g>
  </g>
</svg>
