<?xml version="1.0" encoding="UTF-8" standalone="no"?>
<svg
   xmlns:dc="http://purl.org/dc/elements/1.1/"
   xmlns:cc="http://creativecommons.org/ns#"
   xmlns:rdf="http://www.w3.org/1999/02/22-rdf-syntax-ns#"
   xmlns:svg="http://www.w3.org/2000/svg"
   xmlns="http://www.w3.org/2000/svg"
   xmlns:sodipodi="http://sodipodi.sourceforge.net/DTD/sodipodi-0.dtd"
   xmlns:inkscape="http://www.inkscape.org/namespaces/inkscape"
   width="218.31039mm"
   height="102.7021mm"
   viewBox="0 0 218.31039 102.7021"
   version="1.1"
   id="svg6571"
   sodipodi:docname="solve.svg"
   inkscape:version="0.92.1 15371">
  <sodipodi:namedview
     pagecolor="#ffffff"
     bordercolor="#666666"
     borderopacity="1"
     objecttolerance="10"
     gridtolerance="10"
     guidetolerance="10"
     inkscape:pageopacity="0"
     inkscape:pageshadow="2"
     inkscape:window-width="2495"
     inkscape:window-height="1416"
     id="namedview42"
     showgrid="false"
     inkscape:zoom="1.9746259"
     inkscape:cx="475.69954"
     inkscape:cy="195.25538"
     inkscape:window-x="2625"
     inkscape:window-y="24"
     inkscape:window-maximized="1"
     inkscape:current-layer="svg6571" />
  <defs
     id="defs6565" />
  <metadata
     id="metadata6568">
    <rdf:RDF>
      <cc:Work
         rdf:about="">
        <dc:format>image/svg+xml</dc:format>
        <dc:type
           rdf:resource="http://purl.org/dc/dcmitype/StillImage" />
        <dc:title />
      </cc:Work>
    </rdf:RDF>
  </metadata>
  <g
     id="g4599"
     transform="translate(-18.903349,-0.00827809)">
    <path
       id="path2202"
       d="m 177.48371,68.3692 c -7.02165,1.84202 -15.89077,1.311475 -21.62393,-1.293539 -5.73315,-2.605013 -6.90079,-6.634928 -2.84684,-9.825402 4.05395,-3.190482 12.31865,-4.745966 20.15029,-3.792463 7.83164,0.953503 13.2774,4.178237 13.2774,7.862278 h -17.91385 l 8.95693,7.049126 v 19.574985 c -7.02165,1.831444 -15.89077,1.300898 -21.62393,-1.304115 -3.30926,-1.503658 -5.2867,-3.64037 -5.29632,-5.610611 V 61.051731"
       style="fill:none;fill-opacity:1;stroke:#000000;stroke-width:0.52916664;stroke-miterlimit:4;stroke-dasharray:none;stroke-dashoffset:0;stroke-opacity:1"
       inkscape:connector-curvature="0" />
    <path
       id="path2204"
       d="m 191.09229,70.793978 h 17.91385 c 0,2.90801 -3.41436,5.59512 -8.95692,7.049125 l -8.95693,-7.049125"
       style="fill:none;fill-opacity:1;stroke:#000000;stroke-width:0.52916664;stroke-miterlimit:4;stroke-dasharray:none;stroke-dashoffset:0;stroke-opacity:1"
       inkscape:connector-curvature="0" />
    <path
       sodipodi:nodetypes="cccc"
       inkscape:connector-curvature="0"
       id="path2206"
       d="m 209.00614,90.425536 c 0,2.908011 -3.41436,5.595124 -8.95692,7.049124 l -8.95693,-7.049124 V 70.793978"
       style="fill:none;fill-opacity:1;stroke:#000000;stroke-width:0.52916664;stroke-miterlimit:4;stroke-dasharray:none;stroke-dashoffset:0;stroke-opacity:1" />
    <path
       id="path2208"
       d="M 209.00614,90.425536 V 70.793978"
       style="fill:none;stroke:#000000;stroke-width:0.52916664;stroke-linecap:butt;stroke-linejoin:miter;stroke-miterlimit:4;stroke-dasharray:none;stroke-opacity:1"
       inkscape:connector-curvature="0" />
    <path
       id="path2210"
       d="M 200.04922,97.47466 V 77.843103"
       style="fill:none;stroke:#000000;stroke-width:0.52916664;stroke-linecap:butt;stroke-linejoin:miter;stroke-miterlimit:4;stroke-dasharray:none;stroke-opacity:1"
       inkscape:connector-curvature="0" />
    <path
       id="path2212"
       d="m 186.44063,61.320074 v 19.585563 h -8.83591"
       style="fill:none;stroke:#000000;stroke-width:0.52916664;stroke-linecap:butt;stroke-linejoin:miter;stroke-miterlimit:4;stroke-dasharray:none;stroke-opacity:1"
       inkscape:connector-curvature="0" />
  </g>
  <path
     id="path7168"
     d="M 188.10045,68.783372 C 181.74482,50.409091 166.54601,53.985286 166.54601,53.985286"
     style="fill:none;stroke:#000000;stroke-width:0.52916664;stroke-linecap:butt;stroke-linejoin:miter;stroke-miterlimit:4;stroke-dasharray:none;stroke-opacity:1"
     inkscape:connector-curvature="0" />
  <path
     id="path7170"
     d="m 169.53959,60.811219 c 9.50453,-0.183407 10.8456,6.74547 10.8456,6.74547"
     style="fill:none;stroke:#000000;stroke-width:0.52916664;stroke-linecap:butt;stroke-linejoin:miter;stroke-miterlimit:4;stroke-dasharray:none;stroke-opacity:1"
     inkscape:connector-curvature="0" />
  <path
     id="path2687"
     d="m 169.38361,52.256468 c 0,0 -0.4799,1.104588 -0.43961,1.683023 0.0424,0.610391 0.70572,1.694517 0.70572,1.694517 l -6.19218,-1.211397 z"
     style="fill:#000000;fill-opacity:1;stroke:#000000;stroke-width:0.21460633;stroke-miterlimit:4;stroke-dasharray:none;stroke-dashoffset:0;stroke-opacity:1"
     inkscape:connector-curvature="0" />
  <path
     style="fill:#000000;fill-opacity:1;stroke:#000000;stroke-width:0.21460633;stroke-miterlimit:4;stroke-dasharray:none;stroke-dashoffset:0;stroke-opacity:1"
     d="m 176.91787,64.914687 c 0,0 1.20075,-0.09261 1.69304,-0.399301 0.51956,-0.323156 1.16709,-1.416796 1.16709,-1.416796 l 1.82792,6.038971 z"
     id="path7196"
     inkscape:connector-curvature="0" />
  <text
     id="text7208"
     y="50.757687"
     x="107.20567"
     style="font-style:normal;font-weight:normal;font-size:6.00694418px;line-height:6.25723362px;font-family:sans-serif;letter-spacing:0px;word-spacing:0px;fill:#000000;fill-opacity:1;stroke:none;stroke-width:0.25028935"
     xml:space="preserve"><tspan
       style="stroke-width:0.25028935"
       y="50.757687"
       x="107.20567"
       id="tspan7206">Local Disk</tspan></text>
  <text
     id="text7212"
     y="49.163589"
     x="171.43977"
     style="font-style:normal;font-weight:normal;font-size:6.00694418px;line-height:6.25723362px;font-family:sans-serif;letter-spacing:0px;word-spacing:0px;fill:#000000;fill-opacity:1;stroke:none;stroke-width:0.25028935"
     xml:space="preserve"><tspan
       style="stroke-width:0.25028935"
       y="49.163589"
       x="171.43977"
       id="tspan7210">HDFS</tspan></text>
  <text
     id="text7218"
     y="73.264999"
     x="115.74915"
     style="font-style:normal;font-weight:normal;font-size:6.3499999px;line-height:6.61458302px;font-family:sans-serif;letter-spacing:0px;word-spacing:0px;fill:#000000;fill-opacity:1;stroke:none;stroke-width:0.26458332"
     xml:space="preserve" />
  <g
     id="g4591"
     transform="translate(-18.903349,-0.00827809)">
    <rect
       style="fill:none;fill-opacity:1;stroke:#000000;stroke-width:0.52916664;stroke-miterlimit:4;stroke-dasharray:none;stroke-dashoffset:0;stroke-opacity:1"
       id="rect7214"
       width="54.875458"
       height="29.161997"
       x="144.65309"
       y="8.4468317" />
    <text
       xml:space="preserve"
       style="font-style:normal;font-weight:normal;font-size:4.93888855px;line-height:6.61458302px;font-family:sans-serif;letter-spacing:0px;word-spacing:0px;fill:#000000;fill-opacity:1;stroke:none;stroke-width:1.32291663;stroke-miterlimit:4;stroke-dasharray:none"
       x="152.27582"
       y="25.70521"
       id="text4592"><tspan
         x="152.27582"
         y="25.70521"
         style="font-size:9.704916px;stroke-width:1.32291663;stroke-miterlimit:4;stroke-dasharray:none"
         id="tspan4594">gridlabd</tspan></text>
  </g>
  <path
     id="path4660"
     d="m 157.24783,38.026256 c 2.62205,5.920136 -0.0309,9.871064 -0.0309,9.871064"
     style="fill:none;stroke:#000000;stroke-width:0.52916664;stroke-linecap:butt;stroke-linejoin:miter;stroke-miterlimit:4;stroke-dasharray:none;stroke-opacity:1"
     inkscape:connector-curvature="0" />
  <path
     id="path4662"
     d="m 146.49786,52.85245 c -3.17992,-4.638966 -0.36269,-10.828339 -0.36269,-10.828339"
     style="fill:none;stroke:#000000;stroke-width:0.52916664;stroke-linecap:butt;stroke-linejoin:miter;stroke-miterlimit:4;stroke-dasharray:none;stroke-opacity:1"
     inkscape:connector-curvature="0" />
  <path
     style="fill:#000000;fill-opacity:1;stroke:#000000;stroke-width:0.21460633;stroke-miterlimit:4;stroke-dasharray:none;stroke-dashoffset:0;stroke-opacity:1"
     d="m 156.25701,46.382981 c 0,0 0.77039,0.925703 1.30505,1.150083 0.56414,0.236879 1.83082,0.132471 1.83082,0.132471 l -3.86877,4.984285 z"
     id="path4664"
     inkscape:connector-curvature="0" />
  <path
     id="path4666"
     d="m 147.21982,43.086602 c 0,0 -0.64615,-0.743125 -1.08747,-0.916785 -0.46542,-0.183546 -1.49903,-0.07549 -1.49903,-0.07549 l 3.07337,-4.143908 z"
     style="fill:#000000;fill-opacity:1;stroke:#000000;stroke-width:0.17547995;stroke-miterlimit:4;stroke-dasharray:none;stroke-dashoffset:0;stroke-opacity:1"
     inkscape:connector-curvature="0" />
  <path
     id="path4569"
     d="m 0.26458332,102.08936 c 0,0.19323 0.07171,0.34816 0.159733,0.34816 H 217.88636 c 0.0886,0 0.15945,-0.15493 0.15945,-0.34816 v 0 l -0.0172,-42.697641 c 0,0 -8.11945,0.003 -9.61164,0.003 -2.19917,0 -2.94043,-3.220992 -2.94043,-7.944671 0,-4.926555 0.74126,-8.099102 2.96204,-8.099102 1.4839,0 9.59003,-0.04298 9.59003,-0.04298 l 0.0172,-42.69435918 c 3e-4,-0.19404623 -0.0716,-0.3490235 -0.15945,-0.3490235 H 0.42448832 v 0 c -0.0889,0 -0.159733,0.15564166 -0.159733,0.34878183 l 2.8e-5,42.70416285 c 0,0 8.07304898,0.04922 9.55390098,0.04922 2.2162607,0 2.9559677,3.166086 2.9559677,8.082704 0,4.713999 -0.739707,7.928355 -2.9343727,7.928355 -1.489198,0 -9.57555298,0.003 -9.57555298,0.003 z"
     style="opacity:1;fill:none;fill-opacity:1;stroke:#000000;stroke-width:0.52916664;stroke-miterlimit:4;stroke-dasharray:none;stroke-dashoffset:0;stroke-opacity:1"
     inkscape:connector-curvature="0" />
  <path
     id="path7807"
     d="m 96.560741,21.552254 c 7.743349,-5.783006 22.935999,-1.66629 22.935999,-1.66629"
     style="fill:none;stroke:#000000;stroke-width:0.77364165;stroke-linecap:butt;stroke-linejoin:miter;stroke-miterlimit:4;stroke-dasharray:1.54728334, 0.77364167;stroke-dashoffset:0;stroke-opacity:1"
     inkscape:connector-curvature="0" />
  <path
     id="path7809"
     d="m 118.01952,20.926361 c 0,0 1.01006,-0.655899 1.2959,-1.160382 0.30172,-0.532284 0.34736,-1.80244 0.34736,-1.80244 l 4.49349,4.429334 z"
     style="fill:#000000;fill-opacity:1;stroke:#000000;stroke-width:0.21460633;stroke-miterlimit:4;stroke-dasharray:none;stroke-dashoffset:0;stroke-opacity:1"
     inkscape:connector-curvature="0" />
  <path
     id="path7811"
     d="m 125.27974,29.687669 c -12.74221,8.527486 -24.60228,1.274222 -24.60228,1.274222"
     style="fill:none;stroke:#000000;stroke-width:0.77364165;stroke-linecap:butt;stroke-linejoin:miter;stroke-miterlimit:4;stroke-dasharray:1.54728334, 0.77364167;stroke-dashoffset:7.73641682;stroke-opacity:1"
     inkscape:connector-curvature="0" />
  <path
     style="fill:#000000;fill-opacity:1;stroke:#000000;stroke-width:0.17547995;stroke-miterlimit:4;stroke-dasharray:none;stroke-dashoffset:0;stroke-opacity:1"
     d="m 102.17838,30.374905 c 0,0 -0.86086,0.478193 -1.12217,0.873965 -0.27598,0.417302 -0.38439,1.450875 -0.38439,1.450875 l -3.417349,-3.865133 z"
     id="path7813"
     inkscape:connector-curvature="0" />
  <g
     id="g4586"
     transform="translate(-18.903349,-0.00827809)">
    <rect
       ry="5.1202302"
       y="7.5723782"
       x="45.490005"
       height="82.852821"
       width="69.821556"
       id="rect2216"
       style="fill:none;fill-opacity:1;stroke:#000000;stroke-width:0.52916664;stroke-miterlimit:4;stroke-dasharray:none;stroke-dashoffset:0;stroke-opacity:1" />
    <text
       id="text2220"
       y="20.53018"
       x="58.526001"
       style="font-style:normal;font-weight:normal;font-size:9.70632744px;line-height:10.11075783px;font-family:sans-serif;letter-spacing:0px;word-spacing:0px;fill:#000000;fill-opacity:1;stroke:none;stroke-width:0.4044303"
       xml:space="preserve"><tspan
         style="stroke-width:0.4044303"
         y="20.53018"
         x="58.526001"
         id="tspan2218">Executor</tspan></text>
    <text
       id="text4542"
       y="33.539612"
       x="54.986832"
       style="font-style:normal;font-weight:normal;font-size:4.93888855px;line-height:6.61458302px;font-family:sans-serif;letter-spacing:0px;word-spacing:0px;fill:#000000;fill-opacity:1;stroke:none;stroke-width:0.26458332"
       xml:space="preserve"><tspan
         style="font-size:6.3499999px;stroke-width:0.26458332"
         y="33.539612"
         x="54.986832"
         id="tspan4540"
         sodipodi:role="line">pipe(&quot;</tspan><tspan
         id="tspan4544"
         style="font-size:6.3499999px;stroke-width:0.26458332"
         y="40.520752"
         x="54.986832"
         sodipodi:role="line">  #!/bin/bash</tspan><tspan
         id="tspan4546"
         style="font-size:6.3499999px;stroke-width:0.26458332"
         y="47.501896"
         x="54.986832"
         sodipodi:role="line">  copyToLocal</tspan><tspan
         id="tspan4548"
         style="font-size:6.3499999px;stroke-width:0.26458332"
         y="54.483036"
         x="54.986832"
         sodipodi:role="line">  gridlabd</tspan><tspan
         id="tspan4550"
         style="font-size:6.3499999px;stroke-width:0.26458332"
         y="61.464176"
         x="54.986832"
         sodipodi:role="line">  copyFromLocal</tspan><tspan
         id="tspan4552"
         style="font-size:6.3499999px;stroke-width:0.26458332"
         y="68.44532"
         x="54.986832"
         sodipodi:role="line">&quot;)</tspan></text>
  </g>
</svg>
