<?xml version="1.0" encoding="UTF-8" standalone="no"?>
<svg
   xmlns:dc="http://purl.org/dc/elements/1.1/"
   xmlns:cc="http://creativecommons.org/ns#"
   xmlns:rdf="http://www.w3.org/1999/02/22-rdf-syntax-ns#"
   xmlns:svg="http://www.w3.org/2000/svg"
   xmlns="http://www.w3.org/2000/svg"
   id="svg6571"
   version="1.1"
   viewBox="0 0 423.33335 199.15326"
   height="752.70526"
   width="1600.0001">
  <defs
     id="defs6565" />
  <metadata
     id="metadata6568">
    <rdf:RDF>
      <cc:Work
         rdf:about="">
        <dc:format>image/svg+xml</dc:format>
        <dc:type
           rdf:resource="http://purl.org/dc/dcmitype/StillImage" />
        <dc:title></dc:title>
      </cc:Work>
    </rdf:RDF>
  </metadata>
  <g
     transform="matrix(1.939135,0,0,1.939135,-36.656147,-0.01603822)"
     id="g4599">
    <path
       style="fill:none;fill-opacity:1;stroke:#000000;stroke-width:0.52916664;stroke-miterlimit:4;stroke-dasharray:none;stroke-dashoffset:0;stroke-opacity:1"
       d="m 177.48371,68.3692 c -7.02165,1.84202 -15.89077,1.311475 -21.62393,-1.293539 -5.73315,-2.605013 -6.90079,-6.634928 -2.84684,-9.825402 4.05395,-3.190482 12.31865,-4.745966 20.15029,-3.792463 7.83164,0.953503 13.2774,4.178237 13.2774,7.862278 h -17.91385 l 8.95693,7.049126 v 19.574985 c -7.02165,1.831444 -15.89077,1.300898 -21.62393,-1.304115 -3.30926,-1.503658 -5.2867,-3.64037 -5.29632,-5.610611 V 61.051731"
       id="path2202" />
    <path
       style="fill:none;fill-opacity:1;stroke:#000000;stroke-width:0.52916664;stroke-miterlimit:4;stroke-dasharray:none;stroke-dashoffset:0;stroke-opacity:1"
       d="m 191.09229,70.793978 h 17.91385 c 0,2.90801 -3.41436,5.59512 -8.95692,7.049125 l -8.95693,-7.049125"
       id="path2204" />
    <path
       style="fill:none;fill-opacity:1;stroke:#000000;stroke-width:0.52916664;stroke-miterlimit:4;stroke-dasharray:none;stroke-dashoffset:0;stroke-opacity:1"
       d="m 209.00614,90.425536 c 0,2.908011 -3.41436,5.595124 -8.95692,7.049124 l -8.95693,-7.049124 V 70.793978"
       id="path2206" />
    <path
       style="fill:none;stroke:#000000;stroke-width:0.52916664;stroke-linecap:butt;stroke-linejoin:miter;stroke-miterlimit:4;stroke-dasharray:none;stroke-opacity:1"
       d="M 209.00614,90.425536 V 70.793978"
       id="path2208" />
    <path
       style="fill:none;stroke:#000000;stroke-width:0.52916664;stroke-linecap:butt;stroke-linejoin:miter;stroke-miterlimit:4;stroke-dasharray:none;stroke-opacity:1"
       d="M 200.04922,97.47466 V 77.843103"
       id="path2210" />
    <path
       style="fill:none;stroke:#000000;stroke-width:0.52916664;stroke-linecap:butt;stroke-linejoin:miter;stroke-miterlimit:4;stroke-dasharray:none;stroke-opacity:1"
       d="m 186.44063,61.320074 v 19.585563 h -8.83591"
       id="path2212" />
  </g>
  <path
     style="fill:none;stroke:#000000;stroke-width:1.02612555;stroke-linecap:butt;stroke-linejoin:miter;stroke-miterlimit:4;stroke-dasharray:none;stroke-opacity:1"
     d="M 364.75217,133.38026 C 352.42775,97.750049 322.9552,104.68477 322.9552,104.68477"
     id="path7168" />
  <path
     style="fill:none;stroke:#000000;stroke-width:1.02612555;stroke-linecap:butt;stroke-linejoin:miter;stroke-miterlimit:4;stroke-dasharray:none;stroke-opacity:1"
     d="m 328.76016,117.92118 c 18.43057,-0.35565 21.03108,13.08038 21.03108,13.08038"
     id="path7170" />
  <path
     style="fill:#000000;fill-opacity:1;stroke:#000000;stroke-width:0.41615066;stroke-miterlimit:4;stroke-dasharray:none;stroke-dashoffset:0;stroke-opacity:1"
     d="m 328.45769,101.33236 c 0,0 -0.93059,2.14195 -0.85246,3.26361 0.0822,1.18363 1.36849,3.2859 1.36849,3.2859 l -12.00748,-2.34906 z"
     id="path2687" />
  <path
     id="path7196"
     d="m 343.06764,125.87836 c 0,0 2.32842,-0.17959 3.28303,-0.7743 1.0075,-0.62664 2.26315,-2.74736 2.26315,-2.74736 l 3.54458,11.71038 z"
     style="fill:#000000;fill-opacity:1;stroke:#000000;stroke-width:0.41615066;stroke-miterlimit:4;stroke-dasharray:none;stroke-dashoffset:0;stroke-opacity:1" />
  <text
     xml:space="preserve"
     style="font-style:normal;font-weight:normal;font-size:11.64827633px;line-height:12.13362122px;font-family:sans-serif;letter-spacing:0px;word-spacing:0px;fill:#000000;fill-opacity:1;stroke:none;stroke-width:0.48534486"
     x="207.88628"
     y="98.426018"
     id="text7208"><tspan
       id="tspan7206"
       x="207.88628"
       y="98.426018"
       style="stroke-width:0.48534486">Local Disk</tspan></text>
  <text
     xml:space="preserve"
     style="font-style:normal;font-weight:normal;font-size:11.64827633px;line-height:12.13362122px;font-family:sans-serif;letter-spacing:0px;word-spacing:0px;fill:#000000;fill-opacity:1;stroke:none;stroke-width:0.48534486"
     x="332.44485"
     y="95.334854"
     id="text7212"><tspan
       id="tspan7210"
       x="332.44485"
       y="95.334854"
       style="stroke-width:0.48534486">HDFS</tspan></text>
  <text
     xml:space="preserve"
     style="font-style:normal;font-weight:normal;font-size:12.31350708px;line-height:12.82656956px;font-family:sans-serif;letter-spacing:0px;word-spacing:0px;fill:#000000;fill-opacity:1;stroke:none;stroke-width:0.51306278"
     x="224.45323"
     y="142.07074"
     id="text7218" />
  <g
     transform="matrix(1.939135,0,0,1.939135,-36.656147,-0.01603822)"
     id="g4591">
    <rect
       y="8.4468317"
       x="144.65309"
       height="29.161997"
       width="54.875458"
       id="rect7214"
       style="fill:none;fill-opacity:1;stroke:#000000;stroke-width:0.52916664;stroke-miterlimit:4;stroke-dasharray:none;stroke-dashoffset:0;stroke-opacity:1" />
    <text
       id="text4592"
       y="25.70521"
       x="152.27582"
       style="font-style:normal;font-weight:normal;font-size:4.93888855px;line-height:6.61458302px;font-family:sans-serif;letter-spacing:0px;word-spacing:0px;fill:#000000;fill-opacity:1;stroke:none;stroke-width:1.32291663;stroke-miterlimit:4;stroke-dasharray:none"
       xml:space="preserve"><tspan
         id="tspan4594"
         style="font-size:9.704916px;stroke-width:1.32291663;stroke-miterlimit:4;stroke-dasharray:none"
         y="25.70521"
         x="152.27582">gridlabd</tspan></text>
  </g>
  <path
     style="fill:none;stroke:#000000;stroke-width:1.02612555;stroke-linecap:butt;stroke-linejoin:miter;stroke-miterlimit:4;stroke-dasharray:none;stroke-opacity:1"
     d="m 304.92478,73.73806 c 5.08451,11.479943 -0.0599,19.141326 -0.0599,19.141326"
     id="path4660" />
  <path
     style="fill:none;stroke:#000000;stroke-width:1.02612555;stroke-linecap:butt;stroke-linejoin:miter;stroke-miterlimit:4;stroke-dasharray:none;stroke-opacity:1"
     d="m 284.07913,102.48805 c -6.16629,-8.99558 -0.7033,-20.99761 -0.7033,-20.99761"
     id="path4662" />
  <path
     id="path4664"
     d="m 303.00344,89.942878 c 0,0 1.49389,1.795063 2.53067,2.230166 1.09394,0.45934 3.55021,0.256879 3.55021,0.256879 l -7.50207,9.665197 z"
     style="fill:#000000;fill-opacity:1;stroke:#000000;stroke-width:0.41615066;stroke-miterlimit:4;stroke-dasharray:none;stroke-dashoffset:0;stroke-opacity:1" />
  <path
     style="fill:#000000;fill-opacity:1;stroke:#000000;stroke-width:0.34027931;stroke-miterlimit:4;stroke-dasharray:none;stroke-dashoffset:0;stroke-opacity:1"
     d="m 285.47911,83.550754 c 0,0 -1.25297,-1.44102 -2.10875,-1.77777 -0.90251,-0.355921 -2.90682,-0.146385 -2.90682,-0.146385 l 5.95968,-8.035598 z"
     id="path4666" />
  <path
     style="opacity:1;fill:none;fill-opacity:1;stroke:#000000;stroke-width:1.02612555;stroke-miterlimit:4;stroke-dasharray:none;stroke-dashoffset:0;stroke-opacity:1"
     d="m 0.51306278,197.96507 c 0,0.3747 0.13906,0.67513 0.30975,0.67513 H 422.51107 c 0.17181,0 0.3092,-0.30043 0.3092,-0.67513 v 0 l -0.0334,-82.79649 c 0,0 -15.74471,0.006 -18.63827,0.006 -4.26449,0 -5.70189,-6.24594 -5.70189,-15.405793 0,-9.553255 1.4374,-15.705253 5.74379,-15.705253 2.87749,0 18.59637,-0.08334 18.59637,-0.08334 l 0.0334,-82.7901272 c 5.8e-4,-0.37628202 -0.13884,-0.67680402 -0.3092,-0.67680402 H 0.82314278 v 0 c -0.17239,0 -0.30974,0.30181 -0.30974,0.67633502 l 5e-5,82.8091382 c 0,0 15.65473322,0.09544 18.52630522,0.09544 4.297629,0 5.73202,6.139468 5.73202,15.673454 0,9.14108 -1.434391,15.37415 -5.690145,15.37415 -2.887756,0 -18.56829022,0.006 -18.56829022,0.006 z"
     id="path4569" />
  <path
     style="fill:none;stroke:#000000;stroke-width:1.50019562;stroke-linecap:butt;stroke-linejoin:miter;stroke-miterlimit:4;stroke-dasharray:3.00039133, 1.50019567;stroke-dashoffset:0;stroke-opacity:1"
     d="m 187.24432,41.792745 c 15.0154,-11.214029 44.476,-3.231161 44.476,-3.231161"
     id="path7807" />
  <path
     style="fill:#000000;fill-opacity:1;stroke:#000000;stroke-width:0.41615066;stroke-miterlimit:4;stroke-dasharray:none;stroke-dashoffset:0;stroke-opacity:1"
     d="m 228.85579,40.579054 c 0,0 1.95864,-1.271877 2.51292,-2.250138 0.58508,-1.03217 0.67358,-3.495174 0.67358,-3.495174 l 8.71348,8.589077 z"
     id="path7809" />
  <path
     style="fill:none;stroke:#000000;stroke-width:1.50019562;stroke-linecap:butt;stroke-linejoin:miter;stroke-miterlimit:4;stroke-dasharray:3.00039133, 1.50019567;stroke-dashoffset:7.73641682;stroke-opacity:1"
     d="m 242.93433,57.568413 c -24.70886,16.535947 -47.70714,2.470889 -47.70714,2.470889"
     id="path7811" />
  <path
     id="path7813"
     d="m 198.13768,58.901057 c 0,0 -1.66932,0.927281 -2.17604,1.694736 -0.53516,0.809205 -0.74538,2.813442 -0.74538,2.813442 l -6.62671,-7.495015 z"
     style="fill:#000000;fill-opacity:1;stroke:#000000;stroke-width:0.34027931;stroke-miterlimit:4;stroke-dasharray:none;stroke-dashoffset:0;stroke-opacity:1" />
  <g
     transform="matrix(1.939135,0,0,1.939135,-36.656147,-0.01603822)"
     id="g4586">
    <rect
       style="fill:none;fill-opacity:1;stroke:#000000;stroke-width:0.52916664;stroke-miterlimit:4;stroke-dasharray:none;stroke-dashoffset:0;stroke-opacity:1"
       id="rect2216"
       width="69.821556"
       height="82.852821"
       x="45.490005"
       y="7.5723782"
       ry="5.1202302" />
    <text
       xml:space="preserve"
       style="font-style:normal;font-weight:normal;font-size:9.70632744px;line-height:10.11075783px;font-family:sans-serif;letter-spacing:0px;word-spacing:0px;fill:#000000;fill-opacity:1;stroke:none;stroke-width:0.4044303"
       x="58.526001"
       y="20.53018"
       id="text2220"><tspan
         id="tspan2218"
         x="58.526001"
         y="20.53018"
         style="stroke-width:0.4044303">Executor</tspan></text>
    <text
       xml:space="preserve"
       style="font-style:normal;font-weight:normal;font-size:4.93888855px;line-height:6.61458302px;font-family:sans-serif;letter-spacing:0px;word-spacing:0px;fill:#000000;fill-opacity:1;stroke:none;stroke-width:0.26458332"
       x="54.986832"
       y="33.539612"
       id="text4542"><tspan
         id="tspan4540"
         x="54.986832"
         y="33.539612"
         style="font-size:6.3499999px;stroke-width:0.26458332">pipe(&quot;</tspan><tspan
         x="54.986832"
         y="40.520752"
         style="font-size:6.3499999px;stroke-width:0.26458332"
         id="tspan4544">  #!/bin/bash</tspan><tspan
         x="54.986832"
         y="47.501896"
         style="font-size:6.3499999px;stroke-width:0.26458332"
         id="tspan4546">  copyToLocal</tspan><tspan
         x="54.986832"
         y="54.483036"
         style="font-size:6.3499999px;stroke-width:0.26458332"
         id="tspan4548">  gridlabd</tspan><tspan
         x="54.986832"
         y="61.464176"
         style="font-size:6.3499999px;stroke-width:0.26458332"
         id="tspan4550">  copyFromLocal</tspan><tspan
         x="54.986832"
         y="68.44532"
         style="font-size:6.3499999px;stroke-width:0.26458332"
         id="tspan4552">&quot;)</tspan></text>
  </g>
</svg>
