<?xml version="1.0" encoding="UTF-8" standalone="no"?>
<svg
   xmlns:ooo="http://xml.openoffice.org/svg/export"
   xmlns:dc="http://purl.org/dc/elements/1.1/"
   xmlns:cc="http://creativecommons.org/ns#"
   xmlns:rdf="http://www.w3.org/1999/02/22-rdf-syntax-ns#"
   xmlns:svg="http://www.w3.org/2000/svg"
   xmlns="http://www.w3.org/2000/svg"
   xmlns:sodipodi="http://sodipodi.sourceforge.net/DTD/sodipodi-0.dtd"
   xmlns:inkscape="http://www.inkscape.org/namespaces/inkscape"
   width="1597.8455"
   height="995.81671"
   viewBox="0 0 422.76329 263.4765"
   version="1.1"
   id="svg4973"
   sodipodi:docname="spark.svg"
   inkscape:version="0.92.1 15371">
  <sodipodi:namedview
     pagecolor="#ffffff"
     bordercolor="#666666"
     borderopacity="1"
     objecttolerance="10"
     gridtolerance="10"
     guidetolerance="10"
     inkscape:pageopacity="0"
     inkscape:pageshadow="2"
     inkscape:window-width="2495"
     inkscape:window-height="1416"
     id="namedview4710"
     showgrid="false"
     inkscape:zoom="0.86929933"
     inkscape:cx="1060.1597"
     inkscape:cy="472.56908"
     inkscape:window-x="2625"
     inkscape:window-y="24"
     inkscape:window-maximized="1"
     inkscape:current-layer="svg4973" />
  <defs
     id="defs4967">
    <clipPath
       clipPathUnits="userSpaceOnUse"
       id="presentation_clip_path">
      <rect
         id="rect6063"
         height="21000"
         width="28000"
         y="0"
         x="0" />
    </clipPath>
  </defs>
  <metadata
     id="metadata4970">
    <rdf:RDF>
      <cc:Work
         rdf:about="">
        <dc:format>image/svg+xml</dc:format>
        <dc:type
           rdf:resource="http://purl.org/dc/dcmitype/StillImage" />
        <dc:title />
      </cc:Work>
    </rdf:RDF>
  </metadata>
  <g
     style="fill-rule:evenodd;stroke-width:94.4881897;stroke-linejoin:round;stroke-miterlimit:4;stroke-dasharray:none"
     class="SlideGroup"
     id="g6355"
     transform="matrix(0.01537579,0,0,0.01537579,15.854612,-69.571697)">
    <g
       id="g6353"
       style="stroke-width:94.4881897;stroke-miterlimit:4;stroke-dasharray:none">
      <g
         style="stroke-width:94.4881897;stroke-miterlimit:4;stroke-dasharray:none"
         id="container-id1">
        <g
           style="stroke-width:94.4881897;stroke-miterlimit:4;stroke-dasharray:none"
           id="id1"
           class="Slide"
           clip-path="url(#presentation_clip_path)">
          <g
             style="stroke-width:94.4881897;stroke-miterlimit:4;stroke-dasharray:none"
             ooo:name="page1"
             class="Page"
             id="g6349">
            <g
               style="stroke-width:94.4881897;stroke-miterlimit:4;stroke-dasharray:none"
               class="com.sun.star.drawing.CustomShape"
               id="g6347">
              <g
                 style="stroke-width:94.4881897;stroke-miterlimit:4;stroke-dasharray:none"
                 id="id6">
                <rect
                   class="BoundingBox"
                   x="5841"
                   y="4571"
                   width="20578"
                   height="15752"
                   id="rect6272"
                   style="fill:none;stroke:none;stroke-width:94.4881897;stroke-miterlimit:4;stroke-dasharray:none" />
                <path
                   d="m 7680,9792 c -381,-1947 1400,-3784 3181,-3784 562,-15 1143,175 1620,459 457,-882 1305,-1422 2257,-1422 633,30 1305,292 1782,766 342,-780 1066,-1239 1847,-1239 658,0 1258,335 1639,845 438,-525 1095,-845 1781,-845 1115,0 2058,823 2258,1975 1076,321 1857,1364 1857,2560 0,364 -57,714 -219,1050 457,583 734,1305 734,2041 0,1670 -1229,3077 -2811,3318 0,1596 -1219,2850 -2743,2850 -524,0 -1019,-153 -1457,-444 -400,1407 -1667,2399 -3086,2399 -1058,0 -2058,-591 -2658,-1524 -562,357 -267,568 -1877,568 -1324,0 -2543,-736 -3181,-1932 -1524,-29 -2305,-977 -2305,-2173 0,-554 200,-1057 562,-1472 -658,-350 -1019,-1043 -1019,-1838 0,-1115 800,-2034 1838,-2158 z"
                   id="path6274"
                   style="fill:none;stroke:#000000;stroke-width:94.4881897;stroke-miterlimit:4;stroke-dasharray:none"
                   inkscape:connector-curvature="0" />
                <path
                   d="m 7680,9792 c 19,182 105,386 152,554"
                   id="path6280"
                   style="fill:none;stroke:#000000;stroke-width:94.4881897;stroke-miterlimit:4;stroke-dasharray:none"
                   inkscape:connector-curvature="0" />
                <path
                   d="m 12481,6467 c 219,139 486,328 667,518"
                   id="path6286"
                   style="fill:none;stroke:#000000;stroke-width:94.4881897;stroke-miterlimit:4;stroke-dasharray:none"
                   inkscape:connector-curvature="0" />
                <path
                   d="m 16520,5811 c -77,153 -124,335 -172,510"
                   id="path6292"
                   style="fill:none;stroke:#000000;stroke-width:94.4881897;stroke-miterlimit:4;stroke-dasharray:none"
                   inkscape:connector-curvature="0" />
                <path
                   d="m 20006,5417 c -143,175 -219,409 -314,620"
                   id="path6298"
                   style="fill:none;stroke:#000000;stroke-width:94.4881897;stroke-miterlimit:4;stroke-dasharray:none"
                   inkscape:connector-curvature="0" />
                <path
                   d="m 24045,6547 c 19,132 114,423 76,489"
                   id="path6304"
                   style="fill:none;stroke:#000000;stroke-width:94.4881897;stroke-miterlimit:4;stroke-dasharray:none"
                   inkscape:connector-curvature="0" />
                <path
                   d="m 25683,10157 c -111.315,254.924 -249.542,490.019 -424.089,699.443"
                   id="path6310"
                   style="fill:none;stroke:#000000;stroke-width:94.4881897;stroke-miterlimit:4;stroke-dasharray:none"
                   inkscape:connector-curvature="0" />
                <path
                   d="m 23616,15516 c -40.858,-372.532 2.643,-448.831 -184.212,-1003.841"
                   id="path6316"
                   style="fill:none;stroke:#000000;stroke-width:94.4881897;stroke-miterlimit:4;stroke-dasharray:none"
                   inkscape:connector-curvature="0" />
                <path
                   d="m 19406,17922 c 75.787,-253.756 75.787,-328.757 100.787,-553.757"
                   id="path6322"
                   style="fill:none;stroke:#000000;stroke-width:94.4881897;stroke-miterlimit:4;stroke-dasharray:none"
                   inkscape:connector-curvature="0" />
                <path
                   d="m 13671,18797 c -110.963,-196.412 -155.144,-209.84 -239.215,-409.84"
                   id="path6328"
                   style="fill:none;stroke:#000000;stroke-width:94.4881897;stroke-miterlimit:4;stroke-dasharray:none"
                   inkscape:connector-curvature="0" />
                <path
                   d="m 8604,17433 c 181,-29 281.7834,-73 452.7834,-138"
                   id="path6334"
                   style="fill:none;stroke:#000000;stroke-width:94.4881897;stroke-miterlimit:4;stroke-dasharray:none"
                   inkscape:connector-curvature="0" />
                <path
                   d="m 6861,13788 c 314,189 676,357 1200,291"
                   id="path6340"
                   style="fill:none;stroke:#000000;stroke-width:94.4881897;stroke-miterlimit:4;stroke-dasharray:none"
                   inkscape:connector-curvature="0" />
              </g>
            </g>
          </g>
        </g>
      </g>
    </g>
  </g>
  <path
     id="rect5800"
     d="M 152.62825,194.4548 V 55.076551 c 0,-0.0462 0.0372,-0.08325 0.0832,-0.08325 v -5.8e-5 h 119.21396 c 0.0462,0 0.0832,0.805987 0.0832,0.852042 V 240.58218"
     style="opacity:1;fill:none;fill-opacity:1;stroke:#000000;stroke-width:1.45283079;stroke-miterlimit:4;stroke-dasharray:none;stroke-dashoffset:0;stroke-opacity:1"
     inkscape:connector-curvature="0" />
  <path
     id="rect5802"
     d="M 280.53605,238.13105 V 55.170576 c 0,-0.0462 0.0372,0.06233 0.0832,0.06233 v -5.8e-5 H 399.8332 c 0.0462,0 0.0832,0.03719 0.0832,0.08325 V 157.40813"
     style="opacity:1;fill:none;fill-opacity:1;stroke:#000000;stroke-width:1.45283079;stroke-miterlimit:4;stroke-dasharray:none;stroke-dashoffset:0;stroke-opacity:1"
     inkscape:connector-curvature="0" />
  <path
     id="path5804"
     d="m 152.62825,55.232873 55.5151,-22.250829"
     style="fill:none;stroke:#000000;stroke-width:1.45283079;stroke-linecap:butt;stroke-linejoin:miter;stroke-miterlimit:4;stroke-dasharray:none;stroke-opacity:1"
     inkscape:connector-curvature="0" />
  <path
     style="fill:none;stroke:#000000;stroke-width:1.45283079;stroke-linecap:butt;stroke-linejoin:miter;stroke-miterlimit:4;stroke-dasharray:none;stroke-opacity:1"
     d="m 271.98749,55.232873 91.86366,-36.819584 -40.76083,-0.02949"
     id="path5806"
     inkscape:connector-curvature="0" />
  <path
     id="path5817"
     d="m 280.48379,55.232873 91.01365,-36.478895 7.33013,0.01453"
     style="fill:none;stroke:#000000;stroke-width:1.45283079;stroke-linecap:butt;stroke-linejoin:miter;stroke-miterlimit:4;stroke-dasharray:none;stroke-opacity:1"
     inkscape:connector-curvature="0" />
  <path
     style="fill:none;stroke:#000000;stroke-width:1.45283079;stroke-linecap:butt;stroke-linejoin:miter;stroke-miterlimit:4;stroke-dasharray:none;stroke-opacity:1"
     d="m 399.56896,55.232873 7.16987,-2.873728"
     id="path5828"
     inkscape:connector-curvature="0" />
  <path
     id="path5873"
     d="M 363.77293,22.126724 V 17.6842"
     style="fill:none;stroke:#000000;stroke-width:1.45283079;stroke-linecap:butt;stroke-linejoin:miter;stroke-miterlimit:4;stroke-dasharray:none;stroke-opacity:1"
     inkscape:connector-curvature="0" />
  <g
     transform="matrix(1.4528308,0,0,1.4528308,-0.57010932,-4.1977346e-6)"
     id="g5344">
    <path
       style="opacity:1;fill:none;fill-opacity:1;stroke:#000000;stroke-width:1.5;stroke-miterlimit:4;stroke-dasharray:none;stroke-dashoffset:0;stroke-opacity:1"
       d="m 184.41457,78.18332 v 0 0 c 0,0.0324 -0.0249,0.0584 -0.0558,0.0584 h -75.82384 c -0.0309,0 -0.0558,-0.0262 -0.0558,-0.0584 v 0 0 0 -6.57311 c 0,0 2.90838,8.4e-4 3.44399,8.4e-4 0.78935,0 1.05541,-0.55489 1.05541,-1.36864 0,-0.84873 -0.26606,-1.39528 -1.06317,-1.39528 -0.53263,0 -3.43622,-0.008 -3.43622,-0.008 v -7.75872 c 0,0 2.90837,8.3e-4 3.44398,8.3e-4 0.78935,0 1.05541,-0.55489 1.05541,-1.36864 0,-0.84873 -0.26606,-1.39527 -1.06317,-1.39527 -0.53263,0 -3.43622,-0.008 -3.43622,-0.008 l -1e-5,-7.75872 c 0,0 2.90838,8.3e-4 3.44399,8.3e-4 0.78935,0 1.05541,-0.55489 1.05541,-1.36864 0,-0.84873 -0.26606,-1.39528 -1.06317,-1.39528 -0.53263,0 -3.43623,-0.008 -3.43623,-0.008 v -6.59164 c 0,-0.0324 0.0249,-0.0584 0.0558,-0.0584 v 0 h 75.82384 c 0.0309,0 0.0558,0.0262 0.0558,0.0584 v 6.59164 c 0,0 -2.90358,0.008 -3.43621,0.008 -0.79711,0 -1.06317,0.54655 -1.06317,1.39528 0,0.81375 0.26606,1.36864 1.05541,1.36864 0.5356,0 3.44397,-8.3e-4 3.44397,-8.3e-4 v 7.75872 c 0,0 -2.90358,0.008 -3.43621,0.008 -0.79711,0 -1.06317,0.54654 -1.06317,1.39527 0,0.81375 0.26606,1.36864 1.05541,1.36864 0.53561,0 3.44397,-8.3e-4 3.44397,-8.3e-4 v 7.75872 c 0,0 -2.90358,0.008 -3.43621,0.008 -0.79711,0 -1.06317,0.54655 -1.06317,1.39528 0,0.81375 0.26606,1.36864 1.05541,1.36864 0.53561,0 3.44397,-8.4e-4 3.44397,-8.4e-4 z"
       id="path4624"
       inkscape:connector-curvature="0" />
    <text
       xml:space="preserve"
       style="font-style:normal;font-weight:normal;font-size:4.93888855px;line-height:6.61458302px;font-family:sans-serif;letter-spacing:0px;word-spacing:0px;fill:#000000;fill-opacity:1;stroke:none;stroke-width:0.26458332"
       x="118.18398"
       y="62.021366"
       id="text5883"><tspan
         x="118.18398"
         y="62.021366"
         style="font-size:8.46666622px;stroke-width:0.26458332"
         id="tspan5887">Spark Master</tspan></text>
  </g>
  <g
     id="g5551"
     transform="translate(-0.57011087)">
    <rect
       style="opacity:1;fill:none;fill-opacity:1;stroke:#000000;stroke-width:2.17900014;stroke-miterlimit:4;stroke-dasharray:none;stroke-dashoffset:0;stroke-opacity:1"
       id="rect5899"
       width="63.358017"
       height="45.903637"
       x="2.2233024"
       y="71.478226"
       ry="5.3895454" />
    <rect
       style="opacity:1;fill:none;fill-opacity:1;stroke:#000000;stroke-width:2.17900014;stroke-miterlimit:4;stroke-dasharray:none;stroke-dashoffset:0;stroke-opacity:1"
       id="rect5901"
       width="53.050316"
       height="30.098492"
       x="7.1709986"
       y="77.250534"
       ry="0" />
    <path
       style="opacity:1;fill:none;fill-opacity:1;stroke:#000000;stroke-width:2.17900014;stroke-miterlimit:4;stroke-dasharray:none;stroke-dashoffset:0;stroke-opacity:1"
       d="m 21.507465,122.94597 c 1.138246,-1.13825 3.27426,-1.16618 3.27426,-1.16618 H 43.2463 c 0,0 1.755183,0.0482 2.775987,1.069 1.230969,1.23096 1.55491,4.15357 1.55491,4.15357 H 19.952555 c 0,0 0.323935,-2.82541 1.55491,-4.05639 z"
       id="rect5903"
       inkscape:connector-curvature="0" />
    <path
       style="opacity:1;fill:none;fill-opacity:1;stroke:#000000;stroke-width:2.17900014;stroke-miterlimit:4;stroke-dasharray:none;stroke-dashoffset:0;stroke-opacity:1"
       d="M 7.9145442,131.36975 H 60.346393 l 5.703594,12.09437 H 2.2796659 Z"
       id="rect5906"
       inkscape:connector-curvature="0" />
  </g>
  <g
     transform="matrix(1.4528308,0,0,1.4528308,-0.57010932,-187.88463)"
     id="g12343">
    <text
       xml:space="preserve"
       style="font-style:normal;font-weight:normal;font-size:4.93888855px;line-height:6.61458302px;font-family:sans-serif;letter-spacing:0px;word-spacing:0px;fill:#000000;fill-opacity:1;stroke:none;stroke-width:0.26458332"
       x="117.73218"
       y="222.90363"
       id="text5895"><tspan
         x="117.73218"
         y="222.90363"
         style="font-size:8.46666622px;stroke-width:0.26458332"
         id="tspan5897">Spark Worker</tspan></text>
    <path
       style="opacity:1;fill:none;fill-opacity:1;stroke:#000000;stroke-width:1.5;stroke-miterlimit:4;stroke-dasharray:none;stroke-dashoffset:0;stroke-opacity:1"
       d="m 108.47914,228.81588 c 0,0.0314 0.025,0.0566 0.0557,0.0566 h 75.83002 c 0.0309,0 0.0556,-0.0252 0.0556,-0.0566 v 0 l -0.006,-6.94096 c 0,0 -2.83129,5.3e-4 -3.35163,5.3e-4 -0.76686,0 -1.02534,-0.52361 -1.02534,-1.29149 0,-0.80087 0.25848,-1.3166 1.03288,-1.3166 0.51745,0 3.34409,-0.007 3.34409,-0.007 l 0.006,-6.94043 c 1e-4,-0.0315 -0.0249,-0.0567 -0.0556,-0.0567 H 108.5349 v 0 c -0.031,0 -0.0557,0.0253 -0.0557,0.0567 l 10e-6,6.94202 c 0,0 2.81511,0.008 3.33149,0.008 0.77282,0 1.03076,0.51468 1.03076,1.31393 0,0.76631 -0.25794,1.28884 -1.02323,1.28884 -0.51929,0 -3.33904,7.2e-4 -3.33904,7.2e-4 z"
       id="path4569"
       inkscape:connector-curvature="0" />
  </g>
  <g
     transform="matrix(1.4528308,0,0,1.4528308,-0.57010932,-187.88463)"
     id="g12338">
    <text
       id="text4643"
       y="243.49355"
       x="117.73218"
       style="font-style:normal;font-weight:normal;font-size:4.93888855px;line-height:6.61458302px;font-family:sans-serif;letter-spacing:0px;word-spacing:0px;fill:#000000;fill-opacity:1;stroke:none;stroke-width:0.26458332"
       xml:space="preserve"><tspan
         id="tspan4641"
         style="font-size:8.46666622px;stroke-width:0.26458332"
         y="243.49355"
         x="117.73218">Spark Worker</tspan></text>
    <path
       id="path4645"
       d="m 108.47914,249.40579 c 0,0.0314 0.025,0.0566 0.0557,0.0566 h 75.83002 c 0.0309,0 0.0556,-0.0252 0.0556,-0.0566 v 0 l -0.006,-6.94096 c 0,0 -2.83129,5.3e-4 -3.35163,5.3e-4 -0.76686,0 -1.02534,-0.52361 -1.02534,-1.29149 0,-0.80087 0.25848,-1.3166 1.03288,-1.3166 0.51745,0 3.34409,-0.007 3.34409,-0.007 l 0.006,-6.94043 c 1e-4,-0.0315 -0.0249,-0.0567 -0.0556,-0.0567 H 108.5349 v 0 c -0.031,0 -0.0557,0.0253 -0.0557,0.0567 l 10e-6,6.94202 c 0,0 2.81511,0.008 3.33149,0.008 0.77282,0 1.03076,0.51468 1.03076,1.31393 0,0.76631 -0.25794,1.28884 -1.02323,1.28884 -0.51929,0 -3.33904,7.2e-4 -3.33904,7.2e-4 z"
       style="opacity:1;fill:none;fill-opacity:1;stroke:#000000;stroke-width:1.5;stroke-miterlimit:4;stroke-dasharray:none;stroke-dashoffset:0;stroke-opacity:1"
       inkscape:connector-curvature="0" />
  </g>
  <g
     transform="matrix(1.4528308,0,0,1.4528308,-0.57010932,-187.88463)"
     id="g12333">
    <text
       xml:space="preserve"
       style="font-style:normal;font-weight:normal;font-size:4.93888855px;line-height:6.61458302px;font-family:sans-serif;letter-spacing:0px;word-spacing:0px;fill:#000000;fill-opacity:1;stroke:none;stroke-width:0.26458332"
       x="117.73218"
       y="264.08344"
       id="text4653"><tspan
         x="117.73218"
         y="264.08344"
         style="font-size:8.46666622px;stroke-width:0.26458332"
         id="tspan4651">Spark Worker</tspan></text>
    <path
       style="opacity:1;fill:none;fill-opacity:1;stroke:#000000;stroke-width:1.5;stroke-miterlimit:4;stroke-dasharray:none;stroke-dashoffset:0;stroke-opacity:1"
       d="m 108.47914,269.9957 c 0,0.0314 0.025,0.0566 0.0557,0.0566 h 75.83002 c 0.0309,0 0.0556,-0.0252 0.0556,-0.0566 v 0 l -0.006,-6.94096 c 0,0 -2.83129,5.3e-4 -3.35163,5.3e-4 -0.76686,0 -1.02534,-0.52361 -1.02534,-1.29149 0,-0.80087 0.25848,-1.3166 1.03288,-1.3166 0.51745,0 3.34409,-0.007 3.34409,-0.007 l 0.006,-6.94043 c 1e-4,-0.0315 -0.0249,-0.0567 -0.0556,-0.0567 H 108.5349 v 0 c -0.031,0 -0.0557,0.0253 -0.0557,0.0567 l 10e-6,6.94202 c 0,0 2.81511,0.008 3.33149,0.008 0.77282,0 1.03076,0.51468 1.03076,1.31393 0,0.76631 -0.25794,1.28884 -1.02323,1.28884 -0.51929,0 -3.33904,7.2e-4 -3.33904,7.2e-4 z"
       id="path4655"
       inkscape:connector-curvature="0" />
  </g>
  <path
     style="opacity:1;fill:none;fill-opacity:1;stroke:#000000;stroke-width:2.17924619;stroke-miterlimit:4;stroke-dasharray:none;stroke-dashoffset:0;stroke-opacity:1"
     d="m 245.44256,234.36932 h 21.83827 c 0.0449,0 0.0808,-0.0366 0.0808,-0.0822 v 0 l -0.009,-10.08404 c 0,0 -4.11338,7.7e-4 -4.86935,7.7e-4 -1.11412,0 -1.48965,-0.76072 -1.48965,-1.87632 0,-1.16353 0.37553,-1.9128 1.5006,-1.9128 0.75177,0 4.8584,-0.0102 4.8584,-0.0102 l 0.009,-10.08327 c 1.4e-4,-0.0458 -0.0362,-0.0824 -0.0808,-0.0824 H 161.2601"
     id="path4665"
     inkscape:connector-curvature="0" />
  <g
     transform="matrix(1.4528308,0,0,1.4528308,-0.57010932,-187.88463)"
     id="g12365">
    <text
       id="text4673"
       y="222.90363"
       x="205.83255"
       style="font-style:normal;font-weight:normal;font-size:8.46666622px;line-height:6.61458302px;font-family:sans-serif;letter-spacing:0px;word-spacing:0px;fill:#000000;fill-opacity:1;stroke:none;stroke-width:0.26458332"
       xml:space="preserve"><tspan
         id="tspan4671"
         style="font-size:8.46666622px;stroke-width:0.26458332"
         y="222.90363"
         x="205.83255">Spark Worker</tspan></text>
    <path
       id="path4675"
       d="m 196.57951,228.81588 c 0,0.0314 0.025,0.0566 0.0557,0.0566 h 75.83002 c 0.0309,0 0.0556,-0.0252 0.0556,-0.0566 v 0 l -0.006,-6.94096 c 0,0 -2.83129,5.3e-4 -3.35163,5.3e-4 -0.76686,0 -1.02534,-0.52361 -1.02534,-1.29149 0,-0.80087 0.25848,-1.3166 1.03288,-1.3166 0.51745,0 3.34409,-0.007 3.34409,-0.007 l 0.006,-6.94043 c 1e-4,-0.0315 -0.0249,-0.0567 -0.0556,-0.0567 h -75.82996 v 0 c -0.031,0 -0.0557,0.0253 -0.0557,0.0567 l 1e-5,6.94202 c 0,0 2.81511,0.008 3.33149,0.008 0.77282,0 1.03076,0.51468 1.03076,1.31393 0,0.76631 -0.25794,1.28884 -1.02323,1.28884 -0.51929,0 -3.33904,7.2e-4 -3.33904,7.2e-4 z"
       style="opacity:1;fill:none;fill-opacity:1;stroke:#000000;stroke-width:1.5;stroke-miterlimit:4;stroke-dasharray:none;stroke-dashoffset:0;stroke-opacity:1"
       inkscape:connector-curvature="0" />
  </g>
  <g
     transform="matrix(1.4528308,0,0,1.4528308,-0.57010932,-187.88463)"
     id="g12372">
    <text
       xml:space="preserve"
       style="font-style:normal;font-weight:normal;font-size:4.93888855px;line-height:6.61458302px;font-family:sans-serif;letter-spacing:0px;word-spacing:0px;fill:#000000;fill-opacity:1;stroke:none;stroke-width:0.26458332"
       x="205.83255"
       y="243.49355"
       id="text4683"><tspan
         x="205.83255"
         y="243.49355"
         style="font-size:8.46666622px;stroke-width:0.26458332"
         id="tspan4681">Spark Worke</tspan></text>
    <path
       style="opacity:1;fill:none;fill-opacity:1;stroke:#000000;stroke-width:1.5;stroke-miterlimit:4;stroke-dasharray:none;stroke-dashoffset:0;stroke-opacity:1"
       d="m 259.29167,249.46239 h -62.65646 c -0.0307,0 -0.0557,-0.0252 -0.0557,-0.0566 l 5e-5,-6.94244 c 0,0 2.81975,-7.2e-4 3.33904,-7.2e-4 0.76529,0 1.02323,-0.52253 1.02323,-1.28884 0,-0.79925 -0.25794,-1.31393 -1.03076,-1.31393 -0.51638,0 -3.33149,-0.008 -3.33149,-0.008 l -1e-5,-6.94202 c 0,-0.0314 0.0247,-0.0567 0.0557,-0.0567 v 0 h 75.82996 c 0.0307,0 0.0557,0.0252 0.0556,0.0567 l -0.006,6.94043 c 0,0 -2.82664,0.007 -3.34409,0.007 -0.7744,0 -1.03288,0.51573 -1.03288,1.3166 0,0.99299 -0.11494,0.46383 0.41422,0.99299"
       id="path4685"
       inkscape:connector-curvature="0" />
  </g>
  <g
     transform="matrix(1.4528308,0,0,1.4528308,-0.57010932,-187.88463)"
     id="g12381">
    <text
       id="text4693"
       y="264.08344"
       x="205.71744"
       style="font-style:normal;font-weight:normal;font-size:4.93888855px;line-height:6.61458302px;font-family:sans-serif;letter-spacing:0px;word-spacing:0px;fill:#000000;fill-opacity:1;stroke:none;stroke-width:0.26458332"
       xml:space="preserve"><tspan
         id="tspan4691"
         style="font-size:8.46666622px;stroke-width:0.26458332"
         y="264.08344"
         x="205.71744">Spark Wor</tspan></text>
    <path
       id="path4695"
       d="m 257.96875,253.44305 h -61.33348 v 0 c -0.031,0 -0.0557,0.0253 -0.0557,0.0567 l 1e-5,6.94202 c 0,0 2.81511,0.008 3.33149,0.008 0.77282,0 1.03076,0.51468 1.03076,1.31393 0,0.76631 -0.25794,1.28884 -1.02323,1.28884 -0.51929,0 -3.33904,7.2e-4 -3.33904,7.2e-4 l -5e-5,6.94244 c 0,0.0314 0.025,0.0566 0.0557,0.0566 h 19.00021"
       style="opacity:1;fill:none;fill-opacity:1;stroke:#000000;stroke-width:1.5;stroke-miterlimit:4;stroke-dasharray:none;stroke-dashoffset:0;stroke-opacity:1"
       inkscape:connector-curvature="0" />
  </g>
  <path
     id="path4705"
     d="m 310.78968,210.23889 h -25.68202 v 0 c -0.045,0 -0.0809,0.0367 -0.0809,0.0824 l 10e-6,10.08558 c 0,0 4.08988,0.0116 4.84009,0.0116 1.12278,0 1.49752,0.74774 1.49752,1.90891 0,1.11332 -0.37474,1.87247 -1.48658,1.87247 -0.75444,0 -4.85106,0.001 -4.85106,0.001 l -7e-5,10.08619 c 0,0.0456 0.0363,0.0822 0.0809,0.0822 h 5.30918"
     style="opacity:1;fill:none;fill-opacity:1;stroke:#000000;stroke-width:2.17924619;stroke-miterlimit:4;stroke-dasharray:none;stroke-dashoffset:0;stroke-opacity:1"
     inkscape:connector-curvature="0" />
  <g
     transform="matrix(1.4528308,0,0,1.4528308,-0.57010932,-187.88463)"
     id="g12328">
    <text
       xml:space="preserve"
       style="font-style:normal;font-weight:normal;font-size:4.93888855px;line-height:6.61458302px;font-family:sans-serif;letter-spacing:0px;word-spacing:0px;fill:#000000;fill-opacity:1;stroke:none;stroke-width:0.26458332"
       x="205.83255"
       y="181.06607"
       id="text4733"><tspan
         x="205.83255"
         y="181.06607"
         style="font-size:8.46666622px;stroke-width:0.26458332"
         id="tspan4731">Spark Worker</tspan></text>
    <path
       style="opacity:1;fill:none;fill-opacity:1;stroke:#000000;stroke-width:1.5;stroke-miterlimit:4;stroke-dasharray:none;stroke-dashoffset:0;stroke-opacity:1"
       d="m 196.57951,186.97832 c 0,0.0314 0.025,0.0566 0.0557,0.0566 h 75.83002 c 0.0309,0 0.0556,-0.0252 0.0556,-0.0566 v 0 l -0.006,-6.94096 c 0,0 -2.83129,5.3e-4 -3.35163,5.3e-4 -0.76686,0 -1.02534,-0.52361 -1.02534,-1.29149 0,-0.80087 0.25848,-1.3166 1.03288,-1.3166 0.51745,0 3.34409,-0.007 3.34409,-0.007 l 0.006,-6.94043 c 1e-4,-0.0315 -0.0249,-0.0567 -0.0556,-0.0567 h -75.82996 v 0 c -0.031,0 -0.0557,0.0253 -0.0557,0.0567 l 1e-5,6.94202 c 0,0 2.81511,0.008 3.33149,0.008 0.77282,0 1.03076,0.51468 1.03076,1.31393 0,0.76631 -0.25794,1.28884 -1.02323,1.28884 -0.51929,0 -3.33904,7.2e-4 -3.33904,7.2e-4 z"
       id="path4735"
       inkscape:connector-curvature="0" />
  </g>
  <g
     transform="matrix(1.4528308,0,0,1.4528308,-0.57010932,-187.88463)"
     id="g12354">
    <text
       id="text4743"
       y="201.65598"
       x="205.83255"
       style="font-style:normal;font-weight:normal;font-size:4.93888855px;line-height:6.61458302px;font-family:sans-serif;letter-spacing:0px;word-spacing:0px;fill:#000000;fill-opacity:1;stroke:none;stroke-width:0.26458332"
       xml:space="preserve"><tspan
         id="tspan4741"
         style="font-size:8.46666622px;stroke-width:0.26458332"
         y="201.65598"
         x="205.83255">Spark Worker</tspan></text>
    <path
       id="path4745"
       d="m 196.57951,207.56823 c 0,0.0314 0.025,0.0566 0.0557,0.0566 h 75.83002 c 0.0309,0 0.0556,-0.0252 0.0556,-0.0566 v 0 l -0.006,-6.94096 c 0,0 -2.83129,5.3e-4 -3.35163,5.3e-4 -0.76686,0 -1.02534,-0.52361 -1.02534,-1.29149 0,-0.80087 0.25848,-1.3166 1.03288,-1.3166 0.51745,0 3.34409,-0.007 3.34409,-0.007 l 0.006,-6.94043 c 1e-4,-0.0315 -0.0249,-0.0567 -0.0556,-0.0567 h -75.82996 v 0 c -0.031,0 -0.0557,0.0253 -0.0557,0.0567 l 1e-5,6.94202 c 0,0 2.81511,0.008 3.33149,0.008 0.77282,0 1.03076,0.51468 1.03076,1.31393 0,0.76631 -0.25794,1.28884 -1.02323,1.28884 -0.51929,0 -3.33904,7.2e-4 -3.33904,7.2e-4 z"
       style="opacity:1;fill:none;fill-opacity:1;stroke:#000000;stroke-width:1.5;stroke-miterlimit:4;stroke-dasharray:none;stroke-dashoffset:0;stroke-opacity:1"
       inkscape:connector-curvature="0" />
  </g>
  <path
     id="path4858"
     d="m 72.464904,126.36568 c 28.829606,0 74.956986,-28.829614 74.956986,-28.829614"
     style="fill:none;stroke:#000000;stroke-width:1.45283079;stroke-linecap:butt;stroke-linejoin:miter;stroke-miterlimit:4;stroke-dasharray:2.90566166, 2.90566166;stroke-dashoffset:0;stroke-opacity:1"
     inkscape:connector-curvature="0" />
  <path
     id="path4860"
     d="m 143.61116,97.338888 6.88589,-2.109191 -4.76072,5.403693 c 0,0 -0.37193,-1.299809 -0.73314,-1.859774 -0.3612,-0.55995 -1.39203,-1.434728 -1.39203,-1.434728 z"
     style="opacity:1;fill:#000000;fill-opacity:1;stroke:#000000;stroke-width:0.49391654;stroke-miterlimit:4;stroke-dasharray:none;stroke-dashoffset:0;stroke-opacity:1"
     inkscape:connector-curvature="0" />
  <path
     style="opacity:1;fill:#000000;fill-opacity:1;stroke:#000000;stroke-width:0.49391654;stroke-miterlimit:4;stroke-dasharray:none;stroke-dashoffset:0;stroke-opacity:1"
     d="m 72.8583,128.33178 -6.928107,-1.9661 6.931434,-1.95438 c 0,0 -0.393142,1.29354 -0.393713,1.95991 -5.68e-4,0.66634 0.390379,1.96057 0.390379,1.96057 z"
     id="path4872"
     inkscape:connector-curvature="0" />
  <text
     id="text12395"
     y="263.21524"
     x="237.8649"
     style="font-style:normal;font-weight:normal;font-size:7.17536926px;line-height:9.60986996px;font-family:sans-serif;letter-spacing:0px;word-spacing:0px;fill:#000000;fill-opacity:1;stroke:none;stroke-width:0.38439479"
     xml:space="preserve"><tspan
       id="tspan12397"
       style="font-size:18.45095062px;stroke-width:0.38439479"
       y="263.21524"
       x="237.8649">Cluster</tspan></text>
</svg>
