<?xml version="1.0" encoding="UTF-8" standalone="no"?>
<svg
   xmlns:ooo="http://xml.openoffice.org/svg/export"
   xmlns:dc="http://purl.org/dc/elements/1.1/"
   xmlns:cc="http://creativecommons.org/ns#"
   xmlns:rdf="http://www.w3.org/1999/02/22-rdf-syntax-ns#"
   xmlns:svg="http://www.w3.org/2000/svg"
   xmlns="http://www.w3.org/2000/svg"
   id="svg4973"
   version="1.1"
   viewBox="0 0 422.76329 263.4765"
   height="995.81671"
   width="1597.8455">
  <defs
     id="defs4967">
    <clipPath
       id="presentation_clip_path"
       clipPathUnits="userSpaceOnUse">
      <rect
         x="0"
         y="0"
         width="28000"
         height="21000"
         id="rect6063" />
    </clipPath>
  </defs>
  <metadata
     id="metadata4970">
    <rdf:RDF>
      <cc:Work
         rdf:about="">
        <dc:format>image/svg+xml</dc:format>
        <dc:type
           rdf:resource="http://purl.org/dc/dcmitype/StillImage" />
        <dc:title></dc:title>
      </cc:Work>
    </rdf:RDF>
  </metadata>
  <g
     transform="matrix(0.01537579,0,0,0.01537579,15.854612,-69.571697)"
     id="g6355"
     class="SlideGroup"
     style="fill-rule:evenodd;stroke-width:94.4881897;stroke-linejoin:round;stroke-miterlimit:4;stroke-dasharray:none">
    <g
       style="stroke-width:94.4881897;stroke-miterlimit:4;stroke-dasharray:none"
       id="g6353">
      <g
         id="container-id1"
         style="stroke-width:94.4881897;stroke-miterlimit:4;stroke-dasharray:none">
        <g
           clip-path="url(#presentation_clip_path)"
           class="Slide"
           id="id1"
           style="stroke-width:94.4881897;stroke-miterlimit:4;stroke-dasharray:none">
          <g
             id="g6349"
             class="Page"
             ooo:name="page1"
             style="stroke-width:94.4881897;stroke-miterlimit:4;stroke-dasharray:none">
            <g
               id="g6347"
               class="com.sun.star.drawing.CustomShape"
               style="stroke-width:94.4881897;stroke-miterlimit:4;stroke-dasharray:none">
              <g
                 id="id6"
                 style="stroke-width:94.4881897;stroke-miterlimit:4;stroke-dasharray:none">
                <rect
                   style="fill:none;stroke:none;stroke-width:94.4881897;stroke-miterlimit:4;stroke-dasharray:none"
                   id="rect6272"
                   height="15752"
                   width="20578"
                   y="4571"
                   x="5841"
                   class="BoundingBox" />
                <path
                   style="fill:none;stroke:#000000;stroke-width:94.4881897;stroke-miterlimit:4;stroke-dasharray:none"
                   id="path6274"
                   d="m 7680,9792 c -381,-1947 1400,-3784 3181,-3784 562,-15 1143,175 1620,459 457,-882 1305,-1422 2257,-1422 633,30 1305,292 1782,766 342,-780 1066,-1239 1847,-1239 658,0 1258,335 1639,845 438,-525 1095,-845 1781,-845 1115,0 2058,823 2258,1975 1076,321 1857,1364 1857,2560 0,364 -57,714 -219,1050 457,583 734,1305 734,2041 0,1670 -1229,3077 -2811,3318 0,1596 -1219,2850 -2743,2850 -524,0 -1019,-153 -1457,-444 -400,1407 -1667,2399 -3086,2399 -1058,0 -2058,-591 -2658,-1524 -562,357 -267,568 -1877,568 -1324,0 -2543,-736 -3181,-1932 -1524,-29 -2305,-977 -2305,-2173 0,-554 200,-1057 562,-1472 -658,-350 -1019,-1043 -1019,-1838 0,-1115 800,-2034 1838,-2158 z" />
                <path
                   style="fill:none;stroke:#000000;stroke-width:94.4881897;stroke-miterlimit:4;stroke-dasharray:none"
                   id="path6280"
                   d="m 7680,9792 c 19,182 105,386 152,554" />
                <path
                   style="fill:none;stroke:#000000;stroke-width:94.4881897;stroke-miterlimit:4;stroke-dasharray:none"
                   id="path6286"
                   d="m 12481,6467 c 219,139 486,328 667,518" />
                <path
                   style="fill:none;stroke:#000000;stroke-width:94.4881897;stroke-miterlimit:4;stroke-dasharray:none"
                   id="path6292"
                   d="m 16520,5811 c -77,153 -124,335 -172,510" />
                <path
                   style="fill:none;stroke:#000000;stroke-width:94.4881897;stroke-miterlimit:4;stroke-dasharray:none"
                   id="path6298"
                   d="m 20006,5417 c -143,175 -219,409 -314,620" />
                <path
                   style="fill:none;stroke:#000000;stroke-width:94.4881897;stroke-miterlimit:4;stroke-dasharray:none"
                   id="path6304"
                   d="m 24045,6547 c 19,132 114,423 76,489" />
                <path
                   style="fill:none;stroke:#000000;stroke-width:94.4881897;stroke-miterlimit:4;stroke-dasharray:none"
                   id="path6310"
                   d="m 25683,10157 c -111.315,254.924 -249.542,490.019 -424.089,699.443" />
                <path
                   style="fill:none;stroke:#000000;stroke-width:94.4881897;stroke-miterlimit:4;stroke-dasharray:none"
                   id="path6316"
                   d="m 23616,15516 c -40.858,-372.532 2.643,-448.831 -184.212,-1003.841" />
                <path
                   style="fill:none;stroke:#000000;stroke-width:94.4881897;stroke-miterlimit:4;stroke-dasharray:none"
                   id="path6322"
                   d="m 19406,17922 c 75.787,-253.756 75.787,-328.757 100.787,-553.757" />
                <path
                   style="fill:none;stroke:#000000;stroke-width:94.4881897;stroke-miterlimit:4;stroke-dasharray:none"
                   id="path6328"
                   d="m 13671,18797 c -110.963,-196.412 -155.144,-209.84 -239.215,-409.84" />
                <path
                   style="fill:none;stroke:#000000;stroke-width:94.4881897;stroke-miterlimit:4;stroke-dasharray:none"
                   id="path6334"
                   d="m 8604,17433 c 181,-29 281.7834,-73 452.7834,-138" />
                <path
                   style="fill:none;stroke:#000000;stroke-width:94.4881897;stroke-miterlimit:4;stroke-dasharray:none"
                   id="path6340"
                   d="m 6861,13788 c 314,189 676,357 1200,291" />
              </g>
            </g>
          </g>
        </g>
      </g>
    </g>
  </g>
  <path
     style="opacity:1;fill:none;fill-opacity:1;stroke:#000000;stroke-width:1.45283079;stroke-miterlimit:4;stroke-dasharray:none;stroke-dashoffset:0;stroke-opacity:1"
     d="M 152.62825,194.4548 V 55.076551 c 0,-0.0462 0.0372,-0.08325 0.0832,-0.08325 v -5.8e-5 h 119.21396 c 0.0462,0 0.0832,0.805987 0.0832,0.852042 V 240.58218"
     id="rect5800" />
  <path
     style="opacity:1;fill:none;fill-opacity:1;stroke:#000000;stroke-width:1.45283079;stroke-miterlimit:4;stroke-dasharray:none;stroke-dashoffset:0;stroke-opacity:1"
     d="M 280.53605,238.13105 V 55.170576 c 0,-0.0462 0.0372,0.06233 0.0832,0.06233 v -5.8e-5 H 399.8332 c 0.0462,0 0.0832,0.03719 0.0832,0.08325 V 157.40813"
     id="rect5802" />
  <path
     style="fill:none;stroke:#000000;stroke-width:1.45283079;stroke-linecap:butt;stroke-linejoin:miter;stroke-miterlimit:4;stroke-dasharray:none;stroke-opacity:1"
     d="m 152.62825,55.232873 55.5151,-22.250829"
     id="path5804" />
  <path
     id="path5806"
     d="m 271.98749,55.232873 91.86366,-36.819584 -40.76083,-0.02949"
     style="fill:none;stroke:#000000;stroke-width:1.45283079;stroke-linecap:butt;stroke-linejoin:miter;stroke-miterlimit:4;stroke-dasharray:none;stroke-opacity:1" />
  <path
     style="fill:none;stroke:#000000;stroke-width:1.45283079;stroke-linecap:butt;stroke-linejoin:miter;stroke-miterlimit:4;stroke-dasharray:none;stroke-opacity:1"
     d="m 280.48379,55.232873 91.01365,-36.478895 7.33013,0.01453"
     id="path5817" />
  <path
     id="path5828"
     d="m 399.56896,55.232873 7.16987,-2.873728"
     style="fill:none;stroke:#000000;stroke-width:1.45283079;stroke-linecap:butt;stroke-linejoin:miter;stroke-miterlimit:4;stroke-dasharray:none;stroke-opacity:1" />
  <path
     style="fill:none;stroke:#000000;stroke-width:1.45283079;stroke-linecap:butt;stroke-linejoin:miter;stroke-miterlimit:4;stroke-dasharray:none;stroke-opacity:1"
     d="M 363.77293,22.126724 V 17.6842"
     id="path5873" />
  <g
     id="g5344"
     transform="matrix(1.4528308,0,0,1.4528308,-0.57010932,-3.7966019e-6)">
    <path
       id="path4624"
       d="m 184.41457,78.18332 v 0 0 c 0,0.0324 -0.0249,0.0584 -0.0558,0.0584 h -75.82384 c -0.0309,0 -0.0558,-0.0262 -0.0558,-0.0584 v 0 0 0 -6.57311 c 0,0 2.90838,8.4e-4 3.44399,8.4e-4 0.78935,0 1.05541,-0.55489 1.05541,-1.36864 0,-0.84873 -0.26606,-1.39528 -1.06317,-1.39528 -0.53263,0 -3.43622,-0.008 -3.43622,-0.008 v -7.75872 c 0,0 2.90837,8.3e-4 3.44398,8.3e-4 0.78935,0 1.05541,-0.55489 1.05541,-1.36864 0,-0.84873 -0.26606,-1.39527 -1.06317,-1.39527 -0.53263,0 -3.43622,-0.008 -3.43622,-0.008 l -1e-5,-7.75872 c 0,0 2.90838,8.3e-4 3.44399,8.3e-4 0.78935,0 1.05541,-0.55489 1.05541,-1.36864 0,-0.84873 -0.26606,-1.39528 -1.06317,-1.39528 -0.53263,0 -3.43623,-0.008 -3.43623,-0.008 v -6.59164 c 0,-0.0324 0.0249,-0.0584 0.0558,-0.0584 v 0 h 75.82384 c 0.0309,0 0.0558,0.0262 0.0558,0.0584 v 6.59164 c 0,0 -2.90358,0.008 -3.43621,0.008 -0.79711,0 -1.06317,0.54655 -1.06317,1.39528 0,0.81375 0.26606,1.36864 1.05541,1.36864 0.5356,0 3.44397,-8.3e-4 3.44397,-8.3e-4 v 7.75872 c 0,0 -2.90358,0.008 -3.43621,0.008 -0.79711,0 -1.06317,0.54654 -1.06317,1.39527 0,0.81375 0.26606,1.36864 1.05541,1.36864 0.53561,0 3.44397,-8.3e-4 3.44397,-8.3e-4 v 7.75872 c 0,0 -2.90358,0.008 -3.43621,0.008 -0.79711,0 -1.06317,0.54655 -1.06317,1.39528 0,0.81375 0.26606,1.36864 1.05541,1.36864 0.53561,0 3.44397,-8.4e-4 3.44397,-8.4e-4 z"
       style="opacity:1;fill:none;fill-opacity:1;stroke:#000000;stroke-width:1.5;stroke-miterlimit:4;stroke-dasharray:none;stroke-dashoffset:0;stroke-opacity:1" />
    <text
       id="text5883"
       y="62.021366"
       x="118.18398"
       style="font-style:normal;font-weight:normal;font-size:4.93888855px;line-height:6.61458302px;font-family:sans-serif;letter-spacing:0px;word-spacing:0px;fill:#000000;fill-opacity:1;stroke:none;stroke-width:0.26458332"
       xml:space="preserve"><tspan
         id="tspan5887"
         style="font-size:8.46666622px;stroke-width:0.26458332"
         y="62.021366"
         x="118.18398">Spark Master</tspan></text>
  </g>
  <g
     transform="translate(-0.57011087)"
     id="g5551">
    <rect
       ry="5.3895454"
       y="71.478226"
       x="2.2233024"
       height="45.903637"
       width="63.358017"
       id="rect5899"
       style="opacity:1;fill:none;fill-opacity:1;stroke:#000000;stroke-width:2.17900014;stroke-miterlimit:4;stroke-dasharray:none;stroke-dashoffset:0;stroke-opacity:1" />
    <rect
       ry="0"
       y="77.250534"
       x="7.1709986"
       height="30.098492"
       width="53.050316"
       id="rect5901"
       style="opacity:1;fill:none;fill-opacity:1;stroke:#000000;stroke-width:2.17900014;stroke-miterlimit:4;stroke-dasharray:none;stroke-dashoffset:0;stroke-opacity:1" />
    <path
       id="rect5903"
       d="m 21.507465,122.94597 c 1.138246,-1.13825 3.27426,-1.16618 3.27426,-1.16618 H 43.2463 c 0,0 1.755183,0.0482 2.775987,1.069 1.230969,1.23096 1.55491,4.15357 1.55491,4.15357 H 19.952555 c 0,0 0.323935,-2.82541 1.55491,-4.05639 z"
       style="opacity:1;fill:none;fill-opacity:1;stroke:#000000;stroke-width:2.17900014;stroke-miterlimit:4;stroke-dasharray:none;stroke-dashoffset:0;stroke-opacity:1" />
    <path
       id="rect5906"
       d="M 7.9145442,131.36975 H 60.346393 l 5.703594,12.09437 H 2.2796659 Z"
       style="opacity:1;fill:none;fill-opacity:1;stroke:#000000;stroke-width:2.17900014;stroke-miterlimit:4;stroke-dasharray:none;stroke-dashoffset:0;stroke-opacity:1" />
  </g>
  <g
     id="g12343"
     transform="matrix(1.4528308,0,0,1.4528308,-0.57010932,-187.88463)">
    <text
       id="text5895"
       y="222.90363"
       x="117.73218"
       style="font-style:normal;font-weight:normal;font-size:4.93888855px;line-height:6.61458302px;font-family:sans-serif;letter-spacing:0px;word-spacing:0px;fill:#000000;fill-opacity:1;stroke:none;stroke-width:0.26458332"
       xml:space="preserve"><tspan
         id="tspan5897"
         style="font-size:8.46666622px;stroke-width:0.26458332"
         y="222.90363"
         x="117.73218">Spark Worker</tspan></text>
    <path
       id="path4569"
       d="m 108.47914,228.81588 c 0,0.0314 0.025,0.0566 0.0557,0.0566 h 75.83002 c 0.0309,0 0.0556,-0.0252 0.0556,-0.0566 v 0 l -0.006,-6.94096 c 0,0 -2.83129,5.3e-4 -3.35163,5.3e-4 -0.76686,0 -1.02534,-0.52361 -1.02534,-1.29149 0,-0.80087 0.25848,-1.3166 1.03288,-1.3166 0.51745,0 3.34409,-0.007 3.34409,-0.007 l 0.006,-6.94043 c 1e-4,-0.0315 -0.0249,-0.0567 -0.0556,-0.0567 H 108.5349 v 0 c -0.031,0 -0.0557,0.0253 -0.0557,0.0567 l 10e-6,6.94202 c 0,0 2.81511,0.008 3.33149,0.008 0.77282,0 1.03076,0.51468 1.03076,1.31393 0,0.76631 -0.25794,1.28884 -1.02323,1.28884 -0.51929,0 -3.33904,7.2e-4 -3.33904,7.2e-4 z"
       style="opacity:1;fill:none;fill-opacity:1;stroke:#000000;stroke-width:1.5;stroke-miterlimit:4;stroke-dasharray:none;stroke-dashoffset:0;stroke-opacity:1" />
  </g>
  <g
     id="g12338"
     transform="matrix(1.4528308,0,0,1.4528308,-0.57010932,-187.88463)">
    <text
       xml:space="preserve"
       style="font-style:normal;font-weight:normal;font-size:4.93888855px;line-height:6.61458302px;font-family:sans-serif;letter-spacing:0px;word-spacing:0px;fill:#000000;fill-opacity:1;stroke:none;stroke-width:0.26458332"
       x="117.73218"
       y="243.49355"
       id="text4643"><tspan
         x="117.73218"
         y="243.49355"
         style="font-size:8.46666622px;stroke-width:0.26458332"
         id="tspan4641">Spark Worker</tspan></text>
    <path
       style="opacity:1;fill:none;fill-opacity:1;stroke:#000000;stroke-width:1.5;stroke-miterlimit:4;stroke-dasharray:none;stroke-dashoffset:0;stroke-opacity:1"
       d="m 108.47914,249.40579 c 0,0.0314 0.025,0.0566 0.0557,0.0566 h 75.83002 c 0.0309,0 0.0556,-0.0252 0.0556,-0.0566 v 0 l -0.006,-6.94096 c 0,0 -2.83129,5.3e-4 -3.35163,5.3e-4 -0.76686,0 -1.02534,-0.52361 -1.02534,-1.29149 0,-0.80087 0.25848,-1.3166 1.03288,-1.3166 0.51745,0 3.34409,-0.007 3.34409,-0.007 l 0.006,-6.94043 c 1e-4,-0.0315 -0.0249,-0.0567 -0.0556,-0.0567 H 108.5349 v 0 c -0.031,0 -0.0557,0.0253 -0.0557,0.0567 l 10e-6,6.94202 c 0,0 2.81511,0.008 3.33149,0.008 0.77282,0 1.03076,0.51468 1.03076,1.31393 0,0.76631 -0.25794,1.28884 -1.02323,1.28884 -0.51929,0 -3.33904,7.2e-4 -3.33904,7.2e-4 z"
       id="path4645" />
  </g>
  <g
     id="g12333"
     transform="matrix(1.4528308,0,0,1.4528308,-0.57010932,-187.88463)">
    <text
       id="text4653"
       y="264.08344"
       x="117.73218"
       style="font-style:normal;font-weight:normal;font-size:4.93888855px;line-height:6.61458302px;font-family:sans-serif;letter-spacing:0px;word-spacing:0px;fill:#000000;fill-opacity:1;stroke:none;stroke-width:0.26458332"
       xml:space="preserve"><tspan
         id="tspan4651"
         style="font-size:8.46666622px;stroke-width:0.26458332"
         y="264.08344"
         x="117.73218">Spark Worker</tspan></text>
    <path
       id="path4655"
       d="m 108.47914,269.9957 c 0,0.0314 0.025,0.0566 0.0557,0.0566 h 75.83002 c 0.0309,0 0.0556,-0.0252 0.0556,-0.0566 v 0 l -0.006,-6.94096 c 0,0 -2.83129,5.3e-4 -3.35163,5.3e-4 -0.76686,0 -1.02534,-0.52361 -1.02534,-1.29149 0,-0.80087 0.25848,-1.3166 1.03288,-1.3166 0.51745,0 3.34409,-0.007 3.34409,-0.007 l 0.006,-6.94043 c 1e-4,-0.0315 -0.0249,-0.0567 -0.0556,-0.0567 H 108.5349 v 0 c -0.031,0 -0.0557,0.0253 -0.0557,0.0567 l 10e-6,6.94202 c 0,0 2.81511,0.008 3.33149,0.008 0.77282,0 1.03076,0.51468 1.03076,1.31393 0,0.76631 -0.25794,1.28884 -1.02323,1.28884 -0.51929,0 -3.33904,7.2e-4 -3.33904,7.2e-4 z"
       style="opacity:1;fill:none;fill-opacity:1;stroke:#000000;stroke-width:1.5;stroke-miterlimit:4;stroke-dasharray:none;stroke-dashoffset:0;stroke-opacity:1" />
  </g>
  <path
     id="path4665"
     d="m 245.44256,234.36932 h 21.83827 c 0.0449,0 0.0808,-0.0366 0.0808,-0.0822 v 0 l -0.009,-10.08404 c 0,0 -4.11338,7.7e-4 -4.86935,7.7e-4 -1.11412,0 -1.48965,-0.76072 -1.48965,-1.87632 0,-1.16353 0.37553,-1.9128 1.5006,-1.9128 0.75177,0 4.8584,-0.0102 4.8584,-0.0102 l 0.009,-10.08327 c 1.4e-4,-0.0458 -0.0362,-0.0824 -0.0808,-0.0824 H 161.2601"
     style="opacity:1;fill:none;fill-opacity:1;stroke:#000000;stroke-width:2.17924619;stroke-miterlimit:4;stroke-dasharray:none;stroke-dashoffset:0;stroke-opacity:1" />
  <g
     id="g12365"
     transform="matrix(1.4528308,0,0,1.4528308,-0.57010932,-187.88463)">
    <text
       xml:space="preserve"
       style="font-style:normal;font-weight:normal;font-size:8.46666622px;line-height:6.61458302px;font-family:sans-serif;letter-spacing:0px;word-spacing:0px;fill:#000000;fill-opacity:1;stroke:none;stroke-width:0.26458332"
       x="205.83255"
       y="222.90363"
       id="text4673"><tspan
         x="205.83255"
         y="222.90363"
         style="font-size:8.46666622px;stroke-width:0.26458332"
         id="tspan4671">Spark Worker</tspan></text>
    <path
       style="opacity:1;fill:none;fill-opacity:1;stroke:#000000;stroke-width:1.5;stroke-miterlimit:4;stroke-dasharray:none;stroke-dashoffset:0;stroke-opacity:1"
       d="m 196.57951,228.81588 c 0,0.0314 0.025,0.0566 0.0557,0.0566 h 75.83002 c 0.0309,0 0.0556,-0.0252 0.0556,-0.0566 v 0 l -0.006,-6.94096 c 0,0 -2.83129,5.3e-4 -3.35163,5.3e-4 -0.76686,0 -1.02534,-0.52361 -1.02534,-1.29149 0,-0.80087 0.25848,-1.3166 1.03288,-1.3166 0.51745,0 3.34409,-0.007 3.34409,-0.007 l 0.006,-6.94043 c 1e-4,-0.0315 -0.0249,-0.0567 -0.0556,-0.0567 h -75.82996 v 0 c -0.031,0 -0.0557,0.0253 -0.0557,0.0567 l 1e-5,6.94202 c 0,0 2.81511,0.008 3.33149,0.008 0.77282,0 1.03076,0.51468 1.03076,1.31393 0,0.76631 -0.25794,1.28884 -1.02323,1.28884 -0.51929,0 -3.33904,7.2e-4 -3.33904,7.2e-4 z"
       id="path4675" />
  </g>
  <g
     id="g12372"
     transform="matrix(1.4528308,0,0,1.4528308,-0.57010932,-187.88463)">
    <text
       id="text4683"
       y="243.49355"
       x="205.83255"
       style="font-style:normal;font-weight:normal;font-size:4.93888855px;line-height:6.61458302px;font-family:sans-serif;letter-spacing:0px;word-spacing:0px;fill:#000000;fill-opacity:1;stroke:none;stroke-width:0.26458332"
       xml:space="preserve"><tspan
         id="tspan4681"
         style="font-size:8.46666622px;stroke-width:0.26458332"
         y="243.49355"
         x="205.83255">Spark Worke</tspan></text>
    <path
       id="path4685"
       d="m 259.29167,249.46239 h -62.65646 c -0.0307,0 -0.0557,-0.0252 -0.0557,-0.0566 l 5e-5,-6.94244 c 0,0 2.81975,-7.2e-4 3.33904,-7.2e-4 0.76529,0 1.02323,-0.52253 1.02323,-1.28884 0,-0.79925 -0.25794,-1.31393 -1.03076,-1.31393 -0.51638,0 -3.33149,-0.008 -3.33149,-0.008 l -1e-5,-6.94202 c 0,-0.0314 0.0247,-0.0567 0.0557,-0.0567 v 0 h 75.82996 c 0.0307,0 0.0557,0.0252 0.0556,0.0567 l -0.006,6.94043 c 0,0 -2.82664,0.007 -3.34409,0.007 -0.7744,0 -1.03288,0.51573 -1.03288,1.3166 0,0.99299 -0.11494,0.46383 0.41422,0.99299"
       style="opacity:1;fill:none;fill-opacity:1;stroke:#000000;stroke-width:1.5;stroke-miterlimit:4;stroke-dasharray:none;stroke-dashoffset:0;stroke-opacity:1" />
  </g>
  <g
     id="g12381"
     transform="matrix(1.4528308,0,0,1.4528308,-0.57010932,-187.88463)">
    <text
       xml:space="preserve"
       style="font-style:normal;font-weight:normal;font-size:4.93888855px;line-height:6.61458302px;font-family:sans-serif;letter-spacing:0px;word-spacing:0px;fill:#000000;fill-opacity:1;stroke:none;stroke-width:0.26458332"
       x="205.71744"
       y="264.08344"
       id="text4693"><tspan
         x="205.71744"
         y="264.08344"
         style="font-size:8.46666622px;stroke-width:0.26458332"
         id="tspan4691">Spark Wor</tspan></text>
    <path
       style="opacity:1;fill:none;fill-opacity:1;stroke:#000000;stroke-width:1.5;stroke-miterlimit:4;stroke-dasharray:none;stroke-dashoffset:0;stroke-opacity:1"
       d="m 257.96875,253.44305 h -61.33348 v 0 c -0.031,0 -0.0557,0.0253 -0.0557,0.0567 l 1e-5,6.94202 c 0,0 2.81511,0.008 3.33149,0.008 0.77282,0 1.03076,0.51468 1.03076,1.31393 0,0.76631 -0.25794,1.28884 -1.02323,1.28884 -0.51929,0 -3.33904,7.2e-4 -3.33904,7.2e-4 l -5e-5,6.94244 c 0,0.0314 0.025,0.0566 0.0557,0.0566 h 19.00021"
       id="path4695" />
  </g>
  <path
     style="opacity:1;fill:none;fill-opacity:1;stroke:#000000;stroke-width:2.17924619;stroke-miterlimit:4;stroke-dasharray:none;stroke-dashoffset:0;stroke-opacity:1"
     d="m 310.78968,210.23889 h -25.68202 v 0 c -0.045,0 -0.0809,0.0367 -0.0809,0.0824 l 10e-6,10.08558 c 0,0 4.08988,0.0116 4.84009,0.0116 1.12278,0 1.49752,0.74774 1.49752,1.90891 0,1.11332 -0.37474,1.87247 -1.48658,1.87247 -0.75444,0 -4.85106,0.001 -4.85106,0.001 l -7e-5,10.08619 c 0,0.0456 0.0363,0.0822 0.0809,0.0822 h 5.30918"
     id="path4705" />
  <g
     id="g12328"
     transform="matrix(1.4528308,0,0,1.4528308,-0.57010932,-187.88463)">
    <text
       id="text4733"
       y="181.06607"
       x="205.83255"
       style="font-style:normal;font-weight:normal;font-size:4.93888855px;line-height:6.61458302px;font-family:sans-serif;letter-spacing:0px;word-spacing:0px;fill:#000000;fill-opacity:1;stroke:none;stroke-width:0.26458332"
       xml:space="preserve"><tspan
         id="tspan4731"
         style="font-size:8.46666622px;stroke-width:0.26458332"
         y="181.06607"
         x="205.83255">Spark Worker</tspan></text>
    <path
       id="path4735"
       d="m 196.57951,186.97832 c 0,0.0314 0.025,0.0566 0.0557,0.0566 h 75.83002 c 0.0309,0 0.0556,-0.0252 0.0556,-0.0566 v 0 l -0.006,-6.94096 c 0,0 -2.83129,5.3e-4 -3.35163,5.3e-4 -0.76686,0 -1.02534,-0.52361 -1.02534,-1.29149 0,-0.80087 0.25848,-1.3166 1.03288,-1.3166 0.51745,0 3.34409,-0.007 3.34409,-0.007 l 0.006,-6.94043 c 1e-4,-0.0315 -0.0249,-0.0567 -0.0556,-0.0567 h -75.82996 v 0 c -0.031,0 -0.0557,0.0253 -0.0557,0.0567 l 1e-5,6.94202 c 0,0 2.81511,0.008 3.33149,0.008 0.77282,0 1.03076,0.51468 1.03076,1.31393 0,0.76631 -0.25794,1.28884 -1.02323,1.28884 -0.51929,0 -3.33904,7.2e-4 -3.33904,7.2e-4 z"
       style="opacity:1;fill:none;fill-opacity:1;stroke:#000000;stroke-width:1.5;stroke-miterlimit:4;stroke-dasharray:none;stroke-dashoffset:0;stroke-opacity:1" />
  </g>
  <g
     id="g12354"
     transform="matrix(1.4528308,0,0,1.4528308,-0.57010932,-187.88463)">
    <text
       xml:space="preserve"
       style="font-style:normal;font-weight:normal;font-size:4.93888855px;line-height:6.61458302px;font-family:sans-serif;letter-spacing:0px;word-spacing:0px;fill:#000000;fill-opacity:1;stroke:none;stroke-width:0.26458332"
       x="205.83255"
       y="201.65598"
       id="text4743"><tspan
         x="205.83255"
         y="201.65598"
         style="font-size:8.46666622px;stroke-width:0.26458332"
         id="tspan4741">Spark Worker</tspan></text>
    <path
       style="opacity:1;fill:none;fill-opacity:1;stroke:#000000;stroke-width:1.5;stroke-miterlimit:4;stroke-dasharray:none;stroke-dashoffset:0;stroke-opacity:1"
       d="m 196.57951,207.56823 c 0,0.0314 0.025,0.0566 0.0557,0.0566 h 75.83002 c 0.0309,0 0.0556,-0.0252 0.0556,-0.0566 v 0 l -0.006,-6.94096 c 0,0 -2.83129,5.3e-4 -3.35163,5.3e-4 -0.76686,0 -1.02534,-0.52361 -1.02534,-1.29149 0,-0.80087 0.25848,-1.3166 1.03288,-1.3166 0.51745,0 3.34409,-0.007 3.34409,-0.007 l 0.006,-6.94043 c 1e-4,-0.0315 -0.0249,-0.0567 -0.0556,-0.0567 h -75.82996 v 0 c -0.031,0 -0.0557,0.0253 -0.0557,0.0567 l 1e-5,6.94202 c 0,0 2.81511,0.008 3.33149,0.008 0.77282,0 1.03076,0.51468 1.03076,1.31393 0,0.76631 -0.25794,1.28884 -1.02323,1.28884 -0.51929,0 -3.33904,7.2e-4 -3.33904,7.2e-4 z"
       id="path4745" />
  </g>
  <path
     style="fill:none;stroke:#000000;stroke-width:1.45283079;stroke-linecap:butt;stroke-linejoin:miter;stroke-miterlimit:4;stroke-dasharray:2.90566166, 2.90566166;stroke-dashoffset:0;stroke-opacity:1"
     d="m 72.464904,126.36568 c 28.829606,0 74.956986,-28.829614 74.956986,-28.829614"
     id="path4858" />
  <path
     style="opacity:1;fill:#000000;fill-opacity:1;stroke:#000000;stroke-width:0.49391654;stroke-miterlimit:4;stroke-dasharray:none;stroke-dashoffset:0;stroke-opacity:1"
     d="m 143.61116,97.338888 6.88589,-2.109191 -4.76072,5.403693 c 0,0 -0.37193,-1.299809 -0.73314,-1.859774 -0.3612,-0.55995 -1.39203,-1.434728 -1.39203,-1.434728 z"
     id="path4860" />
  <text
     xml:space="preserve"
     style="font-style:normal;font-weight:normal;font-size:7.17536926px;line-height:9.60986996px;font-family:sans-serif;letter-spacing:0px;word-spacing:0px;fill:#000000;fill-opacity:1;stroke:none;stroke-width:0.38439479"
     x="237.8649"
     y="263.21524"
     id="text12395"><tspan
       x="237.8649"
       y="263.21524"
       style="font-size:18.45095062px;stroke-width:0.38439479"
       id="tspan12397">Cluster</tspan></text>
  <text
     id="text4684"
     y="100.94618"
     x="10.9571"
     style="font-style:normal;font-weight:normal;font-size:4.93888855px;line-height:6.61458302px;font-family:sans-serif;letter-spacing:0px;word-spacing:0px;fill:#000000;fill-opacity:1;stroke:none;stroke-width:0.26458332"
     xml:space="preserve"><tspan
       style="font-size:5.64444447px;stroke-width:0.26458332"
       y="100.94618"
       x="10.9571"
       id="tspan4682">$ spark-submit</tspan></text>
  <g
     id="layer1"
     transform="matrix(0.19064496,0,0,0.19064496,83.756106,76.451394)">
    <g
       id="g4737">
      <path
         id="ellipse4489"
         d="m 76.717454,107.55289 c -3e-5,2.67509 -26.02307,4.84367 -58.1241,4.84367 -32.101032,0 -58.124069,-2.16858 -58.124103,-4.84367"
         style="opacity:1;fill:none;fill-opacity:1;stroke:#000000;stroke-width:2;stroke-linecap:round;stroke-miterlimit:4;stroke-dasharray:none;stroke-dashoffset:29.23999977;stroke-opacity:1" />
      <ellipse
         ry="4.8436751"
         rx="58.124104"
         cy="92.502365"
         cx="18.593355"
         style="opacity:1;fill:none;fill-opacity:1;stroke:#000000;stroke-width:2;stroke-linecap:round;stroke-miterlimit:4;stroke-dasharray:none;stroke-dashoffset:29.23999977;stroke-opacity:1"
         id="ellipse4493" />
      <path
         id="path4530"
         d="m -39.540139,105.48863 v 2.06135"
         style="fill:none;stroke:#000000;stroke-width:2;stroke-linecap:butt;stroke-linejoin:miter;stroke-miterlimit:4;stroke-dasharray:none;stroke-opacity:1" />
      <path
         id="path4495"
         d="M -39.540139,92.514921 V 103.12654"
         style="fill:none;stroke:#000000;stroke-width:2;stroke-linecap:butt;stroke-linejoin:miter;stroke-miterlimit:4;stroke-dasharray:none;stroke-opacity:1" />
      <path
         id="path4523"
         d="m -39.540131,103.12686 a 1.1809973,1.1809973 0 0 1 0.0021,0 1.1809973,1.1809973 0 0 1 1.180998,1.18099 v 0 a 1.1809973,1.1809973 0 0 1 -1.180998,1.181 1.1809973,1.1809973 0 0 1 -0.0021,0"
         style="opacity:1;fill:none;fill-opacity:1;stroke:#000000;stroke-width:2;stroke-linecap:round;stroke-miterlimit:4;stroke-dasharray:none;stroke-dashoffset:29.25354385;stroke-opacity:1" />
      <path
         id="path4532"
         d="m 76.690904,101.71854 a 1.2071614,1.2071614 0 0 1 -1.20561,-1.20716 1.2071614,1.2071614 0 0 1 1.20561,-1.207157"
         style="opacity:1;fill:none;fill-opacity:1;stroke:#000000;stroke-width:2;stroke-linecap:round;stroke-miterlimit:4;stroke-dasharray:none;stroke-dashoffset:29.25354385;stroke-opacity:1" />
      <path
         id="path4549"
         d="m 76.690714,101.71843 v 5.78725"
         style="fill:none;stroke:#000000;stroke-width:2;stroke-linecap:butt;stroke-linejoin:miter;stroke-miterlimit:4;stroke-dasharray:none;stroke-opacity:1" />
      <path
         id="path4534"
         d="m 76.690714,92.457498 -1e-5,6.846612"
         style="fill:none;stroke:#000000;stroke-width:2;stroke-linecap:butt;stroke-linejoin:miter;stroke-miterlimit:4;stroke-dasharray:none;stroke-opacity:1" />
      <path
         style="opacity:1;fill:#ffffff;fill-opacity:1;stroke:#000000;stroke-width:1;stroke-linecap:round;stroke-miterlimit:4;stroke-dasharray:none;stroke-dashoffset:29.23999977;stroke-opacity:1"
         d="m 76.708064,101.55977 c 0,0 -26.02307,4.7969 -58.1241,4.7969 -32.101032,0 -58.124103,-0.86804 -58.124103,-0.86804"
         id="path4555" />
      <path
         style="opacity:1;fill:none;fill-opacity:1;stroke:#000000;stroke-width:1;stroke-linecap:round;stroke-miterlimit:4;stroke-dasharray:none;stroke-dashoffset:29.23999977;stroke-opacity:1"
         d="m 76.690704,99.30411 c 0,0 -25.99632,4.74446 -58.09735,4.74446 -32.101032,0 -58.133485,-0.92171 -58.133485,-0.92171"
         id="path4557" />
      <path
         id="ellipse4559"
         d="m 58.741724,92.651299 a 41.281776,3.0419996 0 0 1 -41.28178,3.041999 41.281776,3.0419996 0 0 1 -41.281774,-3.041999 41.281776,3.0419996 0 0 1 41.281774,-3.042 41.281776,3.0419996 0 0 1 41.28178,3.042 z"
         style="opacity:1;fill:none;fill-opacity:1;stroke:#000000;stroke-width:1;stroke-linecap:round;stroke-miterlimit:4;stroke-dasharray:none;stroke-dashoffset:29.23999977;stroke-opacity:1" />
      <path
         id="path4568"
         d="m -12.092046,94.775108 a 29.552296,1.5686179 0 0 1 -2.64e-4,-0.0071 29.552296,1.5686179 0 0 1 29.552294,-1.568618 29.552296,1.5686179 0 0 1 29.5523,1.568618 v 0 a 29.552296,1.5686179 0 0 1 -6e-5,0.0032"
         style="opacity:1;fill:none;fill-opacity:1;stroke:#000000;stroke-width:1;stroke-linecap:round;stroke-miterlimit:4;stroke-dasharray:none;stroke-dashoffset:29.23999977;stroke-opacity:1" />
      <path
         id="path4572"
         d="m -37.420788,108.88856 c 0,2.06602 -1.075176,2.23466 -1.454647,2.27684 -0.379476,0.0422 -0.865221,0.21363 -1.112223,0.68079 -0.08395,0.15879 -0.0778,0.53549 0.036,0.70699 0.249312,0.37572 0.301998,0.36467 0.566214,0.53322 0.305686,0.19501 0.860344,0.26148 1.142475,0.40854 0.889122,0.46346 1.270704,1.15001 0.746598,1.91116 -0.654967,0.95119 -1.287659,0.69426 -3.850724,2.1593 -0.698358,0.39918 -1.764208,1.24927 -2.44992,2.11588 -0.697048,0.88094 -1.112971,1.37574 -1.719029,2.63903 -0.461736,0.96246 -0.769833,3.39792 -0.769833,3.39792 v 72.70852 c 0,2.74291 0.187131,4.95769 1.624471,6.55913 1.702305,1.89666 3.459036,2.2035 4.65102,3.81623 0.996024,1.3476 1.628385,2.9852 1.908111,4.65102 0.130483,0.77705 0.763807,2.28758 1.177589,2.86216"
         style="fill:none;stroke:#000000;stroke-width:2;stroke-linecap:butt;stroke-linejoin:miter;stroke-miterlimit:4;stroke-dasharray:none;stroke-opacity:1" />
      <path
         style="fill:none;stroke:#000000;stroke-width:2;stroke-linecap:butt;stroke-linejoin:miter;stroke-miterlimit:4;stroke-dasharray:none;stroke-opacity:1"
         d="m 73.989914,108.88856 c 0,2.06602 1.07518,2.23466 1.45465,2.27684 0.37948,0.0422 0.86523,0.21363 1.11224,0.68079 0.084,0.15879 0.0778,0.53549 -0.036,0.70699 -0.24932,0.37572 -0.302,0.36467 -0.56622,0.53322 -0.30569,0.19501 -0.86035,0.26148 -1.14248,0.40854 -0.88913,0.46346 -1.27071,1.15001 -0.7466,1.91116 0.65497,0.95119 1.28766,0.69426 3.85074,2.1593 0.69836,0.39918 1.76422,1.24927 2.44993,2.11588 0.69706,0.88094 1.11298,1.37574 1.71904,2.63903 0.46174,0.96246 0.76984,3.39792 0.76984,3.39792 v 72.70852 c 0,2.74291 -0.18713,4.95769 -1.62448,6.55913 -1.70232,1.89666 -3.45906,2.2035 -4.65105,3.81623 -0.99602,1.3476 -1.52097,3.02256 -1.90812,4.65102 -0.18642,0.78415 -0.7638,2.28758 -1.17758,2.86216"
         id="path4602" />
      <path
         id="path4617"
         d="m 73.612214,216.1514 c -6.30925,3.84954 -28.0254,6.70036 -55.15389,6.70036 -27.727795,0 -49.848739,-2.97817 -55.547798,-6.95692"
         style="opacity:1;fill:none;fill-opacity:1;stroke:#000000;stroke-width:3;stroke-linecap:round;stroke-miterlimit:4;stroke-dasharray:none;stroke-dashoffset:29.23999977;stroke-opacity:1" />
      <path
         id="path4629"
         d="m 74.465454,115.77183 c -6.97403,2.02344 -29.34833,3.50394 -55.8721,3.50394 -27.181291,0 -50.004828,-1.55481 -56.362196,-3.65541"
         style="opacity:1;fill:none;fill-opacity:1;stroke:#000000;stroke-width:1;stroke-linecap:round;stroke-miterlimit:4;stroke-dasharray:none;stroke-dashoffset:29.23999977;stroke-opacity:1" />
      <text
         id="text4633"
         y="174.88148"
         x="-20.247211"
         style="font-style:normal;font-variant:normal;font-weight:normal;font-stretch:normal;font-size:4.93888903px;line-height:6.61458302px;font-family:'Ubuntu Mono';-inkscape-font-specification:'Ubuntu Mono, Normal';font-variant-ligatures:normal;font-variant-caps:normal;font-variant-numeric:normal;font-feature-settings:normal;text-align:start;letter-spacing:0px;word-spacing:0px;writing-mode:lr-tb;text-anchor:start;fill:#000000;fill-opacity:1;stroke:none;stroke-width:0.26458332"
         xml:space="preserve"><tspan
           style="font-style:normal;font-variant:normal;font-weight:normal;font-stretch:normal;font-size:50.79999924px;font-family:'Ubuntu Mono';-inkscape-font-specification:'Ubuntu Mono, Normal';font-variant-ligatures:normal;font-variant-caps:normal;font-variant-numeric:normal;font-feature-settings:normal;text-align:start;writing-mode:lr-tb;text-anchor:start;stroke-width:0.26458332"
           y="174.88148"
           x="-20.247211"
           id="tspan4631">JAR</tspan></text>
    </g>
  </g>
</svg>
