<?xml version="1.0" encoding="UTF-8" standalone="no"?>
<svg
   xmlns:dc="http://purl.org/dc/elements/1.1/"
   xmlns:cc="http://creativecommons.org/ns#"
   xmlns:rdf="http://www.w3.org/1999/02/22-rdf-syntax-ns#"
   xmlns:svg="http://www.w3.org/2000/svg"
   xmlns="http://www.w3.org/2000/svg"
   xmlns:sodipodi="http://sodipodi.sourceforge.net/DTD/sodipodi-0.dtd"
   xmlns:inkscape="http://www.inkscape.org/namespaces/inkscape"
   style="fill-rule:evenodd;stroke-width:28.22200012;stroke-linejoin:round"
   height="340.98779"
   width="682.50861"
   id="svg720"
   xml:space="preserve"
   preserveAspectRatio="xMidYMid"
   viewBox="0 0 682.50861 340.98779"
   version="1.2"
   sodipodi:docname="topology.svg"
   inkscape:version="0.92.1 15371"><sodipodi:namedview
     pagecolor="#ffffff"
     bordercolor="#666666"
     borderopacity="1"
     objecttolerance="10"
     gridtolerance="10"
     guidetolerance="10"
     inkscape:pageopacity="0"
     inkscape:pageshadow="2"
     inkscape:window-width="2495"
     inkscape:window-height="1416"
     id="namedview5130"
     showgrid="false"
     fit-margin-top="0"
     fit-margin-left="0"
     fit-margin-right="0"
     fit-margin-bottom="0"
     inkscape:zoom="2.4893459"
     inkscape:cx="341.2543"
     inkscape:cy="170.4939"
     inkscape:window-x="65"
     inkscape:window-y="24"
     inkscape:window-maximized="1"
     inkscape:current-layer="svg720" /><defs
     id="defs4927" /><metadata
     id="metadata724"><rdf:RDF><cc:Work
         rdf:about=""><dc:format>image/svg+xml</dc:format><dc:type
           rdf:resource="http://purl.org/dc/dcmitype/StillImage" /><dc:title></dc:title></cc:Work></rdf:RDF></metadata><path
     d="M 109.51984,64.183946 H 91.63724 V 28.418745 h 35.7652 v 35.765201 z"
     id="path253"
     style="visibility:hidden;fill:none;stroke:#000000;stroke-width:3.59060097;stroke-linejoin:round"
     inkscape:connector-curvature="0" /><path
     d="m 384.09521,206.11829 298.40663,1.12646"
     id="path260"
     style="visibility:hidden;fill:none;stroke:#000000;stroke-width:3.59060097;stroke-linejoin:round"
     inkscape:connector-curvature="0" /><path
     d="m 109.02701,194.71285 c 5.06909,0 8.9413,3.87221 8.9413,8.9413 0,5.06908 -3.87221,8.9413 -8.9413,8.9413 -5.06908,0 -8.9413,-3.87222 -8.9413,-8.9413 0,-5.06909 3.87222,-8.9413 8.9413,-8.9413 z"
     id="path269"
     style="visibility:hidden;fill:#000000;fill-opacity:1;stroke:#000000;stroke-width:3.59060097;stroke-linejoin:round"
     inkscape:connector-curvature="0" /><rect
     class="BoundingBox"
     x="464.98932"
     y="202.52766"
     width="203.46739"
     height="37.243683"
     id="rect274"
     style="visibility:hidden;fill:none;stroke:none;stroke-width:1.98694003" /><g
     id="g4747"
     transform="matrix(0.07040394,0,0,0.07040394,-57.999998,-767.92022)"><path
       style="visibility:hidden;fill:#ffffff;fill-opacity:1;stroke:#000000;stroke-width:21.30562592;stroke-linejoin:round;stroke-miterlimit:4;stroke-dasharray:none"
       id="path278"
       d="m 6726,13794 c -42,0 -84,42 -84,84 v 340 c 0,42 42,85 84,85 h 2702 c 42,0 84,-43 84,-85 v -340 c 0,-42 -42,-84 -84,-84 z"
       inkscape:connector-curvature="0" /><text
       style="visibility:hidden"
       id="text286"
       class="TextShape"
       x="-1825.1404"
       y="6038.0952"><tspan
         style="font-weight:400;font-size:303.01333618px;font-family:'Liberation Sans', sans-serif"
         id="tspan284"
         font-weight="400"
         font-size="353px"
         class="TextParagraph"><tspan
           style="font-size:303.01333618px;fill:#000000;stroke:none"
           id="tspan282"
           y="14132.095"
           x="6874.8599"
           class="TextPosition">ACLineSegment</tspan></tspan></text>
</g><rect
     class="BoundingBox"
     x="124.7271"
     y="0.11633822"
     width="92.440376"
     height="37.173279"
     id="rect304"
     style="visibility:hidden;fill:none;stroke:none;stroke-width:1.98694003" /><g
     id="g4735"
     transform="matrix(0.07040394,0,0,0.07040394,-2,-767.92022)"><path
       style="visibility:hidden;fill:#ffffff;fill-opacity:1;stroke:#000000;stroke-width:21.30562592;stroke-linejoin:round;stroke-miterlimit:4;stroke-dasharray:none"
       id="path308"
       d="m 1893,10918 c -42,0 -84,42 -84,84 v 340 c 0,42 42,85 84,85 h 1124 c 42,0 85,-43 85,-85 v -340 c 0,-42 -43,-84 -85,-84 z"
       inkscape:connector-curvature="0" /><text
       style="visibility:hidden"
       id="text316"
       class="TextShape"
       x="-1877.741"
       y="6067.4644"><tspan
         style="font-weight:400;font-size:303.01333618px;font-family:'Liberation Sans', sans-serif"
         id="tspan314"
         font-weight="400"
         font-size="353px"
         class="TextParagraph"><tspan
           style="font-size:303.01333618px;fill:#000000;stroke:none"
           id="tspan312"
           y="11285.464"
           x="1957.259"
           class="TextPosition">Switch</tspan></tspan></text>
</g><path
     d="m 292.14766,194.78325 c 5.06909,0 8.9413,3.87222 8.9413,8.9413 0,5.06909 -3.87221,8.9413 -8.9413,8.9413 -5.06908,0 -8.9413,-3.87221 -8.9413,-8.9413 0,-5.06908 3.87222,-8.9413 8.9413,-8.9413 z"
     id="path325"
     style="visibility:hidden;fill:#000000;fill-opacity:1;stroke:#000000;stroke-width:3.59060097;stroke-linejoin:round"
     inkscape:connector-curvature="0" /><g
     id="g4723"
     transform="matrix(0.07040394,0,0,0.07040394,-2,-767.92022)"><rect
       style="visibility:hidden;fill:none;stroke:none"
       id="rect330"
       height="528"
       width="1494"
       y="13244.407"
       x="28.407501"
       class="BoundingBox" /><path
       style="visibility:hidden;fill:#ffffff;fill-opacity:1;stroke:#000000;stroke-width:17.99615097;stroke-linejoin:round;stroke-miterlimit:4;stroke-dasharray:none"
       id="path334"
       d="m 122.4075,13253.408 c -41.999999,0 -83.999999,42 -83.999999,84 v 340 c 0,42 42,85 83.999999,85 h 1305 c 42,0 85,-43 85,-85 v -340 c 0,-42 -43,-84 -85,-84 z"
       inkscape:connector-curvature="0" /><text
       style="visibility:hidden"
       id="text342"
       class="TextShape"
       x="-1868.5925"
       y="6103.4077"><tspan
         style="font-weight:400;font-size:303.01333618px;font-family:'Liberation Sans', sans-serif"
         id="tspan340"
         font-weight="400"
         font-size="353px"
         class="TextParagraph"><tspan
           style="font-size:303.01333618px;fill:#000000;stroke:none"
           id="tspan338"
           y="13628.407"
           x="114.4075"
           class="TextPosition">Terminal</tspan></tspan></text>
</g><rect
     class="BoundingBox"
     x="184.24712"
     y="168.53816"
     width="105.18349"
     height="37.173279"
     id="rect347"
     style="visibility:hidden;fill:none;stroke:none;stroke-width:1.98694003" /><g
     id="g4729"
     transform="matrix(0.07040394,0,0,0.07040394,-2,-771.80398)"><path
       style="visibility:hidden;fill:#ffffff;fill-opacity:1;stroke:#000000;stroke-width:21.30562592;stroke-linejoin:round;stroke-miterlimit:4;stroke-dasharray:none"
       id="path351"
       d="m 2739.4075,13310.224 c -42,0 -84,42 -84,84 v 340 c 0,42 42,85 84,85 h 1305 c 42,0 85,-43 85,-85 v -340 c 0,-42 -43,-84 -85,-84 z"
       inkscape:connector-curvature="0" /><text
       style="visibility:hidden"
       id="text359"
       class="TextShape"
       x="-1833.6672"
       y="6152.6875"><tspan
         style="font-weight:400;font-size:303.01333618px;font-family:'Liberation Sans', sans-serif"
         id="tspan357"
         font-weight="400"
         font-size="353px"
         class="TextParagraph"><tspan
           style="font-size:303.01333618px;fill:#000000;stroke:none"
           id="tspan355"
           y="13677.686"
           x="2766.3328"
           class="TextPosition">Terminal</tspan></tspan></text>
</g><rect
     class="BoundingBox"
     x="168.37753"
     y="268.98898"
     width="48.508316"
     height="48.508316"
     id="rect364"
     style="visibility:hidden;fill:none;stroke:none;stroke-width:1.98694003" /><path
     d="m 192.52609,270.81951 c 12.67271,0 22.38845,9.64534 22.38845,22.31805 0,12.67271 -9.71574,22.38845 -22.38845,22.38845 -12.67271,0 -22.31805,-9.71574 -22.31805,-22.38845 0,-12.67271 9.64534,-22.31805 22.31805,-22.31805 z"
     id="path366"
     style="visibility:hidden;fill:none;stroke:#000000;stroke-width:3.59060097;stroke-linejoin:round"
     inkscape:connector-curvature="0" /><path
     d="m 192.52609,282.01373 c 6.33635,0 11.19422,4.78747 11.19422,11.12383 0,6.33635 -4.85787,11.19422 -11.19422,11.19422 -6.33636,0 -11.12383,-4.85787 -11.12383,-11.19422 0,-6.33636 4.78747,-11.12383 11.12383,-11.12383 z"
     id="path368"
     style="visibility:hidden;fill:none;stroke:#000000;stroke-width:3.59060097;stroke-linejoin:round"
     inkscape:connector-curvature="0" /><rect
     class="BoundingBox"
     x="203.79073"
     y="303.76852"
     width="210.64859"
     height="37.173279"
     id="rect373"
     style="visibility:hidden;fill:none;stroke:none;stroke-width:1.98694003" /><g
     id="g4741"
     transform="matrix(0.07040394,0,0,0.07040394,-2,-767.92022)"><path
       style="visibility:hidden;fill:#ffffff;fill-opacity:1;stroke:#000000;stroke-width:21.30562592;stroke-linejoin:round;stroke-miterlimit:4;stroke-dasharray:none"
       id="path377"
       d="m 3016,15231 c -42,0 -84,42 -84,84 v 340 c 0,42 42,85 84,85 h 2804 c 42,0 85,-43 85,-85 v -340 c 0,-42 -43,-84 -85,-84 z"
       inkscape:connector-curvature="0" /><text
       style="visibility:hidden"
       id="text385"
       class="TextShape"
       x="-1866.1573"
       y="6038.0952"><tspan
         style="font-weight:400;font-size:303.01333618px;font-family:'Liberation Sans', sans-serif"
         id="tspan383"
         font-weight="400"
         font-size="353px"
         class="TextParagraph"><tspan
           style="font-size:303.01333618px;fill:#000000;stroke:none"
           id="tspan381"
           y="15569.095"
           x="3072.8428"
           class="TextPosition">ConnectivityNode</tspan></tspan></text>
</g><rect
     class="BoundingBox"
     x="107.19651"
     y="210.76492"
     width="63.152332"
     height="86.315231"
     id="rect390"
     style="visibility:hidden;fill:none;stroke:none;stroke-width:1.98694003" /><path
     d="m 109.02701,212.59545 c 0,2.53454 0,4.99868 0.0704,7.39241"
     id="path392"
     style="visibility:hidden;fill:none;stroke:#000000;stroke-width:3.59060097;stroke-linejoin:round"
     inkscape:connector-curvature="0" /><path
     d="m 109.23823,224.42331 c 0.0704,2.46414 0.21121,4.85787 0.35201,7.1108"
     id="path394"
     style="visibility:hidden;fill:none;stroke:#000000;stroke-width:3.59060097;stroke-linejoin:round"
     inkscape:connector-curvature="0" /><path
     d="m 109.94226,236.03996 c 0.21122,2.46414 0.49283,4.78747 0.84485,6.96999"
     id="path396"
     style="visibility:hidden;fill:none;stroke:#000000;stroke-width:3.59060097;stroke-linejoin:round"
     inkscape:connector-curvature="0" /><path
     d="m 111.49115,247.58621 c 0.42242,2.46413 0.91525,4.71706 1.47848,6.89958"
     id="path398"
     style="visibility:hidden;fill:none;stroke:#000000;stroke-width:3.59060097;stroke-linejoin:round"
     inkscape:connector-curvature="0" /><path
     d="m 114.2369,258.71003 c 0.77445,2.39373 1.6193,4.57626 2.60495,6.61797"
     id="path400"
     style="visibility:hidden;fill:none;stroke:#000000;stroke-width:3.59060097;stroke-linejoin:round"
     inkscape:connector-curvature="0" /><path
     d="m 119.02437,269.34102 c 1.26727,2.04172 2.67535,3.94262 4.22424,5.63232"
     id="path402"
     style="visibility:hidden;fill:none;stroke:#000000;stroke-width:3.59060097;stroke-linejoin:round"
     inkscape:connector-curvature="0" /><path
     d="m 126.48719,278.14152 c 1.7601,1.47848 3.66101,2.88656 5.63232,4.15383"
     id="path404"
     style="visibility:hidden;fill:none;stroke:#000000;stroke-width:3.59060097;stroke-linejoin:round"
     inkscape:connector-curvature="0" /><path
     d="m 136.06213,284.61868 c 2.04171,1.12646 4.15383,2.11212 6.33635,3.16818"
     id="path406"
     style="visibility:hidden;fill:none;stroke:#000000;stroke-width:3.59060097;stroke-linejoin:round"
     inkscape:connector-curvature="0" /><path
     d="m 170.27844,293.27836 -26.8943,-15.55927 -3.94262,19.22028 z"
     id="path408"
     style="visibility:hidden;fill:#000000;stroke:none;stroke-width:1.98694003"
     inkscape:connector-curvature="0" /><rect
     class="BoundingBox"
     x="214.98494"
     y="210.83533"
     width="79.063622"
     height="88.708961"
     id="rect413"
     style="visibility:hidden;fill:none;stroke:none;stroke-width:1.98694003" /><path
     d="m 292.14766,212.66585 c 0,2.53454 -0.0704,4.99868 -0.14081,7.32201"
     id="path415"
     style="visibility:hidden;fill:none;stroke:#000000;stroke-width:3.59060097;stroke-linejoin:round"
     inkscape:connector-curvature="0" /><path
     d="m 291.86605,224.49371 c -0.14081,2.46414 -0.35202,4.78747 -0.56324,7.0404"
     id="path417"
     style="visibility:hidden;fill:none;stroke:#000000;stroke-width:3.59060097;stroke-linejoin:round"
     inkscape:connector-curvature="0" /><path
     d="m 290.80999,236.11036 c -0.28162,2.39374 -0.63364,4.71707 -1.05606,6.89959"
     id="path419"
     style="visibility:hidden;fill:none;stroke:#000000;stroke-width:3.59060097;stroke-linejoin:round"
     inkscape:connector-curvature="0" /><path
     d="m 288.76827,247.5158 c -0.56323,2.39374 -1.19686,4.64666 -1.97131,6.75878"
     id="path421"
     style="visibility:hidden;fill:none;stroke:#000000;stroke-width:3.59060097;stroke-linejoin:round"
     inkscape:connector-curvature="0" /><path
     d="m 285.17767,258.49882 c -0.91525,2.25292 -1.97131,4.36504 -3.09777,6.33635"
     id="path423"
     style="visibility:hidden;fill:none;stroke:#000000;stroke-width:3.59060097;stroke-linejoin:round"
     inkscape:connector-curvature="0" /><path
     d="m 279.61576,268.56658 c -1.40808,1.97131 -2.95697,3.73141 -4.57626,5.4211"
     id="path425"
     style="visibility:hidden;fill:none;stroke:#000000;stroke-width:3.59060097;stroke-linejoin:round"
     inkscape:connector-curvature="0" /><path
     d="m 271.66011,277.01505 c -1.8305,1.47849 -3.7314,2.81616 -5.77312,4.01303"
     id="path427"
     style="visibility:hidden;fill:none;stroke:#000000;stroke-width:3.59060097;stroke-linejoin:round"
     inkscape:connector-curvature="0" /><path
     d="m 261.87397,283.2106 c -2.04172,1.05606 -4.22424,1.97131 -6.47717,2.88656"
     id="path429"
     style="visibility:hidden;fill:none;stroke:#000000;stroke-width:3.59060097;stroke-linejoin:round"
     inkscape:connector-curvature="0" /><path
     d="m 251.10216,287.64605 c -2.18252,0.70404 -4.43544,1.33767 -6.75877,1.97131"
     id="path431"
     style="visibility:hidden;fill:none;stroke:#000000;stroke-width:3.59060097;stroke-linejoin:round"
     inkscape:connector-curvature="0" /><path
     d="m 214.98494,293.27836 30.41451,6.12515 -2.39374,-19.43149 z"
     id="path433"
     style="visibility:hidden;fill:#000000;stroke:none;stroke-width:1.98694003"
     inkscape:connector-curvature="0" /><rect
     class="BoundingBox"
     x="99.663292"
     y="64.183922"
     width="19.783506"
     height="132.42981"
     id="rect438"
     style="visibility:hidden;fill:none;stroke:none;stroke-width:1.98694003" /><path
     d="m 109.51984,92.908754 c 0,2.886561 0,5.421103 -0.0704,7.744426"
     id="path440"
     style="visibility:hidden;fill:none;stroke:#000000;stroke-width:3.59060097;stroke-linejoin:round"
     inkscape:connector-curvature="0" /><path
     d="m 109.44944,104.87742 c 0,2.81616 0,5.20989 0,7.25161"
     id="path442"
     style="visibility:hidden;fill:none;stroke:#000000;stroke-width:3.59060097;stroke-linejoin:round"
     inkscape:connector-curvature="0" /><path
     d="m 109.37903,116.28286 c 0,3.30898 0,5.3507 -0.0704,7.04039"
     id="path444"
     style="visibility:hidden;fill:none;stroke:#000000;stroke-width:3.59060097;stroke-linejoin:round"
     inkscape:connector-curvature="0" /><path
     d="m 109.23823,127.7587 c 0,1.6897 -0.0704,3.73141 -0.0704,6.75878"
     id="path446"
     style="visibility:hidden;fill:none;stroke:#000000;stroke-width:3.59060097;stroke-linejoin:round"
     inkscape:connector-curvature="0" /><path
     d="m 109.09742,139.30495 c 0,1.8305 0,4.01302 0,6.54756"
     id="path448"
     style="visibility:hidden;fill:none;stroke:#000000;stroke-width:3.59060097;stroke-linejoin:round"
     inkscape:connector-curvature="0" /><path
     d="m 109.09742,150.85119 c 0,2.04172 -0.0704,4.15384 -0.0704,6.54757"
     id="path450"
     style="visibility:hidden;fill:none;stroke:#000000;stroke-width:3.59060097;stroke-linejoin:round"
     inkscape:connector-curvature="0" /><path
     d="m 109.02701,161.90461 c 0,2.39374 0,4.99868 0,7.81484"
     id="path452"
     style="visibility:hidden;fill:none;stroke:#000000;stroke-width:3.59060097;stroke-linejoin:round"
     inkscape:connector-curvature="0" /><path
     d="m 109.02701,173.73247 c 0,2.11212 0,4.29464 0,6.61797"
     id="path454"
     style="visibility:hidden;fill:none;stroke:#000000;stroke-width:3.59060097;stroke-linejoin:round"
     inkscape:connector-curvature="0" /><path
     d="m 109.02701,184.9971 c 0,2.46414 0,5.06909 0,7.74444"
     id="path456"
     style="visibility:hidden;fill:none;stroke:#000000;stroke-width:3.59060097;stroke-linejoin:round"
     inkscape:connector-curvature="0" /><path
     d="m 109.51984,64.183946 -9.856551,29.428847 19.642701,0.0704 z"
     id="path458"
     style="visibility:hidden;fill:#000000;stroke:none;stroke-width:1.98694003"
     inkscape:connector-curvature="0" /><rect
     class="BoundingBox"
     x="290.31714"
     y="150.56955"
     width="93.84845"
     height="63.29314"
     id="rect463"
     style="visibility:hidden;fill:none;stroke:none;stroke-width:1.98694003" /><path
     d="m 355.93363,204.28778 c -2.60494,-0.56323 -4.85787,-1.19686 -6.96999,-1.9009"
     id="path465"
     style="visibility:hidden;fill:none;stroke:#000000;stroke-width:3.59060097;stroke-linejoin:round"
     inkscape:connector-curvature="0" /><path
     d="m 344.669,200.76759 c -2.39373,-1.05606 -4.43545,-2.18253 -6.12514,-3.4498"
     id="path467"
     style="visibility:hidden;fill:none;stroke:#000000;stroke-width:3.59060097;stroke-linejoin:round"
     inkscape:connector-curvature="0" /><path
     d="m 335.23487,194.29042 c -1.61929,-1.8305 -2.81615,-3.87221 -3.661,-5.98433"
     id="path469"
     style="visibility:hidden;fill:none;stroke:#000000;stroke-width:3.59060097;stroke-linejoin:round"
     inkscape:connector-curvature="0" /><path
     d="m 330.09539,184.01145 c -0.63364,-2.18252 -1.12647,-4.50585 -1.6193,-6.82918"
     id="path471"
     style="visibility:hidden;fill:none;stroke:#000000;stroke-width:3.59060097;stroke-linejoin:round"
     inkscape:connector-curvature="0" /><path
     d="m 327.42004,172.74682 c -0.56324,-2.18252 -1.26728,-4.43545 -2.25293,-6.75878"
     id="path473"
     style="visibility:hidden;fill:none;stroke:#000000;stroke-width:3.59060097;stroke-linejoin:round"
     inkscape:connector-curvature="0" /><path
     d="m 323.05499,161.90461 c -1.26727,-2.04171 -2.81616,-3.87221 -4.50585,-5.3507"
     id="path475"
     style="visibility:hidden;fill:none;stroke:#000000;stroke-width:3.59060097;stroke-linejoin:round"
     inkscape:connector-curvature="0" /><path
     d="m 314.74733,153.87856 c -2.18253,-1.12646 -4.50586,-1.68969 -6.82919,-1.40808"
     id="path477"
     style="visibility:hidden;fill:none;stroke:#000000;stroke-width:3.59060097;stroke-linejoin:round"
     inkscape:connector-curvature="0" /><path
     d="m 303.69391,153.87856 c -1.6897,1.05606 -3.30899,2.67535 -4.78747,4.99868"
     id="path479"
     style="visibility:hidden;fill:none;stroke:#000000;stroke-width:3.59060097;stroke-linejoin:round"
     inkscape:connector-curvature="0" /><path
     d="m 296.79432,162.89027 c -0.84485,1.97131 -1.54889,4.22423 -2.18252,6.82918"
     id="path481"
     style="visibility:hidden;fill:none;stroke:#000000;stroke-width:3.59060097;stroke-linejoin:round"
     inkscape:connector-curvature="0" /><path
     d="m 293.69655,173.94369 c -0.35202,2.25292 -0.70404,4.64666 -0.98566,7.2516"
     id="path483"
     style="visibility:hidden;fill:none;stroke:#000000;stroke-width:3.59060097;stroke-linejoin:round"
     inkscape:connector-curvature="0" /><path
     d="m 292.42928,185.48993 c -0.14081,2.25293 -0.21121,4.71707 -0.28162,7.32201"
     id="path485"
     style="visibility:hidden;fill:none;stroke:#000000;stroke-width:3.59060097;stroke-linejoin:round"
     inkscape:connector-curvature="0" /><path
     d="m 384.09521,206.68152 -28.44319,-12.4615 -1.7601,19.5723 z"
     id="path487"
     style="visibility:hidden;fill:#000000;stroke:none;stroke-width:1.98694003"
     inkscape:connector-curvature="0" /><script
     id="script718"
     type="text/ecmascript" /></svg>