<?xml version="1.0" encoding="UTF-8" standalone="no"?>
<svg
   xmlns:dc="http://purl.org/dc/elements/1.1/"
   xmlns:cc="http://creativecommons.org/ns#"
   xmlns:rdf="http://www.w3.org/1999/02/22-rdf-syntax-ns#"
   xmlns:svg="http://www.w3.org/2000/svg"
   xmlns="http://www.w3.org/2000/svg"
   xmlns:sodipodi="http://sodipodi.sourceforge.net/DTD/sodipodi-0.dtd"
   xmlns:inkscape="http://www.inkscape.org/namespaces/inkscape"
   version="1.2"
   viewBox="0 0 642.74018 252.20946"
   preserveAspectRatio="xMidYMid"
   xml:space="preserve"
   id="svg720"
   width="642.74017"
   height="252.20946"
   style="fill-rule:evenodd;stroke-width:28.22200012;stroke-linejoin:round"
   sodipodi:docname="topology.svg"
   inkscape:version="0.92.1 15371"><sodipodi:namedview
     pagecolor="#ffffff"
     bordercolor="#666666"
     borderopacity="1"
     objecttolerance="10"
     gridtolerance="10"
     guidetolerance="10"
     inkscape:pageopacity="0"
     inkscape:pageshadow="2"
     inkscape:window-width="2495"
     inkscape:window-height="1416"
     id="namedview6996"
     showgrid="false"
     fit-margin-top="0"
     fit-margin-left="0"
     fit-margin-right="0"
     fit-margin-bottom="0"
     inkscape:zoom="3.0603346"
     inkscape:cx="321.37009"
     inkscape:cy="126.10473"
     inkscape:window-x="2625"
     inkscape:window-y="24"
     inkscape:window-maximized="1"
     inkscape:current-layer="svg720" /><defs
     id="defs4927" /><metadata
     id="metadata724"><rdf:RDF><cc:Work
         rdf:about=""><dc:format>image/svg+xml</dc:format><dc:type
           rdf:resource="http://purl.org/dc/dcmitype/StillImage" /><dc:title></dc:title></cc:Work></rdf:RDF></metadata><path
     style="fill:none;stroke:#000000;stroke-width:3.59060097;stroke-linejoin:round"
     id="path253"
     d="m 109.51984,64.183956 h -17.8826 v -35.76521 h 35.7652 v 35.76521 z"
     inkscape:connector-curvature="0" /><path
     style="fill:none;stroke:#000000;stroke-width:3.59060097;stroke-linejoin:round"
     id="path260"
     d="m 384.09521,150.28033 258.63715,1.12646"
     inkscape:connector-curvature="0" /><path
     style="fill:#000000;fill-opacity:1;stroke:#000000;stroke-width:3.59060097;stroke-linejoin:round"
     id="path269"
     d="m 109.02701,138.87489 c 5.06909,0 8.9413,3.87221 8.9413,8.9413 0,5.06908 -3.87221,8.9413 -8.9413,8.9413 -5.06908,0 -8.9413,-3.87222 -8.9413,-8.9413 0,-5.06909 3.87222,-8.9413 8.9413,-8.9413 z"
     inkscape:connector-curvature="0" /><path
     inkscape:connector-curvature="0"
     style="fill:#ffffff;fill-opacity:1;stroke:#000000;stroke-width:1.5;stroke-linejoin:round;stroke-miterlimit:4;stroke-dasharray:none"
     id="path278"
     d="m 415.5369,147.39377 c -2.95696,0 -5.91393,2.95696 -5.91393,5.91393 v 23.93734 c 0,2.95696 2.95697,5.98433 5.91393,5.98433 h 190.23145 c 2.95696,0 5.91393,-3.02737 5.91393,-5.98433 V 153.3077 c 0,-2.95697 -2.95697,-5.91393 -5.91393,-5.91393 z" /><text
     id="text286"
     class="TextShape"
     x="-186.49707"
     y="-398.6525"
     style="font-size:0.84484726px;stroke-width:1.98694003"><tspan
       style="font-weight:400;font-size:21.33333206px;font-family:'Liberation Sans', sans-serif;stroke-width:1.98694003"
       id="tspan284"
       font-weight="400"
       font-size="353px"
       class="TextParagraph"><tspan
         style="font-size:21.33333206px;fill:#000000;stroke:none;stroke-width:1.98694003"
         id="tspan282"
         y="171.19698"
         x="426.01721"
         class="TextPosition">ACLineSegment</tspan></tspan></text>
<rect
     style="fill:none;stroke:none;stroke-width:1.98694003"
     id="rect304"
     height="37.173279"
     width="92.440376"
     y="0.11634238"
     x="124.7271"
     class="BoundingBox" /><path
     inkscape:connector-curvature="0"
     style="fill:#ffffff;fill-opacity:1;stroke:#000000;stroke-width:1.5;stroke-linejoin:round;stroke-miterlimit:4;stroke-dasharray:none"
     id="path308"
     d="m 131.27466,0.75 c -2.95697,0 -5.91393,2.9569655 -5.91393,5.913931 V 30.60127 c 0,2.956966 2.95696,5.984335 5.91393,5.984335 h 79.13403 c 2.95696,0 5.98433,-3.027369 5.98433,-5.984335 V 6.663931 C 216.39302,3.7069655 213.36565,0.75 210.40869,0.75 Z" /><text
     id="text316"
     class="TextShape"
     x="-134.20036"
     y="-340.74683"
     style="font-size:0.84484726px;stroke-width:1.98694003"><tspan
       style="font-weight:400;font-size:21.33333206px;font-family:'Liberation Sans', sans-serif;stroke-width:1.98694003"
       id="tspan314"
       font-weight="400"
       font-size="353px"
       class="TextParagraph"><tspan
         style="font-size:21.33333206px;fill:#000000;stroke:none;stroke-width:1.98694003"
         id="tspan312"
         y="26.620905"
         x="135.79875"
         class="TextPosition">Switch</tspan></tspan></text>
<path
     style="fill:#000000;fill-opacity:1;stroke:#000000;stroke-width:3.59060097;stroke-linejoin:round"
     id="path325"
     d="m 292.14766,138.94529 c 5.06909,0 8.9413,3.87222 8.9413,8.9413 0,5.06909 -3.87221,8.9413 -8.9413,8.9413 -5.06908,0 -8.9413,-3.87221 -8.9413,-8.9413 0,-5.06908 3.87222,-8.9413 8.9413,-8.9413 z"
     inkscape:connector-curvature="0" /><rect
     style="fill:none;stroke:none;stroke-width:1.98694003"
     id="rect330"
     height="37.173279"
     width="105.18349"
     y="108.70027"
     x="0"
     class="BoundingBox" /><path
     inkscape:connector-curvature="0"
     style="fill:#ffffff;fill-opacity:1;stroke:#000000;stroke-width:1.26699996;stroke-linejoin:round;stroke-miterlimit:4;stroke-dasharray:none"
     id="path334"
     d="m 6.6179703,109.33396 c -2.9569654,0 -5.91393091,2.95697 -5.91393091,5.91393 v 23.93734 c 0,2.95697 2.95696551,5.98434 5.91393091,5.98434 H 98.495112 c 2.956968,0 5.984338,-3.02737 5.984338,-5.98434 v -23.93734 c 0,-2.95696 -3.02737,-5.91393 -5.984338,-5.91393 z" /><text
     id="text342"
     class="TextShape"
     x="-133.55627"
     y="-394.05423"
     style="font-size:0.84484726px;stroke-width:1.98694003"><tspan
       style="font-weight:400;font-size:21.33333206px;font-family:'Liberation Sans', sans-serif;stroke-width:1.98694003"
       id="tspan340"
       font-weight="400"
       font-size="353px"
       class="TextParagraph"><tspan
         style="font-size:21.33333206px;fill:#000000;stroke:none;stroke-width:1.98694003"
         id="tspan338"
         y="135.73538"
         x="6.054739"
         class="TextPosition">Terminal</tspan></tspan></text>
<rect
     style="fill:none;stroke:none;stroke-width:1.98694003"
     id="rect347"
     height="37.173279"
     width="105.18349"
     y="112.70021"
     x="184.24712"
     class="BoundingBox" /><path
     inkscape:connector-curvature="0"
     style="fill:#ffffff;fill-opacity:1;stroke:#000000;stroke-width:1.5;stroke-linejoin:round;stroke-miterlimit:4;stroke-dasharray:none"
     id="path351"
     d="m 190.86508,109.45027 c -2.95696,0 -5.91393,2.95697 -5.91393,5.91393 v 23.93734 c 0,2.95697 2.95697,5.98434 5.91393,5.98434 h 91.87714 c 2.95697,0 5.98434,-3.02737 5.98434,-5.98434 V 115.3642 c 0,-2.95696 -3.02737,-5.91393 -5.98434,-5.91393 z" /><text
     id="text359"
     class="TextShape"
     x="-131.0974"
     y="-394.46851"
     style="font-size:0.84484726px;stroke-width:1.98694003"><tspan
       style="font-weight:400;font-size:21.33333206px;font-family:'Liberation Sans', sans-serif;stroke-width:1.98694003"
       id="tspan357"
       font-weight="400"
       font-size="353px"
       class="TextParagraph"><tspan
         style="font-size:21.33333206px;fill:#000000;stroke:none;stroke-width:1.98694003"
         id="tspan355"
         y="135.32101"
         x="192.76073"
         class="TextPosition">Terminal</tspan></tspan></text>
<rect
     style="fill:none;stroke:none;stroke-width:1.98694003"
     id="rect364"
     height="48.508316"
     width="48.508316"
     y="180.21065"
     x="168.37753"
     class="BoundingBox" /><path
     style="fill:none;stroke:#000000;stroke-width:3.59060097;stroke-linejoin:round"
     id="path366"
     d="m 192.52609,182.04117 c 12.67271,0 22.38845,9.64534 22.38845,22.31805 0,12.67271 -9.71574,22.38845 -22.38845,22.38845 -12.67271,0 -22.31805,-9.71574 -22.31805,-22.38845 0,-12.67271 9.64534,-22.31805 22.31805,-22.31805 z"
     inkscape:connector-curvature="0" /><path
     style="fill:none;stroke:#000000;stroke-width:3.59060097;stroke-linejoin:round"
     id="path368"
     d="m 192.52609,193.23539 c 6.33635,0 11.19422,4.78747 11.19422,11.12383 0,6.33635 -4.85787,11.19422 -11.19422,11.19422 -6.33636,0 -11.12383,-4.85787 -11.12383,-11.19422 0,-6.33636 4.78747,-11.12383 11.12383,-11.12383 z"
     inkscape:connector-curvature="0" /><rect
     style="fill:none;stroke:none;stroke-width:1.98694003"
     id="rect373"
     height="37.173279"
     width="210.64859"
     y="214.99019"
     x="203.79073"
     class="BoundingBox" /><path
     inkscape:connector-curvature="0"
     style="fill:#ffffff;fill-opacity:1;stroke:#000000;stroke-width:1.5;stroke-linejoin:round;stroke-miterlimit:4;stroke-dasharray:none"
     id="path377"
     d="m 210.33828,215.62385 c -2.95696,0 -5.91393,2.95697 -5.91393,5.91393 v 23.93734 c 0,2.95697 2.95697,5.98434 5.91393,5.98434 h 197.41265 c 2.95697,0 5.98434,-3.02737 5.98434,-5.98434 v -23.93734 c 0,-2.95696 -3.02737,-5.91393 -5.98434,-5.91393 z" /><text
     id="text385"
     class="TextShape"
     x="-133.38483"
     y="-431.59286"
     style="font-size:0.84484726px;stroke-width:1.98694003"><tspan
       style="font-weight:400;font-size:21.33333206px;font-family:'Liberation Sans', sans-serif;stroke-width:1.98694003"
       id="tspan383"
       font-weight="400"
       font-size="353px"
       class="TextParagraph"><tspan
         style="font-size:21.33333206px;fill:#000000;stroke:none;stroke-width:1.98694003"
         id="tspan381"
         y="239.42705"
         x="214.34024"
         class="TextPosition">ConnectivityNode</tspan></tspan></text>
<rect
     style="fill:none;stroke:none;stroke-width:1.98694003"
     id="rect390"
     height="86.315231"
     width="63.152332"
     y="154.92697"
     x="107.19651"
     class="BoundingBox" /><path
     style="fill:#000000;stroke:none;stroke-width:1.98694003"
     id="path408"
     d="m 170.27844,204.50002 -26.8943,-15.55927 -3.94262,19.22028 z"
     inkscape:connector-curvature="0" /><rect
     style="fill:none;stroke:none;stroke-width:1.98694003"
     id="rect413"
     height="88.708961"
     width="79.063622"
     y="154.99738"
     x="214.98494"
     class="BoundingBox" /><path
     style="fill:#000000;stroke:none;stroke-width:1.98694003"
     id="path433"
     d="m 214.98494,204.50002 30.41451,6.12515 -2.39374,-19.43149 z"
     inkscape:connector-curvature="0" /><rect
     style="fill:none;stroke:none;stroke-width:1.98694003"
     id="rect438"
     height="132.42981"
     width="19.783506"
     y="8.3459644"
     x="99.663292"
     class="BoundingBox" /><path
     style="fill:#000000;stroke:none;stroke-width:1.98694003"
     id="path458"
     d="m 109.51984,64.183956 -9.856551,29.42884 19.642701,0.0704 z"
     inkscape:connector-curvature="0" /><rect
     style="fill:none;stroke:none;stroke-width:1.98694003"
     id="rect463"
     height="63.29314"
     width="93.84845"
     y="94.731598"
     x="290.31714"
     class="BoundingBox" /><path
     style="fill:#000000;stroke:none;stroke-width:1.98694003"
     id="path487"
     d="m 384.09521,150.28033 -21.13037,-22.75548 -9.40698,17.25345 z"
     inkscape:connector-curvature="0" /><script
     type="text/ecmascript"
     id="script718" /><path
     id="path6897"
     d="m 109.19651,154.92696 c 0,45.46165 36.21466,44.65823 36.21466,44.65823"
     style="fill:none;stroke:#000000;stroke-width:3;stroke-linecap:butt;stroke-linejoin:miter;stroke-miterlimit:4;stroke-dasharray:6, 3;stroke-dashoffset:0;stroke-opacity:1"
     inkscape:connector-curvature="0" /><path
     id="path6899"
     d="m 292.04855,154.99737 c 0,48.61975 -48.61111,46.99809 -48.61111,46.99809"
     style="fill:none;stroke:#000000;stroke-width:3;stroke-linecap:butt;stroke-linejoin:miter;stroke-miterlimit:4;stroke-dasharray:6, 3;stroke-dashoffset:0;stroke-opacity:1"
     inkscape:connector-curvature="0" /><path
     id="path6901"
     d="m 109.02701,138.87489 c 0,-38.51255 0,-48.555344 0,-48.555344"
     style="fill:none;stroke:#000000;stroke-width:3;stroke-linecap:butt;stroke-linejoin:miter;stroke-miterlimit:4;stroke-dasharray:6, 3;stroke-dashoffset:0;stroke-opacity:1"
     inkscape:connector-curvature="0" /><path
     id="path6903"
     d="m 299.2754,142.54209 c 33.3421,-24.10272 59.45337,-6.42739 59.45337,-6.42739"
     style="fill:none;stroke:#000000;stroke-width:3;stroke-linecap:butt;stroke-linejoin:miter;stroke-miterlimit:4;stroke-dasharray:6, 3;stroke-dashoffset:0;stroke-opacity:1"
     inkscape:connector-curvature="0" /></svg>