<?xml version="1.0" encoding="UTF-8" standalone="no"?>
<svg
   xmlns:dc="http://purl.org/dc/elements/1.1/"
   xmlns:cc="http://creativecommons.org/ns#"
   xmlns:rdf="http://www.w3.org/1999/02/22-rdf-syntax-ns#"
   xmlns:svg="http://www.w3.org/2000/svg"
   xmlns="http://www.w3.org/2000/svg"
   width="878.18756"
   height="800"
   viewBox="0 0 232.3538 211.66666"
   version="1.1"
   id="svg5558">
  <defs
     id="defs5552">
    <marker
       style="overflow:visible"
       id="marker8458"
       refX="0"
       refY="0"
       orient="auto">
      <path
         transform="scale(-0.6)"
         d="M 8.7185878,4.0337352 -2.2072895,0.01601326 8.7185884,-4.0017078 c -1.7454984,2.3720609 -1.7354408,5.6174519 -6e-7,8.035443 z"
         style="fill:#000000;fill-opacity:1;fill-rule:evenodd;stroke:#000000;stroke-width:0.625;stroke-linejoin:round;stroke-opacity:1"
         id="path8456" />
    </marker>
    <marker
       style="overflow:visible"
       id="marker8418"
       refX="0"
       refY="0"
       orient="auto">
      <path
         transform="scale(0.6)"
         d="M 8.7185878,4.0337352 -2.2072895,0.01601326 8.7185884,-4.0017078 c -1.7454984,2.3720609 -1.7354408,5.6174519 -6e-7,8.035443 z"
         style="fill:#000000;fill-opacity:1;fill-rule:evenodd;stroke:#000000;stroke-width:0.625;stroke-linejoin:round;stroke-opacity:1"
         id="path8416" />
    </marker>
    <marker
       orient="auto"
       refY="0"
       refX="0"
       id="Arrow2Mstart"
       style="overflow:visible">
      <path
         id="path6938"
         style="fill:#000000;fill-opacity:1;fill-rule:evenodd;stroke:#000000;stroke-width:0.625;stroke-linejoin:round;stroke-opacity:1"
         d="M 8.7185878,4.0337352 -2.2072895,0.01601326 8.7185884,-4.0017078 c -1.7454984,2.3720609 -1.7354408,5.6174519 -6e-7,8.035443 z"
         transform="scale(0.6)" />
    </marker>
    <marker
       orient="auto"
       refY="0"
       refX="0"
       id="Arrow2Mend"
       style="overflow:visible">
      <path
         id="path6941"
         style="fill:#000000;fill-opacity:1;fill-rule:evenodd;stroke:#000000;stroke-width:0.625;stroke-linejoin:round;stroke-opacity:1"
         d="M 8.7185878,4.0337352 -2.2072895,0.01601326 8.7185884,-4.0017078 c -1.7454984,2.3720609 -1.7354408,5.6174519 -6e-7,8.035443 z"
         transform="scale(-0.6)" />
    </marker>
    <marker
       orient="auto"
       refY="0"
       refX="0"
       id="Arrow1Lstart"
       style="overflow:visible">
      <path
         id="path6914"
         d="M 0,0 5,-5 -12.5,0 5,5 Z"
         style="fill:#000000;fill-opacity:1;fill-rule:evenodd;stroke:#000000;stroke-width:1.00000003pt;stroke-opacity:1"
         transform="matrix(0.8,0,0,0.8,10,0)" />
    </marker>
    <marker
       orient="auto"
       refY="0"
       refX="0"
       id="Arrow1Lend"
       style="overflow:visible">
      <path
         id="path6917"
         d="M 0,0 5,-5 -12.5,0 5,5 Z"
         style="fill:#000000;fill-opacity:1;fill-rule:evenodd;stroke:#000000;stroke-width:1.00000003pt;stroke-opacity:1"
         transform="matrix(-0.8,0,0,-0.8,-10,0)" />
    </marker>
  </defs>
  <metadata
     id="metadata5555">
    <rdf:RDF>
      <cc:Work
         rdf:about="">
        <dc:format>image/svg+xml</dc:format>
        <dc:type
           rdf:resource="http://purl.org/dc/dcmitype/StillImage" />
        <dc:title></dc:title>
      </cc:Work>
    </rdf:RDF>
  </metadata>
  <g
     id="layer1"
     transform="matrix(1.1521292,0,0,1.1521292,-16.756135,-130.37127)">
    <g
       transform="matrix(0.57179725,0,0,0.57179725,12.277244,30.189584)"
       id="g5524">
      <path
         id="path4490"
         d="m 46.815844,235.45489 37.12841,-24.89933 v -37.86032 c 0,-8.35365 -1.17851,-11.23862 -4.25582,-15.70486 -1.71911,-2.49501 -4.53987,-4.2164 -7.35121,-5.34634 -2.86834,-1.15285 -6.1247,-1.66101 -9.18901,-1.25304 -3.89618,0.51871 -8.11692,1.77915 -10.85974,4.5945 -3.40267,3.49265 -5.46822,7.03755 -5.34634,13.61645 0,4.92865 -0.12629,66.85294 -0.12629,66.85294"
         style="fill:none;stroke:#000000;stroke-width:1;stroke-linecap:butt;stroke-linejoin:miter;stroke-miterlimit:4;stroke-dasharray:none;stroke-opacity:1" />
      <path
         id="path4522"
         d="m 67.11149,150.28781 -46.316278,-4.68542 c -3.89618,0.51872 -8.116919,1.77916 -10.8597407,4.59451 -3.4026662,3.49265 -5.468217,7.03755 -5.346337,13.61644 0,2.17058 -0.0245,15.39554 -0.05191,29.51721 -0.03071,15.81581 -0.06506,29.33038 -0.07279,33.1262 l 42.3514007,8.99814"
         style="fill:none;stroke:#000000;stroke-width:1;stroke-linecap:butt;stroke-linejoin:miter;stroke-miterlimit:4;stroke-dasharray:none;stroke-opacity:1" />
      <path
         id="path4534"
         d="m 16.985394,154.086 24.55973,3.00731 -4.61058,8.04991 -26.46499,-3.87308 z"
         style="fill:none;stroke:#000000;stroke-width:1;stroke-linecap:butt;stroke-linejoin:miter;stroke-miterlimit:4;stroke-dasharray:none;stroke-opacity:1" />
      <path
         id="path4536"
         d="m 41.545124,157.09331 c -1.59436,4.61974 -1.59436,16.84706 -1.59436,17.85124 l -3.01622,-9.80133"
         style="fill:none;stroke:#000000;stroke-width:1;stroke-linecap:butt;stroke-linejoin:miter;stroke-miterlimit:4;stroke-dasharray:none;stroke-opacity:1" />
      <path
         id="path4545"
         d="m 13.25051,161.66944 c -0.325898,4.53128 -0.325898,9.01724 -0.325898,9.60877 l -2.91973,-9.841"
         style="fill:none;stroke:#000000;stroke-width:1;stroke-linecap:butt;stroke-linejoin:miter;stroke-miterlimit:4;stroke-dasharray:none;stroke-opacity:1" />
      <path
         id="path4547"
         d="m 20.642304,166.82627 c -4.30367,1.08536 -1.16225,1.34846 0.78704,1.64381 1.94928,0.29534 6.7732,0.99998 7.60017,0.9409 1.28887,-0.064 2.27042,-0.87844 2.27042,-0.87844"
         style="fill:none;stroke:#000000;stroke-width:0.75;stroke-linecap:round;stroke-linejoin:miter;stroke-miterlimit:4;stroke-dasharray:none;stroke-opacity:1" />
      <path
         id="path4551"
         d="m 17.161374,163.67329 17.14587,2.42256 -0.0209,1.21128 -17.14587,-2.61051 z"
         style="fill:#000000;fill-opacity:1;stroke:#000000;stroke-width:0.26458332px;stroke-linecap:butt;stroke-linejoin:miter;stroke-opacity:1" />
      <path
         id="path4553"
         d="m 15.323574,162.0861 v 17.08321 l 22.05363,3.5503 v -16.10165"
         style="fill:none;stroke:#000000;stroke-width:1;stroke-linecap:butt;stroke-linejoin:miter;stroke-miterlimit:4;stroke-dasharray:none;stroke-opacity:1" />
      <path
         id="path4502"
         d="m 12.778924,186.9356 25.81324,4.37112 v 11.57757 l -25.88245,-4.78758 z"
         style="fill:none;stroke:#000000;stroke-width:0.5;stroke-linecap:butt;stroke-linejoin:miter;stroke-miterlimit:4;stroke-dasharray:none;stroke-opacity:1" />
      <g
         transform="matrix(0.99631218,0.20518108,-0.01883486,0.99982261,-164.68246,79.734935)"
         id="g4510">
        <text
           xml:space="preserve"
           style="font-style:normal;font-weight:normal;font-size:4.93888855px;line-height:6.61458302px;font-family:sans-serif;letter-spacing:0px;word-spacing:0px;fill:#000000;fill-opacity:1;stroke:none;stroke-width:0.26458332"
           x="174.09003"
           y="107.78986"
           id="text4506"><tspan
             id="tspan4504"
             x="174.09003"
             y="107.78986"
             style="font-size:14.11111069px;stroke-width:0.26458332">POST</tspan></text>
      </g>
      <path
         id="path4512"
         d="m 51.286034,226.57627 27.56703,-16.54023 v -41.43409 l -27.56703,10.85974 z"
         style="fill:none;stroke:#000000;stroke-width:0.5;stroke-linecap:butt;stroke-linejoin:miter;stroke-miterlimit:4;stroke-dasharray:none;stroke-opacity:1" />
      <path
         id="path4514"
         d="m 79.187214,176.78853 -0.0194,6.59938"
         style="fill:none;stroke:#000000;stroke-width:1;stroke-linecap:butt;stroke-linejoin:miter;stroke-miterlimit:4;stroke-dasharray:none;stroke-opacity:1" />
      <path
         style="fill:none;stroke:#000000;stroke-width:1;stroke-linecap:butt;stroke-linejoin:miter;stroke-miterlimit:4;stroke-dasharray:none;stroke-opacity:1"
         d="m 79.187214,197.26875 -0.0194,6.59938"
         id="path4525" />
      <ellipse
         ry="1.4868134"
         rx="0.91890126"
         cy="200.99725"
         cx="54.460411"
         id="path4527"
         style="opacity:1;fill:none;fill-opacity:1;stroke:#000000;stroke-width:0.5;stroke-linecap:round;stroke-miterlimit:4;stroke-dasharray:none;stroke-dashoffset:0;stroke-opacity:1" />
      <path
         id="path4529"
         d="m 36.416534,233.25918 v 60.14627 l 9.77377,2.67316 v -60.56394 l 5.84755,-3.59207 v 60.39687 l -5.93109,3.50854"
         style="fill:none;stroke:#000000;stroke-width:0.5;stroke-linecap:butt;stroke-linejoin:miter;stroke-miterlimit:4;stroke-dasharray:none;stroke-opacity:1" />
    </g>
    <g
       transform="translate(31.658286,9.033441)"
       id="layer1-1">
      <g
         id="g4528"
         transform="matrix(0.99251781,0.21622653,-0.51521125,0.34551485,71.397969,144.4951)"
         style="stroke-width:1.4835881;stroke-miterlimit:4;stroke-dasharray:none">
        <path
           id="rect4526"
           d="m 152.45978,83.439333 3.71921,-0.0336 V 155.47017 H 21.973747 V 83.405733 L 111.60253,83.6611"
           style="opacity:1;fill:none;fill-opacity:1;stroke:#000000;stroke-width:1.4835881;stroke-linecap:butt;stroke-miterlimit:4;stroke-dasharray:none;stroke-dashoffset:0;stroke-opacity:1" />
      </g>
      <path
         id="path4535"
         d="m 12.592838,203.01043 -0.0468,4.81317 133.349882,29.66705"
         style="fill:none;stroke:#000000;stroke-width:1;stroke-linecap:butt;stroke-linejoin:miter;stroke-miterlimit:4;stroke-dasharray:none;stroke-opacity:1" />
      <path
         id="path4546"
         d="m 50.657276,215.95869 v 39.84989 l -32.431121,-8.11064 v -38.66153"
         style="fill:none;stroke:#000000;stroke-width:1;stroke-linecap:butt;stroke-linejoin:miter;stroke-miterlimit:4;stroke-dasharray:none;stroke-opacity:1" />
      <path
         id="path4554"
         d="m 108.28059,229.42908 v 40.31761 l 33.67596,7.85772 -0.0947,-40.80365"
         style="fill:none;stroke:#000000;stroke-width:1;stroke-linecap:butt;stroke-linejoin:miter;stroke-miterlimit:4;stroke-dasharray:none;stroke-opacity:1" />
      <path
         id="path4556"
         d="m 146.30842,231.9824 -0.05,5.09899 37.75532,-25.33551 -0.0165,-4.73486"
         style="fill:none;stroke:#000000;stroke-width:1;stroke-linecap:butt;stroke-linejoin:miter;stroke-miterlimit:4;stroke-dasharray:none;stroke-opacity:1" />
      <path
         id="path4560"
         d="m 141.95655,277.60441 40.03698,-29.93419 v -34.23723"
         style="fill:none;stroke:#000000;stroke-width:1;stroke-linecap:butt;stroke-linejoin:miter;stroke-miterlimit:4;stroke-dasharray:none;stroke-opacity:1" />
      <path
         id="path4562"
         d="M 50.657276,255.80858 87.981465,224.84541"
         style="fill:none;stroke:#000000;stroke-width:1;stroke-linecap:butt;stroke-linejoin:miter;stroke-miterlimit:4;stroke-dasharray:none;stroke-opacity:1" />
      <g
         id="g4635"
         transform="translate(115.01578,119.51775)">
        <path
           style="fill:none;stroke:#000000;stroke-width:0.5;stroke-linecap:butt;stroke-linejoin:miter;stroke-miterlimit:4;stroke-dasharray:none;stroke-opacity:1"
           d="m -93.133332,125.94687 25.929166,6.35 v -17.0987 l -25.929166,-6.04501 z"
           id="path4564" />
        <path
           id="path4568"
           d="m -93.133332,106.79765 25.929166,6.35 V 96.048951 l -25.929166,-5.78776 z"
           style="fill:none;stroke:#000000;stroke-width:0.5;stroke-linecap:butt;stroke-linejoin:miter;stroke-miterlimit:4;stroke-dasharray:none;stroke-opacity:1" />
        <g
           id="g4611"
           transform="translate(2.9104167,-0.26458333)">
          <ellipse
             ry="0.82682288"
             rx="0.52916664"
             cy="115.26432"
             cx="-87.709373"
             id="path4576"
             style="opacity:1;fill:none;fill-opacity:1;stroke:#000000;stroke-width:0.5;stroke-linecap:round;stroke-miterlimit:4;stroke-dasharray:none;stroke-dashoffset:0;stroke-opacity:1" />
          <ellipse
             style="opacity:1;fill:none;fill-opacity:1;stroke:#000000;stroke-width:0.5;stroke-linecap:round;stroke-miterlimit:4;stroke-dasharray:none;stroke-dashoffset:0;stroke-opacity:1"
             id="ellipse4578"
             cx="-80.830208"
             cy="116.8849"
             rx="0.52916664"
             ry="0.82682288" />
          <path
             id="path4584"
             d="m -80.895522,117.57953 c 0,2.19935 -2.480469,1.35599 -2.480469,1.35599 l -3.175,-0.7276 c 0,0 -1.308,-0.075 -1.223698,-2.2655"
             style="fill:none;stroke:#000000;stroke-width:0.5;stroke-linecap:butt;stroke-linejoin:miter;stroke-miterlimit:4;stroke-dasharray:none;stroke-opacity:1" />
          <path
             id="path4586"
             d="m -82.624415,119.11733 c -0.06714,0.30495 -1.080304,0.34116 -2.26299,0.0809 -1.182687,-0.26029 -2.087044,-0.7185 -2.019952,-1.02346 0.0671,-0.30497 1.080279,-0.34119 2.262995,-0.0809 1.182715,0.26029 2.087082,0.71852 2.019947,1.02348 z"
             style="fill:#000000;fill-opacity:1;stroke:#000000;stroke-width:0.26458332px;stroke-linecap:butt;stroke-linejoin:miter;stroke-opacity:1" />
        </g>
        <g
           transform="translate(2.9104167,-21.431251)"
           id="g4621">
          <ellipse
             style="opacity:1;fill:none;fill-opacity:1;stroke:#000000;stroke-width:0.5;stroke-linecap:round;stroke-miterlimit:4;stroke-dasharray:none;stroke-dashoffset:0;stroke-opacity:1"
             id="ellipse4613"
             cx="-87.709373"
             cy="115.26432"
             rx="0.52916664"
             ry="0.82682288" />
          <ellipse
             ry="0.82682288"
             rx="0.52916664"
             cy="116.8849"
             cx="-80.830208"
             id="ellipse4615"
             style="opacity:1;fill:none;fill-opacity:1;stroke:#000000;stroke-width:0.5;stroke-linecap:round;stroke-miterlimit:4;stroke-dasharray:none;stroke-dashoffset:0;stroke-opacity:1" />
          <path
             style="fill:none;stroke:#000000;stroke-width:0.5;stroke-linecap:butt;stroke-linejoin:miter;stroke-miterlimit:4;stroke-dasharray:none;stroke-opacity:1"
             d="m -80.895522,117.57953 c 0,2.19935 -2.480469,1.35599 -2.480469,1.35599 l -3.175,-0.7276 c 0,0 -1.308,-0.075 -1.223698,-2.2655"
             id="path4617" />
          <path
             style="fill:#000000;fill-opacity:1;stroke:#000000;stroke-width:0.26458332px;stroke-linecap:butt;stroke-linejoin:miter;stroke-opacity:1"
             d="m -82.624415,119.11733 c -0.06714,0.30495 -1.080304,0.34116 -2.26299,0.0809 -1.182687,-0.26029 -2.087044,-0.7185 -2.019952,-1.02346 0.0671,-0.30497 1.080279,-0.34119 2.262995,-0.0809 1.182715,0.26029 2.087082,0.71852 2.019947,1.02348 z"
             id="path4619" />
        </g>
      </g>
      <g
         transform="translate(205.2387,140.15525)"
         id="g4661">
        <path
           id="path4637"
           d="m -93.133332,125.94687 25.929166,6.35 v -17.0987 l -25.929166,-6.04501 z"
           style="fill:none;stroke:#000000;stroke-width:0.5;stroke-linecap:butt;stroke-linejoin:miter;stroke-miterlimit:4;stroke-dasharray:none;stroke-opacity:1" />
        <path
           style="fill:none;stroke:#000000;stroke-width:0.5;stroke-linecap:butt;stroke-linejoin:miter;stroke-miterlimit:4;stroke-dasharray:none;stroke-opacity:1"
           d="m -93.133332,106.79765 25.929166,6.35 V 96.048951 l -25.929166,-5.78776 z"
           id="path4639" />
        <g
           transform="translate(2.9104167,-0.26458333)"
           id="g4649">
          <ellipse
             style="opacity:1;fill:none;fill-opacity:1;stroke:#000000;stroke-width:0.5;stroke-linecap:round;stroke-miterlimit:4;stroke-dasharray:none;stroke-dashoffset:0;stroke-opacity:1"
             id="ellipse4641"
             cx="-87.709373"
             cy="115.26432"
             rx="0.52916664"
             ry="0.82682288" />
          <ellipse
             ry="0.82682288"
             rx="0.52916664"
             cy="116.8849"
             cx="-80.830208"
             id="ellipse4643"
             style="opacity:1;fill:none;fill-opacity:1;stroke:#000000;stroke-width:0.5;stroke-linecap:round;stroke-miterlimit:4;stroke-dasharray:none;stroke-dashoffset:0;stroke-opacity:1" />
          <path
             style="fill:none;stroke:#000000;stroke-width:0.5;stroke-linecap:butt;stroke-linejoin:miter;stroke-miterlimit:4;stroke-dasharray:none;stroke-opacity:1"
             d="m -80.895522,117.57953 c 0,2.19935 -2.480469,1.35599 -2.480469,1.35599 l -3.175,-0.7276 c 0,0 -1.308,-0.075 -1.223698,-2.2655"
             id="path4645" />
          <path
             style="fill:#000000;fill-opacity:1;stroke:#000000;stroke-width:0.26458332px;stroke-linecap:butt;stroke-linejoin:miter;stroke-opacity:1"
             d="m -82.624415,119.11733 c -0.06714,0.30495 -1.080304,0.34116 -2.26299,0.0809 -1.182687,-0.26029 -2.087044,-0.7185 -2.019952,-1.02346 0.0671,-0.30497 1.080279,-0.34119 2.262995,-0.0809 1.182715,0.26029 2.087082,0.71852 2.019947,1.02348 z"
             id="path4647" />
        </g>
        <g
           id="g4659"
           transform="translate(2.9104167,-21.431251)">
          <ellipse
             ry="0.82682288"
             rx="0.52916664"
             cy="115.26432"
             cx="-87.709373"
             id="ellipse4651"
             style="opacity:1;fill:none;fill-opacity:1;stroke:#000000;stroke-width:0.5;stroke-linecap:round;stroke-miterlimit:4;stroke-dasharray:none;stroke-dashoffset:0;stroke-opacity:1" />
          <ellipse
             style="opacity:1;fill:none;fill-opacity:1;stroke:#000000;stroke-width:0.5;stroke-linecap:round;stroke-miterlimit:4;stroke-dasharray:none;stroke-dashoffset:0;stroke-opacity:1"
             id="ellipse4653"
             cx="-80.830208"
             cy="116.8849"
             rx="0.52916664"
             ry="0.82682288" />
          <path
             id="path4655"
             d="m -80.895522,117.57953 c 0,2.19935 -2.480469,1.35599 -2.480469,1.35599 l -3.175,-0.7276 c 0,0 -1.308,-0.075 -1.223698,-2.2655"
             style="fill:none;stroke:#000000;stroke-width:0.5;stroke-linecap:butt;stroke-linejoin:miter;stroke-miterlimit:4;stroke-dasharray:none;stroke-opacity:1" />
          <path
             id="path4657"
             d="m -82.624415,119.11733 c -0.06714,0.30495 -1.080304,0.34116 -2.26299,0.0809 -1.182687,-0.26029 -2.087044,-0.7185 -2.019952,-1.02346 0.0671,-0.30497 1.080279,-0.34119 2.262995,-0.0809 1.182715,0.26029 2.087082,0.71852 2.019947,1.02348 z"
             style="fill:#000000;fill-opacity:1;stroke:#000000;stroke-width:0.26458332px;stroke-linecap:butt;stroke-linejoin:miter;stroke-opacity:1" />
        </g>
      </g>
      <path
         id="path4663"
         d="m 135.96971,276.1077 1.12253,9.63507 c 1.82412,2.22168 4.67722,1.80072 6.01022,0.70158 l 1.75396,-11.085"
         style="fill:none;stroke:#000000;stroke-width:1;stroke-linecap:butt;stroke-linejoin:miter;stroke-miterlimit:4;stroke-dasharray:none;stroke-opacity:1" />
      <path
         style="fill:none;stroke:#000000;stroke-width:1;stroke-linecap:butt;stroke-linejoin:miter;stroke-miterlimit:4;stroke-dasharray:none;stroke-opacity:1"
         d="m 21.264809,248.597 1.262849,10.68744 c 1.824115,2.22168 4.677217,1.80072 6.010224,0.70158 l 1.473322,-9.37782"
         id="path4665" />
      <path
         style="fill:none;stroke:#000000;stroke-width:1;stroke-linecap:butt;stroke-linejoin:miter;stroke-miterlimit:4;stroke-dasharray:none;stroke-opacity:1"
         d="m 170.03481,256.85926 0.39493,3.54965 c 1.82413,2.22168 4.67723,1.80072 6.01023,0.70158 l 1.55552,-10.55583"
         id="path4667" />
      <g
         transform="translate(106.70931,153.06441)"
         id="g4738">
        <path
           style="fill:none;stroke:#000000;stroke-width:0.5;stroke-linecap:butt;stroke-linejoin:miter;stroke-miterlimit:4;stroke-dasharray:none;stroke-opacity:1"
           d="m 50.132365,67.116693 3.175,-9.128126 c 6.570486,-4.101042 12.414651,-7.735162 19.711458,-12.303125 v 7.540625 z"
           id="path4669" />
        <path
           style="fill:none;stroke:#000000;stroke-width:0.5;stroke-linecap:butt;stroke-linejoin:miter;stroke-miterlimit:4;stroke-dasharray:none;stroke-opacity:1"
           d="M 49.801636,67.414353 29.627158,63.445598"
           id="path4671" />
        <path
           style="fill:none;stroke:#000000;stroke-width:1.88976383;stroke-linecap:butt;stroke-linejoin:miter;stroke-miterlimit:4;stroke-dasharray:none;stroke-opacity:1"
           d="m 167.39253,205.79415 -54.16587,32.87524 v 0 l 12,-34.50001 8.12683,-5.07245"
           id="path4704"
           transform="scale(0.26458333)" />
        <path
           style="fill:none;stroke:#000000;stroke-width:1.88976383;stroke-linecap:butt;stroke-linejoin:miter;stroke-miterlimit:4;stroke-dasharray:none;stroke-opacity:1"
           d="m 257.08811,167.73127 19.70105,3.87562"
           id="path4711"
           transform="scale(0.26458333)" />
        <path
           id="path4683"
           d="m 50.132365,55.236562 3.175,-9.128126 19.711458,-12.303125 v 7.540625 z"
           style="fill:none;stroke:#000000;stroke-width:0.5;stroke-linecap:butt;stroke-linejoin:miter;stroke-miterlimit:4;stroke-dasharray:none;stroke-opacity:1" />
        <path
           id="path4685"
           d="M 49.801636,55.534222 29.627158,51.565467"
           style="fill:none;stroke:#000000;stroke-width:0.5;stroke-linecap:butt;stroke-linejoin:miter;stroke-miterlimit:4;stroke-dasharray:none;stroke-opacity:1" />
        <path
           style="fill:none;stroke:#000000;stroke-width:0.5;stroke-linecap:butt;stroke-linejoin:miter;stroke-miterlimit:4;stroke-dasharray:none;stroke-opacity:1"
           d="m 29.957886,51.267811 3.175,-9.128126 19.711459,-12.303125 v 7.540625 z"
           id="path4687" />
        <path
           id="path4689"
           d="m 53.059319,29.555441 20.174479,3.96875"
           style="fill:none;stroke:#000000;stroke-width:0.5;stroke-linecap:butt;stroke-linejoin:miter;stroke-miterlimit:4;stroke-dasharray:none;stroke-opacity:1" />
        <path
           style="fill:none;stroke:#000000;stroke-width:0.5;stroke-linecap:butt;stroke-linejoin:miter;stroke-miterlimit:4;stroke-dasharray:none;stroke-opacity:1"
           d="m 52.844345,37.377184 10.71903,2.282352"
           id="path4713" />
        <path
           style="fill:none;stroke:#000000;stroke-width:1.88976383;stroke-linecap:butt;stroke-linejoin:miter;stroke-miterlimit:4;stroke-dasharray:none;stroke-opacity:1"
           d="m 222.88441,188.64425 20.50447,4.36592"
           id="path4715"
           transform="scale(0.26458333)" />
        <path
           style="fill:none;stroke:#000000;stroke-width:0.75;stroke-linecap:butt;stroke-linejoin:miter;stroke-miterlimit:4;stroke-dasharray:none;stroke-opacity:1"
           d="m 57.679166,50.570027 v 4.66695"
           id="path4722" />
        <path
           id="path4724"
           d="m 68.021228,44.378898 v 4.39801"
           style="fill:none;stroke:#000000;stroke-width:0.75;stroke-linecap:butt;stroke-linejoin:miter;stroke-miterlimit:4;stroke-dasharray:none;stroke-opacity:1" />
      </g>
    </g>
    <g
       id="g6910"
       transform="matrix(0.86132372,0.19044013,-0.72719084,0.65552096,136.38116,68.656093)">
      <rect
         y="169.51244"
         x="116.79678"
         height="25.123335"
         width="18.441597"
         id="rect6907"
         style="opacity:1;fill:none;fill-opacity:1;stroke:#000000;stroke-width:0.75;stroke-linecap:round;stroke-miterlimit:4;stroke-dasharray:none;stroke-dashoffset:0;stroke-opacity:1" />
    </g>
    <path
       style="fill:none;stroke:#000000;stroke-width:2;stroke-linecap:butt;stroke-linejoin:miter;stroke-miterlimit:1;stroke-dasharray:none;stroke-opacity:1;marker-start:url(#Arrow2Mstart);marker-end:url(#Arrow2Mend)"
       d="m 126.15122,216.41823 c 32.83634,9.15776 51.1956,-5.03105 58.33517,-8.13435"
       id="path6912" />
    <path
       id="path8414"
       d="m 34.344137,139.57824 c 13.363474,47.70762 61.739258,69.62372 61.739258,69.62372"
       style="fill:none;stroke:#000000;stroke-width:2;stroke-linecap:butt;stroke-linejoin:miter;stroke-miterlimit:1;stroke-dasharray:none;stroke-opacity:1;marker-start:url(#marker8418);marker-end:url(#marker8458)" />
    <text
       xml:space="preserve"
       style="font-style:normal;font-weight:normal;font-size:4.93888855px;line-height:6.61458302px;font-family:sans-serif;letter-spacing:0px;word-spacing:0px;fill:#000000;fill-opacity:1;stroke:none;stroke-width:0.26458332"
       x="118.82168"
       y="188.63048"
       id="text16637"><tspan
         id="tspan16635"
         x="118.82168"
         y="188.63048"
         style="font-size:8.46666622px;stroke-width:0.26458332">Transformation</tspan></text>
    <text
       xml:space="preserve"
       style="font-style:normal;font-weight:normal;font-size:4.93888855px;line-height:6.61458302px;font-family:sans-serif;letter-spacing:0px;word-spacing:0px;fill:#000000;fill-opacity:1;stroke:none;stroke-width:0.26458332"
       x="56.280609"
       y="172.5943"
       id="text16641"><tspan
         id="tspan16639"
         x="56.280609"
         y="172.5943"
         style="font-size:8.46666622px;stroke-width:0.26458332">Action</tspan></text>
  </g>
</svg>
